<svg width="92" height="55" viewBox="0 0 92 55" fill="none" xmlns="http://www.w3.org/2000/svg">
<rect width="92" height="55" rx="6" fill="white"/>
<g clip-path="url(#clip0_9_162)">
<path fill-rule="evenodd" clip-rule="evenodd" d="M31.5 15.5H22.5V18.5H31.5V15.5ZM22.5 15H22V15.5V16.75H15H14.75V17.25H15H22V18.5V19H22.5H31.5H32V18.5V17.25H39H39.25V16.75H39H32V15.5V15H31.5H22.5Z" fill="black"/>
</g>
<g clip-path="url(#clip1_9_162)">
<path fill-rule="evenodd" clip-rule="evenodd" d="M31.5 42.5H22.5V45.5H31.5V42.5ZM22.5 42H22V42.5V43.75H15H14.75V44.25H15H22V45.5V46H22.5H31.5H32V45.5V44.25H39H39.25V43.75H39H32V42.5V42H31.5H22.5Z" fill="black"/>
</g>
<g clip-path="url(#clip2_9_162)">
<path fill-rule="evenodd" clip-rule="evenodd" d="M13.5 36.5L13.5 27.5L10.5 27.5L10.5 36.5L13.5 36.5ZM14 27.5L14 27L13.5 27L12.25 27L12.25 20L12.25 19.75L11.75 19.75L11.75 20L11.75 27L10.5 27L10 27L10 27.5L10 36.5L10 37L10.5 37L11.75 37L11.75 44L11.75 44.25L12.25 44.25L12.25 44L12.25 37L13.5 37L14 37L14 36.5L14 27.5Z" fill="black"/>
</g>
<g clip-path="url(#clip3_9_162)">
<path fill-rule="evenodd" clip-rule="evenodd" d="M43.5 36.5L43.5 27.5L40.5 27.5L40.5 36.5L43.5 36.5ZM44 27.5L44 27L43.5 27L42.25 27L42.25 20L42.25 19.75L41.75 19.75L41.75 20L41.75 27L40.5 27L40 27L40 27.5L40 36.5L40 37L40.5 37L41.75 37L41.75 44L41.75 44.25L42.25 44.25L42.25 44L42.25 37L43.5 37L44 37L44 36.5L44 27.5Z" fill="black"/>
</g>
<g clip-path="url(#clip4_9_162)">
<path fill-rule="evenodd" clip-rule="evenodd" d="M71.5 19L62.5 19L62.5 22L71.5 22V19ZM62.5 18.5H62V19V20.25L55 20.25H54.75L54.75 20.75H55L62 20.75L62 22V22.5H62.5L71.5 22.5H72V22V20.75L79 20.75L79.25 20.75V20.25L79 20.25L72 20.25V19V18.5H71.5L62.5 18.5Z" fill="black"/>
</g>
<g clip-path="url(#clip5_9_162)">
<path fill-rule="evenodd" clip-rule="evenodd" d="M50.5 36.5L50.5 27.5L47.5 27.5L47.5 36.5L50.5 36.5ZM51 27.5L51 27L50.5 27L49.25 27L49.25 20L49.25 19.75L48.75 19.75L48.75 20L48.75 27L47.5 27L47 27L47 27.5L47 36.5L47 37L47.5 37L48.75 37L48.75 44L48.75 44.25L49.25 44.25L49.25 44L49.25 37L50.5 37L51 37L51 36.5L51 27.5Z" fill="black"/>
</g>
<g clip-path="url(#clip6_9_162)">
<path fill-rule="evenodd" clip-rule="evenodd" d="M71.5 12L62.5 12L62.5 15L71.5 15L71.5 12ZM62.5 11.5H62V12V13.25L55 13.25H54.75L54.75 13.75H55L62 13.75L62 15V15.5L62.5 15.5L71.5 15.5L72 15.5V15V13.75L79 13.75L79.25 13.75L79.25 13.25L79 13.25L72 13.25V12V11.5L71.5 11.5L62.5 11.5Z" fill="black"/>
</g>
<circle cx="8" cy="13" r="1" fill="black"/>
<circle cx="85" cy="13" r="1" fill="black"/>
<circle cx="79" cy="17" r="1" fill="black"/>
<circle cx="55" cy="17" r="1" fill="black"/>
<circle cx="45.5" cy="17" r="1" fill="black"/>
<circle cx="45.5" cy="20" r="1" fill="black"/>
<circle cx="42" cy="44" r="1" fill="black"/>
<circle cx="12" cy="17" r="1" fill="black"/>
<path d="M79 20.5L79 13.5" stroke="black" stroke-width="0.5"/>
<path d="M42 20H49" stroke="black" stroke-width="0.5"/>
<path d="M55 20.5L55 13.5" stroke="black" stroke-width="0.5"/>
<path d="M42 41V44H36" stroke="black" stroke-width="0.5"/>
<path d="M79 17L82 17" stroke="black" stroke-width="0.5"/>
<path d="M45.5 20V17H39" stroke="black" stroke-width="0.5"/>
<path d="M55 17H45" stroke="black" stroke-width="0.5"/>
<path d="M12 20V17H16" stroke="black" stroke-width="0.5"/>
<path d="M8 13V17H12" stroke="black" stroke-width="0.5"/>
<path d="M82 17H85V13" stroke="black" stroke-width="0.5"/>
<path d="M12 44H15" stroke="black" stroke-width="0.5"/>
<path d="M42 44H49" stroke="black" stroke-width="0.5"/>
<path d="M25.3523 13V10.0909H26.3352C26.5625 10.0909 26.7491 10.1297 26.8949 10.2074C27.0407 10.2841 27.1487 10.3897 27.2188 10.5241C27.2888 10.6586 27.3239 10.8116 27.3239 10.983C27.3239 11.1544 27.2888 11.3063 27.2188 11.4389C27.1487 11.5715 27.0412 11.6757 26.8963 11.7514C26.7514 11.8262 26.5663 11.8636 26.3409 11.8636H25.5455V11.5455H26.3295C26.4848 11.5455 26.6098 11.5227 26.7045 11.4773C26.8002 11.4318 26.8693 11.3674 26.9119 11.2841C26.9555 11.1998 26.9773 11.0994 26.9773 10.983C26.9773 10.8665 26.9555 10.7647 26.9119 10.6776C26.8684 10.5904 26.7988 10.5232 26.7031 10.4759C26.6075 10.4276 26.4811 10.4034 26.3239 10.4034H25.7045V13H25.3523ZM26.7216 11.6932L27.4375 13H27.0284L26.3239 11.6932H26.7216ZM28.8825 10.0909V13H28.5302V10.4602H28.5131L27.8029 10.9318V10.5739L28.5302 10.0909H28.8825Z" fill="black"/>
<path d="M25.3523 40V37.0909H26.3352C26.5625 37.0909 26.7491 37.1297 26.8949 37.2074C27.0407 37.2841 27.1487 37.3897 27.2188 37.5241C27.2888 37.6586 27.3239 37.8116 27.3239 37.983C27.3239 38.1544 27.2888 38.3063 27.2188 38.4389C27.1487 38.5715 27.0412 38.6757 26.8963 38.7514C26.7514 38.8262 26.5663 38.8636 26.3409 38.8636H25.5455V38.5455H26.3295C26.4848 38.5455 26.6098 38.5227 26.7045 38.4773C26.8002 38.4318 26.8693 38.3674 26.9119 38.2841C26.9555 38.1998 26.9773 38.0994 26.9773 37.983C26.9773 37.8665 26.9555 37.7647 26.9119 37.6776C26.8684 37.5904 26.7988 37.5232 26.7031 37.4759C26.6075 37.4276 26.4811 37.4034 26.3239 37.4034H25.7045V40H25.3523ZM26.7216 38.6932L27.4375 40H27.0284L26.3239 38.6932H26.7216ZM28.8427 40.0398C28.6552 40.0398 28.488 40.0076 28.3413 39.9432C28.1954 39.8788 28.0794 39.7893 27.9933 39.6747C27.908 39.5592 27.8616 39.4252 27.854 39.2727H28.212C28.2196 39.3665 28.2518 39.4474 28.3086 39.5156C28.3654 39.5829 28.4397 39.6349 28.5316 39.6719C28.6235 39.7088 28.7253 39.7273 28.837 39.7273C28.962 39.7273 29.0728 39.7055 29.1694 39.6619C29.266 39.6184 29.3417 39.5578 29.3967 39.4801C29.4516 39.4025 29.479 39.3125 29.479 39.2102C29.479 39.1032 29.4525 39.009 29.3995 38.9276C29.3465 38.8452 29.2688 38.7808 29.1665 38.7344C29.0643 38.688 28.9393 38.6648 28.7915 38.6648H28.5586V38.3523H28.7915C28.9071 38.3523 29.0084 38.3314 29.0955 38.2898C29.1836 38.2481 29.2522 38.1894 29.3015 38.1136C29.3517 38.0379 29.3768 37.9489 29.3768 37.8466C29.3768 37.7481 29.355 37.6624 29.3114 37.5895C29.2679 37.5166 29.2063 37.4598 29.1268 37.419C29.0482 37.3783 28.9554 37.358 28.8484 37.358C28.748 37.358 28.6533 37.3764 28.5643 37.4134C28.4762 37.4493 28.4042 37.5019 28.3484 37.571C28.2925 37.6392 28.2622 37.7216 28.2575 37.8182H27.9165C27.9222 37.6657 27.9682 37.5322 28.0543 37.4176C28.1405 37.3021 28.2532 37.2121 28.3924 37.1477C28.5326 37.0833 28.6864 37.0511 28.854 37.0511C29.034 37.0511 29.1883 37.0876 29.3171 37.1605C29.4459 37.2325 29.5449 37.3277 29.614 37.446C29.6831 37.5644 29.7177 37.6922 29.7177 37.8295C29.7177 37.9934 29.6746 38.133 29.5884 38.2486C29.5032 38.3641 29.3872 38.4441 29.2404 38.4886V38.5114C29.4241 38.5417 29.5676 38.6198 29.6708 38.7457C29.774 38.8707 29.8256 39.0256 29.8256 39.2102C29.8256 39.3684 29.7826 39.5104 29.6964 39.6364C29.6112 39.7614 29.4947 39.8598 29.3469 39.9318C29.1992 40.0038 29.0311 40.0398 28.8427 40.0398Z" fill="black"/>
<path d="M33.3523 33V30.0909H34.3352C34.5625 30.0909 34.7491 30.1297 34.8949 30.2074C35.0407 30.2841 35.1487 30.3897 35.2188 30.5241C35.2888 30.6586 35.3239 30.8116 35.3239 30.983C35.3239 31.1544 35.2888 31.3063 35.2188 31.4389C35.1487 31.5715 35.0412 31.6757 34.8963 31.7514C34.7514 31.8262 34.5663 31.8636 34.3409 31.8636H33.5455V31.5455H34.3295C34.4848 31.5455 34.6098 31.5227 34.7045 31.4773C34.8002 31.4318 34.8693 31.3674 34.9119 31.2841C34.9555 31.1998 34.9773 31.0994 34.9773 30.983C34.9773 30.8665 34.9555 30.7647 34.9119 30.6776C34.8684 30.5904 34.7988 30.5232 34.7031 30.4759C34.6075 30.4276 34.4811 30.4034 34.3239 30.4034H33.7045V33H33.3523ZM34.7216 31.6932L35.4375 33H35.0284L34.3239 31.6932H34.7216ZM35.8597 33V32.7443L36.82 31.6932C36.9326 31.5701 37.0254 31.4631 37.0984 31.3722C37.1713 31.2803 37.2253 31.1941 37.2603 31.1136C37.2963 31.0322 37.3143 30.947 37.3143 30.858C37.3143 30.7557 37.2897 30.6671 37.2404 30.5923C37.1921 30.5175 37.1258 30.4598 37.0415 30.419C36.9573 30.3783 36.8626 30.358 36.7575 30.358C36.6457 30.358 36.5482 30.3812 36.4648 30.4276C36.3825 30.473 36.3185 30.5369 36.2731 30.6193C36.2286 30.7017 36.2063 30.7983 36.2063 30.9091H35.8711C35.8711 30.7386 35.9104 30.589 35.989 30.4602C36.0676 30.3314 36.1746 30.2311 36.31 30.1591C36.4464 30.0871 36.5993 30.0511 36.7688 30.0511C36.9393 30.0511 37.0903 30.0871 37.2219 30.1591C37.3536 30.2311 37.4568 30.3281 37.5316 30.4503C37.6064 30.5724 37.6438 30.7083 37.6438 30.858C37.6438 30.965 37.6244 31.0696 37.5856 31.1719C37.5477 31.2732 37.4814 31.3864 37.3867 31.5114C37.293 31.6354 37.1628 31.7869 36.9961 31.9659L36.3427 32.6648V32.6875H37.695V33H35.8597Z" fill="black"/>
<path d="M53.3523 33V30.0909H54.3352C54.5625 30.0909 54.7491 30.1297 54.8949 30.2074C55.0407 30.2841 55.1487 30.3897 55.2188 30.5241C55.2888 30.6586 55.3239 30.8116 55.3239 30.983C55.3239 31.1544 55.2888 31.3063 55.2188 31.4389C55.1487 31.5715 55.0412 31.6757 54.8963 31.7514C54.7514 31.8262 54.5663 31.8636 54.3409 31.8636H53.5455V31.5455H54.3295C54.4848 31.5455 54.6098 31.5227 54.7045 31.4773C54.8002 31.4318 54.8693 31.3674 54.9119 31.2841C54.9555 31.1998 54.9773 31.0994 54.9773 30.983C54.9773 30.8665 54.9555 30.7647 54.9119 30.6776C54.8684 30.5904 54.7988 30.5232 54.7031 30.4759C54.6075 30.4276 54.4811 30.4034 54.3239 30.4034H53.7045V33H53.3523ZM54.7216 31.6932L55.4375 33H55.0284L54.3239 31.6932H54.7216ZM56.7688 33.0398C56.6022 33.0398 56.4521 33.0066 56.3185 32.9403C56.185 32.8741 56.078 32.7831 55.9975 32.6676C55.917 32.5521 55.873 32.4205 55.8654 32.2727H56.2063C56.2196 32.4044 56.2792 32.5133 56.3853 32.5994C56.4923 32.6847 56.6201 32.7273 56.7688 32.7273C56.8881 32.7273 56.9942 32.6993 57.087 32.6435C57.1808 32.5876 57.2541 32.5109 57.3072 32.4134C57.3612 32.3149 57.3881 32.2036 57.3881 32.0795C57.3881 31.9527 57.3602 31.8395 57.3043 31.7401C57.2494 31.6397 57.1737 31.5606 57.0771 31.5028C56.9805 31.4451 56.8701 31.4157 56.7461 31.4148C56.6571 31.4138 56.5657 31.4276 56.4719 31.456C56.3782 31.4834 56.301 31.5189 56.2404 31.5625L55.9109 31.5227L56.087 30.0909H57.5984V30.4034H56.3825L56.2802 31.2614H56.2972C56.3569 31.214 56.4317 31.1747 56.5217 31.1435C56.6116 31.1122 56.7054 31.0966 56.8029 31.0966C56.9809 31.0966 57.1396 31.1392 57.2788 31.2244C57.4189 31.3087 57.5288 31.4242 57.6083 31.571C57.6888 31.7178 57.729 31.8854 57.729 32.0739C57.729 32.2595 57.6874 32.4252 57.604 32.571C57.5217 32.7159 57.408 32.8305 57.2631 32.9148C57.1183 32.9981 56.9535 33.0398 56.7688 33.0398Z" fill="black"/>
<path d="M64.3523 28V25.0909H65.3352C65.5625 25.0909 65.7491 25.1297 65.8949 25.2074C66.0407 25.2841 66.1487 25.3897 66.2188 25.5241C66.2888 25.6586 66.3239 25.8116 66.3239 25.983C66.3239 26.1544 66.2888 26.3063 66.2188 26.4389C66.1487 26.5715 66.0412 26.6757 65.8963 26.7514C65.7514 26.8262 65.5663 26.8636 65.3409 26.8636H64.5455V26.5455H65.3295C65.4848 26.5455 65.6098 26.5227 65.7045 26.4773C65.8002 26.4318 65.8693 26.3674 65.9119 26.2841C65.9555 26.1998 65.9773 26.0994 65.9773 25.983C65.9773 25.8665 65.9555 25.7647 65.9119 25.6776C65.8684 25.5904 65.7988 25.5232 65.7031 25.4759C65.6075 25.4276 65.4811 25.4034 65.3239 25.4034H64.7045V28H64.3523ZM65.7216 26.6932L66.4375 28H66.0284L65.3239 26.6932H65.7216ZM67.8256 28.0398C67.7063 28.0379 67.587 28.0152 67.4677 27.9716C67.3484 27.928 67.2395 27.8546 67.141 27.7514C67.0425 27.6473 66.9634 27.5066 66.9038 27.3295C66.8441 27.1515 66.8143 26.928 66.8143 26.6591C66.8143 26.4015 66.8384 26.1733 66.8867 25.9744C66.935 25.7746 67.0051 25.6065 67.0969 25.4702C67.1888 25.3329 67.2996 25.2287 67.4293 25.1577C67.56 25.0866 67.7073 25.0511 67.8711 25.0511C68.034 25.0511 68.1789 25.0838 68.3058 25.1491C68.4336 25.2135 68.5378 25.3035 68.6183 25.419C68.6987 25.5346 68.7508 25.6676 68.7745 25.8182H68.4279C68.3957 25.6875 68.3332 25.5791 68.2404 25.4929C68.1476 25.4067 68.0245 25.3636 67.8711 25.3636C67.6457 25.3636 67.4682 25.4616 67.3384 25.6577C67.2096 25.8537 67.1448 26.1288 67.1438 26.483H67.1665C67.2196 26.4025 67.2826 26.3338 67.3555 26.277C67.4293 26.2192 67.5108 26.1747 67.5998 26.1435C67.6888 26.1122 67.783 26.0966 67.8825 26.0966C68.0491 26.0966 68.2016 26.1383 68.3398 26.2216C68.4781 26.304 68.5889 26.4181 68.6722 26.5639C68.7556 26.7088 68.7972 26.875 68.7972 27.0625C68.7972 27.2424 68.757 27.4072 68.6765 27.5568C68.596 27.7055 68.4828 27.8239 68.337 27.9119C68.1921 27.9991 68.0217 28.0417 67.8256 28.0398ZM67.8256 27.7273C67.945 27.7273 68.052 27.6974 68.1467 27.6378C68.2423 27.5781 68.3176 27.4981 68.3725 27.3977C68.4284 27.2973 68.4563 27.1856 68.4563 27.0625C68.4563 26.9422 68.4293 26.8329 68.3754 26.7344C68.3223 26.6349 68.2489 26.5559 68.1552 26.4972C68.0624 26.4384 67.9563 26.4091 67.837 26.4091C67.747 26.4091 67.6632 26.4271 67.5856 26.4631C67.5079 26.4981 67.4397 26.5464 67.381 26.608C67.3233 26.6695 67.2778 26.7401 67.2447 26.8196C67.2115 26.8982 67.195 26.9811 67.195 27.0682C67.195 27.1837 67.2219 27.2917 67.2759 27.392C67.3308 27.4924 67.4057 27.5734 67.5004 27.6349C67.596 27.6965 67.7044 27.7273 67.8256 27.7273Z" fill="black"/>
<path d="M64.3523 9V6.09091H65.3352C65.5625 6.09091 65.7491 6.12973 65.8949 6.20739C66.0407 6.28409 66.1487 6.38968 66.2188 6.52415C66.2888 6.65862 66.3239 6.81155 66.3239 6.98295C66.3239 7.15436 66.2888 7.30634 66.2188 7.43892C66.1487 7.5715 66.0412 7.67566 65.8963 7.75142C65.7514 7.82623 65.5663 7.86364 65.3409 7.86364H64.5455V7.54545H65.3295C65.4848 7.54545 65.6098 7.52273 65.7045 7.47727C65.8002 7.43182 65.8693 7.36742 65.9119 7.28409C65.9555 7.19981 65.9773 7.09943 65.9773 6.98295C65.9773 6.86648 65.9555 6.76468 65.9119 6.67756C65.8684 6.59044 65.7988 6.5232 65.7031 6.47585C65.6075 6.42756 65.4811 6.40341 65.3239 6.40341H64.7045V9H64.3523ZM65.7216 7.69318L66.4375 9H66.0284L65.3239 7.69318H65.7216ZM66.9506 9L68.2518 6.42614V6.40341H66.7518V6.09091H68.6154V6.42045L67.32 9H66.9506Z" fill="black"/>
<path d="M16.3523 33V30.0909H17.3352C17.5625 30.0909 17.7491 30.1297 17.8949 30.2074C18.0407 30.2841 18.1487 30.3897 18.2188 30.5241C18.2888 30.6586 18.3239 30.8116 18.3239 30.983C18.3239 31.1544 18.2888 31.3063 18.2188 31.4389C18.1487 31.5715 18.0412 31.6757 17.8963 31.7514C17.7514 31.8262 17.5663 31.8636 17.3409 31.8636H16.5455V31.5455H17.3295C17.4848 31.5455 17.6098 31.5227 17.7045 31.4773C17.8002 31.4318 17.8693 31.3674 17.9119 31.2841C17.9555 31.1998 17.9773 31.0994 17.9773 30.983C17.9773 30.8665 17.9555 30.7647 17.9119 30.6776C17.8684 30.5904 17.7988 30.5232 17.7031 30.4759C17.6075 30.4276 17.4811 30.4034 17.3239 30.4034H16.7045V33H16.3523ZM17.7216 31.6932L18.4375 33H18.0284L17.3239 31.6932H17.7216ZM18.7915 32.4034V32.1136L20.07 30.0909H20.2802V30.5398H20.1381L19.1722 32.0682V32.0909H20.8938V32.4034H18.7915ZM20.1609 33V32.3153V32.1804V30.0909H20.4961V33H20.1609Z" fill="black"/>
<path d="M6 15L10 11" stroke="black" stroke-width="0.5"/>
<path d="M83 15L87 11" stroke="black" stroke-width="0.5"/>
<defs>
<clipPath id="clip0_9_162">
<rect width="24" height="4" fill="white" transform="translate(15 15)"/>
</clipPath>
<clipPath id="clip1_9_162">
<rect width="24" height="4" fill="white" transform="translate(15 42)"/>
</clipPath>
<clipPath id="clip2_9_162">
<rect width="24" height="4" fill="white" transform="translate(14 20) rotate(90)"/>
</clipPath>
<clipPath id="clip3_9_162">
<rect width="24" height="4" fill="white" transform="translate(44 20) rotate(90)"/>
</clipPath>
<clipPath id="clip4_9_162">
<rect width="24" height="4" fill="white" transform="translate(55 18.5)"/>
</clipPath>
<clipPath id="clip5_9_162">
<rect width="24" height="4" fill="white" transform="translate(51 20) rotate(90)"/>
</clipPath>
<clipPath id="clip6_9_162">
<rect width="24" height="4" fill="white" transform="translate(55 11.5)"/>
</clipPath>
</defs>
</svg>
