<svg width="92" height="55" viewBox="0 0 92 55" fill="none" xmlns="http://www.w3.org/2000/svg">
<rect width="92" height="55" rx="6" fill="white"/>
<g clip-path="url(#clip0_15_226)">
<path fill-rule="evenodd" clip-rule="evenodd" d="M71.5 19L62.5 19L62.5 22L71.5 22V19ZM62.5 18.5H62V19V20.25L55 20.25H54.75L54.75 20.75H55L62 20.75L62 22V22.5H62.5L71.5 22.5L72 22.5V22V20.75L79 20.75H79.25V20.25H79L72 20.25V19V18.5L71.5 18.5L62.5 18.5Z" fill="black"/>
</g>
<g clip-path="url(#clip1_15_226)">
<path fill-rule="evenodd" clip-rule="evenodd" d="M29.5 19L20.5 19L20.5 22L29.5 22L29.5 19ZM20.5 18.5H20V19L20 20.25L13 20.25H12.75V20.75H13L20 20.75L20 22V22.5H20.5L29.5 22.5H30V22L30 20.75L37 20.75H37.25V20.25H37L30 20.25L30 19V18.5H29.5L20.5 18.5Z" fill="black"/>
</g>
<g clip-path="url(#clip2_15_226)">
<path fill-rule="evenodd" clip-rule="evenodd" d="M71.5 12L62.5 12L62.5 15L71.5 15V12ZM62.5 11.5H62V12V13.25L55 13.25H54.75L54.75 13.75H55L62 13.75L62 15V15.5L62.5 15.5L71.5 15.5L72 15.5V15V13.75L79 13.75H79.25V13.25L79 13.25L72 13.25V12V11.5L71.5 11.5L62.5 11.5Z" fill="black"/>
</g>
<g clip-path="url(#clip3_15_226)">
<path fill-rule="evenodd" clip-rule="evenodd" d="M29.5 12L20.5 12L20.5 15L29.5 15L29.5 12ZM20.5 11.5H20V12L20 13.25L13 13.25H12.75V13.75H13L20 13.75L20 15V15.5L20.5 15.5L29.5 15.5L30 15.5V15L30 13.75L37 13.75H37.25V13.25L37 13.25L30 13.25L30 12V11.5L29.5 11.5L20.5 11.5Z" fill="black"/>
</g>
<circle cx="8" cy="13" r="1" fill="black"/>
<circle cx="85" cy="13" r="1" fill="black"/>
<circle cx="79" cy="17" r="1" fill="black"/>
<circle cx="37" cy="17" r="1" fill="black"/>
<circle cx="55" cy="17" r="1" fill="black"/>
<circle cx="13" cy="17" r="1" fill="black"/>
<path d="M79 20.5L79 13.5" stroke="black" stroke-width="0.5"/>
<path d="M37 20.5L37 13.5" stroke="black" stroke-width="0.5"/>
<path d="M55 20.5L55 13.5" stroke="black" stroke-width="0.5"/>
<path d="M13 20.5L13 13.5" stroke="black" stroke-width="0.5"/>
<path d="M79 17L82 17" stroke="black" stroke-width="0.5"/>
<path d="M37 17L55 17" stroke="black" stroke-width="0.5"/>
<path d="M8 13V17H12" stroke="black" stroke-width="0.5"/>
<path d="M82 17H85V13" stroke="black" stroke-width="0.5"/>
<path d="M22.3523 9V6.09091H23.3352C23.5625 6.09091 23.7491 6.12973 23.8949 6.20739C24.0407 6.28409 24.1487 6.38968 24.2188 6.52415C24.2888 6.65862 24.3239 6.81155 24.3239 6.98295C24.3239 7.15436 24.2888 7.30634 24.2188 7.43892C24.1487 7.5715 24.0412 7.67566 23.8963 7.75142C23.7514 7.82623 23.5663 7.86364 23.3409 7.86364H22.5455V7.54545H23.3295C23.4848 7.54545 23.6098 7.52273 23.7045 7.47727C23.8002 7.43182 23.8693 7.36742 23.9119 7.28409C23.9555 7.19981 23.9773 7.09943 23.9773 6.98295C23.9773 6.86648 23.9555 6.76468 23.9119 6.67756C23.8684 6.59044 23.7988 6.5232 23.7031 6.47585C23.6075 6.42756 23.4811 6.40341 23.3239 6.40341H22.7045V9H22.3523ZM23.7216 7.69318L24.4375 9H24.0284L23.3239 7.69318H23.7216ZM25.8825 6.09091V9H25.5302V6.46023H25.5131L24.8029 6.93182V6.57386L25.5302 6.09091H25.8825Z" fill="black"/>
<path d="M64.3523 28V25.0909H65.3352C65.5625 25.0909 65.7491 25.1297 65.8949 25.2074C66.0407 25.2841 66.1487 25.3897 66.2188 25.5241C66.2888 25.6586 66.3239 25.8116 66.3239 25.983C66.3239 26.1544 66.2888 26.3063 66.2188 26.4389C66.1487 26.5715 66.0412 26.6757 65.8963 26.7514C65.7514 26.8262 65.5663 26.8636 65.3409 26.8636H64.5455V26.5455H65.3295C65.4848 26.5455 65.6098 26.5227 65.7045 26.4773C65.8002 26.4318 65.8693 26.3674 65.9119 26.2841C65.9555 26.1998 65.9773 26.0994 65.9773 25.983C65.9773 25.8665 65.9555 25.7647 65.9119 25.6776C65.8684 25.5904 65.7988 25.5232 65.7031 25.4759C65.6075 25.4276 65.4811 25.4034 65.3239 25.4034H64.7045V28H64.3523ZM65.7216 26.6932L66.4375 28H66.0284L65.3239 26.6932H65.7216ZM67.8256 28.0398C67.7063 28.0379 67.587 28.0152 67.4677 27.9716C67.3484 27.928 67.2395 27.8546 67.141 27.7514C67.0425 27.6473 66.9634 27.5066 66.9038 27.3295C66.8441 27.1515 66.8143 26.928 66.8143 26.6591C66.8143 26.4015 66.8384 26.1733 66.8867 25.9744C66.935 25.7746 67.0051 25.6065 67.0969 25.4702C67.1888 25.3329 67.2996 25.2287 67.4293 25.1577C67.56 25.0866 67.7073 25.0511 67.8711 25.0511C68.034 25.0511 68.1789 25.0838 68.3058 25.1491C68.4336 25.2135 68.5378 25.3035 68.6183 25.419C68.6987 25.5346 68.7508 25.6676 68.7745 25.8182H68.4279C68.3957 25.6875 68.3332 25.5791 68.2404 25.4929C68.1476 25.4067 68.0245 25.3636 67.8711 25.3636C67.6457 25.3636 67.4682 25.4616 67.3384 25.6577C67.2096 25.8537 67.1448 26.1288 67.1438 26.483H67.1665C67.2196 26.4025 67.2826 26.3338 67.3555 26.277C67.4293 26.2192 67.5108 26.1747 67.5998 26.1435C67.6888 26.1122 67.783 26.0966 67.8825 26.0966C68.0491 26.0966 68.2016 26.1383 68.3398 26.2216C68.4781 26.304 68.5889 26.4181 68.6722 26.5639C68.7556 26.7088 68.7972 26.875 68.7972 27.0625C68.7972 27.2424 68.757 27.4072 68.6765 27.5568C68.596 27.7055 68.4828 27.8239 68.337 27.9119C68.1921 27.9991 68.0217 28.0417 67.8256 28.0398ZM67.8256 27.7273C67.945 27.7273 68.052 27.6974 68.1467 27.6378C68.2423 27.5781 68.3176 27.4981 68.3725 27.3977C68.4284 27.2973 68.4563 27.1856 68.4563 27.0625C68.4563 26.9422 68.4293 26.8329 68.3754 26.7344C68.3223 26.6349 68.2489 26.5559 68.1552 26.4972C68.0624 26.4384 67.9563 26.4091 67.837 26.4091C67.747 26.4091 67.6632 26.4271 67.5856 26.4631C67.5079 26.4981 67.4397 26.5464 67.381 26.608C67.3233 26.6695 67.2778 26.7401 67.2447 26.8196C67.2115 26.8982 67.195 26.9811 67.195 27.0682C67.195 27.1837 67.2219 27.2917 67.2759 27.392C67.3308 27.4924 67.4057 27.5734 67.5004 27.6349C67.596 27.6965 67.7044 27.7273 67.8256 27.7273Z" fill="black"/>
<path d="M64.3523 9V6.09091H65.3352C65.5625 6.09091 65.7491 6.12973 65.8949 6.20739C66.0407 6.28409 66.1487 6.38968 66.2188 6.52415C66.2888 6.65862 66.3239 6.81155 66.3239 6.98295C66.3239 7.15436 66.2888 7.30634 66.2188 7.43892C66.1487 7.5715 66.0412 7.67566 65.8963 7.75142C65.7514 7.82623 65.5663 7.86364 65.3409 7.86364H64.5455V7.54545H65.3295C65.4848 7.54545 65.6098 7.52273 65.7045 7.47727C65.8002 7.43182 65.8693 7.36742 65.9119 7.28409C65.9555 7.19981 65.9773 7.09943 65.9773 6.98295C65.9773 6.86648 65.9555 6.76468 65.9119 6.67756C65.8684 6.59044 65.7988 6.5232 65.7031 6.47585C65.6075 6.42756 65.4811 6.40341 65.3239 6.40341H64.7045V9H64.3523ZM65.7216 7.69318L66.4375 9H66.0284L65.3239 7.69318H65.7216ZM66.9506 9L68.2518 6.42614V6.40341H66.7518V6.09091H68.6154V6.42045L67.32 9H66.9506Z" fill="black"/>
<path d="M18.3523 28V25.0909H19.3352C19.5625 25.0909 19.7491 25.1297 19.8949 25.2074C20.0407 25.2841 20.1487 25.3897 20.2188 25.5241C20.2888 25.6586 20.3239 25.8116 20.3239 25.983C20.3239 26.1544 20.2888 26.3063 20.2188 26.4389C20.1487 26.5715 20.0412 26.6757 19.8963 26.7514C19.7514 26.8262 19.5663 26.8636 19.3409 26.8636H18.5455V26.5455H19.3295C19.4848 26.5455 19.6098 26.5227 19.7045 26.4773C19.8002 26.4318 19.8693 26.3674 19.9119 26.2841C19.9555 26.1998 19.9773 26.0994 19.9773 25.983C19.9773 25.8665 19.9555 25.7647 19.9119 25.6776C19.8684 25.5904 19.7988 25.5232 19.7031 25.4759C19.6075 25.4276 19.4811 25.4034 19.3239 25.4034H18.7045V28H18.3523ZM19.7216 26.6932L20.4375 28H20.0284L19.3239 26.6932H19.7216ZM20.8597 28V27.7443L21.82 26.6932C21.9326 26.5701 22.0254 26.4631 22.0984 26.3722C22.1713 26.2803 22.2253 26.1941 22.2603 26.1136C22.2963 26.0322 22.3143 25.947 22.3143 25.858C22.3143 25.7557 22.2897 25.6671 22.2404 25.5923C22.1921 25.5175 22.1258 25.4598 22.0415 25.419C21.9573 25.3783 21.8626 25.358 21.7575 25.358C21.6457 25.358 21.5482 25.3812 21.4648 25.4276C21.3825 25.473 21.3185 25.5369 21.2731 25.6193C21.2286 25.7017 21.2063 25.7983 21.2063 25.9091H20.8711C20.8711 25.7386 20.9104 25.589 20.989 25.4602C21.0676 25.3314 21.1746 25.2311 21.31 25.1591C21.4464 25.0871 21.5993 25.0511 21.7688 25.0511C21.9393 25.0511 22.0903 25.0871 22.2219 25.1591C22.3536 25.2311 22.4568 25.3281 22.5316 25.4503C22.6064 25.5724 22.6438 25.7083 22.6438 25.858C22.6438 25.965 22.6244 26.0696 22.5856 26.1719C22.5477 26.2732 22.4814 26.3864 22.3867 26.5114C22.293 26.6354 22.1628 26.7869 21.9961 26.9659L21.3427 27.6648V27.6875H22.695V28H20.8597ZM24.2646 28.0398C24.0771 28.0398 23.9099 28.0076 23.7631 27.9432C23.6173 27.8788 23.5013 27.7893 23.4151 27.6747C23.3299 27.5592 23.2835 27.4252 23.2759 27.2727H23.6339C23.6415 27.3665 23.6737 27.4474 23.7305 27.5156C23.7873 27.5829 23.8616 27.6349 23.9535 27.6719C24.0453 27.7088 24.1471 27.7273 24.2589 27.7273C24.3839 27.7273 24.4947 27.7055 24.5913 27.6619C24.6879 27.6184 24.7636 27.5578 24.8185 27.4801C24.8735 27.4025 24.9009 27.3125 24.9009 27.2102C24.9009 27.1032 24.8744 27.009 24.8214 26.9276C24.7683 26.8452 24.6907 26.7808 24.5884 26.7344C24.4862 26.688 24.3612 26.6648 24.2134 26.6648H23.9805V26.3523H24.2134C24.329 26.3523 24.4303 26.3314 24.5174 26.2898C24.6055 26.2481 24.6741 26.1894 24.7234 26.1136C24.7736 26.0379 24.7987 25.9489 24.7987 25.8466C24.7987 25.7481 24.7769 25.6624 24.7333 25.5895C24.6897 25.5166 24.6282 25.4598 24.5487 25.419C24.4701 25.3783 24.3772 25.358 24.2702 25.358C24.1699 25.358 24.0752 25.3764 23.9862 25.4134C23.8981 25.4493 23.8261 25.5019 23.7702 25.571C23.7144 25.6392 23.6841 25.7216 23.6793 25.8182H23.3384C23.3441 25.6657 23.39 25.5322 23.4762 25.4176C23.5624 25.3021 23.6751 25.2121 23.8143 25.1477C23.9544 25.0833 24.1083 25.0511 24.2759 25.0511C24.4558 25.0511 24.6102 25.0876 24.739 25.1605C24.8678 25.2325 24.9667 25.3277 25.0359 25.446C25.105 25.5644 25.1396 25.6922 25.1396 25.8295C25.1396 25.9934 25.0965 26.133 25.0103 26.2486C24.9251 26.3641 24.8091 26.4441 24.6623 26.4886V26.5114C24.846 26.5417 24.9895 26.6198 25.0927 26.7457C25.1959 26.8707 25.2475 27.0256 25.2475 27.2102C25.2475 27.3684 25.2044 27.5104 25.1183 27.6364C25.033 27.7614 24.9165 27.8598 24.7688 27.9318C24.6211 28.0038 24.453 28.0398 24.2646 28.0398ZM25.7603 27.4034V27.1136L27.0387 25.0909H27.2489V25.5398H27.1069L26.141 27.0682V27.0909H27.8626V27.4034H25.7603ZM27.1296 28V27.3153V27.1804V25.0909H27.4648V28H27.1296ZM29.304 28.0398C29.1373 28.0398 28.9872 28.0066 28.8537 27.9403C28.7202 27.8741 28.6132 27.7831 28.5327 27.6676C28.4522 27.5521 28.4081 27.4205 28.4006 27.2727H28.7415C28.7547 27.4044 28.8144 27.5133 28.9205 27.5994C29.0275 27.6847 29.1553 27.7273 29.304 27.7273C29.4233 27.7273 29.5294 27.6993 29.6222 27.6435C29.7159 27.5876 29.7893 27.5109 29.8423 27.4134C29.8963 27.3149 29.9233 27.2036 29.9233 27.0795C29.9233 26.9527 29.8954 26.8395 29.8395 26.7401C29.7846 26.6397 29.7088 26.5606 29.6122 26.5028C29.5156 26.4451 29.4053 26.4157 29.2812 26.4148C29.1922 26.4138 29.1009 26.4276 29.0071 26.456C28.9134 26.4834 28.8362 26.5189 28.7756 26.5625L28.446 26.5227L28.6222 25.0909H30.1335V25.4034H28.9176L28.8153 26.2614H28.8324C28.892 26.214 28.9669 26.1747 29.0568 26.1435C29.1468 26.1122 29.2405 26.0966 29.3381 26.0966C29.5161 26.0966 29.6747 26.1392 29.8139 26.2244C29.9541 26.3087 30.0639 26.4242 30.1435 26.571C30.224 26.7178 30.2642 26.8854 30.2642 27.0739C30.2642 27.2595 30.2225 27.4252 30.1392 27.571C30.0568 27.7159 29.9432 27.8305 29.7983 27.9148C29.6534 27.9981 29.4886 28.0398 29.304 28.0398Z" fill="black"/>
<path d="M6 15L10 11" stroke="black" stroke-width="0.5"/>
<path d="M83 15L87 11" stroke="black" stroke-width="0.5"/>
<defs>
<clipPath id="clip0_15_226">
<rect width="24" height="4" fill="white" transform="translate(55 18.5)"/>
</clipPath>
<clipPath id="clip1_15_226">
<rect width="24" height="4" fill="white" transform="translate(13 18.5)"/>
</clipPath>
<clipPath id="clip2_15_226">
<rect width="24" height="4" fill="white" transform="translate(55 11.5)"/>
</clipPath>
<clipPath id="clip3_15_226">
<rect width="24" height="4" fill="white" transform="translate(13 11.5)"/>
</clipPath>
</defs>
</svg>
