<svg width="92" height="55" viewBox="0 0 92 55" fill="none" xmlns="http://www.w3.org/2000/svg">
<rect width="92" height="55" rx="6" fill="white"/>
<g clip-path="url(#clip0_15_279)">
<path fill-rule="evenodd" clip-rule="evenodd" d="M34.5 15.5H25.5V18.5H34.5V15.5ZM25.5 15H25V15.5V16.75H18H17.75V17.25H18H25V18.5V19H25.5H34.5H35V18.5V17.25H42H42.25V16.75H42H35V15.5V15H34.5H25.5Z" fill="black"/>
</g>
<g clip-path="url(#clip1_15_279)">
<path fill-rule="evenodd" clip-rule="evenodd" d="M58.5 15.5L49.5 15.5L49.5 18.5L58.5 18.5L58.5 15.5ZM49.5 15L49 15V15.5V16.75L42 16.75H41.75L41.75 17.25H42L49 17.25L49 18.5V19L49.5 19L58.5 19H59V18.5L59 17.25L66 17.25H66.25V16.75H66L59 16.75V15.5V15L58.5 15L49.5 15Z" fill="black"/>
</g>
<circle cx="15" cy="13" r="1" fill="black"/>
<circle cx="70" cy="13" r="1" fill="black"/>
<path d="M15 13V17H19" stroke="black" stroke-width="0.5"/>
<path d="M62 17H70V13" stroke="black" stroke-width="0.5"/>
<path d="M22.3523 13V10.0909H23.3352C23.5625 10.0909 23.7491 10.1297 23.8949 10.2074C24.0407 10.2841 24.1487 10.3897 24.2188 10.5241C24.2888 10.6586 24.3239 10.8116 24.3239 10.983C24.3239 11.1544 24.2888 11.3063 24.2188 11.4389C24.1487 11.5715 24.0412 11.6757 23.8963 11.7514C23.7514 11.8262 23.5663 11.8636 23.3409 11.8636H22.5455V11.5455H23.3295C23.4848 11.5455 23.6098 11.5227 23.7045 11.4773C23.8002 11.4318 23.8693 11.3674 23.9119 11.2841C23.9555 11.1998 23.9773 11.0994 23.9773 10.983C23.9773 10.8665 23.9555 10.7647 23.9119 10.6776C23.8684 10.5904 23.7988 10.5232 23.7031 10.4759C23.6075 10.4276 23.4811 10.4034 23.3239 10.4034H22.7045V13H22.3523ZM23.7216 11.6932L24.4375 13H24.0284L23.3239 11.6932H23.7216ZM25.8825 10.0909V13H25.5302V10.4602H25.5131L24.8029 10.9318V10.5739L25.5302 10.0909H25.8825ZM26.7191 13V12.7443L27.6793 11.6932C27.792 11.5701 27.8848 11.4631 27.9577 11.3722C28.0307 11.2803 28.0846 11.1941 28.1197 11.1136C28.1557 11.0322 28.1737 10.947 28.1737 10.858C28.1737 10.7557 28.149 10.6671 28.0998 10.5923C28.0515 10.5175 27.9852 10.4598 27.9009 10.419C27.8166 10.3783 27.7219 10.358 27.6168 10.358C27.5051 10.358 27.4076 10.3812 27.3242 10.4276C27.2418 10.473 27.1779 10.5369 27.1325 10.6193C27.0879 10.7017 27.0657 10.7983 27.0657 10.9091H26.7305C26.7305 10.7386 26.7698 10.589 26.8484 10.4602C26.927 10.3314 27.034 10.2311 27.1694 10.1591C27.3058 10.0871 27.4587 10.0511 27.6282 10.0511C27.7987 10.0511 27.9497 10.0871 28.0813 10.1591C28.2129 10.2311 28.3162 10.3281 28.391 10.4503C28.4658 10.5724 28.5032 10.7083 28.5032 10.858C28.5032 10.965 28.4838 11.0696 28.445 11.1719C28.4071 11.2732 28.3408 11.3864 28.2461 11.5114C28.1523 11.6354 28.0221 11.7869 27.8555 11.9659L27.2021 12.6648V12.6875H28.5543V13H26.7191ZM30.1239 13.0398C29.9364 13.0398 29.7693 13.0076 29.6225 12.9432C29.4767 12.8788 29.3607 12.7893 29.2745 12.6747C29.1893 12.5592 29.1429 12.4252 29.1353 12.2727H29.4933C29.5008 12.3665 29.533 12.4474 29.5898 12.5156C29.6467 12.5829 29.721 12.6349 29.8129 12.6719C29.9047 12.7088 30.0065 12.7273 30.1183 12.7273C30.2433 12.7273 30.354 12.7055 30.4506 12.6619C30.5472 12.6184 30.623 12.5578 30.6779 12.4801C30.7328 12.4025 30.7603 12.3125 30.7603 12.2102C30.7603 12.1032 30.7338 12.009 30.6808 11.9276C30.6277 11.8452 30.5501 11.7808 30.4478 11.7344C30.3455 11.688 30.2205 11.6648 30.0728 11.6648H29.8398V11.3523H30.0728C30.1883 11.3523 30.2897 11.3314 30.3768 11.2898C30.4648 11.2481 30.5335 11.1894 30.5827 11.1136C30.6329 11.0379 30.658 10.9489 30.658 10.8466C30.658 10.7481 30.6362 10.6624 30.5927 10.5895C30.5491 10.5166 30.4876 10.4598 30.408 10.419C30.3294 10.3783 30.2366 10.358 30.1296 10.358C30.0292 10.358 29.9345 10.3764 29.8455 10.4134C29.7575 10.4493 29.6855 10.5019 29.6296 10.571C29.5737 10.6392 29.5434 10.7216 29.5387 10.8182H29.1978C29.2035 10.6657 29.2494 10.5322 29.3356 10.4176C29.4218 10.3021 29.5344 10.2121 29.6737 10.1477C29.8138 10.0833 29.9677 10.0511 30.1353 10.0511C30.3152 10.0511 30.4696 10.0876 30.5984 10.1605C30.7272 10.2325 30.8261 10.3277 30.8952 10.446C30.9644 10.5644 30.9989 10.6922 30.9989 10.8295C30.9989 10.9934 30.9558 11.133 30.8697 11.2486C30.7844 11.3641 30.6684 11.4441 30.5217 11.4886V11.5114C30.7054 11.5417 30.8488 11.6198 30.9521 11.7457C31.0553 11.8707 31.1069 12.0256 31.1069 12.2102C31.1069 12.3684 31.0638 12.5104 30.9776 12.6364C30.8924 12.7614 30.7759 12.8598 30.6282 12.9318C30.4805 13.0038 30.3124 13.0398 30.1239 13.0398ZM31.6197 12.4034V12.1136L32.8981 10.0909H33.1083V10.5398H32.9663L32.0004 12.0682V12.0909H33.7219V12.4034H31.6197ZM32.989 13V12.3153V12.1804V10.0909H33.3242V13H32.989ZM35.1634 13.0398C34.9967 13.0398 34.8466 13.0066 34.7131 12.9403C34.5795 12.8741 34.4725 12.7831 34.392 12.6676C34.3116 12.5521 34.2675 12.4205 34.2599 12.2727H34.6009C34.6141 12.4044 34.6738 12.5133 34.7798 12.5994C34.8868 12.6847 35.0147 12.7273 35.1634 12.7273C35.2827 12.7273 35.3887 12.6993 35.4815 12.6435C35.5753 12.5876 35.6487 12.5109 35.7017 12.4134C35.7557 12.3149 35.7827 12.2036 35.7827 12.0795C35.7827 11.9527 35.7547 11.8395 35.6989 11.7401C35.6439 11.6397 35.5682 11.5606 35.4716 11.5028C35.375 11.4451 35.2647 11.4157 35.1406 11.4148C35.0516 11.4138 34.9602 11.4276 34.8665 11.456C34.7727 11.4834 34.6955 11.5189 34.6349 11.5625L34.3054 11.5227L34.4815 10.0909H35.9929V10.4034H34.777L34.6747 11.2614H34.6918C34.7514 11.214 34.8262 11.1747 34.9162 11.1435C35.0062 11.1122 35.0999 11.0966 35.1974 11.0966C35.3755 11.0966 35.5341 11.1392 35.6733 11.2244C35.8134 11.3087 35.9233 11.4242 36.0028 11.571C36.0833 11.7178 36.1236 11.8854 36.1236 12.0739C36.1236 12.2595 36.0819 12.4252 35.9986 12.571C35.9162 12.7159 35.8026 12.8305 35.6577 12.9148C35.5128 12.9981 35.348 13.0398 35.1634 13.0398Z" fill="black"/>
<path d="M50.3523 13V10.0909H51.3352C51.5625 10.0909 51.7491 10.1297 51.8949 10.2074C52.0407 10.2841 52.1487 10.3897 52.2188 10.5241C52.2888 10.6586 52.3239 10.8116 52.3239 10.983C52.3239 11.1544 52.2888 11.3063 52.2188 11.4389C52.1487 11.5715 52.0412 11.6757 51.8963 11.7514C51.7514 11.8262 51.5663 11.8636 51.3409 11.8636H50.5455V11.5455H51.3295C51.4848 11.5455 51.6098 11.5227 51.7045 11.4773C51.8002 11.4318 51.8693 11.3674 51.9119 11.2841C51.9555 11.1998 51.9773 11.0994 51.9773 10.983C51.9773 10.8665 51.9555 10.7647 51.9119 10.6776C51.8684 10.5904 51.7988 10.5232 51.7031 10.4759C51.6075 10.4276 51.4811 10.4034 51.3239 10.4034H50.7045V13H50.3523ZM51.7216 11.6932L52.4375 13H52.0284L51.3239 11.6932H51.7216ZM53.8256 13.0398C53.7063 13.0379 53.587 13.0152 53.4677 12.9716C53.3484 12.928 53.2395 12.8546 53.141 12.7514C53.0425 12.6473 52.9634 12.5066 52.9038 12.3295C52.8441 12.1515 52.8143 11.928 52.8143 11.6591C52.8143 11.4015 52.8384 11.1733 52.8867 10.9744C52.935 10.7746 53.0051 10.6065 53.0969 10.4702C53.1888 10.3329 53.2996 10.2287 53.4293 10.1577C53.56 10.0866 53.7073 10.0511 53.8711 10.0511C54.034 10.0511 54.1789 10.0838 54.3058 10.1491C54.4336 10.2135 54.5378 10.3035 54.6183 10.419C54.6987 10.5346 54.7508 10.6676 54.7745 10.8182H54.4279C54.3957 10.6875 54.3332 10.5791 54.2404 10.4929C54.1476 10.4067 54.0245 10.3636 53.8711 10.3636C53.6457 10.3636 53.4682 10.4616 53.3384 10.6577C53.2096 10.8537 53.1448 11.1288 53.1438 11.483H53.1665C53.2196 11.4025 53.2826 11.3338 53.3555 11.277C53.4293 11.2192 53.5108 11.1747 53.5998 11.1435C53.6888 11.1122 53.783 11.0966 53.8825 11.0966C54.0491 11.0966 54.2016 11.1383 54.3398 11.2216C54.4781 11.304 54.5889 11.4181 54.6722 11.5639C54.7556 11.7088 54.7972 11.875 54.7972 12.0625C54.7972 12.2424 54.757 12.4072 54.6765 12.5568C54.596 12.7055 54.4828 12.8239 54.337 12.9119C54.1921 12.9991 54.0217 13.0417 53.8256 13.0398ZM53.8256 12.7273C53.945 12.7273 54.052 12.6974 54.1467 12.6378C54.2423 12.5781 54.3176 12.4981 54.3725 12.3977C54.4284 12.2973 54.4563 12.1856 54.4563 12.0625C54.4563 11.9422 54.4293 11.8329 54.3754 11.7344C54.3223 11.6349 54.2489 11.5559 54.1552 11.4972C54.0624 11.4384 53.9563 11.4091 53.837 11.4091C53.747 11.4091 53.6632 11.4271 53.5856 11.4631C53.5079 11.4981 53.4397 11.5464 53.381 11.608C53.3233 11.6695 53.2778 11.7401 53.2447 11.8196C53.2115 11.8982 53.195 11.9811 53.195 12.0682C53.195 12.1837 53.2219 12.2917 53.2759 12.392C53.3308 12.4924 53.4057 12.5734 53.5004 12.6349C53.596 12.6965 53.7044 12.7273 53.8256 12.7273ZM55.4467 13L56.7479 10.4261V10.4034H55.2479V10.0909H57.1115V10.4205L55.8161 13H55.4467Z" fill="black"/>
<path d="M13 15L17 11" stroke="black" stroke-width="0.5"/>
<path d="M68 15L72 11" stroke="black" stroke-width="0.5"/>
<defs>
<clipPath id="clip0_15_279">
<rect width="24" height="4" fill="white" transform="translate(18 15)"/>
</clipPath>
<clipPath id="clip1_15_279">
<rect width="24" height="4" fill="white" transform="translate(42 15)"/>
</clipPath>
</defs>
</svg>
