<svg width="129" height="79" viewBox="0 0 129 79" fill="none" xmlns="http://www.w3.org/2000/svg">
<rect width="129" height="79" rx="6" fill="white"/>
<path fill-rule="evenodd" clip-rule="evenodd" d="M82.5 19.5H73.5V22.5H82.5V19.5ZM73.5 19H73V19.5V20.75H66H65.75V21.25H66H73V22.5V23H73.5H82.5H83V22.5V21.25H90H90.25V20.75H90H83V19.5V19H82.5H73.5Z" fill="black"/>
<path fill-rule="evenodd" clip-rule="evenodd" d="M91.5 60.5H82.5V63.5H91.5V60.5ZM82.5 60H82V60.5V61.75H75H74.75V62.25H75H82V63.5V64H82.5H91.5H92V63.5V62.25H99H99.25V61.75H99H92V60.5V60H91.5H82.5Z" fill="black"/>
<path fill-rule="evenodd" clip-rule="evenodd" d="M98.5 43.5L98.5 34.5L95.5 34.5L95.5 43.5L98.5 43.5ZM99 34.5L99 34L98.5 34L97.25 34L97.25 27L97.25 26.75L96.75 26.75L96.75 27L96.75 34L95.5 34L95 34L95 34.5L95 43.5L95 44L95.5 44L96.75 44L96.75 51L96.75 51.25L97.25 51.25L97.25 51L97.25 44L98.5 44L99 44L99 43.5L99 34.5Z" fill="black"/>
<path fill-rule="evenodd" clip-rule="evenodd" d="M108.5 54.5L108.5 45.5L105.5 45.5L105.5 54.5L108.5 54.5ZM109 45.5L109 45L108.5 45L107.25 45L107.25 38L107.25 37.75L106.75 37.75L106.75 38L106.75 45L105.5 45L105 45L105 45.5L105 54.5L105 55L105.5 55L106.75 55L106.75 62L106.75 62.25L107.25 62.25L107.25 62L107.25 55L108.5 55L109 55L109 54.5L109 45.5Z" fill="black"/>
<path fill-rule="evenodd" clip-rule="evenodd" d="M21.5 43.5L21.5 34.5L18.5 34.5L18.5 43.5L21.5 43.5ZM22 34.5L22 34L21.5 34L20.25 34L20.25 27L20.25 26.75L19.75 26.75L19.75 27L19.75 34L18.5 34L18 34L18 34.5L18 43.5L18 44L18.5 44L19.75 44L19.75 51L19.75 51.25L20.25 51.25L20.25 51L20.25 44L21.5 44L22 44L22 43.5L22 34.5Z" fill="black"/>
<path fill-rule="evenodd" clip-rule="evenodd" d="M45.5 44.5L45.5 35.5L42.5 35.5L42.5 44.5L45.5 44.5ZM46 35.5L46 35L45.5 35L44.25 35L44.25 28L44.25 27.75L43.75 27.75L43.75 28L43.75 35L42.5 35L42 35L42 35.5L42 44.5L42 45L42.5 45L43.75 45L43.75 52L43.75 52.25L44.25 52.25L44.25 52L44.25 45L45.5 45L46 45L46 44.5L46 35.5Z" fill="black"/>
<path fill-rule="evenodd" clip-rule="evenodd" d="M36.5 60.5H27.5V63.5H36.5V60.5ZM27.5 60H27V60.5V61.75H20H19.75V62.25H20H27V63.5V64H27.5H36.5H37V63.5V62.25L44 62.25H44.25V61.75H44L37 61.75V60.5V60H36.5H27.5Z" fill="black"/>
<path fill-rule="evenodd" clip-rule="evenodd" d="M36.5 21C36.5 23.4853 34.4853 25.5 32 25.5C29.5986 25.5 27.6365 23.619 27.5068 21.25H28H28.25H33.8964L32.8232 22.3232L33.1768 22.6768L34.6768 21.1768L34.8536 21L34.6768 20.8232L33.1768 19.3232L32.8232 19.6768L33.8964 20.75H28.25H28H27.5068C27.6365 18.381 29.5986 16.5 32 16.5C34.4853 16.5 36.5 18.5147 36.5 21ZM32 26C29.3224 26 27.1364 23.8953 27.0061 21.25H20H19.75V20.75H20H27.0061C27.1364 18.1047 29.3224 16 32 16C34.6776 16 36.8636 18.1047 36.9939 20.75H37H44H44.25V21.25H44H37H36.9939C36.8636 23.8953 34.6776 26 32 26Z" fill="black"/>
<circle cx="44" cy="21" r="1" fill="black"/>
<circle cx="58" cy="21" r="1" fill="black"/>
<path d="M44 50V62" stroke="black" stroke-width="0.5"/>
<path d="M44 62H75" stroke="black" stroke-width="0.5"/>
<path d="M58 51V62" stroke="black" stroke-width="0.5"/>
<path d="M58 27.4167V21H44V28" stroke="black" stroke-width="0.5"/>
<path d="M20 27V21" stroke="black" stroke-width="0.5"/>
<path d="M20 51V62" stroke="black" stroke-width="0.5"/>
<path d="M97 51V62H107" stroke="black" stroke-width="0.5"/>
<path d="M107 21H98.5H97V27" stroke="black" stroke-width="0.5"/>
<circle cx="58" cy="62" r="1" fill="black"/>
<circle cx="44" cy="62" r="1" fill="black"/>
<circle cx="97" cy="21" r="1" fill="black"/>
<circle cx="97" cy="62" r="1" fill="black"/>
<path d="M40 19L42 21L40 23" stroke="black" stroke-width="0.5"/>
<path d="M42 29L44 31L46 29" stroke="black" stroke-width="0.5"/>
<path d="M30.3523 14V11.0909H32.108V11.4034H30.7045V12.3864H32.017V12.6989H30.7045V13.6875H32.1307V14H30.3523Z" fill="black"/>
<path d="M12.3523 40V37.0909H13.3352C13.5625 37.0909 13.7491 37.1297 13.8949 37.2074C14.0407 37.2841 14.1487 37.3897 14.2188 37.5241C14.2888 37.6586 14.3239 37.8116 14.3239 37.983C14.3239 38.1544 14.2888 38.3063 14.2188 38.4389C14.1487 38.5715 14.0412 38.6757 13.8963 38.7514C13.7514 38.8262 13.5663 38.8636 13.3409 38.8636H12.5455V38.5455H13.3295C13.4848 38.5455 13.6098 38.5227 13.7045 38.4773C13.8002 38.4318 13.8693 38.3674 13.9119 38.2841C13.9555 38.1998 13.9773 38.0994 13.9773 37.983C13.9773 37.8665 13.9555 37.7647 13.9119 37.6776C13.8684 37.5904 13.7988 37.5232 13.7031 37.4759C13.6075 37.4276 13.4811 37.4034 13.3239 37.4034H12.7045V40H12.3523ZM13.7216 38.6932L14.4375 40H14.0284L13.3239 38.6932H13.7216ZM15.8825 37.0909V40H15.5302V37.4602H15.5131L14.8029 37.9318V37.5739L15.5302 37.0909H15.8825Z" fill="black"/>
<path d="M29.3523 59V56.0909H30.3352C30.5625 56.0909 30.7491 56.1297 30.8949 56.2074C31.0407 56.2841 31.1487 56.3897 31.2188 56.5241C31.2888 56.6586 31.3239 56.8116 31.3239 56.983C31.3239 57.1544 31.2888 57.3063 31.2188 57.4389C31.1487 57.5715 31.0412 57.6757 30.8963 57.7514C30.7514 57.8262 30.5663 57.8636 30.3409 57.8636H29.5455V57.5455H30.3295C30.4848 57.5455 30.6098 57.5227 30.7045 57.4773C30.8002 57.4318 30.8693 57.3674 30.9119 57.2841C30.9555 57.1998 30.9773 57.0994 30.9773 56.983C30.9773 56.8665 30.9555 56.7647 30.9119 56.6776C30.8684 56.5904 30.7988 56.5232 30.7031 56.4759C30.6075 56.4276 30.4811 56.4034 30.3239 56.4034H29.7045V59H29.3523ZM30.7216 57.6932L31.4375 59H31.0284L30.3239 57.6932H30.7216ZM31.8597 59V58.7443L32.82 57.6932C32.9326 57.5701 33.0254 57.4631 33.0984 57.3722C33.1713 57.2803 33.2253 57.1941 33.2603 57.1136C33.2963 57.0322 33.3143 56.947 33.3143 56.858C33.3143 56.7557 33.2897 56.6671 33.2404 56.5923C33.1921 56.5175 33.1258 56.4598 33.0415 56.419C32.9573 56.3783 32.8626 56.358 32.7575 56.358C32.6457 56.358 32.5482 56.3812 32.4648 56.4276C32.3825 56.473 32.3185 56.5369 32.2731 56.6193C32.2286 56.7017 32.2063 56.7983 32.2063 56.9091H31.8711C31.8711 56.7386 31.9104 56.589 31.989 56.4602C32.0676 56.3314 32.1746 56.2311 32.31 56.1591C32.4464 56.0871 32.5993 56.0511 32.7688 56.0511C32.9393 56.0511 33.0903 56.0871 33.2219 56.1591C33.3536 56.2311 33.4568 56.3281 33.5316 56.4503C33.6064 56.5724 33.6438 56.7083 33.6438 56.858C33.6438 56.965 33.6244 57.0696 33.5856 57.1719C33.5477 57.2732 33.4814 57.3864 33.3867 57.5114C33.293 57.6354 33.1628 57.7869 32.9961 57.9659L32.3427 58.6648V58.6875H33.695V59H31.8597Z" fill="black"/>
<path d="M36.3523 41V38.0909H37.3352C37.5625 38.0909 37.7491 38.1297 37.8949 38.2074C38.0407 38.2841 38.1487 38.3897 38.2188 38.5241C38.2888 38.6586 38.3239 38.8116 38.3239 38.983C38.3239 39.1544 38.2888 39.3063 38.2188 39.4389C38.1487 39.5715 38.0412 39.6757 37.8963 39.7514C37.7514 39.8262 37.5663 39.8636 37.3409 39.8636H36.5455V39.5455H37.3295C37.4848 39.5455 37.6098 39.5227 37.7045 39.4773C37.8002 39.4318 37.8693 39.3674 37.9119 39.2841C37.9555 39.1998 37.9773 39.0994 37.9773 38.983C37.9773 38.8665 37.9555 38.7647 37.9119 38.6776C37.8684 38.5904 37.7988 38.5232 37.7031 38.4759C37.6075 38.4276 37.4811 38.4034 37.3239 38.4034H36.7045V41H36.3523ZM37.7216 39.6932L38.4375 41H38.0284L37.3239 39.6932H37.7216ZM39.8427 41.0398C39.6552 41.0398 39.488 41.0076 39.3413 40.9432C39.1954 40.8788 39.0794 40.7893 38.9933 40.6747C38.908 40.5592 38.8616 40.4252 38.854 40.2727H39.212C39.2196 40.3665 39.2518 40.4474 39.3086 40.5156C39.3654 40.5829 39.4397 40.6349 39.5316 40.6719C39.6235 40.7088 39.7253 40.7273 39.837 40.7273C39.962 40.7273 40.0728 40.7055 40.1694 40.6619C40.266 40.6184 40.3417 40.5578 40.3967 40.4801C40.4516 40.4025 40.479 40.3125 40.479 40.2102C40.479 40.1032 40.4525 40.009 40.3995 39.9276C40.3465 39.8452 40.2688 39.7808 40.1665 39.7344C40.0643 39.688 39.9393 39.6648 39.7915 39.6648H39.5586V39.3523H39.7915C39.9071 39.3523 40.0084 39.3314 40.0955 39.2898C40.1836 39.2481 40.2522 39.1894 40.3015 39.1136C40.3517 39.0379 40.3768 38.9489 40.3768 38.8466C40.3768 38.7481 40.355 38.6624 40.3114 38.5895C40.2679 38.5166 40.2063 38.4598 40.1268 38.419C40.0482 38.3783 39.9554 38.358 39.8484 38.358C39.748 38.358 39.6533 38.3764 39.5643 38.4134C39.4762 38.4493 39.4042 38.5019 39.3484 38.571C39.2925 38.6392 39.2622 38.7216 39.2575 38.8182H38.9165C38.9222 38.6657 38.9682 38.5322 39.0543 38.4176C39.1405 38.3021 39.2532 38.2121 39.3924 38.1477C39.5326 38.0833 39.6864 38.0511 39.854 38.0511C40.034 38.0511 40.1883 38.0876 40.3171 38.1605C40.4459 38.2325 40.5449 38.3277 40.614 38.446C40.6831 38.5644 40.7177 38.6922 40.7177 38.8295C40.7177 38.9934 40.6746 39.133 40.5884 39.2486C40.5032 39.3641 40.3872 39.4441 40.2404 39.4886V39.5114C40.4241 39.5417 40.5676 39.6198 40.6708 39.7457C40.774 39.8707 40.8256 40.0256 40.8256 40.2102C40.8256 40.3684 40.7826 40.5104 40.6964 40.6364C40.6112 40.7614 40.4947 40.8598 40.3469 40.9318C40.1992 41.0038 40.0311 41.0398 39.8427 41.0398Z" fill="black"/>
<path d="M75.3523 17V14.0909H76.3352C76.5625 14.0909 76.7491 14.1297 76.8949 14.2074C77.0407 14.2841 77.1487 14.3897 77.2188 14.5241C77.2888 14.6586 77.3239 14.8116 77.3239 14.983C77.3239 15.1544 77.2888 15.3063 77.2188 15.4389C77.1487 15.5715 77.0412 15.6757 76.8963 15.7514C76.7514 15.8262 76.5663 15.8636 76.3409 15.8636H75.5455V15.5455H76.3295C76.4848 15.5455 76.6098 15.5227 76.7045 15.4773C76.8002 15.4318 76.8693 15.3674 76.9119 15.2841C76.9555 15.1998 76.9773 15.0994 76.9773 14.983C76.9773 14.8665 76.9555 14.7647 76.9119 14.6776C76.8684 14.5904 76.7988 14.5232 76.7031 14.4759C76.6075 14.4276 76.4811 14.4034 76.3239 14.4034H75.7045V17H75.3523ZM76.7216 15.6932L77.4375 17H77.0284L76.3239 15.6932H76.7216ZM78.7688 17.0398C78.6022 17.0398 78.4521 17.0066 78.3185 16.9403C78.185 16.8741 78.078 16.7831 77.9975 16.6676C77.917 16.5521 77.873 16.4205 77.8654 16.2727H78.2063C78.2196 16.4044 78.2792 16.5133 78.3853 16.5994C78.4923 16.6847 78.6201 16.7273 78.7688 16.7273C78.8881 16.7273 78.9942 16.6993 79.087 16.6435C79.1808 16.5876 79.2541 16.5109 79.3072 16.4134C79.3612 16.3149 79.3881 16.2036 79.3881 16.0795C79.3881 15.9527 79.3602 15.8395 79.3043 15.7401C79.2494 15.6397 79.1737 15.5606 79.0771 15.5028C78.9805 15.4451 78.8701 15.4157 78.7461 15.4148C78.6571 15.4138 78.5657 15.4276 78.4719 15.456C78.3782 15.4834 78.301 15.5189 78.2404 15.5625L77.9109 15.5227L78.087 14.0909H79.5984V14.4034H78.3825L78.2802 15.2614H78.2972C78.3569 15.214 78.4317 15.1747 78.5217 15.1435C78.6116 15.1122 78.7054 15.0966 78.8029 15.0966C78.9809 15.0966 79.1396 15.1392 79.2788 15.2244C79.4189 15.3087 79.5288 15.4242 79.6083 15.571C79.6888 15.7178 79.729 15.8854 79.729 16.0739C79.729 16.2595 79.6874 16.4252 79.604 16.571C79.5217 16.7159 79.408 16.8305 79.2631 16.9148C79.1183 16.9981 78.9535 17.0398 78.7688 17.0398Z" fill="black"/>
<path d="M85.3523 59V56.0909H86.3352C86.5625 56.0909 86.7491 56.1297 86.8949 56.2074C87.0407 56.2841 87.1487 56.3897 87.2188 56.5241C87.2888 56.6586 87.3239 56.8116 87.3239 56.983C87.3239 57.1544 87.2888 57.3063 87.2188 57.4389C87.1487 57.5715 87.0412 57.6757 86.8963 57.7514C86.7514 57.8262 86.5663 57.8636 86.3409 57.8636H85.5455V57.5455H86.3295C86.4848 57.5455 86.6098 57.5227 86.7045 57.4773C86.8002 57.4318 86.8693 57.3674 86.9119 57.2841C86.9555 57.1998 86.9773 57.0994 86.9773 56.983C86.9773 56.8665 86.9555 56.7647 86.9119 56.6776C86.8684 56.5904 86.7988 56.5232 86.7031 56.4759C86.6075 56.4276 86.4811 56.4034 86.3239 56.4034H85.7045V59H85.3523ZM86.7216 57.6932L87.4375 59H87.0284L86.3239 57.6932H86.7216ZM87.7915 58.4034V58.1136L89.07 56.0909H89.2802V56.5398H89.1381L88.1722 58.0682V58.0909H89.8938V58.4034H87.7915ZM89.1609 59V58.3153V58.1804V56.0909H89.4961V59H89.1609Z" fill="black"/>
<path d="M111.352 52V49.0909H112.335C112.563 49.0909 112.749 49.1297 112.895 49.2074C113.041 49.2841 113.149 49.3897 113.219 49.5241C113.289 49.6586 113.324 49.8116 113.324 49.983C113.324 50.1544 113.289 50.3063 113.219 50.4389C113.149 50.5715 113.041 50.6757 112.896 50.7514C112.751 50.8262 112.566 50.8636 112.341 50.8636H111.545V50.5455H112.33C112.485 50.5455 112.61 50.5227 112.705 50.4773C112.8 50.4318 112.869 50.3674 112.912 50.2841C112.955 50.1998 112.977 50.0994 112.977 49.983C112.977 49.8665 112.955 49.7647 112.912 49.6776C112.868 49.5904 112.799 49.5232 112.703 49.4759C112.607 49.4276 112.481 49.4034 112.324 49.4034H111.705V52H111.352ZM112.722 50.6932L113.438 52H113.028L112.324 50.6932H112.722ZM113.951 52L115.252 49.4261V49.4034H113.752V49.0909H115.615V49.4205L114.32 52H113.951Z" fill="black"/>
<path d="M88.3523 40V37.0909H89.3352C89.5625 37.0909 89.7491 37.1297 89.8949 37.2074C90.0407 37.2841 90.1487 37.3897 90.2188 37.5241C90.2888 37.6586 90.3239 37.8116 90.3239 37.983C90.3239 38.1544 90.2888 38.3063 90.2188 38.4389C90.1487 38.5715 90.0412 38.6757 89.8963 38.7514C89.7514 38.8262 89.5663 38.8636 89.3409 38.8636H88.5455V38.5455H89.3295C89.4848 38.5455 89.6098 38.5227 89.7045 38.4773C89.8002 38.4318 89.8693 38.3674 89.9119 38.2841C89.9555 38.1998 89.9773 38.0994 89.9773 37.983C89.9773 37.8665 89.9555 37.7647 89.9119 37.6776C89.8684 37.5904 89.7988 37.5232 89.7031 37.4759C89.6075 37.4276 89.4811 37.4034 89.3239 37.4034H88.7045V40H88.3523ZM89.7216 38.6932L90.4375 40H90.0284L89.3239 38.6932H89.7216ZM91.8256 40.0398C91.7063 40.0379 91.587 40.0152 91.4677 39.9716C91.3484 39.928 91.2395 39.8546 91.141 39.7514C91.0425 39.6473 90.9634 39.5066 90.9038 39.3295C90.8441 39.1515 90.8143 38.928 90.8143 38.6591C90.8143 38.4015 90.8384 38.1733 90.8867 37.9744C90.935 37.7746 91.0051 37.6065 91.0969 37.4702C91.1888 37.3329 91.2996 37.2287 91.4293 37.1577C91.56 37.0866 91.7073 37.0511 91.8711 37.0511C92.034 37.0511 92.1789 37.0838 92.3058 37.1491C92.4336 37.2135 92.5378 37.3035 92.6183 37.419C92.6987 37.5346 92.7508 37.6676 92.7745 37.8182H92.4279C92.3957 37.6875 92.3332 37.5791 92.2404 37.4929C92.1476 37.4067 92.0245 37.3636 91.8711 37.3636C91.6457 37.3636 91.4682 37.4616 91.3384 37.6577C91.2096 37.8537 91.1448 38.1288 91.1438 38.483H91.1665C91.2196 38.4025 91.2826 38.3338 91.3555 38.277C91.4293 38.2192 91.5108 38.1747 91.5998 38.1435C91.6888 38.1122 91.783 38.0966 91.8825 38.0966C92.0491 38.0966 92.2016 38.1383 92.3398 38.2216C92.4781 38.304 92.5889 38.4181 92.6722 38.5639C92.7556 38.7088 92.7972 38.875 92.7972 39.0625C92.7972 39.2424 92.757 39.4072 92.6765 39.5568C92.596 39.7055 92.4828 39.8239 92.337 39.9119C92.1921 39.9991 92.0217 40.0417 91.8256 40.0398ZM91.8256 39.7273C91.945 39.7273 92.052 39.6974 92.1467 39.6378C92.2423 39.5781 92.3176 39.4981 92.3725 39.3977C92.4284 39.2973 92.4563 39.1856 92.4563 39.0625C92.4563 38.9422 92.4293 38.8329 92.3754 38.7344C92.3223 38.6349 92.2489 38.5559 92.1552 38.4972C92.0624 38.4384 91.9563 38.4091 91.837 38.4091C91.747 38.4091 91.6632 38.4271 91.5856 38.4631C91.5079 38.4981 91.4397 38.5464 91.381 38.608C91.3233 38.6695 91.2778 38.7401 91.2447 38.8196C91.2115 38.8982 91.195 38.9811 91.195 39.0682C91.195 39.1837 91.2219 39.2917 91.2759 39.392C91.3308 39.4924 91.4057 39.5734 91.5004 39.6349C91.596 39.6965 91.7044 39.7273 91.8256 39.7273Z" fill="black"/>
<path d="M40.7045 13.0909V16H40.3523V13.0909H40.7045ZM42.3825 13.0909V16H42.0302V13.4602H42.0131L41.3029 13.9318V13.5739L42.0302 13.0909H42.3825Z" fill="black"/>
<path d="M47.7045 26.0909V29H47.3523V26.0909H47.7045ZM49.3427 29.0398C49.1552 29.0398 48.988 29.0076 48.8413 28.9432C48.6954 28.8788 48.5794 28.7893 48.4933 28.6747C48.408 28.5592 48.3616 28.4252 48.354 28.2727H48.712C48.7196 28.3665 48.7518 28.4474 48.8086 28.5156C48.8654 28.5829 48.9397 28.6349 49.0316 28.6719C49.1235 28.7088 49.2253 28.7273 49.337 28.7273C49.462 28.7273 49.5728 28.7055 49.6694 28.6619C49.766 28.6184 49.8417 28.5578 49.8967 28.4801C49.9516 28.4025 49.979 28.3125 49.979 28.2102C49.979 28.1032 49.9525 28.009 49.8995 27.9276C49.8465 27.8452 49.7688 27.7808 49.6665 27.7344C49.5643 27.688 49.4393 27.6648 49.2915 27.6648H49.0586V27.3523H49.2915C49.4071 27.3523 49.5084 27.3314 49.5955 27.2898C49.6836 27.2481 49.7522 27.1894 49.8015 27.1136C49.8517 27.0379 49.8768 26.9489 49.8768 26.8466C49.8768 26.7481 49.855 26.6624 49.8114 26.5895C49.7679 26.5166 49.7063 26.4598 49.6268 26.419C49.5482 26.3783 49.4554 26.358 49.3484 26.358C49.248 26.358 49.1533 26.3764 49.0643 26.4134C48.9762 26.4493 48.9042 26.5019 48.8484 26.571C48.7925 26.6392 48.7622 26.7216 48.7575 26.8182H48.4165C48.4222 26.6657 48.4682 26.5322 48.5543 26.4176C48.6405 26.3021 48.7532 26.2121 48.8924 26.1477C49.0326 26.0833 49.1864 26.0511 49.354 26.0511C49.534 26.0511 49.6883 26.0876 49.8171 26.1605C49.9459 26.2325 50.0449 26.3277 50.114 26.446C50.1831 26.5644 50.2177 26.6922 50.2177 26.8295C50.2177 26.9934 50.1746 27.133 50.0884 27.2486C50.0032 27.3641 49.8872 27.4441 49.7404 27.4886V27.5114C49.9241 27.5417 50.0676 27.6198 50.1708 27.7457C50.274 27.8707 50.3256 28.0256 50.3256 28.2102C50.3256 28.3684 50.2826 28.5104 50.1964 28.6364C50.1112 28.7614 49.9947 28.8598 49.8469 28.9318C49.6992 29.0038 49.5311 29.0398 49.3427 29.0398Z" fill="black"/>
<path d="M107 21V27.5" stroke="black" stroke-width="0.5"/>
<path d="M90 21H97" stroke="black" stroke-width="0.5"/>
<path d="M66 21H58" stroke="black" stroke-width="0.5"/>
<circle cx="107" cy="27.5" r="1" fill="black"/>
<circle cx="107" cy="38" r="1" fill="black"/>
<path d="M105 30.5L109 34.5" stroke="black" stroke-width="0.5"/>
<path d="M105 34.5L109 30.5" stroke="black" stroke-width="0.5"/>
<circle cx="58" cy="33.5" r="1" fill="black"/>
<circle cx="58" cy="44" r="1" fill="black"/>
<path d="M56 36.5L60 40.5" stroke="black" stroke-width="0.5"/>
<path d="M56 40.5L60 36.5" stroke="black" stroke-width="0.5"/>
<path d="M58 27V33" stroke="black" stroke-width="0.5"/>
<path d="M58 51V44" stroke="black" stroke-width="0.5"/>
</svg>
