<svg width="129" height="79" viewBox="0 0 129 79" fill="none" xmlns="http://www.w3.org/2000/svg">
<rect width="129" height="79" rx="6" fill="white"/>
<path fill-rule="evenodd" clip-rule="evenodd" d="M59.5 43.5L59.5 34.5L56.5 34.5L56.5 43.5L59.5 43.5ZM60 34.5L60 34L59.5 34L58.25 34L58.25 27L58.25 26.75L57.75 26.75L57.75 27L57.75 34L56.5 34L56 34L56 34.5L56 43.5L56 44L56.5 44L57.75 44L57.75 51L57.75 51.25L58.25 51.25L58.25 51L58.25 44L59.5 44L60 44L60 43.5L60 34.5Z" fill="black"/>
<path fill-rule="evenodd" clip-rule="evenodd" d="M21.5 43.5L21.5 34.5L18.5 34.5L18.5 43.5L21.5 43.5ZM22 34.5L22 34L21.5 34L20.25 34L20.25 27L20.25 26.75L19.75 26.75L19.75 27L19.75 34L18.5 34L18 34L18 34.5L18 43.5L18 44L18.5 44L19.75 44L19.75 51L19.75 51.25L20.25 51.25L20.25 51L20.25 44L21.5 44L22 44L22 43.5L22 34.5Z" fill="black"/>
<path fill-rule="evenodd" clip-rule="evenodd" d="M45.5 44.5L45.5 35.5L42.5 35.5L42.5 44.5L45.5 44.5ZM46 35.5L46 35L45.5 35L44.25 35L44.25 28L44.25 27.75L43.75 27.75L43.75 28L43.75 35L42.5 35L42 35L42 35.5L42 44.5L42 45L42.5 45L43.75 45L43.75 52L43.75 52.25L44.25 52.25L44.25 52L44.25 45L45.5 45L46 45L46 44.5L46 35.5Z" fill="black"/>
<path fill-rule="evenodd" clip-rule="evenodd" d="M36.5 60.5H27.5V63.5H36.5V60.5ZM27.5 60H27V60.5V61.75H20H19.75V62.25H20H27V63.5V64H27.5H36.5H37V63.5V62.25L44 62.25H44.25V61.75H44L37 61.75V60.5V60H36.5H27.5Z" fill="black"/>
<path fill-rule="evenodd" clip-rule="evenodd" d="M36.5 21C36.5 23.4853 34.4853 25.5 32 25.5C29.5986 25.5 27.6365 23.619 27.5068 21.25H28H28.25H33.8964L32.8232 22.3232L33.1768 22.6768L34.6768 21.1768L34.8536 21L34.6768 20.8232L33.1768 19.3232L32.8232 19.6768L33.8964 20.75H28.25H28H27.5068C27.6365 18.381 29.5986 16.5 32 16.5C34.4853 16.5 36.5 18.5147 36.5 21ZM32 26C29.3224 26 27.1364 23.8953 27.0061 21.25H20H19.75V20.75H20H27.0061C27.1364 18.1047 29.3224 16 32 16C34.6776 16 36.8636 18.1047 36.9939 20.75H37H44H44.25V21.25H44H37H36.9939C36.8636 23.8953 34.6776 26 32 26Z" fill="black"/>
<circle cx="44" cy="21" r="1" fill="black"/>
<path d="M44 50V62" stroke="black" stroke-width="0.5"/>
<path d="M58 51V62" stroke="black" stroke-width="0.5"/>
<path d="M58 27.4167V21H44V28" stroke="black" stroke-width="0.5"/>
<path d="M20 27V21" stroke="black" stroke-width="0.5"/>
<path d="M20 51V62" stroke="black" stroke-width="0.5"/>
<circle cx="44" cy="62" r="1" fill="black"/>
<path d="M40 19L42 21L40 23" stroke="black" stroke-width="0.5"/>
<path d="M42 29L44 31L46 29" stroke="black" stroke-width="0.5"/>
<path d="M30.3523 14V11.0909H32.108V11.4034H30.7045V12.3864H32.017V12.6989H30.7045V13.6875H32.1307V14H30.3523Z" fill="black"/>
<path d="M12.3523 40V37.0909H13.3352C13.5625 37.0909 13.7491 37.1297 13.8949 37.2074C14.0407 37.2841 14.1487 37.3897 14.2188 37.5241C14.2888 37.6586 14.3239 37.8116 14.3239 37.983C14.3239 38.1544 14.2888 38.3063 14.2188 38.4389C14.1487 38.5715 14.0412 38.6757 13.8963 38.7514C13.7514 38.8262 13.5663 38.8636 13.3409 38.8636H12.5455V38.5455H13.3295C13.4848 38.5455 13.6098 38.5227 13.7045 38.4773C13.8002 38.4318 13.8693 38.3674 13.9119 38.2841C13.9555 38.1998 13.9773 38.0994 13.9773 37.983C13.9773 37.8665 13.9555 37.7647 13.9119 37.6776C13.8684 37.5904 13.7988 37.5232 13.7031 37.4759C13.6075 37.4276 13.4811 37.4034 13.3239 37.4034H12.7045V40H12.3523ZM13.7216 38.6932L14.4375 40H14.0284L13.3239 38.6932H13.7216ZM15.8825 37.0909V40H15.5302V37.4602H15.5131L14.8029 37.9318V37.5739L15.5302 37.0909H15.8825Z" fill="black"/>
<path d="M29.3523 59V56.0909H30.3352C30.5625 56.0909 30.7491 56.1297 30.8949 56.2074C31.0407 56.2841 31.1487 56.3897 31.2188 56.5241C31.2888 56.6586 31.3239 56.8116 31.3239 56.983C31.3239 57.1544 31.2888 57.3063 31.2188 57.4389C31.1487 57.5715 31.0412 57.6757 30.8963 57.7514C30.7514 57.8262 30.5663 57.8636 30.3409 57.8636H29.5455V57.5455H30.3295C30.4848 57.5455 30.6098 57.5227 30.7045 57.4773C30.8002 57.4318 30.8693 57.3674 30.9119 57.2841C30.9555 57.1998 30.9773 57.0994 30.9773 56.983C30.9773 56.8665 30.9555 56.7647 30.9119 56.6776C30.8684 56.5904 30.7988 56.5232 30.7031 56.4759C30.6075 56.4276 30.4811 56.4034 30.3239 56.4034H29.7045V59H29.3523ZM30.7216 57.6932L31.4375 59H31.0284L30.3239 57.6932H30.7216ZM31.8597 59V58.7443L32.82 57.6932C32.9326 57.5701 33.0254 57.4631 33.0984 57.3722C33.1713 57.2803 33.2253 57.1941 33.2603 57.1136C33.2963 57.0322 33.3143 56.947 33.3143 56.858C33.3143 56.7557 33.2897 56.6671 33.2404 56.5923C33.1921 56.5175 33.1258 56.4598 33.0415 56.419C32.9573 56.3783 32.8626 56.358 32.7575 56.358C32.6457 56.358 32.5482 56.3812 32.4648 56.4276C32.3825 56.473 32.3185 56.5369 32.2731 56.6193C32.2286 56.7017 32.2063 56.7983 32.2063 56.9091H31.8711C31.8711 56.7386 31.9104 56.589 31.989 56.4602C32.0676 56.3314 32.1746 56.2311 32.31 56.1591C32.4464 56.0871 32.5993 56.0511 32.7688 56.0511C32.9393 56.0511 33.0903 56.0871 33.2219 56.1591C33.3536 56.2311 33.4568 56.3281 33.5316 56.4503C33.6064 56.5724 33.6438 56.7083 33.6438 56.858C33.6438 56.965 33.6244 57.0696 33.5856 57.1719C33.5477 57.2732 33.4814 57.3864 33.3867 57.5114C33.293 57.6354 33.1628 57.7869 32.9961 57.9659L32.3427 58.6648V58.6875H33.695V59H31.8597Z" fill="black"/>
<path d="M36.3523 41V38.0909H37.3352C37.5625 38.0909 37.7491 38.1297 37.8949 38.2074C38.0407 38.2841 38.1487 38.3897 38.2188 38.5241C38.2888 38.6586 38.3239 38.8116 38.3239 38.983C38.3239 39.1544 38.2888 39.3063 38.2188 39.4389C38.1487 39.5715 38.0412 39.6757 37.8963 39.7514C37.7514 39.8262 37.5663 39.8636 37.3409 39.8636H36.5455V39.5455H37.3295C37.4848 39.5455 37.6098 39.5227 37.7045 39.4773C37.8002 39.4318 37.8693 39.3674 37.9119 39.2841C37.9555 39.1998 37.9773 39.0994 37.9773 38.983C37.9773 38.8665 37.9555 38.7647 37.9119 38.6776C37.8684 38.5904 37.7988 38.5232 37.7031 38.4759C37.6075 38.4276 37.4811 38.4034 37.3239 38.4034H36.7045V41H36.3523ZM37.7216 39.6932L38.4375 41H38.0284L37.3239 39.6932H37.7216ZM39.8427 41.0398C39.6552 41.0398 39.488 41.0076 39.3413 40.9432C39.1954 40.8788 39.0794 40.7893 38.9933 40.6747C38.908 40.5592 38.8616 40.4252 38.854 40.2727H39.212C39.2196 40.3665 39.2518 40.4474 39.3086 40.5156C39.3654 40.5829 39.4397 40.6349 39.5316 40.6719C39.6235 40.7088 39.7253 40.7273 39.837 40.7273C39.962 40.7273 40.0728 40.7055 40.1694 40.6619C40.266 40.6184 40.3417 40.5578 40.3967 40.4801C40.4516 40.4025 40.479 40.3125 40.479 40.2102C40.479 40.1032 40.4525 40.009 40.3995 39.9276C40.3465 39.8452 40.2688 39.7808 40.1665 39.7344C40.0643 39.688 39.9393 39.6648 39.7915 39.6648H39.5586V39.3523H39.7915C39.9071 39.3523 40.0084 39.3314 40.0955 39.2898C40.1836 39.2481 40.2522 39.1894 40.3015 39.1136C40.3517 39.0379 40.3768 38.9489 40.3768 38.8466C40.3768 38.7481 40.355 38.6624 40.3114 38.5895C40.2679 38.5166 40.2063 38.4598 40.1268 38.419C40.0482 38.3783 39.9554 38.358 39.8484 38.358C39.748 38.358 39.6533 38.3764 39.5643 38.4134C39.4762 38.4493 39.4042 38.5019 39.3484 38.571C39.2925 38.6392 39.2622 38.7216 39.2575 38.8182H38.9165C38.9222 38.6657 38.9682 38.5322 39.0543 38.4176C39.1405 38.3021 39.2532 38.2121 39.3924 38.1477C39.5326 38.0833 39.6864 38.0511 39.854 38.0511C40.034 38.0511 40.1883 38.0876 40.3171 38.1605C40.4459 38.2325 40.5449 38.3277 40.614 38.446C40.6831 38.5644 40.7177 38.6922 40.7177 38.8295C40.7177 38.9934 40.6746 39.133 40.5884 39.2486C40.5032 39.3641 40.3872 39.4441 40.2404 39.4886V39.5114C40.4241 39.5417 40.5676 39.6198 40.6708 39.7457C40.774 39.8707 40.8256 40.0256 40.8256 40.2102C40.8256 40.3684 40.7826 40.5104 40.6964 40.6364C40.6112 40.7614 40.4947 40.8598 40.3469 40.9318C40.1992 41.0038 40.0311 41.0398 39.8427 41.0398Z" fill="black"/>
<path d="M62.3523 40V37.0909H63.3352C63.5625 37.0909 63.7491 37.1297 63.8949 37.2074C64.0407 37.2841 64.1487 37.3897 64.2188 37.5241C64.2888 37.6586 64.3239 37.8116 64.3239 37.983C64.3239 38.1544 64.2888 38.3063 64.2188 38.4389C64.1487 38.5715 64.0412 38.6757 63.8963 38.7514C63.7514 38.8262 63.5663 38.8636 63.3409 38.8636H62.5455V38.5455H63.3295C63.4848 38.5455 63.6098 38.5227 63.7045 38.4773C63.8002 38.4318 63.8693 38.3674 63.9119 38.2841C63.9555 38.1998 63.9773 38.0994 63.9773 37.983C63.9773 37.8665 63.9555 37.7647 63.9119 37.6776C63.8684 37.5904 63.7988 37.5232 63.7031 37.4759C63.6075 37.4276 63.4811 37.4034 63.3239 37.4034H62.7045V40H62.3523ZM63.7216 38.6932L64.4375 40H64.0284L63.3239 38.6932H63.7216ZM64.7915 39.4034V39.1136L66.07 37.0909H66.2802V37.5398H66.1381L65.1722 39.0682V39.0909H66.8938V39.4034H64.7915ZM66.1609 40V39.3153V39.1804V37.0909H66.4961V40H66.1609ZM68.3352 40.0398C68.1686 40.0398 68.0185 40.0066 67.8849 39.9403C67.7514 39.8741 67.6444 39.7831 67.5639 39.6676C67.4834 39.5521 67.4394 39.4205 67.4318 39.2727H67.7727C67.786 39.4044 67.8456 39.5133 67.9517 39.5994C68.0587 39.6847 68.1866 39.7273 68.3352 39.7273C68.4545 39.7273 68.5606 39.6993 68.6534 39.6435C68.7472 39.5876 68.8205 39.5109 68.8736 39.4134C68.9276 39.3149 68.9545 39.2036 68.9545 39.0795C68.9545 38.9527 68.9266 38.8395 68.8707 38.7401C68.8158 38.6397 68.7401 38.5606 68.6435 38.5028C68.5469 38.4451 68.4366 38.4157 68.3125 38.4148C68.2235 38.4138 68.1321 38.4276 68.0384 38.456C67.9446 38.4834 67.8674 38.5189 67.8068 38.5625L67.4773 38.5227L67.6534 37.0909H69.1648V37.4034H67.9489L67.8466 38.2614H67.8636C67.9233 38.214 67.9981 38.1747 68.0881 38.1435C68.178 38.1122 68.2718 38.0966 68.3693 38.0966C68.5473 38.0966 68.706 38.1392 68.8452 38.2244C68.9853 38.3087 69.0952 38.4242 69.1747 38.571C69.2552 38.7178 69.2955 38.8854 69.2955 39.0739C69.2955 39.2595 69.2538 39.4252 69.1705 39.571C69.0881 39.7159 68.9744 39.8305 68.8295 39.9148C68.6847 39.9981 68.5199 40.0398 68.3352 40.0398ZM70.8256 40.0398C70.7063 40.0379 70.587 40.0152 70.4677 39.9716C70.3484 39.928 70.2395 39.8546 70.141 39.7514C70.0425 39.6473 69.9634 39.5066 69.9038 39.3295C69.8441 39.1515 69.8143 38.928 69.8143 38.6591C69.8143 38.4015 69.8384 38.1733 69.8867 37.9744C69.935 37.7746 70.0051 37.6065 70.0969 37.4702C70.1888 37.3329 70.2996 37.2287 70.4293 37.1577C70.56 37.0866 70.7073 37.0511 70.8711 37.0511C71.034 37.0511 71.1789 37.0838 71.3058 37.1491C71.4336 37.2135 71.5378 37.3035 71.6183 37.419C71.6987 37.5346 71.7508 37.6676 71.7745 37.8182H71.4279C71.3957 37.6875 71.3332 37.5791 71.2404 37.4929C71.1476 37.4067 71.0245 37.3636 70.8711 37.3636C70.6457 37.3636 70.4682 37.4616 70.3384 37.6577C70.2096 37.8537 70.1448 38.1288 70.1438 38.483H70.1665C70.2196 38.4025 70.2826 38.3338 70.3555 38.277C70.4293 38.2192 70.5108 38.1747 70.5998 38.1435C70.6888 38.1122 70.783 38.0966 70.8825 38.0966C71.0491 38.0966 71.2016 38.1383 71.3398 38.2216C71.4781 38.304 71.5889 38.4181 71.6722 38.5639C71.7556 38.7088 71.7972 38.875 71.7972 39.0625C71.7972 39.2424 71.757 39.4072 71.6765 39.5568C71.596 39.7055 71.4828 39.8239 71.337 39.9119C71.1921 39.9991 71.0217 40.0417 70.8256 40.0398ZM70.8256 39.7273C70.945 39.7273 71.052 39.6974 71.1467 39.6378C71.2423 39.5781 71.3176 39.4981 71.3725 39.3977C71.4284 39.2973 71.4563 39.1856 71.4563 39.0625C71.4563 38.9422 71.4293 38.8329 71.3754 38.7344C71.3223 38.6349 71.2489 38.5559 71.1552 38.4972C71.0624 38.4384 70.9563 38.4091 70.837 38.4091C70.747 38.4091 70.6632 38.4271 70.5856 38.4631C70.5079 38.4981 70.4397 38.5464 70.381 38.608C70.3233 38.6695 70.2778 38.7401 70.2447 38.8196C70.2115 38.8982 70.195 38.9811 70.195 39.0682C70.195 39.1837 70.2219 39.2917 70.2759 39.392C70.3308 39.4924 70.4057 39.5734 70.5004 39.6349C70.596 39.6965 70.7044 39.7273 70.8256 39.7273ZM72.4467 40L73.7479 37.4261V37.4034H72.2479V37.0909H74.1115V37.4205L72.8161 40H72.4467Z" fill="black"/>
<path d="M40.7045 13.0909V16H40.3523V13.0909H40.7045ZM42.3825 13.0909V16H42.0302V13.4602H42.0131L41.3029 13.9318V13.5739L42.0302 13.0909H42.3825Z" fill="black"/>
<path d="M47.7045 26.0909V29H47.3523V26.0909H47.7045ZM49.3427 29.0398C49.1552 29.0398 48.988 29.0076 48.8413 28.9432C48.6954 28.8788 48.5794 28.7893 48.4933 28.6747C48.408 28.5592 48.3616 28.4252 48.354 28.2727H48.712C48.7196 28.3665 48.7518 28.4474 48.8086 28.5156C48.8654 28.5829 48.9397 28.6349 49.0316 28.6719C49.1235 28.7088 49.2253 28.7273 49.337 28.7273C49.462 28.7273 49.5728 28.7055 49.6694 28.6619C49.766 28.6184 49.8417 28.5578 49.8967 28.4801C49.9516 28.4025 49.979 28.3125 49.979 28.2102C49.979 28.1032 49.9525 28.009 49.8995 27.9276C49.8465 27.8452 49.7688 27.7808 49.6665 27.7344C49.5643 27.688 49.4393 27.6648 49.2915 27.6648H49.0586V27.3523H49.2915C49.4071 27.3523 49.5084 27.3314 49.5955 27.2898C49.6836 27.2481 49.7522 27.1894 49.8015 27.1136C49.8517 27.0379 49.8768 26.9489 49.8768 26.8466C49.8768 26.7481 49.855 26.6624 49.8114 26.5895C49.7679 26.5166 49.7063 26.4598 49.6268 26.419C49.5482 26.3783 49.4554 26.358 49.3484 26.358C49.248 26.358 49.1533 26.3764 49.0643 26.4134C48.9762 26.4493 48.9042 26.5019 48.8484 26.571C48.7925 26.6392 48.7622 26.7216 48.7575 26.8182H48.4165C48.4222 26.6657 48.4682 26.5322 48.5543 26.4176C48.6405 26.3021 48.7532 26.2121 48.8924 26.1477C49.0326 26.0833 49.1864 26.0511 49.354 26.0511C49.534 26.0511 49.6883 26.0876 49.8171 26.1605C49.9459 26.2325 50.0449 26.3277 50.114 26.446C50.1831 26.5644 50.2177 26.6922 50.2177 26.8295C50.2177 26.9934 50.1746 27.133 50.0884 27.2486C50.0032 27.3641 49.8872 27.4441 49.7404 27.4886V27.5114C49.9241 27.5417 50.0676 27.6198 50.1708 27.7457C50.274 27.8707 50.3256 28.0256 50.3256 28.2102C50.3256 28.3684 50.2826 28.5104 50.1964 28.6364C50.1112 28.7614 49.9947 28.8598 49.8469 28.9318C49.6992 29.0038 49.5311 29.0398 49.3427 29.0398Z" fill="black"/>
<path d="M58 27V33" stroke="black" stroke-width="0.5"/>
<path d="M58 51V44" stroke="black" stroke-width="0.5"/>
<path d="M58 62H44" stroke="black" stroke-width="0.5"/>
</svg>
