<svg width="129" height="79" viewBox="0 0 129 79" fill="none" xmlns="http://www.w3.org/2000/svg">
<rect width="129" height="79" rx="6" fill="white"/>
<path fill-rule="evenodd" clip-rule="evenodd" d="M65.5 43.5L65.5 34.5L62.5 34.5L62.5 43.5L65.5 43.5ZM66 34.5L66 34L65.5 34L64.25 34L64.25 27L64.25 26.75L63.75 26.75L63.75 27L63.75 34L62.5 34L62 34L62 34.5L62 43.5L62 44L62.5 44L63.75 44L63.75 51L63.75 51.25L64.25 51.25L64.25 51L64.25 44L65.5 44L66 44L66 43.5L66 34.5Z" fill="black"/>
<path fill-rule="evenodd" clip-rule="evenodd" d="M45.5 44.5L45.5 35.5L42.5 35.5L42.5 44.5L45.5 44.5ZM46 35.5L46 35L45.5 35L44.25 35L44.25 28L44.25 27.75L43.75 27.75L43.75 28L43.75 35L42.5 35L42 35L42 35.5L42 44.5L42 45L42.5 45L43.75 45L43.75 52L43.75 52.25L44.25 52.25L44.25 52L44.25 45L45.5 45L46 45L46 44.5L46 35.5Z" fill="black"/>
<path fill-rule="evenodd" clip-rule="evenodd" d="M36.5 60.5H27.5V63.5H36.5V60.5ZM27.5 60H27V60.5V61.75H20H19.75V62.25H20H27V63.5V64H27.5H36.5H37V63.5V62.25L44 62.25H44.25V61.75H44L37 61.75V60.5V60H36.5H27.5Z" fill="black"/>
<path fill-rule="evenodd" clip-rule="evenodd" d="M36.5 21C36.5 23.4853 34.4853 25.5 32 25.5C29.5986 25.5 27.6365 23.619 27.5068 21.25H28H28.25H33.8964L32.8232 22.3232L33.1768 22.6768L34.6768 21.1768L34.8536 21L34.6768 20.8232L33.1768 19.3232L32.8232 19.6768L33.8964 20.75H28.25H28H27.5068C27.6365 18.381 29.5986 16.5 32 16.5C34.4853 16.5 36.5 18.5147 36.5 21ZM32 26C29.3224 26 27.1364 23.8953 27.0061 21.25H20H19.75V20.75H20H27.0061C27.1364 18.1047 29.3224 16 32 16C34.6776 16 36.8636 18.1047 36.9939 20.75H37H44H44.25V21.25H44H37H36.9939C36.8636 23.8953 34.6776 26 32 26Z" fill="black"/>
<circle cx="44" cy="21" r="1" fill="black"/>
<path d="M44 50V62" stroke="black" stroke-width="0.5"/>
<path d="M64 51V62" stroke="black" stroke-width="0.5"/>
<path d="M64 27.4167V21H44V28" stroke="black" stroke-width="0.5"/>
<path d="M20 51V21" stroke="black" stroke-width="0.5"/>
<path d="M20 51V62" stroke="black" stroke-width="0.5"/>
<circle cx="44" cy="62" r="1" fill="black"/>
<path d="M40 19L42 21L40 23" stroke="black" stroke-width="0.5"/>
<path d="M42 29L44 31L46 29" stroke="black" stroke-width="0.5"/>
<path d="M30.3523 14V11.0909H32.108V11.4034H30.7045V12.3864H32.017V12.6989H30.7045V13.6875H32.1307V14H30.3523Z" fill="black"/>
<path d="M29.3523 59V56.0909H30.3352C30.5625 56.0909 30.7491 56.1297 30.8949 56.2074C31.0407 56.2841 31.1487 56.3897 31.2188 56.5241C31.2888 56.6586 31.3239 56.8116 31.3239 56.983C31.3239 57.1544 31.2888 57.3063 31.2188 57.4389C31.1487 57.5715 31.0412 57.6757 30.8963 57.7514C30.7514 57.8262 30.5663 57.8636 30.3409 57.8636H29.5455V57.5455H30.3295C30.4848 57.5455 30.6098 57.5227 30.7045 57.4773C30.8002 57.4318 30.8693 57.3674 30.9119 57.2841C30.9555 57.1998 30.9773 57.0994 30.9773 56.983C30.9773 56.8665 30.9555 56.7647 30.9119 56.6776C30.8684 56.5904 30.7988 56.5232 30.7031 56.4759C30.6075 56.4276 30.4811 56.4034 30.3239 56.4034H29.7045V59H29.3523ZM30.7216 57.6932L31.4375 59H31.0284L30.3239 57.6932H30.7216ZM32.8825 56.0909V59H32.5302V56.4602H32.5131L31.8029 56.9318V56.5739L32.5302 56.0909H32.8825ZM33.7191 59V58.7443L34.6793 57.6932C34.792 57.5701 34.8848 57.4631 34.9577 57.3722C35.0307 57.2803 35.0846 57.1941 35.1197 57.1136C35.1557 57.0322 35.1737 56.947 35.1737 56.858C35.1737 56.7557 35.149 56.6671 35.0998 56.5923C35.0515 56.5175 34.9852 56.4598 34.9009 56.419C34.8166 56.3783 34.7219 56.358 34.6168 56.358C34.5051 56.358 34.4076 56.3812 34.3242 56.4276C34.2418 56.473 34.1779 56.5369 34.1325 56.6193C34.0879 56.7017 34.0657 56.7983 34.0657 56.9091H33.7305C33.7305 56.7386 33.7698 56.589 33.8484 56.4602C33.927 56.3314 34.034 56.2311 34.1694 56.1591C34.3058 56.0871 34.4587 56.0511 34.6282 56.0511C34.7987 56.0511 34.9497 56.0871 35.0813 56.1591C35.2129 56.2311 35.3162 56.3281 35.391 56.4503C35.4658 56.5724 35.5032 56.7083 35.5032 56.858C35.5032 56.965 35.4838 57.0696 35.445 57.1719C35.4071 57.2732 35.3408 57.3864 35.2461 57.5114C35.1523 57.6354 35.0221 57.7869 34.8555 57.9659L34.2021 58.6648V58.6875H35.5543V59H33.7191Z" fill="black"/>
<path d="M36.3523 41V38.0909H37.3352C37.5625 38.0909 37.7491 38.1297 37.8949 38.2074C38.0407 38.2841 38.1487 38.3897 38.2188 38.5241C38.2888 38.6586 38.3239 38.8116 38.3239 38.983C38.3239 39.1544 38.2888 39.3063 38.2188 39.4389C38.1487 39.5715 38.0412 39.6757 37.8963 39.7514C37.7514 39.8262 37.5663 39.8636 37.3409 39.8636H36.5455V39.5455H37.3295C37.4848 39.5455 37.6098 39.5227 37.7045 39.4773C37.8002 39.4318 37.8693 39.3674 37.9119 39.2841C37.9555 39.1998 37.9773 39.0994 37.9773 38.983C37.9773 38.8665 37.9555 38.7647 37.9119 38.6776C37.8684 38.5904 37.7988 38.5232 37.7031 38.4759C37.6075 38.4276 37.4811 38.4034 37.3239 38.4034H36.7045V41H36.3523ZM37.7216 39.6932L38.4375 41H38.0284L37.3239 39.6932H37.7216ZM39.8427 41.0398C39.6552 41.0398 39.488 41.0076 39.3413 40.9432C39.1954 40.8788 39.0794 40.7893 38.9933 40.6747C38.908 40.5592 38.8616 40.4252 38.854 40.2727H39.212C39.2196 40.3665 39.2518 40.4474 39.3086 40.5156C39.3654 40.5829 39.4397 40.6349 39.5316 40.6719C39.6235 40.7088 39.7253 40.7273 39.837 40.7273C39.962 40.7273 40.0728 40.7055 40.1694 40.6619C40.266 40.6184 40.3417 40.5578 40.3967 40.4801C40.4516 40.4025 40.479 40.3125 40.479 40.2102C40.479 40.1032 40.4525 40.009 40.3995 39.9276C40.3465 39.8452 40.2688 39.7808 40.1665 39.7344C40.0643 39.688 39.9393 39.6648 39.7915 39.6648H39.5586V39.3523H39.7915C39.9071 39.3523 40.0084 39.3314 40.0955 39.2898C40.1836 39.2481 40.2522 39.1894 40.3015 39.1136C40.3517 39.0379 40.3768 38.9489 40.3768 38.8466C40.3768 38.7481 40.355 38.6624 40.3114 38.5895C40.2679 38.5166 40.2063 38.4598 40.1268 38.419C40.0482 38.3783 39.9554 38.358 39.8484 38.358C39.748 38.358 39.6533 38.3764 39.5643 38.4134C39.4762 38.4493 39.4042 38.5019 39.3484 38.571C39.2925 38.6392 39.2622 38.7216 39.2575 38.8182H38.9165C38.9222 38.6657 38.9682 38.5322 39.0543 38.4176C39.1405 38.3021 39.2532 38.2121 39.3924 38.1477C39.5326 38.0833 39.6864 38.0511 39.854 38.0511C40.034 38.0511 40.1883 38.0876 40.3171 38.1605C40.4459 38.2325 40.5449 38.3277 40.614 38.446C40.6831 38.5644 40.7177 38.6922 40.7177 38.8295C40.7177 38.9934 40.6746 39.133 40.5884 39.2486C40.5032 39.3641 40.3872 39.4441 40.2404 39.4886V39.5114C40.4241 39.5417 40.5676 39.6198 40.6708 39.7457C40.774 39.8707 40.8256 40.0256 40.8256 40.2102C40.8256 40.3684 40.7826 40.5104 40.6964 40.6364C40.6112 40.7614 40.4947 40.8598 40.3469 40.9318C40.1992 41.0038 40.0311 41.0398 39.8427 41.0398Z" fill="black"/>
<path d="M68.3523 40V37.0909H69.3352C69.5625 37.0909 69.7491 37.1297 69.8949 37.2074C70.0407 37.2841 70.1487 37.3897 70.2188 37.5241C70.2888 37.6586 70.3239 37.8116 70.3239 37.983C70.3239 38.1544 70.2888 38.3063 70.2188 38.4389C70.1487 38.5715 70.0412 38.6757 69.8963 38.7514C69.7514 38.8262 69.5663 38.8636 69.3409 38.8636H68.5455V38.5455H69.3295C69.4848 38.5455 69.6098 38.5227 69.7045 38.4773C69.8002 38.4318 69.8693 38.3674 69.9119 38.2841C69.9555 38.1998 69.9773 38.0994 69.9773 37.983C69.9773 37.8665 69.9555 37.7647 69.9119 37.6776C69.8684 37.5904 69.7988 37.5232 69.7031 37.4759C69.6075 37.4276 69.4811 37.4034 69.3239 37.4034H68.7045V40H68.3523ZM69.7216 38.6932L70.4375 40H70.0284L69.3239 38.6932H69.7216ZM70.7915 39.4034V39.1136L72.07 37.0909H72.2802V37.5398H72.1381L71.1722 39.0682V39.0909H72.8938V39.4034H70.7915ZM72.1609 40V39.3153V39.1804V37.0909H72.4961V40H72.1609ZM74.3352 40.0398C74.1686 40.0398 74.0185 40.0066 73.8849 39.9403C73.7514 39.8741 73.6444 39.7831 73.5639 39.6676C73.4834 39.5521 73.4394 39.4205 73.4318 39.2727H73.7727C73.786 39.4044 73.8456 39.5133 73.9517 39.5994C74.0587 39.6847 74.1866 39.7273 74.3352 39.7273C74.4545 39.7273 74.5606 39.6993 74.6534 39.6435C74.7472 39.5876 74.8205 39.5109 74.8736 39.4134C74.9276 39.3149 74.9545 39.2036 74.9545 39.0795C74.9545 38.9527 74.9266 38.8395 74.8707 38.7401C74.8158 38.6397 74.7401 38.5606 74.6435 38.5028C74.5469 38.4451 74.4366 38.4157 74.3125 38.4148C74.2235 38.4138 74.1321 38.4276 74.0384 38.456C73.9446 38.4834 73.8674 38.5189 73.8068 38.5625L73.4773 38.5227L73.6534 37.0909H75.1648V37.4034H73.9489L73.8466 38.2614H73.8636C73.9233 38.214 73.9981 38.1747 74.0881 38.1435C74.178 38.1122 74.2718 38.0966 74.3693 38.0966C74.5473 38.0966 74.706 38.1392 74.8452 38.2244C74.9853 38.3087 75.0952 38.4242 75.1747 38.571C75.2552 38.7178 75.2955 38.8854 75.2955 39.0739C75.2955 39.2595 75.2538 39.4252 75.1705 39.571C75.0881 39.7159 74.9744 39.8305 74.8295 39.9148C74.6847 39.9981 74.5199 40.0398 74.3352 40.0398ZM76.8256 40.0398C76.7063 40.0379 76.587 40.0152 76.4677 39.9716C76.3484 39.928 76.2395 39.8546 76.141 39.7514C76.0425 39.6473 75.9634 39.5066 75.9038 39.3295C75.8441 39.1515 75.8143 38.928 75.8143 38.6591C75.8143 38.4015 75.8384 38.1733 75.8867 37.9744C75.935 37.7746 76.0051 37.6065 76.0969 37.4702C76.1888 37.3329 76.2996 37.2287 76.4293 37.1577C76.56 37.0866 76.7073 37.0511 76.8711 37.0511C77.034 37.0511 77.1789 37.0838 77.3058 37.1491C77.4336 37.2135 77.5378 37.3035 77.6183 37.419C77.6987 37.5346 77.7508 37.6676 77.7745 37.8182H77.4279C77.3957 37.6875 77.3332 37.5791 77.2404 37.4929C77.1476 37.4067 77.0245 37.3636 76.8711 37.3636C76.6457 37.3636 76.4682 37.4616 76.3384 37.6577C76.2096 37.8537 76.1448 38.1288 76.1438 38.483H76.1665C76.2196 38.4025 76.2826 38.3338 76.3555 38.277C76.4293 38.2192 76.5108 38.1747 76.5998 38.1435C76.6888 38.1122 76.783 38.0966 76.8825 38.0966C77.0491 38.0966 77.2016 38.1383 77.3398 38.2216C77.4781 38.304 77.5889 38.4181 77.6722 38.5639C77.7556 38.7088 77.7972 38.875 77.7972 39.0625C77.7972 39.2424 77.757 39.4072 77.6765 39.5568C77.596 39.7055 77.4828 39.8239 77.337 39.9119C77.1921 39.9991 77.0217 40.0417 76.8256 40.0398ZM76.8256 39.7273C76.945 39.7273 77.052 39.6974 77.1467 39.6378C77.2423 39.5781 77.3176 39.4981 77.3725 39.3977C77.4284 39.2973 77.4563 39.1856 77.4563 39.0625C77.4563 38.9422 77.4293 38.8329 77.3754 38.7344C77.3223 38.6349 77.2489 38.5559 77.1552 38.4972C77.0624 38.4384 76.9563 38.4091 76.837 38.4091C76.747 38.4091 76.6632 38.4271 76.5856 38.4631C76.5079 38.4981 76.4397 38.5464 76.381 38.608C76.3233 38.6695 76.2778 38.7401 76.2447 38.8196C76.2115 38.8982 76.195 38.9811 76.195 39.0682C76.195 39.1837 76.2219 39.2917 76.2759 39.392C76.3308 39.4924 76.4057 39.5734 76.5004 39.6349C76.596 39.6965 76.7044 39.7273 76.8256 39.7273ZM78.4467 40L79.7479 37.4261V37.4034H78.2479V37.0909H80.1115V37.4205L78.8161 40H78.4467Z" fill="black"/>
<path d="M38.7045 14.0909V17H38.3523V14.0909H38.7045ZM40.3825 14.0909V17H40.0302V14.4602H40.0131L39.3029 14.9318V14.5739L40.0302 14.0909H40.3825Z" fill="black"/>
<path d="M47.7045 26.0909V29H47.3523V26.0909H47.7045ZM49.3427 29.0398C49.1552 29.0398 48.988 29.0076 48.8413 28.9432C48.6954 28.8788 48.5794 28.7893 48.4933 28.6747C48.408 28.5592 48.3616 28.4252 48.354 28.2727H48.712C48.7196 28.3665 48.7518 28.4474 48.8086 28.5156C48.8654 28.5829 48.9397 28.6349 49.0316 28.6719C49.1235 28.7088 49.2253 28.7273 49.337 28.7273C49.462 28.7273 49.5728 28.7055 49.6694 28.6619C49.766 28.6184 49.8417 28.5578 49.8967 28.4801C49.9516 28.4025 49.979 28.3125 49.979 28.2102C49.979 28.1032 49.9525 28.009 49.8995 27.9276C49.8465 27.8452 49.7688 27.7808 49.6665 27.7344C49.5643 27.688 49.4393 27.6648 49.2915 27.6648H49.0586V27.3523H49.2915C49.4071 27.3523 49.5084 27.3314 49.5955 27.2898C49.6836 27.2481 49.7522 27.1894 49.8015 27.1136C49.8517 27.0379 49.8768 26.9489 49.8768 26.8466C49.8768 26.7481 49.855 26.6624 49.8114 26.5895C49.7679 26.5166 49.7063 26.4598 49.6268 26.419C49.5482 26.3783 49.4554 26.358 49.3484 26.358C49.248 26.358 49.1533 26.3764 49.0643 26.4134C48.9762 26.4493 48.9042 26.5019 48.8484 26.571C48.7925 26.6392 48.7622 26.7216 48.7575 26.8182H48.4165C48.4222 26.6657 48.4682 26.5322 48.5543 26.4176C48.6405 26.3021 48.7532 26.2121 48.8924 26.1477C49.0326 26.0833 49.1864 26.0511 49.354 26.0511C49.534 26.0511 49.6883 26.0876 49.8171 26.1605C49.9459 26.2325 50.0449 26.3277 50.114 26.446C50.1831 26.5644 50.2177 26.6922 50.2177 26.8295C50.2177 26.9934 50.1746 27.133 50.0884 27.2486C50.0032 27.3641 49.8872 27.4441 49.7404 27.4886V27.5114C49.9241 27.5417 50.0676 27.6198 50.1708 27.7457C50.274 27.8707 50.3256 28.0256 50.3256 28.2102C50.3256 28.3684 50.2826 28.5104 50.1964 28.6364C50.1112 28.7614 49.9947 28.8598 49.8469 28.9318C49.6992 29.0038 49.5311 29.0398 49.3427 29.0398Z" fill="black"/>
<path d="M64 62H44" stroke="black" stroke-width="0.5"/>
<path d="M45.4716 19H45.1023L46.1705 16.0909H46.5341L47.6023 19H47.233L46.3636 16.5511H46.3409L45.4716 19ZM45.608 17.8636H47.0966V18.1761H45.608V17.8636Z" fill="black"/>
<path d="M45.3523 67V64.0909H46.3693C46.572 64.0909 46.7391 64.1259 46.8707 64.196C47.0024 64.2652 47.1004 64.3584 47.1648 64.4759C47.2292 64.5923 47.2614 64.7216 47.2614 64.8636C47.2614 64.9886 47.2391 65.0919 47.1946 65.1733C47.151 65.2547 47.0933 65.3191 47.0213 65.3665C46.9503 65.4138 46.8731 65.4489 46.7898 65.4716V65.5C46.8788 65.5057 46.9683 65.5369 47.0582 65.5938C47.1482 65.6506 47.2235 65.732 47.2841 65.8381C47.3447 65.9441 47.375 66.0739 47.375 66.2273C47.375 66.3731 47.3419 66.5043 47.2756 66.6207C47.2093 66.7372 47.1046 66.8295 46.9616 66.8977C46.8187 66.9659 46.6326 67 46.4034 67H45.3523ZM45.7045 66.6875H46.4034C46.6335 66.6875 46.7969 66.643 46.8935 66.554C46.991 66.464 47.0398 66.3551 47.0398 66.2273C47.0398 66.1288 47.0147 66.0379 46.9645 65.9545C46.9143 65.8703 46.8428 65.803 46.75 65.7528C46.6572 65.7017 46.5473 65.6761 46.4205 65.6761H45.7045V66.6875ZM45.7045 65.3693H46.358C46.464 65.3693 46.5597 65.3485 46.6449 65.3068C46.7311 65.2652 46.7992 65.2064 46.8494 65.1307C46.9006 65.0549 46.9261 64.9659 46.9261 64.8636C46.9261 64.7358 46.8816 64.6274 46.7926 64.5384C46.7036 64.4484 46.5625 64.4034 46.3693 64.4034H45.7045V65.3693Z" fill="black"/>
</svg>
