<svg width="78" height="32" viewBox="0 0 78 32" fill="none" xmlns="http://www.w3.org/2000/svg">
<rect width="78" height="32" rx="6" fill="white"/>
<path fill-rule="evenodd" clip-rule="evenodd" d="M41.5 14C41.5 16.4853 39.4853 18.5 37 18.5C34.5986 18.5 32.6365 16.619 32.5068 14.25H33H33.25H38.8964L37.8232 15.3232L38.1768 15.6768L39.6768 14.1768L39.8536 14L39.6768 13.8232L38.1768 12.3232L37.8232 12.6768L38.8964 13.75H33.25H33H32.5068C32.6365 11.381 34.5986 9.5 37 9.5C39.4853 9.5 41.5 11.5147 41.5 14ZM37 19C34.3224 19 32.1364 16.8953 32.0061 14.25H25H24.75V13.75H25H32.0061C32.1364 11.1047 34.3224 9 37 9C39.6776 9 41.8636 11.1047 41.9939 13.75H42H49H49.25V14.25H49H42H41.9939C41.8636 16.8953 39.6776 19 37 19Z" fill="black"/>
<path fill-rule="evenodd" clip-rule="evenodd" d="M61.5 12.5H52.5V15.5H61.5V12.5ZM52.5 12H52V12.5V13.75H45H44.75V14.25H45H52V15.5V16H52.5H61.5H62V15.5V14.25H69H69.25V13.75H69H62V12.5V12H61.5H52.5Z" fill="black"/>
<path d="M69.1768 22.1768C69.2744 22.0791 69.2744 21.9209 69.1768 21.8232L67.5858 20.2322C67.4882 20.1346 67.3299 20.1346 67.2322 20.2322C67.1346 20.3299 67.1346 20.4882 67.2322 20.5858L68.6464 22L67.2322 23.4142C67.1346 23.5118 67.1346 23.6701 67.2322 23.7678C67.3299 23.8654 67.4882 23.8654 67.5858 23.7678L69.1768 22.1768ZM8 22.25H69V21.75H8V22.25Z" fill="black"/>
<path d="M23.1768 14.1768C23.2744 14.0791 23.2744 13.9209 23.1768 13.8232L21.5858 12.2322C21.4882 12.1346 21.3299 12.1346 21.2322 12.2322C21.1346 12.3299 21.1346 12.4882 21.2322 12.5858L22.6464 14L21.2322 15.4142C21.1346 15.5118 21.1346 15.6701 21.2322 15.7678C21.3299 15.8654 21.4882 15.8654 21.5858 15.7678L23.1768 14.1768ZM19 14.25H23V13.75H19V14.25Z" fill="black"/>
<path d="M25 14L8 14" stroke="black" stroke-width="0.5"/>
<path d="M8 13V15" stroke="black" stroke-width="0.5"/>
<path d="M69 13V15" stroke="black" stroke-width="0.5"/>
<path d="M7.94886 11.0511C7.81061 11.0511 7.68513 11.0251 7.57244 10.973C7.45975 10.92 7.37027 10.8438 7.30398 10.7443C7.23769 10.6439 7.20455 10.5227 7.20455 10.3807C7.20455 10.2557 7.22917 10.1544 7.27841 10.0767C7.32765 9.99811 7.39347 9.93655 7.47585 9.89205C7.55824 9.84754 7.64915 9.81439 7.74858 9.79261C7.84896 9.76989 7.94981 9.75189 8.05114 9.73864C8.18371 9.72159 8.29119 9.70881 8.37358 9.70028C8.45691 9.69081 8.51752 9.67519 8.5554 9.65341C8.59422 9.63163 8.61364 9.59375 8.61364 9.53977V9.52841C8.61364 9.38826 8.57528 9.27936 8.49858 9.2017C8.42282 9.12405 8.30777 9.08523 8.15341 9.08523C7.99337 9.08523 7.8679 9.12027 7.77699 9.19034C7.68608 9.26042 7.62216 9.33523 7.58523 9.41477L7.26705 9.30114C7.32386 9.16856 7.39962 9.06534 7.49432 8.99148C7.58996 8.91667 7.69413 8.86458 7.80682 8.83523C7.92045 8.80492 8.0322 8.78977 8.14205 8.78977C8.21212 8.78977 8.29261 8.7983 8.38352 8.81534C8.47538 8.83144 8.56392 8.86506 8.64915 8.91619C8.73532 8.96733 8.80682 9.04451 8.86364 9.14773C8.92045 9.25095 8.94886 9.3892 8.94886 9.5625V11H8.61364V10.7045H8.59659C8.57386 10.7519 8.53598 10.8026 8.48295 10.8565C8.42992 10.9105 8.35938 10.9564 8.27131 10.9943C8.18324 11.0322 8.07576 11.0511 7.94886 11.0511ZM8 10.75C8.13258 10.75 8.24432 10.724 8.33523 10.6719C8.42708 10.6198 8.49621 10.5526 8.54261 10.4702C8.58996 10.3878 8.61364 10.3011 8.61364 10.2102V9.90341C8.59943 9.92045 8.56818 9.93608 8.51989 9.95028C8.47254 9.96354 8.41761 9.97538 8.35511 9.9858C8.29356 9.99527 8.23343 10.0038 8.17472 10.0114C8.11695 10.018 8.07008 10.0237 8.03409 10.0284C7.94697 10.0398 7.86553 10.0582 7.78977 10.0838C7.71496 10.1084 7.65436 10.1458 7.60795 10.196C7.5625 10.2453 7.53977 10.3125 7.53977 10.3977C7.53977 10.5142 7.58286 10.6023 7.66903 10.6619C7.75616 10.7206 7.86648 10.75 8 10.75Z" fill="black"/>
<path d="M69.9261 8L70.0966 8.20455C70.0303 8.26894 69.9536 8.31392 69.8665 8.33949C69.7794 8.36506 69.6809 8.38068 69.571 8.38636C69.4612 8.39205 69.339 8.39773 69.2045 8.40341C69.053 8.40909 68.9276 8.44602 68.8281 8.5142C68.7287 8.58239 68.652 8.68087 68.598 8.80966C68.544 8.93845 68.5095 9.09659 68.4943 9.28409H68.5227C68.5966 9.14773 68.6989 9.04735 68.8295 8.98295C68.9602 8.91856 69.1004 8.88636 69.25 8.88636C69.4205 8.88636 69.5739 8.92614 69.7102 9.00568C69.8466 9.08523 69.9545 9.20312 70.0341 9.35938C70.1136 9.51562 70.1534 9.70833 70.1534 9.9375C70.1534 10.1657 70.1127 10.3627 70.0312 10.5284C69.9508 10.6941 69.8376 10.822 69.6918 10.9119C69.5469 11.0009 69.3769 11.0455 69.1818 11.0455C68.9867 11.0455 68.8158 10.9995 68.669 10.9077C68.5223 10.8149 68.4081 10.6776 68.3267 10.4957C68.2453 10.313 68.2045 10.0871 68.2045 9.81818V9.58523C68.2045 9.09943 68.2869 8.73106 68.4517 8.48011C68.6174 8.22917 68.8665 8.09943 69.1989 8.09091C69.3163 8.08712 69.4209 8.08617 69.5128 8.08807C69.6046 8.08996 69.6847 8.0857 69.7528 8.07528C69.821 8.06487 69.8788 8.03977 69.9261 8ZM69.1818 10.7443C69.3134 10.7443 69.4266 10.7112 69.5213 10.6449C69.617 10.5786 69.6903 10.4853 69.7415 10.3651C69.7926 10.2438 69.8182 10.1013 69.8182 9.9375C69.8182 9.77841 69.7921 9.64299 69.7401 9.53125C69.6889 9.41951 69.6155 9.33428 69.5199 9.27557C69.4242 9.21686 69.3097 9.1875 69.1761 9.1875C69.0786 9.1875 68.991 9.20407 68.9134 9.23722C68.8357 9.27036 68.7694 9.31913 68.7145 9.38352C68.6596 9.44792 68.617 9.52652 68.5866 9.61932C68.5573 9.71212 68.5417 9.81818 68.5398 9.9375C68.5398 10.1818 68.5971 10.3774 68.7116 10.5241C68.8262 10.6709 68.983 10.7443 69.1818 10.7443Z" fill="black"/>
<path d="M21.7045 7.09091V10H21.3523V7.09091H21.7045Z" fill="black"/>
<path d="M36.3523 7V4.09091H38.108V4.40341H36.7045V5.38636H38.017V5.69886H36.7045V6.6875H38.1307V7H36.3523Z" fill="black"/>
<path d="M36.2614 24.0909H36.6136V26.017C36.6136 26.2159 36.5668 26.3935 36.473 26.5497C36.3802 26.705 36.2491 26.8277 36.0795 26.9176C35.91 27.0066 35.7112 27.0511 35.483 27.0511C35.2547 27.0511 35.0559 27.0066 34.8864 26.9176C34.7169 26.8277 34.5852 26.705 34.4915 26.5497C34.3987 26.3935 34.3523 26.2159 34.3523 26.017V24.0909H34.7045V25.9886C34.7045 26.1307 34.7358 26.2571 34.7983 26.3679C34.8608 26.4777 34.9498 26.5644 35.0653 26.6278C35.1818 26.6903 35.321 26.7216 35.483 26.7216C35.6449 26.7216 35.7841 26.6903 35.9006 26.6278C36.017 26.5644 36.1061 26.4777 36.1676 26.3679C36.2301 26.2571 36.2614 26.1307 36.2614 25.9886V24.0909ZM37.9137 27.0511C37.7754 27.0511 37.65 27.0251 37.5373 26.973C37.4246 26.92 37.3351 26.8438 37.2688 26.7443C37.2025 26.6439 37.1694 26.5227 37.1694 26.3807C37.1694 26.2557 37.194 26.1544 37.2433 26.0767C37.2925 25.9981 37.3583 25.9366 37.4407 25.892C37.5231 25.8475 37.614 25.8144 37.7134 25.7926C37.8138 25.7699 37.9147 25.7519 38.016 25.7386C38.1486 25.7216 38.256 25.7088 38.3384 25.7003C38.4218 25.6908 38.4824 25.6752 38.5202 25.6534C38.5591 25.6316 38.5785 25.5937 38.5785 25.5398V25.5284C38.5785 25.3883 38.5401 25.2794 38.4634 25.2017C38.3877 25.1241 38.2726 25.0852 38.1183 25.0852C37.9582 25.0852 37.8327 25.1203 37.7418 25.1903C37.6509 25.2604 37.587 25.3352 37.5501 25.4148L37.2319 25.3011C37.2887 25.1686 37.3645 25.0653 37.4592 24.9915C37.5548 24.9167 37.659 24.8646 37.7717 24.8352C37.8853 24.8049 37.997 24.7898 38.1069 24.7898C38.177 24.7898 38.2575 24.7983 38.3484 24.8153C38.4402 24.8314 38.5288 24.8651 38.614 24.9162C38.7002 24.9673 38.7717 25.0445 38.8285 25.1477C38.8853 25.2509 38.9137 25.3892 38.9137 25.5625V27H38.5785V26.7045H38.5614C38.5387 26.7519 38.5008 26.8026 38.4478 26.8565C38.3948 26.9105 38.3242 26.9564 38.2362 26.9943C38.1481 27.0322 38.0406 27.0511 37.9137 27.0511ZM37.9648 26.75C38.0974 26.75 38.2092 26.724 38.3001 26.6719C38.3919 26.6198 38.4611 26.5526 38.5075 26.4702C38.5548 26.3878 38.5785 26.3011 38.5785 26.2102V25.9034C38.5643 25.9205 38.533 25.9361 38.4847 25.9503C38.4374 25.9635 38.3825 25.9754 38.32 25.9858C38.2584 25.9953 38.1983 26.0038 38.1396 26.0114C38.0818 26.018 38.0349 26.0237 37.9989 26.0284C37.9118 26.0398 37.8304 26.0582 37.7546 26.0838C37.6798 26.1084 37.6192 26.1458 37.5728 26.196C37.5273 26.2453 37.5046 26.3125 37.5046 26.3977C37.5046 26.5142 37.5477 26.6023 37.6339 26.6619C37.721 26.7206 37.8313 26.75 37.9648 26.75ZM41.1449 24L41.3153 24.2045C41.2491 24.2689 41.1723 24.3139 41.0852 24.3395C40.9981 24.3651 40.8996 24.3807 40.7898 24.3864C40.6799 24.392 40.5578 24.3977 40.4233 24.4034C40.2718 24.4091 40.1463 24.446 40.0469 24.5142C39.9474 24.5824 39.8707 24.6809 39.8168 24.8097C39.7628 24.9384 39.7282 25.0966 39.7131 25.2841H39.7415C39.8153 25.1477 39.9176 25.0473 40.0483 24.983C40.179 24.9186 40.3191 24.8864 40.4688 24.8864C40.6392 24.8864 40.7926 24.9261 40.929 25.0057C41.0653 25.0852 41.1733 25.2031 41.2528 25.3594C41.3324 25.5156 41.3722 25.7083 41.3722 25.9375C41.3722 26.1657 41.3314 26.3627 41.25 26.5284C41.1695 26.6941 41.0563 26.822 40.9105 26.9119C40.7656 27.0009 40.5956 27.0455 40.4006 27.0455C40.2055 27.0455 40.0346 26.9995 39.8878 26.9077C39.741 26.8149 39.6269 26.6776 39.5455 26.4957C39.464 26.313 39.4233 26.0871 39.4233 25.8182V25.5852C39.4233 25.0994 39.5057 24.7311 39.6705 24.4801C39.8362 24.2292 40.0852 24.0994 40.4176 24.0909C40.535 24.0871 40.6397 24.0862 40.7315 24.0881C40.8234 24.09 40.9034 24.0857 40.9716 24.0753C41.0398 24.0649 41.0975 24.0398 41.1449 24ZM40.4006 26.7443C40.5322 26.7443 40.6454 26.7112 40.7401 26.6449C40.8357 26.5786 40.9091 26.4853 40.9602 26.3651C41.0114 26.2438 41.0369 26.1013 41.0369 25.9375C41.0369 25.7784 41.0109 25.643 40.9588 25.5312C40.9077 25.4195 40.8343 25.3343 40.7386 25.2756C40.643 25.2169 40.5284 25.1875 40.3949 25.1875C40.2973 25.1875 40.2098 25.2041 40.1321 25.2372C40.0545 25.2704 39.9882 25.3191 39.9332 25.3835C39.8783 25.4479 39.8357 25.5265 39.8054 25.6193C39.776 25.7121 39.7604 25.8182 39.7585 25.9375C39.7585 26.1818 39.8158 26.3774 39.9304 26.5241C40.045 26.6709 40.2017 26.7443 40.4006 26.7443Z" fill="black"/>
<path d="M56.3523 10V7.09091H57.3352C57.5625 7.09091 57.7491 7.12973 57.8949 7.20739C58.0407 7.28409 58.1487 7.38968 58.2188 7.52415C58.2888 7.65862 58.3239 7.81155 58.3239 7.98295C58.3239 8.15436 58.2888 8.30634 58.2188 8.43892C58.1487 8.5715 58.0412 8.67566 57.8963 8.75142C57.7514 8.82623 57.5663 8.86364 57.3409 8.86364H56.5455V8.54545H57.3295C57.4848 8.54545 57.6098 8.52273 57.7045 8.47727C57.8002 8.43182 57.8693 8.36742 57.9119 8.28409C57.9555 8.19981 57.9773 8.09943 57.9773 7.98295C57.9773 7.86648 57.9555 7.76468 57.9119 7.67756C57.8684 7.59044 57.7988 7.5232 57.7031 7.47585C57.6075 7.42756 57.4811 7.40341 57.3239 7.40341H56.7045V10H56.3523ZM57.7216 8.69318L58.4375 10H58.0284L57.3239 8.69318H57.7216Z" fill="black"/>
</svg>
