<svg width="113" height="72" viewBox="0 0 113 72" fill="none" xmlns="http://www.w3.org/2000/svg">
<rect width="113" height="72" rx="6" fill="white"/>
<path fill-rule="evenodd" clip-rule="evenodd" d="M36.5 17C36.5 19.4853 34.4853 21.5 32 21.5C29.5986 21.5 27.6365 19.619 27.5068 17.25H28H28.25H33.8964L32.8232 18.3232L33.1768 18.6768L34.6768 17.1768L34.8536 17L34.6768 16.8232L33.1768 15.3232L32.8232 15.6768L33.8964 16.75H28.25H28H27.5068C27.6365 14.381 29.5986 12.5 32 12.5C34.4853 12.5 36.5 14.5147 36.5 17ZM32 22C29.3224 22 27.1364 19.8953 27.0061 17.25H20H19.75V16.75H20H27.0061C27.1364 14.1047 29.3224 12 32 12C34.6776 12 36.8636 14.1047 36.9939 16.75H37H44H44.25V17.25H44H37H36.9939C36.8636 19.8953 34.6776 22 32 22Z" fill="black"/>
<path fill-rule="evenodd" clip-rule="evenodd" d="M13.5 24.5L13.5 33.5L16.5 33.5L16.5 24.5L13.5 24.5ZM13 33.5L13 34L13.5 34L14.75 34L14.75 41L14.75 41.25L15.25 41.25L15.25 41L15.25 34L16.5 34L17 34L17 33.5L17 24.5L17 24L16.5 24L15.25 24L15.25 17L15.25 16.75L14.75 16.75L14.75 17L14.75 24L13.5 24L13 24L13 24.5L13 33.5Z" fill="black"/>
<path fill-rule="evenodd" clip-rule="evenodd" d="M46.5 24.5L46.5 33.5L49.5 33.5L49.5 24.5L46.5 24.5ZM46 33.5L46 34L46.5 34L47.75 34L47.75 41L47.75 41.25L48.25 41.25L48.25 41L48.25 34L49.5 34L50 34L50 33.5L50 24.5L50 24L49.5 24L48.25 24L48.25 17L48.25 16.75L47.75 16.75L47.75 17L47.75 24L46.5 24L46 24L46 24.5L46 33.5Z" fill="black"/>
<path fill-rule="evenodd" clip-rule="evenodd" d="M80.5 24.5L80.5 33.5L83.5 33.5L83.5 24.5L80.5 24.5ZM80 33.5L80 34L80.5 34L81.75 34L81.75 41L81.75 41.25L82.25 41.25L82.25 41L82.25 34L83.5 34L84 34L84 33.5L84 24.5L84 24L83.5 24L82.25 24L82.25 17L82.25 16.75L81.75 16.75L81.75 17L81.75 24L80.5 24L80 24L80 24.5L80 33.5Z" fill="black"/>
<path fill-rule="evenodd" clip-rule="evenodd" d="M91.5 24.5L91.5 33.5L94.5 33.5L94.5 24.5L91.5 24.5ZM91 33.5L91 34L91.5 34L92.75 34L92.75 41L92.75 41.25L93.25 41.25L93.25 41L93.25 34L94.5 34L95 34L95 33.5L95 24.5L95 24L94.5 24L93.25 24L93.25 17L93.25 16.75L92.75 16.75L92.75 17L92.75 24L91.5 24L91 24L91 24.5L91 33.5Z" fill="black"/>
<path fill-rule="evenodd" clip-rule="evenodd" d="M69.5 15.5L60.5 15.5V18.5L69.5 18.5V15.5ZM60.5 15H60V15.5V16.75H53H52.75V17.25H53H60V18.5V19H60.5L69.5 19H70V18.5V17.25H77H77.25V16.75H77H70V15.5V15H69.5L60.5 15Z" fill="black"/>
<path fill-rule="evenodd" clip-rule="evenodd" d="M15 50.5C12.5147 50.5 10.5 48.4853 10.5 46C10.5 43.5986 12.381 41.6365 14.75 41.5068L14.75 42L14.75 42.25L14.75 47.8964L13.6768 46.8232L13.3232 47.1768L14.8232 48.6768L15 48.8536L15.1768 48.6768L16.6768 47.1768L16.3232 46.8232L15.25 47.8964L15.25 42.25L15.25 42L15.25 41.5068C17.619 41.6365 19.5 43.5986 19.5 46C19.5 48.4853 17.4853 50.5 15 50.5ZM10 46C10 43.3224 12.1047 41.1364 14.75 41.0061L14.75 34L14.75 33.75L15.25 33.75L15.25 34L15.25 41.0061C17.8953 41.1364 20 43.3224 20 46C20 48.6776 17.8953 50.8636 15.25 50.9939L15.25 51L15.25 58L15.25 58.25L14.75 58.25L14.75 58L14.75 51L14.75 50.9939C12.1047 50.8636 10 48.6776 10 46Z" fill="black"/>
<path fill-rule="evenodd" clip-rule="evenodd" d="M48 50.5C45.5147 50.5 43.5 48.4853 43.5 46C43.5 43.5986 45.381 41.6365 47.75 41.5068L47.75 42L47.75 42.25L47.75 47.8964L46.6768 46.8232L46.3232 47.1768L47.8232 48.6768L48 48.8536L48.1768 48.6768L49.6768 47.1768L49.3232 46.8232L48.25 47.8964L48.25 42.25L48.25 42L48.25 41.5068C50.619 41.6365 52.5 43.5986 52.5 46C52.5 48.4853 50.4853 50.5 48 50.5ZM43 46C43 43.3224 45.1047 41.1364 47.75 41.0061L47.75 34L47.75 33.75L48.25 33.75L48.25 34L48.25 41.0061C50.8953 41.1364 53 43.3224 53 46C53 48.6776 50.8953 50.8636 48.25 50.9939L48.25 51L48.25 58L48.25 58.25L47.75 58.25L47.75 58L47.75 51L47.75 50.9939C45.1047 50.8636 43 48.6776 43 46Z" fill="black"/>
<path fill-rule="evenodd" clip-rule="evenodd" d="M82 41.5C84.4853 41.5 86.5 43.5147 86.5 46C86.5 48.4014 84.619 50.3635 82.25 50.4932L82.25 50L82.25 49.75L82.25 44.1036L83.3232 45.1768L83.6768 44.8232L82.1768 43.3232L82 43.1464L81.8232 43.3232L80.3232 44.8232L80.6768 45.1768L81.75 44.1036L81.75 49.75L81.75 50L81.75 50.4932C79.381 50.3635 77.5 48.4014 77.5 46C77.5 43.5147 79.5147 41.5 82 41.5ZM87 46C87 48.6776 84.8953 50.8636 82.25 50.9939L82.25 58L82.25 58.25L81.75 58.25L81.75 58L81.75 50.9939C79.1047 50.8636 77 48.6776 77 46C77 43.3224 79.1047 41.1364 81.75 41.0061L81.75 41L81.75 34L81.75 33.75L82.25 33.75L82.25 34L82.25 41L82.25 41.0061C84.8953 41.1364 87 43.3224 87 46Z" fill="black"/>
<path d="M15 58H82H93V41" stroke="black" stroke-width="0.5"/>
<path d="M93 17H77" stroke="black" stroke-width="0.5"/>
<path d="M44 17H53" stroke="black" stroke-width="0.5"/>
<path d="M15 17H20.5" stroke="black" stroke-width="0.5"/>
<circle cx="48" cy="58" r="1" fill="black"/>
<circle cx="82" cy="58" r="1" fill="black"/>
<circle cx="48" cy="17" r="1" fill="black"/>
<circle cx="82" cy="17" r="1" fill="black"/>
<path d="M22.3523 47V44.0909H24.108V44.4034H22.7045V45.3864H24.017V45.6989H22.7045V46.6875H24.1307V47H22.3523ZM25.7145 44.0909V47H25.3622V44.4602H25.3452L24.6349 44.9318V44.5739L25.3622 44.0909H25.7145Z" fill="black"/>
<path d="M29.3523 10V7.09091H31.108V7.40341H29.7045V8.38636H31.017V8.69886H29.7045V9.6875H31.1307V10H29.3523ZM31.6918 10V9.74432L32.652 8.69318C32.7647 8.57008 32.8575 8.46307 32.9304 8.37216C33.0033 8.2803 33.0573 8.19413 33.0923 8.11364C33.1283 8.0322 33.1463 7.94697 33.1463 7.85795C33.1463 7.75568 33.1217 7.66714 33.0724 7.59233C33.0241 7.51752 32.9579 7.45975 32.8736 7.41903C32.7893 7.37831 32.6946 7.35795 32.5895 7.35795C32.4777 7.35795 32.3802 7.38116 32.2969 7.42756C32.2145 7.47301 32.1506 7.53693 32.1051 7.61932C32.0606 7.7017 32.0384 7.7983 32.0384 7.90909H31.7031C31.7031 7.73864 31.7424 7.58902 31.821 7.46023C31.8996 7.33144 32.0066 7.23106 32.142 7.15909C32.2784 7.08712 32.4313 7.05114 32.6009 7.05114C32.7713 7.05114 32.9223 7.08712 33.054 7.15909C33.1856 7.23106 33.2888 7.32812 33.3636 7.45028C33.4384 7.57244 33.4759 7.70833 33.4759 7.85795C33.4759 7.96496 33.4564 8.0696 33.4176 8.17188C33.3797 8.2732 33.3134 8.38636 33.2188 8.51136C33.125 8.63542 32.9948 8.78693 32.8281 8.96591L32.1747 9.66477V9.6875H33.527V10H31.6918Z" fill="black"/>
<path d="M55.3523 48V45.0909H57.108V45.4034H55.7045V46.3864H57.017V46.6989H55.7045V47.6875H57.1307V48H55.3523ZM58.6747 48.0398C58.4872 48.0398 58.3201 48.0076 58.1733 47.9432C58.0275 47.8788 57.9115 47.7893 57.8253 47.6747C57.7401 47.5592 57.6937 47.4252 57.6861 47.2727H58.044C58.0516 47.3665 58.0838 47.4474 58.1406 47.5156C58.1974 47.5829 58.2718 47.6349 58.3636 47.6719C58.4555 47.7088 58.5573 47.7273 58.669 47.7273C58.794 47.7273 58.9048 47.7055 59.0014 47.6619C59.098 47.6184 59.1738 47.5578 59.2287 47.4801C59.2836 47.4025 59.3111 47.3125 59.3111 47.2102C59.3111 47.1032 59.2846 47.009 59.2315 46.9276C59.1785 46.8452 59.1009 46.7808 58.9986 46.7344C58.8963 46.688 58.7713 46.6648 58.6236 46.6648H58.3906V46.3523H58.6236C58.7391 46.3523 58.8404 46.3314 58.9276 46.2898C59.0156 46.2481 59.0843 46.1894 59.1335 46.1136C59.1837 46.0379 59.2088 45.9489 59.2088 45.8466C59.2088 45.7481 59.187 45.6624 59.1435 45.5895C59.0999 45.5166 59.0384 45.4598 58.9588 45.419C58.8802 45.3783 58.7874 45.358 58.6804 45.358C58.58 45.358 58.4853 45.3764 58.3963 45.4134C58.3082 45.4493 58.2363 45.5019 58.1804 45.571C58.1245 45.6392 58.0942 45.7216 58.0895 45.8182H57.7486C57.7543 45.6657 57.8002 45.5322 57.8864 45.4176C57.9725 45.3021 58.0852 45.2121 58.2244 45.1477C58.3646 45.0833 58.5185 45.0511 58.6861 45.0511C58.866 45.0511 59.0204 45.0876 59.1491 45.1605C59.2779 45.2325 59.3769 45.3277 59.446 45.446C59.5152 45.5644 59.5497 45.6922 59.5497 45.8295C59.5497 45.9934 59.5066 46.133 59.4205 46.2486C59.3352 46.3641 59.2192 46.4441 59.0724 46.4886V46.5114C59.2562 46.5417 59.3996 46.6198 59.5028 46.7457C59.6061 46.8707 59.6577 47.0256 59.6577 47.2102C59.6577 47.3684 59.6146 47.5104 59.5284 47.6364C59.4432 47.7614 59.3267 47.8598 59.179 47.9318C59.0313 48.0038 58.8632 48.0398 58.6747 48.0398Z" fill="black"/>
<path d="M70.3523 48V45.0909H72.108V45.4034H70.7045V46.3864H72.017V46.6989H70.7045V47.6875H72.1307V48H70.3523ZM72.6236 47.4034V47.1136L73.902 45.0909H74.1122V45.5398H73.9702L73.0043 47.0682V47.0909H74.7259V47.4034H72.6236ZM73.9929 48V47.3153V47.1804V45.0909H74.3281V48H73.9929Z" fill="black"/>
<path d="M19.3523 30V27.0909H20.3352C20.5625 27.0909 20.7491 27.1297 20.8949 27.2074C21.0407 27.2841 21.1487 27.3897 21.2188 27.5241C21.2888 27.6586 21.3239 27.8116 21.3239 27.983C21.3239 28.1544 21.2888 28.3063 21.2188 28.4389C21.1487 28.5715 21.0412 28.6757 20.8963 28.7514C20.7514 28.8262 20.5663 28.8636 20.3409 28.8636H19.5455V28.5455H20.3295C20.4848 28.5455 20.6098 28.5227 20.7045 28.4773C20.8002 28.4318 20.8693 28.3674 20.9119 28.2841C20.9555 28.1998 20.9773 28.0994 20.9773 27.983C20.9773 27.8665 20.9555 27.7647 20.9119 27.6776C20.8684 27.5904 20.7988 27.5232 20.7031 27.4759C20.6075 27.4276 20.4811 27.4034 20.3239 27.4034H19.7045V30H19.3523ZM20.7216 28.6932L21.4375 30H21.0284L20.3239 28.6932H20.7216ZM22.8825 27.0909V30H22.5302V27.4602H22.5131L21.8029 27.9318V27.5739L22.5302 27.0909H22.8825Z" fill="black"/>
<path d="M62.3523 12V9.09091H63.3352C63.5625 9.09091 63.7491 9.12973 63.8949 9.20739C64.0407 9.28409 64.1487 9.38968 64.2188 9.52415C64.2888 9.65862 64.3239 9.81155 64.3239 9.98295C64.3239 10.1544 64.2888 10.3063 64.2188 10.4389C64.1487 10.5715 64.0412 10.6757 63.8963 10.7514C63.7514 10.8262 63.5663 10.8636 63.3409 10.8636H62.5455V10.5455H63.3295C63.4848 10.5455 63.6098 10.5227 63.7045 10.4773C63.8002 10.4318 63.8693 10.3674 63.9119 10.2841C63.9555 10.1998 63.9773 10.0994 63.9773 9.98295C63.9773 9.86648 63.9555 9.76468 63.9119 9.67756C63.8684 9.59044 63.7988 9.5232 63.7031 9.47585C63.6075 9.42756 63.4811 9.40341 63.3239 9.40341H62.7045V12H62.3523ZM63.7216 10.6932L64.4375 12H64.0284L63.3239 10.6932H63.7216ZM65.8256 12.0398C65.7063 12.0379 65.587 12.0152 65.4677 11.9716C65.3484 11.928 65.2395 11.8546 65.141 11.7514C65.0425 11.6473 64.9634 11.5066 64.9038 11.3295C64.8441 11.1515 64.8143 10.928 64.8143 10.6591C64.8143 10.4015 64.8384 10.1733 64.8867 9.97443C64.935 9.77462 65.0051 9.60653 65.0969 9.47017C65.1888 9.33286 65.2996 9.22869 65.4293 9.15767C65.56 9.08665 65.7073 9.05114 65.8711 9.05114C66.034 9.05114 66.1789 9.08381 66.3058 9.14915C66.4336 9.21354 66.5378 9.3035 66.6183 9.41903C66.6987 9.53456 66.7508 9.66761 66.7745 9.81818H66.4279C66.3957 9.6875 66.3332 9.57907 66.2404 9.4929C66.1476 9.40672 66.0245 9.36364 65.8711 9.36364C65.6457 9.36364 65.4682 9.46165 65.3384 9.65767C65.2096 9.85369 65.1448 10.1288 65.1438 10.483H65.1665C65.2196 10.4025 65.2826 10.3338 65.3555 10.277C65.4293 10.2192 65.5108 10.1747 65.5998 10.1435C65.6888 10.1122 65.783 10.0966 65.8825 10.0966C66.0491 10.0966 66.2016 10.1383 66.3398 10.2216C66.4781 10.304 66.5889 10.4181 66.6722 10.5639C66.7556 10.7088 66.7972 10.875 66.7972 11.0625C66.7972 11.2424 66.757 11.4072 66.6765 11.5568C66.596 11.7055 66.4828 11.8239 66.337 11.9119C66.1921 11.9991 66.0217 12.0417 65.8256 12.0398ZM65.8256 11.7273C65.945 11.7273 66.052 11.6974 66.1467 11.6378C66.2423 11.5781 66.3176 11.4981 66.3725 11.3977C66.4284 11.2973 66.4563 11.1856 66.4563 11.0625C66.4563 10.9422 66.4293 10.8329 66.3754 10.7344C66.3223 10.6349 66.2489 10.5559 66.1552 10.4972C66.0624 10.4384 65.9563 10.4091 65.837 10.4091C65.747 10.4091 65.6632 10.4271 65.5856 10.4631C65.5079 10.4981 65.4397 10.5464 65.381 10.608C65.3233 10.6695 65.2778 10.7401 65.2447 10.8196C65.2115 10.8982 65.195 10.9811 65.195 11.0682C65.195 11.1837 65.2219 11.2917 65.2759 11.392C65.3308 11.4924 65.4057 11.5734 65.5004 11.6349C65.596 11.6965 65.7044 11.7273 65.8256 11.7273Z" fill="black"/>
<path d="M74.3523 29V26.0909H75.3352C75.5625 26.0909 75.7491 26.1297 75.8949 26.2074C76.0407 26.2841 76.1487 26.3897 76.2188 26.5241C76.2888 26.6586 76.3239 26.8116 76.3239 26.983C76.3239 27.1544 76.2888 27.3063 76.2188 27.4389C76.1487 27.5715 76.0412 27.6757 75.8963 27.7514C75.7514 27.8262 75.5663 27.8636 75.3409 27.8636H74.5455V27.5455H75.3295C75.4848 27.5455 75.6098 27.5227 75.7045 27.4773C75.8002 27.4318 75.8693 27.3674 75.9119 27.2841C75.9555 27.1998 75.9773 27.0994 75.9773 26.983C75.9773 26.8665 75.9555 26.7647 75.9119 26.6776C75.8684 26.5904 75.7988 26.5232 75.7031 26.4759C75.6075 26.4276 75.4811 26.4034 75.3239 26.4034H74.7045V29H74.3523ZM75.7216 27.6932L76.4375 29H76.0284L75.3239 27.6932H75.7216ZM76.7915 28.4034V28.1136L78.07 26.0909H78.2802V26.5398H78.1381L77.1722 28.0682V28.0909H78.8938V28.4034H76.7915ZM78.1609 29V28.3153V28.1804V26.0909H78.4961V29H78.1609Z" fill="black"/>
<path d="M52.3523 30V27.0909H53.3352C53.5625 27.0909 53.7491 27.1297 53.8949 27.2074C54.0407 27.2841 54.1487 27.3897 54.2188 27.5241C54.2888 27.6586 54.3239 27.8116 54.3239 27.983C54.3239 28.1544 54.2888 28.3063 54.2188 28.4389C54.1487 28.5715 54.0412 28.6757 53.8963 28.7514C53.7514 28.8262 53.5663 28.8636 53.3409 28.8636H52.5455V28.5455H53.3295C53.4848 28.5455 53.6098 28.5227 53.7045 28.4773C53.8002 28.4318 53.8693 28.3674 53.9119 28.2841C53.9555 28.1998 53.9773 28.0994 53.9773 27.983C53.9773 27.8665 53.9555 27.7647 53.9119 27.6776C53.8684 27.5904 53.7988 27.5232 53.7031 27.4759C53.6075 27.4276 53.4811 27.4034 53.3239 27.4034H52.7045V30H52.3523ZM53.7216 28.6932L54.4375 30H54.0284L53.3239 28.6932H53.7216ZM55.8427 30.0398C55.6552 30.0398 55.488 30.0076 55.3413 29.9432C55.1954 29.8788 55.0794 29.7893 54.9933 29.6747C54.908 29.5592 54.8616 29.4252 54.854 29.2727H55.212C55.2196 29.3665 55.2518 29.4474 55.3086 29.5156C55.3654 29.5829 55.4397 29.6349 55.5316 29.6719C55.6235 29.7088 55.7253 29.7273 55.837 29.7273C55.962 29.7273 56.0728 29.7055 56.1694 29.6619C56.266 29.6184 56.3417 29.5578 56.3967 29.4801C56.4516 29.4025 56.479 29.3125 56.479 29.2102C56.479 29.1032 56.4525 29.009 56.3995 28.9276C56.3465 28.8452 56.2688 28.7808 56.1665 28.7344C56.0643 28.688 55.9393 28.6648 55.7915 28.6648H55.5586V28.3523H55.7915C55.9071 28.3523 56.0084 28.3314 56.0955 28.2898C56.1836 28.2481 56.2522 28.1894 56.3015 28.1136C56.3517 28.0379 56.3768 27.9489 56.3768 27.8466C56.3768 27.7481 56.355 27.6624 56.3114 27.5895C56.2679 27.5166 56.2063 27.4598 56.1268 27.419C56.0482 27.3783 55.9554 27.358 55.8484 27.358C55.748 27.358 55.6533 27.3764 55.5643 27.4134C55.4762 27.4493 55.4042 27.5019 55.3484 27.571C55.2925 27.6392 55.2622 27.7216 55.2575 27.8182H54.9165C54.9222 27.6657 54.9682 27.5322 55.0543 27.4176C55.1405 27.3021 55.2532 27.2121 55.3924 27.1477C55.5326 27.0833 55.6864 27.0511 55.854 27.0511C56.034 27.0511 56.1883 27.0876 56.3171 27.1605C56.4459 27.2325 56.5449 27.3277 56.614 27.446C56.6831 27.5644 56.7177 27.6922 56.7177 27.8295C56.7177 27.9934 56.6746 28.133 56.5884 28.2486C56.5032 28.3641 56.3872 28.4441 56.2404 28.4886V28.5114C56.4241 28.5417 56.5676 28.6198 56.6708 28.7457C56.774 28.8707 56.8256 29.0256 56.8256 29.2102C56.8256 29.3684 56.7826 29.5104 56.6964 29.6364C56.6112 29.7614 56.4947 29.8598 56.3469 29.9318C56.1992 30.0038 56.0311 30.0398 55.8427 30.0398Z" fill="black"/>
<path d="M96.3523 30V27.0909H97.3352C97.5625 27.0909 97.7491 27.1297 97.8949 27.2074C98.0407 27.2841 98.1487 27.3897 98.2188 27.5241C98.2888 27.6586 98.3239 27.8116 98.3239 27.983C98.3239 28.1544 98.2888 28.3063 98.2188 28.4389C98.1487 28.5715 98.0412 28.6757 97.8963 28.7514C97.7514 28.8262 97.5663 28.8636 97.3409 28.8636H96.5455V28.5455H97.3295C97.4848 28.5455 97.6098 28.5227 97.7045 28.4773C97.8002 28.4318 97.8693 28.3674 97.9119 28.2841C97.9555 28.1998 97.9773 28.0994 97.9773 27.983C97.9773 27.8665 97.9555 27.7647 97.9119 27.6776C97.8684 27.5904 97.7988 27.5232 97.7031 27.4759C97.6075 27.4276 97.4811 27.4034 97.3239 27.4034H96.7045V30H96.3523ZM97.7216 28.6932L98.4375 30H98.0284L97.3239 28.6932H97.7216ZM99.7688 30.0398C99.6022 30.0398 99.4521 30.0066 99.3185 29.9403C99.185 29.8741 99.078 29.7831 98.9975 29.6676C98.917 29.5521 98.873 29.4205 98.8654 29.2727H99.2063C99.2196 29.4044 99.2792 29.5133 99.3853 29.5994C99.4923 29.6847 99.6201 29.7273 99.7688 29.7273C99.8881 29.7273 99.9942 29.6993 100.087 29.6435C100.181 29.5876 100.254 29.5109 100.307 29.4134C100.361 29.3149 100.388 29.2036 100.388 29.0795C100.388 28.9527 100.36 28.8395 100.304 28.7401C100.249 28.6397 100.174 28.5606 100.077 28.5028C99.9805 28.4451 99.8701 28.4157 99.7461 28.4148C99.6571 28.4138 99.5657 28.4276 99.4719 28.456C99.3782 28.4834 99.301 28.5189 99.2404 28.5625L98.9109 28.5227L99.087 27.0909H100.598V27.4034H99.3825L99.2802 28.2614H99.2972C99.3569 28.214 99.4317 28.1747 99.5217 28.1435C99.6116 28.1122 99.7054 28.0966 99.8029 28.0966C99.9809 28.0966 100.14 28.1392 100.279 28.2244C100.419 28.3087 100.529 28.4242 100.608 28.571C100.689 28.7178 100.729 28.8854 100.729 29.0739C100.729 29.2595 100.687 29.4252 100.604 29.571C100.522 29.7159 100.408 29.8305 100.263 29.9148C100.118 29.9981 99.9535 30.0398 99.7688 30.0398Z" fill="black"/>
<path d="M80.4261 69.7727C80.4261 69.4148 80.4725 69.0857 80.5653 68.7855C80.6591 68.4844 80.7926 68.2074 80.9659 67.9545H81.2614C81.1932 68.0483 81.1293 68.1638 81.0696 68.3011C81.0109 68.4375 80.9593 68.5876 80.9148 68.7514C80.8703 68.9143 80.8352 69.0829 80.8097 69.2571C80.785 69.4313 80.7727 69.6032 80.7727 69.7727C80.7727 69.9981 80.7945 70.2268 80.8381 70.4588C80.8816 70.6908 80.9403 70.9062 81.0142 71.1051C81.0881 71.304 81.1705 71.4659 81.2614 71.5909H80.9659C80.7926 71.3381 80.6591 71.0616 80.5653 70.7614C80.4725 70.4602 80.4261 70.1307 80.4261 69.7727ZM81.756 71.8182V68.8182H82.0799V69.1648H82.1197C82.1443 69.1269 82.1784 69.0786 82.2219 69.0199C82.2665 68.9602 82.3299 68.9072 82.4123 68.8608C82.4956 68.8134 82.6083 68.7898 82.7504 68.7898C82.9341 68.7898 83.096 68.8357 83.2362 68.9276C83.3763 69.0194 83.4857 69.1496 83.5643 69.3182C83.6429 69.4867 83.6822 69.6856 83.6822 69.9148C83.6822 70.1458 83.6429 70.3461 83.5643 70.5156C83.4857 70.6842 83.3768 70.8149 83.2376 70.9077C83.0984 70.9995 82.9379 71.0455 82.756 71.0455C82.6159 71.0455 82.5037 71.0223 82.4194 70.9759C82.3351 70.9285 82.2702 70.875 82.2248 70.8153C82.1793 70.7547 82.1443 70.7045 82.1197 70.6648H82.0913V71.8182H81.756ZM82.0856 69.9091C82.0856 70.0739 82.1097 70.2192 82.158 70.3452C82.2063 70.4702 82.2769 70.5682 82.3697 70.6392C82.4625 70.7093 82.5761 70.7443 82.7106 70.7443C82.8507 70.7443 82.9677 70.7074 83.0614 70.6335C83.1561 70.5587 83.2272 70.4583 83.2745 70.3324C83.3228 70.2055 83.3469 70.0644 83.3469 69.9091C83.3469 69.7557 83.3233 69.6174 83.2759 69.4943C83.2295 69.3703 83.159 69.2723 83.0643 69.2003C82.9705 69.1274 82.8526 69.0909 82.7106 69.0909C82.5742 69.0909 82.4596 69.1255 82.3668 69.1946C82.274 69.2628 82.204 69.3584 82.1566 69.4815C82.1093 69.6037 82.0856 69.7462 82.0856 69.9091ZM84.5288 70.5057L85.5799 68.8182H85.9663V71H85.631V69.3125L84.5856 71H84.1935V68.8182H84.5288V70.5057ZM87.4666 71.0455C87.2621 71.0455 87.0859 70.9972 86.9382 70.9006C86.7905 70.804 86.6768 70.6709 86.5973 70.5014C86.5178 70.3319 86.478 70.1383 86.478 69.9205C86.478 69.6989 86.5187 69.5033 86.6001 69.3338C86.6825 69.1634 86.7971 69.0303 86.9439 68.9347C87.0916 68.8381 87.264 68.7898 87.4609 68.7898C87.6143 68.7898 87.7526 68.8182 87.8757 68.875C87.9988 68.9318 88.0997 69.0114 88.1783 69.1136C88.2569 69.2159 88.3056 69.3352 88.3246 69.4716H87.9893C87.9638 69.3722 87.907 69.2841 87.8189 69.2074C87.7318 69.1297 87.6143 69.0909 87.4666 69.0909C87.3359 69.0909 87.2214 69.125 87.1229 69.1932C87.0253 69.2604 86.9491 69.3556 86.8942 69.4787C86.8402 69.6009 86.8132 69.7443 86.8132 69.9091C86.8132 70.0777 86.8397 70.2244 86.8928 70.3494C86.9467 70.4744 87.0225 70.5715 87.12 70.6406C87.2185 70.7098 87.334 70.7443 87.4666 70.7443C87.5537 70.7443 87.6328 70.7292 87.7038 70.6989C87.7749 70.6686 87.835 70.625 87.8842 70.5682C87.9335 70.5114 87.9685 70.4432 87.9893 70.3636H88.3246C88.3056 70.4924 88.2588 70.6084 88.1839 70.7116C88.1101 70.8139 88.0121 70.8954 87.8899 70.956C87.7687 71.0156 87.6276 71.0455 87.4666 71.0455ZM89.0589 71.0227C88.9889 71.0227 88.9287 70.9976 88.8786 70.9474C88.8284 70.8973 88.8033 70.8371 88.8033 70.767C88.8033 70.697 88.8284 70.6368 88.8786 70.5866C88.9287 70.5365 88.9889 70.5114 89.0589 70.5114C89.129 70.5114 89.1892 70.5365 89.2393 70.5866C89.2895 70.6368 89.3146 70.697 89.3146 70.767C89.3146 70.8134 89.3028 70.8561 89.2791 70.8949C89.2564 70.9337 89.2256 70.965 89.1868 70.9886C89.1489 71.0114 89.1063 71.0227 89.0589 71.0227ZM92.0582 68.0909V71H91.706V68.4602H91.6889L90.9787 68.9318V68.5739L91.706 68.0909H92.0582ZM93.6165 69.5455C93.6165 69.9034 93.5696 70.233 93.4759 70.5341C93.383 70.8343 93.25 71.1108 93.0767 71.3636H92.7812C92.8494 71.2699 92.9129 71.1544 92.9716 71.017C93.0313 70.8807 93.0833 70.7311 93.1278 70.5682C93.1723 70.4044 93.2069 70.2353 93.2315 70.0611C93.2571 69.8859 93.2699 69.714 93.2699 69.5455C93.2699 69.3201 93.2481 69.0914 93.2045 68.8594C93.161 68.6274 93.1023 68.4119 93.0284 68.2131C92.9545 68.0142 92.8722 67.8523 92.7812 67.7273H93.0767C93.25 67.9801 93.383 68.2571 93.4759 68.5582C93.5696 68.8584 93.6165 69.1875 93.6165 69.5455Z" fill="black"/>
</svg>
