<svg width="113" height="72" viewBox="0 0 113 72" fill="none" xmlns="http://www.w3.org/2000/svg">
<rect width="113" height="72" rx="6" fill="white"/>
<path fill-rule="evenodd" clip-rule="evenodd" d="M36.5 17C36.5 19.4853 34.4853 21.5 32 21.5C29.5986 21.5 27.6365 19.619 27.5068 17.25H28H28.25H33.8964L32.8232 18.3232L33.1768 18.6768L34.6768 17.1768L34.8536 17L34.6768 16.8232L33.1768 15.3232L32.8232 15.6768L33.8964 16.75H28.25H28H27.5068C27.6365 14.381 29.5986 12.5 32 12.5C34.4853 12.5 36.5 14.5147 36.5 17ZM32 22C29.3224 22 27.1364 19.8953 27.0061 17.25H20H19.75V16.75H20H27.0061C27.1364 14.1047 29.3224 12 32 12C34.6776 12 36.8636 14.1047 36.9939 16.75H37H44H44.25V17.25H44H37H36.9939C36.8636 19.8953 34.6776 22 32 22Z" fill="black"/>
<path fill-rule="evenodd" clip-rule="evenodd" d="M13.5 24.5L13.5 33.5L16.5 33.5L16.5 24.5L13.5 24.5ZM13 33.5L13 34L13.5 34L14.75 34L14.75 41L14.75 41.25L15.25 41.25L15.25 41L15.25 34L16.5 34L17 34L17 33.5L17 24.5L17 24L16.5 24L15.25 24L15.25 17L15.25 16.75L14.75 16.75L14.75 17L14.75 24L13.5 24L13 24L13 24.5L13 33.5Z" fill="black"/>
<path fill-rule="evenodd" clip-rule="evenodd" d="M46.5 24.5L46.5 33.5L49.5 33.5L49.5 24.5L46.5 24.5ZM46 33.5L46 34L46.5 34L47.75 34L47.75 41L47.75 41.25L48.25 41.25L48.25 41L48.25 34L49.5 34L50 34L50 33.5L50 24.5L50 24L49.5 24L48.25 24L48.25 17L48.25 16.75L47.75 16.75L47.75 17L47.75 24L46.5 24L46 24L46 24.5L46 33.5Z" fill="black"/>
<path fill-rule="evenodd" clip-rule="evenodd" d="M75.5 34.5L75.5 43.5L78.5 43.5L78.5 34.5L75.5 34.5ZM75 43.5L75 44L75.5 44L76.75 44L76.75 51L76.75 51.25L77.25 51.25L77.25 51L77.25 44L78.5 44L79 44L79 43.5L79 34.5L79 34L78.5 34L77.25 34L77.25 27L77.25 26.75L76.75 26.75L76.75 27L76.75 34L75.5 34L75 34L75 34.5L75 43.5Z" fill="black"/>
<path fill-rule="evenodd" clip-rule="evenodd" d="M101.5 24.5L101.5 33.5L104.5 33.5L104.5 24.5L101.5 24.5ZM101 33.5L101 34L101.5 34L102.75 34L102.75 41L102.75 41.25L103.25 41.25L103.25 41L103.25 34L104.5 34L105 34L105 33.5L105 24.5L105 24L104.5 24L103.25 24L103.25 17L103.25 16.75L102.75 16.75L102.75 17L102.75 24L101.5 24L101 24L101 24.5L101 33.5Z" fill="black"/>
<path fill-rule="evenodd" clip-rule="evenodd" d="M69.5 15.5L60.5 15.5V18.5L69.5 18.5V15.5ZM60.5 15H60V15.5V16.75H53H52.75V17.25H53H60V18.5V19H60.5L69.5 19H70V18.5V17.25H77H77.25V16.75H77H70V15.5V15H69.5L60.5 15Z" fill="black"/>
<path fill-rule="evenodd" clip-rule="evenodd" d="M15 50.5C12.5147 50.5 10.5 48.4853 10.5 46C10.5 43.5986 12.381 41.6365 14.75 41.5068L14.75 42L14.75 42.25L14.75 47.8964L13.6768 46.8232L13.3232 47.1768L14.8232 48.6768L15 48.8536L15.1768 48.6768L16.6768 47.1768L16.3232 46.8232L15.25 47.8964L15.25 42.25L15.25 42L15.25 41.5068C17.619 41.6365 19.5 43.5986 19.5 46C19.5 48.4853 17.4853 50.5 15 50.5ZM10 46C10 43.3224 12.1047 41.1364 14.75 41.0061L14.75 34L14.75 33.75L15.25 33.75L15.25 34L15.25 41.0061C17.8953 41.1364 20 43.3224 20 46C20 48.6776 17.8953 50.8636 15.25 50.9939L15.25 51L15.25 58L15.25 58.25L14.75 58.25L14.75 58L14.75 51L14.75 50.9939C12.1047 50.8636 10 48.6776 10 46Z" fill="black"/>
<path fill-rule="evenodd" clip-rule="evenodd" d="M48 50.5C45.5147 50.5 43.5 48.4853 43.5 46C43.5 43.5986 45.381 41.6365 47.75 41.5068L47.75 42L47.75 42.25L47.75 47.8964L46.6768 46.8232L46.3232 47.1768L47.8232 48.6768L48 48.8536L48.1768 48.6768L49.6768 47.1768L49.3232 46.8232L48.25 47.8964L48.25 42.25L48.25 42L48.25 41.5068C50.619 41.6365 52.5 43.5986 52.5 46C52.5 48.4853 50.4853 50.5 48 50.5ZM43 46C43 43.3224 45.1047 41.1364 47.75 41.0061L47.75 34L47.75 33.75L48.25 33.75L48.25 34L48.25 41.0061C50.8953 41.1364 53 43.3224 53 46C53 48.6776 50.8953 50.8636 48.25 50.9939L48.25 51L48.25 58L48.25 58.25L47.75 58.25L47.75 58L47.75 51L47.75 50.9939C45.1047 50.8636 43 48.6776 43 46Z" fill="black"/>
<path d="M15 58H90.5897H103V41" stroke="black" stroke-width="0.5"/>
<path d="M103 17H77" stroke="black" stroke-width="0.5"/>
<path d="M44 17H53" stroke="black" stroke-width="0.5"/>
<path d="M15 17H20.5" stroke="black" stroke-width="0.5"/>
<circle cx="48" cy="58" r="1" fill="black"/>
<circle cx="92" cy="58" r="1" fill="black"/>
<circle cx="48" cy="17" r="1" fill="black"/>
<circle cx="92" cy="17" r="1" fill="black"/>
<circle cx="77" cy="17" r="1" fill="black"/>
<circle cx="77" cy="58" r="1" fill="black"/>
<path d="M22.3523 47V44.0909H24.108V44.4034H22.7045V45.3864H24.017V45.6989H22.7045V46.6875H24.1307V47H22.3523ZM25.7145 44.0909V47H25.3622V44.4602H25.3452L24.6349 44.9318V44.5739L25.3622 44.0909H25.7145Z" fill="black"/>
<path d="M29.3523 10V7.09091H31.108V7.40341H29.7045V8.38636H31.017V8.69886H29.7045V9.6875H31.1307V10H29.3523ZM31.6918 10V9.74432L32.652 8.69318C32.7647 8.57008 32.8575 8.46307 32.9304 8.37216C33.0033 8.2803 33.0573 8.19413 33.0923 8.11364C33.1283 8.0322 33.1463 7.94697 33.1463 7.85795C33.1463 7.75568 33.1217 7.66714 33.0724 7.59233C33.0241 7.51752 32.9579 7.45975 32.8736 7.41903C32.7893 7.37831 32.6946 7.35795 32.5895 7.35795C32.4777 7.35795 32.3802 7.38116 32.2969 7.42756C32.2145 7.47301 32.1506 7.53693 32.1051 7.61932C32.0606 7.7017 32.0384 7.7983 32.0384 7.90909H31.7031C31.7031 7.73864 31.7424 7.58902 31.821 7.46023C31.8996 7.33144 32.0066 7.23106 32.142 7.15909C32.2784 7.08712 32.4313 7.05114 32.6009 7.05114C32.7713 7.05114 32.9223 7.08712 33.054 7.15909C33.1856 7.23106 33.2888 7.32812 33.3636 7.45028C33.4384 7.57244 33.4759 7.70833 33.4759 7.85795C33.4759 7.96496 33.4564 8.0696 33.4176 8.17188C33.3797 8.2732 33.3134 8.38636 33.2188 8.51136C33.125 8.63542 32.9948 8.78693 32.8281 8.96591L32.1747 9.66477V9.6875H33.527V10H31.6918Z" fill="black"/>
<path d="M55.3523 48V45.0909H57.108V45.4034H55.7045V46.3864H57.017V46.6989H55.7045V47.6875H57.1307V48H55.3523ZM58.6747 48.0398C58.4872 48.0398 58.3201 48.0076 58.1733 47.9432C58.0275 47.8788 57.9115 47.7893 57.8253 47.6747C57.7401 47.5592 57.6937 47.4252 57.6861 47.2727H58.044C58.0516 47.3665 58.0838 47.4474 58.1406 47.5156C58.1974 47.5829 58.2718 47.6349 58.3636 47.6719C58.4555 47.7088 58.5573 47.7273 58.669 47.7273C58.794 47.7273 58.9048 47.7055 59.0014 47.6619C59.098 47.6184 59.1738 47.5578 59.2287 47.4801C59.2836 47.4025 59.3111 47.3125 59.3111 47.2102C59.3111 47.1032 59.2846 47.009 59.2315 46.9276C59.1785 46.8452 59.1009 46.7808 58.9986 46.7344C58.8963 46.688 58.7713 46.6648 58.6236 46.6648H58.3906V46.3523H58.6236C58.7391 46.3523 58.8404 46.3314 58.9276 46.2898C59.0156 46.2481 59.0843 46.1894 59.1335 46.1136C59.1837 46.0379 59.2088 45.9489 59.2088 45.8466C59.2088 45.7481 59.187 45.6624 59.1435 45.5895C59.0999 45.5166 59.0384 45.4598 58.9588 45.419C58.8802 45.3783 58.7874 45.358 58.6804 45.358C58.58 45.358 58.4853 45.3764 58.3963 45.4134C58.3082 45.4493 58.2363 45.5019 58.1804 45.571C58.1245 45.6392 58.0942 45.7216 58.0895 45.8182H57.7486C57.7543 45.6657 57.8002 45.5322 57.8864 45.4176C57.9725 45.3021 58.0852 45.2121 58.2244 45.1477C58.3646 45.0833 58.5185 45.0511 58.6861 45.0511C58.866 45.0511 59.0204 45.0876 59.1491 45.1605C59.2779 45.2325 59.3769 45.3277 59.446 45.446C59.5152 45.5644 59.5497 45.6922 59.5497 45.8295C59.5497 45.9934 59.5066 46.133 59.4205 46.2486C59.3352 46.3641 59.2192 46.4441 59.0724 46.4886V46.5114C59.2562 46.5417 59.3996 46.6198 59.5028 46.7457C59.6061 46.8707 59.6577 47.0256 59.6577 47.2102C59.6577 47.3684 59.6146 47.5104 59.5284 47.6364C59.4432 47.7614 59.3267 47.8598 59.179 47.9318C59.0313 48.0038 58.8632 48.0398 58.6747 48.0398Z" fill="black"/>
<path d="M82.7045 27.0909V30H82.3523V27.0909H82.7045ZM83.2915 29.4034V29.1136L84.57 27.0909H84.7802V27.5398H84.6381L83.6722 29.0682V29.0909H85.3938V29.4034H83.2915ZM84.6609 30V29.3153V29.1804V27.0909H84.9961V30H84.6609Z" fill="black"/>
<path d="M19.3523 30V27.0909H20.3352C20.5625 27.0909 20.7491 27.1297 20.8949 27.2074C21.0407 27.2841 21.1487 27.3897 21.2188 27.5241C21.2888 27.6586 21.3239 27.8116 21.3239 27.983C21.3239 28.1544 21.2888 28.3063 21.2188 28.4389C21.1487 28.5715 21.0412 28.6757 20.8963 28.7514C20.7514 28.8262 20.5663 28.8636 20.3409 28.8636H19.5455V28.5455H20.3295C20.4848 28.5455 20.6098 28.5227 20.7045 28.4773C20.8002 28.4318 20.8693 28.3674 20.9119 28.2841C20.9555 28.1998 20.9773 28.0994 20.9773 27.983C20.9773 27.8665 20.9555 27.7647 20.9119 27.6776C20.8684 27.5904 20.7988 27.5232 20.7031 27.4759C20.6075 27.4276 20.4811 27.4034 20.3239 27.4034H19.7045V30H19.3523ZM20.7216 28.6932L21.4375 30H21.0284L20.3239 28.6932H20.7216ZM22.8825 27.0909V30H22.5302V27.4602H22.5131L21.8029 27.9318V27.5739L22.5302 27.0909H22.8825Z" fill="black"/>
<path d="M62.3523 12V9.09091H63.3352C63.5625 9.09091 63.7491 9.12973 63.8949 9.20739C64.0407 9.28409 64.1487 9.38968 64.2188 9.52415C64.2888 9.65862 64.3239 9.81155 64.3239 9.98295C64.3239 10.1544 64.2888 10.3063 64.2188 10.4389C64.1487 10.5715 64.0412 10.6757 63.8963 10.7514C63.7514 10.8262 63.5663 10.8636 63.3409 10.8636H62.5455V10.5455H63.3295C63.4848 10.5455 63.6098 10.5227 63.7045 10.4773C63.8002 10.4318 63.8693 10.3674 63.9119 10.2841C63.9555 10.1998 63.9773 10.0994 63.9773 9.98295C63.9773 9.86648 63.9555 9.76468 63.9119 9.67756C63.8684 9.59044 63.7988 9.5232 63.7031 9.47585C63.6075 9.42756 63.4811 9.40341 63.3239 9.40341H62.7045V12H62.3523ZM63.7216 10.6932L64.4375 12H64.0284L63.3239 10.6932H63.7216ZM65.8256 12.0398C65.7063 12.0379 65.587 12.0152 65.4677 11.9716C65.3484 11.928 65.2395 11.8546 65.141 11.7514C65.0425 11.6473 64.9634 11.5066 64.9038 11.3295C64.8441 11.1515 64.8143 10.928 64.8143 10.6591C64.8143 10.4015 64.8384 10.1733 64.8867 9.97443C64.935 9.77462 65.0051 9.60653 65.0969 9.47017C65.1888 9.33286 65.2996 9.22869 65.4293 9.15767C65.56 9.08665 65.7073 9.05114 65.8711 9.05114C66.034 9.05114 66.1789 9.08381 66.3058 9.14915C66.4336 9.21354 66.5378 9.3035 66.6183 9.41903C66.6987 9.53456 66.7508 9.66761 66.7745 9.81818H66.4279C66.3957 9.6875 66.3332 9.57907 66.2404 9.4929C66.1476 9.40672 66.0245 9.36364 65.8711 9.36364C65.6457 9.36364 65.4682 9.46165 65.3384 9.65767C65.2096 9.85369 65.1448 10.1288 65.1438 10.483H65.1665C65.2196 10.4025 65.2826 10.3338 65.3555 10.277C65.4293 10.2192 65.5108 10.1747 65.5998 10.1435C65.6888 10.1122 65.783 10.0966 65.8825 10.0966C66.0491 10.0966 66.2016 10.1383 66.3398 10.2216C66.4781 10.304 66.5889 10.4181 66.6722 10.5639C66.7556 10.7088 66.7972 10.875 66.7972 11.0625C66.7972 11.2424 66.757 11.4072 66.6765 11.5568C66.596 11.7055 66.4828 11.8239 66.337 11.9119C66.1921 11.9991 66.0217 12.0417 65.8256 12.0398ZM65.8256 11.7273C65.945 11.7273 66.052 11.6974 66.1467 11.6378C66.2423 11.5781 66.3176 11.4981 66.3725 11.3977C66.4284 11.2973 66.4563 11.1856 66.4563 11.0625C66.4563 10.9422 66.4293 10.8329 66.3754 10.7344C66.3223 10.6349 66.2489 10.5559 66.1552 10.4972C66.0624 10.4384 65.9563 10.4091 65.837 10.4091C65.747 10.4091 65.6632 10.4271 65.5856 10.4631C65.5079 10.4981 65.4397 10.5464 65.381 10.608C65.3233 10.6695 65.2778 10.7401 65.2447 10.8196C65.2115 10.8982 65.195 10.9811 65.195 11.0682C65.195 11.1837 65.2219 11.2917 65.2759 11.392C65.3308 11.4924 65.4057 11.5734 65.5004 11.6349C65.596 11.6965 65.7044 11.7273 65.8256 11.7273Z" fill="black"/>
<path d="M67.3523 40V37.0909H68.3352C68.5625 37.0909 68.7491 37.1297 68.8949 37.2074C69.0407 37.2841 69.1487 37.3897 69.2188 37.5241C69.2888 37.6586 69.3239 37.8116 69.3239 37.983C69.3239 38.1544 69.2888 38.3063 69.2188 38.4389C69.1487 38.5715 69.0412 38.6757 68.8963 38.7514C68.7514 38.8262 68.5663 38.8636 68.3409 38.8636H67.5455V38.5455H68.3295C68.4848 38.5455 68.6098 38.5227 68.7045 38.4773C68.8002 38.4318 68.8693 38.3674 68.9119 38.2841C68.9555 38.1998 68.9773 38.0994 68.9773 37.983C68.9773 37.8665 68.9555 37.7647 68.9119 37.6776C68.8684 37.5904 68.7988 37.5232 68.7031 37.4759C68.6075 37.4276 68.4811 37.4034 68.3239 37.4034H67.7045V40H67.3523ZM68.7216 38.6932L69.4375 40H69.0284L68.3239 38.6932H68.7216ZM69.7915 39.4034V39.1136L71.07 37.0909H71.2802V37.5398H71.1381L70.1722 39.0682V39.0909H71.8938V39.4034H69.7915ZM71.1609 40V39.3153V39.1804V37.0909H71.4961V40H71.1609Z" fill="black"/>
<path d="M52.3523 30V27.0909H53.3352C53.5625 27.0909 53.7491 27.1297 53.8949 27.2074C54.0407 27.2841 54.1487 27.3897 54.2188 27.5241C54.2888 27.6586 54.3239 27.8116 54.3239 27.983C54.3239 28.1544 54.2888 28.3063 54.2188 28.4389C54.1487 28.5715 54.0412 28.6757 53.8963 28.7514C53.7514 28.8262 53.5663 28.8636 53.3409 28.8636H52.5455V28.5455H53.3295C53.4848 28.5455 53.6098 28.5227 53.7045 28.4773C53.8002 28.4318 53.8693 28.3674 53.9119 28.2841C53.9555 28.1998 53.9773 28.0994 53.9773 27.983C53.9773 27.8665 53.9555 27.7647 53.9119 27.6776C53.8684 27.5904 53.7988 27.5232 53.7031 27.4759C53.6075 27.4276 53.4811 27.4034 53.3239 27.4034H52.7045V30H52.3523ZM53.7216 28.6932L54.4375 30H54.0284L53.3239 28.6932H53.7216ZM55.8427 30.0398C55.6552 30.0398 55.488 30.0076 55.3413 29.9432C55.1954 29.8788 55.0794 29.7893 54.9933 29.6747C54.908 29.5592 54.8616 29.4252 54.854 29.2727H55.212C55.2196 29.3665 55.2518 29.4474 55.3086 29.5156C55.3654 29.5829 55.4397 29.6349 55.5316 29.6719C55.6235 29.7088 55.7253 29.7273 55.837 29.7273C55.962 29.7273 56.0728 29.7055 56.1694 29.6619C56.266 29.6184 56.3417 29.5578 56.3967 29.4801C56.4516 29.4025 56.479 29.3125 56.479 29.2102C56.479 29.1032 56.4525 29.009 56.3995 28.9276C56.3465 28.8452 56.2688 28.7808 56.1665 28.7344C56.0643 28.688 55.9393 28.6648 55.7915 28.6648H55.5586V28.3523H55.7915C55.9071 28.3523 56.0084 28.3314 56.0955 28.2898C56.1836 28.2481 56.2522 28.1894 56.3015 28.1136C56.3517 28.0379 56.3768 27.9489 56.3768 27.8466C56.3768 27.7481 56.355 27.6624 56.3114 27.5895C56.2679 27.5166 56.2063 27.4598 56.1268 27.419C56.0482 27.3783 55.9554 27.358 55.8484 27.358C55.748 27.358 55.6533 27.3764 55.5643 27.4134C55.4762 27.4493 55.4042 27.5019 55.3484 27.571C55.2925 27.6392 55.2622 27.7216 55.2575 27.8182H54.9165C54.9222 27.6657 54.9682 27.5322 55.0543 27.4176C55.1405 27.3021 55.2532 27.2121 55.3924 27.1477C55.5326 27.0833 55.6864 27.0511 55.854 27.0511C56.034 27.0511 56.1883 27.0876 56.3171 27.1605C56.4459 27.2325 56.5449 27.3277 56.614 27.446C56.6831 27.5644 56.7177 27.6922 56.7177 27.8295C56.7177 27.9934 56.6746 28.133 56.5884 28.2486C56.5032 28.3641 56.3872 28.4441 56.2404 28.4886V28.5114C56.4241 28.5417 56.5676 28.6198 56.6708 28.7457C56.774 28.8707 56.8256 29.0256 56.8256 29.2102C56.8256 29.3684 56.7826 29.5104 56.6964 29.6364C56.6112 29.7614 56.4947 29.8598 56.3469 29.9318C56.1992 30.0038 56.0311 30.0398 55.8427 30.0398Z" fill="black"/>
<path d="M106.352 30V27.0909H107.335C107.563 27.0909 107.749 27.1297 107.895 27.2074C108.041 27.2841 108.149 27.3897 108.219 27.5241C108.289 27.6586 108.324 27.8116 108.324 27.983C108.324 28.1544 108.289 28.3063 108.219 28.4389C108.149 28.5715 108.041 28.6757 107.896 28.7514C107.751 28.8262 107.566 28.8636 107.341 28.8636H106.545V28.5455H107.33C107.485 28.5455 107.61 28.5227 107.705 28.4773C107.8 28.4318 107.869 28.3674 107.912 28.2841C107.955 28.1998 107.977 28.0994 107.977 27.983C107.977 27.8665 107.955 27.7647 107.912 27.6776C107.868 27.5904 107.799 27.5232 107.703 27.4759C107.607 27.4276 107.481 27.4034 107.324 27.4034H106.705V30H106.352ZM107.722 28.6932L108.438 30H108.028L107.324 28.6932H107.722ZM109.769 30.0398C109.602 30.0398 109.452 30.0066 109.319 29.9403C109.185 29.8741 109.078 29.7831 108.998 29.6676C108.917 29.5521 108.873 29.4205 108.865 29.2727H109.206C109.22 29.4044 109.279 29.5133 109.385 29.5994C109.492 29.6847 109.62 29.7273 109.769 29.7273C109.888 29.7273 109.994 29.6993 110.087 29.6435C110.181 29.5876 110.254 29.5109 110.307 29.4134C110.361 29.3149 110.388 29.2036 110.388 29.0795C110.388 28.9527 110.36 28.8395 110.304 28.7401C110.249 28.6397 110.174 28.5606 110.077 28.5028C109.98 28.4451 109.87 28.4157 109.746 28.4148C109.657 28.4138 109.566 28.4276 109.472 28.456C109.378 28.4834 109.301 28.5189 109.24 28.5625L108.911 28.5227L109.087 27.0909H110.598V27.4034H109.382L109.28 28.2614H109.297C109.357 28.214 109.432 28.1747 109.522 28.1435C109.612 28.1122 109.705 28.0966 109.803 28.0966C109.981 28.0966 110.14 28.1392 110.279 28.2244C110.419 28.3087 110.529 28.4242 110.608 28.571C110.689 28.7178 110.729 28.8854 110.729 29.0739C110.729 29.2595 110.687 29.4252 110.604 29.571C110.522 29.7159 110.408 29.8305 110.263 29.9148C110.118 29.9981 109.953 30.0398 109.769 30.0398Z" fill="black"/>
<circle cx="92" cy="29" r="4.75" transform="rotate(-90 92 29)" stroke="black" stroke-width="0.5"/>
<path d="M92 33L92 29.5M92 29.5L90.5 31M92 29.5L93.5 31M90.5 28.5L92 27L93.5 28.5" stroke="black" stroke-width="0.5"/>
<path d="M92 41L92 33" stroke="black" stroke-width="0.5" stroke-linecap="square"/>
<path d="M92 24L92 17" stroke="black" stroke-width="0.5" stroke-linecap="square"/>
<path d="M92 58V41" stroke="black" stroke-width="0.5"/>
<path d="M77 51L77 58" stroke="black" stroke-width="0.5"/>
<path d="M77 27V17" stroke="black" stroke-width="0.5"/>
<path d="M89.4261 66.7727C89.4261 66.4148 89.4725 66.0857 89.5653 65.7855C89.6591 65.4844 89.7926 65.2074 89.9659 64.9545H90.2614C90.1932 65.0483 90.1293 65.1638 90.0696 65.3011C90.0109 65.4375 89.9593 65.5876 89.9148 65.7514C89.8703 65.9143 89.8352 66.0829 89.8097 66.2571C89.785 66.4313 89.7727 66.6032 89.7727 66.7727C89.7727 66.9981 89.7945 67.2268 89.8381 67.4588C89.8816 67.6908 89.9403 67.9062 90.0142 68.1051C90.0881 68.304 90.1705 68.4659 90.2614 68.5909H89.9659C89.7926 68.3381 89.6591 68.0616 89.5653 67.7614C89.4725 67.4602 89.4261 67.1307 89.4261 66.7727ZM90.756 68.8182V65.8182H91.0799V66.1648H91.1197C91.1443 66.1269 91.1784 66.0786 91.2219 66.0199C91.2665 65.9602 91.3299 65.9072 91.4123 65.8608C91.4956 65.8134 91.6083 65.7898 91.7504 65.7898C91.9341 65.7898 92.096 65.8357 92.2362 65.9276C92.3763 66.0194 92.4857 66.1496 92.5643 66.3182C92.6429 66.4867 92.6822 66.6856 92.6822 66.9148C92.6822 67.1458 92.6429 67.3461 92.5643 67.5156C92.4857 67.6842 92.3768 67.8149 92.2376 67.9077C92.0984 67.9995 91.9379 68.0455 91.756 68.0455C91.6159 68.0455 91.5037 68.0223 91.4194 67.9759C91.3351 67.9285 91.2702 67.875 91.2248 67.8153C91.1793 67.7547 91.1443 67.7045 91.1197 67.6648H91.0913V68.8182H90.756ZM91.0856 66.9091C91.0856 67.0739 91.1097 67.2192 91.158 67.3452C91.2063 67.4702 91.2769 67.5682 91.3697 67.6392C91.4625 67.7093 91.5761 67.7443 91.7106 67.7443C91.8507 67.7443 91.9677 67.7074 92.0614 67.6335C92.1561 67.5587 92.2272 67.4583 92.2745 67.3324C92.3228 67.2055 92.3469 67.0644 92.3469 66.9091C92.3469 66.7557 92.3233 66.6174 92.2759 66.4943C92.2295 66.3703 92.159 66.2723 92.0643 66.2003C91.9705 66.1274 91.8526 66.0909 91.7106 66.0909C91.5742 66.0909 91.4596 66.1255 91.3668 66.1946C91.274 66.2628 91.204 66.3584 91.1566 66.4815C91.1093 66.6037 91.0856 66.7462 91.0856 66.9091ZM93.5288 67.5057L94.5799 65.8182H94.9663V68H94.631V66.3125L93.5856 68H93.1935V65.8182H93.5288V67.5057ZM96.4666 68.0455C96.2621 68.0455 96.0859 67.9972 95.9382 67.9006C95.7905 67.804 95.6768 67.6709 95.5973 67.5014C95.5178 67.3319 95.478 67.1383 95.478 66.9205C95.478 66.6989 95.5187 66.5033 95.6001 66.3338C95.6825 66.1634 95.7971 66.0303 95.9439 65.9347C96.0916 65.8381 96.264 65.7898 96.4609 65.7898C96.6143 65.7898 96.7526 65.8182 96.8757 65.875C96.9988 65.9318 97.0997 66.0114 97.1783 66.1136C97.2569 66.2159 97.3056 66.3352 97.3246 66.4716H96.9893C96.9638 66.3722 96.907 66.2841 96.8189 66.2074C96.7318 66.1297 96.6143 66.0909 96.4666 66.0909C96.3359 66.0909 96.2214 66.125 96.1229 66.1932C96.0253 66.2604 95.9491 66.3556 95.8942 66.4787C95.8402 66.6009 95.8132 66.7443 95.8132 66.9091C95.8132 67.0777 95.8397 67.2244 95.8928 67.3494C95.9467 67.4744 96.0225 67.5715 96.12 67.6406C96.2185 67.7098 96.334 67.7443 96.4666 67.7443C96.5537 67.7443 96.6328 67.7292 96.7038 67.6989C96.7749 67.6686 96.835 67.625 96.8842 67.5682C96.9335 67.5114 96.9685 67.4432 96.9893 67.3636H97.3246C97.3056 67.4924 97.2588 67.6084 97.1839 67.7116C97.1101 67.8139 97.0121 67.8954 96.8899 67.956C96.7687 68.0156 96.6276 68.0455 96.4666 68.0455ZM98.0589 68.0227C97.9889 68.0227 97.9287 67.9976 97.8786 67.9474C97.8284 67.8973 97.8033 67.8371 97.8033 67.767C97.8033 67.697 97.8284 67.6368 97.8786 67.5866C97.9287 67.5365 97.9889 67.5114 98.0589 67.5114C98.129 67.5114 98.1892 67.5365 98.2393 67.5866C98.2895 67.6368 98.3146 67.697 98.3146 67.767C98.3146 67.8134 98.3028 67.8561 98.2791 67.8949C98.2564 67.9337 98.2256 67.965 98.1868 67.9886C98.1489 68.0114 98.1063 68.0227 98.0589 68.0227ZM100.036 68V67.7443L100.996 66.6932C101.108 66.5701 101.201 66.4631 101.274 66.3722C101.347 66.2803 101.401 66.1941 101.436 66.1136C101.472 66.0322 101.49 65.947 101.49 65.858C101.49 65.7557 101.465 65.6671 101.416 65.5923C101.368 65.5175 101.302 65.4598 101.217 65.419C101.133 65.3783 101.038 65.358 100.933 65.358C100.821 65.358 100.724 65.3812 100.641 65.4276C100.558 65.473 100.494 65.5369 100.449 65.6193C100.404 65.7017 100.382 65.7983 100.382 65.9091H100.047C100.047 65.7386 100.086 65.589 100.165 65.4602C100.243 65.3314 100.35 65.2311 100.486 65.1591C100.622 65.0871 100.775 65.0511 100.945 65.0511C101.115 65.0511 101.266 65.0871 101.398 65.1591C101.529 65.2311 101.633 65.3281 101.707 65.4503C101.782 65.5724 101.82 65.7083 101.82 65.858C101.82 65.965 101.8 66.0696 101.761 66.1719C101.723 66.2732 101.657 66.3864 101.562 66.5114C101.469 66.6354 101.339 66.7869 101.172 66.9659L100.518 67.6648V67.6875H101.871V68H100.036ZM103.179 66.5455C103.179 66.9034 103.132 67.233 103.038 67.5341C102.946 67.8343 102.813 68.1108 102.639 68.3636H102.344C102.412 68.2699 102.475 68.1544 102.534 68.017C102.594 67.8807 102.646 67.7311 102.69 67.5682C102.735 67.4044 102.769 67.2353 102.794 67.0611C102.82 66.8859 102.832 66.714 102.832 66.5455C102.832 66.3201 102.811 66.0914 102.767 65.8594C102.723 65.6274 102.665 65.4119 102.591 65.2131C102.517 65.0142 102.435 64.8523 102.344 64.7273H102.639C102.813 64.9801 102.946 65.2571 103.038 65.5582C103.132 65.8584 103.179 66.1875 103.179 66.5455Z" fill="black"/>
</svg>
