<svg width="113" height="72" viewBox="0 0 113 72" fill="none" xmlns="http://www.w3.org/2000/svg">
<rect width="113" height="72" rx="6" fill="white"/>
<path fill-rule="evenodd" clip-rule="evenodd" d="M36.5 17C36.5 19.4853 34.4853 21.5 32 21.5C29.5986 21.5 27.6365 19.619 27.5068 17.25H28H28.25H33.8964L32.8232 18.3232L33.1768 18.6768L34.6768 17.1768L34.8536 17L34.6768 16.8232L33.1768 15.3232L32.8232 15.6768L33.8964 16.75H28.25H28H27.5068C27.6365 14.381 29.5986 12.5 32 12.5C34.4853 12.5 36.5 14.5147 36.5 17ZM32 22C29.3224 22 27.1364 19.8953 27.0061 17.25H20H19.75V16.75H20H27.0061C27.1364 14.1047 29.3224 12 32 12C34.6776 12 36.8636 14.1047 36.9939 16.75H37H44H44.25V17.25H44H37H36.9939C36.8636 19.8953 34.6776 22 32 22Z" fill="black"/>
<path fill-rule="evenodd" clip-rule="evenodd" d="M13.5 24.5L13.5 33.5L16.5 33.5L16.5 24.5L13.5 24.5ZM13 33.5L13 34L13.5 34L14.75 34L14.75 41L14.75 41.25L15.25 41.25L15.25 41L15.25 34L16.5 34L17 34L17 33.5L17 24.5L17 24L16.5 24L15.25 24L15.25 17L15.25 16.75L14.75 16.75L14.75 17L14.75 24L13.5 24L13 24L13 24.5L13 33.5Z" fill="black"/>
<path fill-rule="evenodd" clip-rule="evenodd" d="M46.5 24.5L46.5 33.5L49.5 33.5L49.5 24.5L46.5 24.5ZM46 33.5L46 34L46.5 34L47.75 34L47.75 41L47.75 41.25L48.25 41.25L48.25 41L48.25 34L49.5 34L50 34L50 33.5L50 24.5L50 24L49.5 24L48.25 24L48.25 17L48.25 16.75L47.75 16.75L47.75 17L47.75 24L46.5 24L46 24L46 24.5L46 33.5Z" fill="black"/>
<path fill-rule="evenodd" clip-rule="evenodd" d="M75.5 34.5L75.5 43.5L78.5 43.5L78.5 34.5L75.5 34.5ZM75 43.5L75 44L75.5 44L76.75 44L76.75 51L76.75 51.25L77.25 51.25L77.25 51L77.25 44L78.5 44L79 44L79 43.5L79 34.5L79 34L78.5 34L77.25 34L77.25 27L77.25 26.75L76.75 26.75L76.75 27L76.75 34L75.5 34L75 34L75 34.5L75 43.5Z" fill="black"/>
<path fill-rule="evenodd" clip-rule="evenodd" d="M69.5 15.5L60.5 15.5V18.5L69.5 18.5V15.5ZM60.5 15H60V15.5V16.75H53H52.75V17.25H53H60V18.5V19H60.5L69.5 19H70V18.5V17.25H77H77.25V16.75H77H70V15.5V15H69.5L60.5 15Z" fill="black"/>
<path fill-rule="evenodd" clip-rule="evenodd" d="M15 50.5C12.5147 50.5 10.5 48.4853 10.5 46C10.5 43.5986 12.381 41.6365 14.75 41.5068L14.75 42L14.75 42.25L14.75 47.8964L13.6768 46.8232L13.3232 47.1768L14.8232 48.6768L15 48.8536L15.1768 48.6768L16.6768 47.1768L16.3232 46.8232L15.25 47.8964L15.25 42.25L15.25 42L15.25 41.5068C17.619 41.6365 19.5 43.5986 19.5 46C19.5 48.4853 17.4853 50.5 15 50.5ZM10 46C10 43.3224 12.1047 41.1364 14.75 41.0061L14.75 34L14.75 33.75L15.25 33.75L15.25 34L15.25 41.0061C17.8953 41.1364 20 43.3224 20 46C20 48.6776 17.8953 50.8636 15.25 50.9939L15.25 51L15.25 58L15.25 58.25L14.75 58.25L14.75 58L14.75 51L14.75 50.9939C12.1047 50.8636 10 48.6776 10 46Z" fill="black"/>
<path fill-rule="evenodd" clip-rule="evenodd" d="M48 50.5C45.5147 50.5 43.5 48.4853 43.5 46C43.5 43.5986 45.381 41.6365 47.75 41.5068L47.75 42L47.75 42.25L47.75 47.8964L46.6768 46.8232L46.3232 47.1768L47.8232 48.6768L48 48.8536L48.1768 48.6768L49.6768 47.1768L49.3232 46.8232L48.25 47.8964L48.25 42.25L48.25 42L48.25 41.5068C50.619 41.6365 52.5 43.5986 52.5 46C52.5 48.4853 50.4853 50.5 48 50.5ZM43 46C43 43.3224 45.1047 41.1364 47.75 41.0061L47.75 34L47.75 33.75L48.25 33.75L48.25 34L48.25 41.0061C50.8953 41.1364 53 43.3224 53 46C53 48.6776 50.8953 50.8636 48.25 50.9939L48.25 51L48.25 58L48.25 58.25L47.75 58.25L47.75 58L47.75 51L47.75 50.9939C45.1047 50.8636 43 48.6776 43 46Z" fill="black"/>
<path d="M15 58H81.141H92V41" stroke="black" stroke-width="0.5"/>
<path d="M92 17H77" stroke="black" stroke-width="0.5"/>
<path d="M44 17H53" stroke="black" stroke-width="0.5"/>
<path d="M15 17H20.5" stroke="black" stroke-width="0.5"/>
<circle cx="48" cy="58" r="1" fill="black"/>
<circle cx="92" cy="58" r="1" fill="black"/>
<circle cx="48" cy="17" r="1" fill="black"/>
<circle cx="92" cy="17" r="1" fill="black"/>
<circle cx="77" cy="17" r="1" fill="black"/>
<circle cx="77" cy="58" r="1" fill="black"/>
<path d="M22.3523 47V44.0909H24.108V44.4034H22.7045V45.3864H24.017V45.6989H22.7045V46.6875H24.1307V47H22.3523ZM25.7145 44.0909V47H25.3622V44.4602H25.3452L24.6349 44.9318V44.5739L25.3622 44.0909H25.7145Z" fill="black"/>
<path d="M29.3523 10V7.09091H31.108V7.40341H29.7045V8.38636H31.017V8.69886H29.7045V9.6875H31.1307V10H29.3523ZM31.6918 10V9.74432L32.652 8.69318C32.7647 8.57008 32.8575 8.46307 32.9304 8.37216C33.0033 8.2803 33.0573 8.19413 33.0923 8.11364C33.1283 8.0322 33.1463 7.94697 33.1463 7.85795C33.1463 7.75568 33.1217 7.66714 33.0724 7.59233C33.0241 7.51752 32.9579 7.45975 32.8736 7.41903C32.7893 7.37831 32.6946 7.35795 32.5895 7.35795C32.4777 7.35795 32.3802 7.38116 32.2969 7.42756C32.2145 7.47301 32.1506 7.53693 32.1051 7.61932C32.0606 7.7017 32.0384 7.7983 32.0384 7.90909H31.7031C31.7031 7.73864 31.7424 7.58902 31.821 7.46023C31.8996 7.33144 32.0066 7.23106 32.142 7.15909C32.2784 7.08712 32.4313 7.05114 32.6009 7.05114C32.7713 7.05114 32.9223 7.08712 33.054 7.15909C33.1856 7.23106 33.2888 7.32812 33.3636 7.45028C33.4384 7.57244 33.4759 7.70833 33.4759 7.85795C33.4759 7.96496 33.4564 8.0696 33.4176 8.17188C33.3797 8.2732 33.3134 8.38636 33.2188 8.51136C33.125 8.63542 32.9948 8.78693 32.8281 8.96591L32.1747 9.66477V9.6875H33.527V10H31.6918Z" fill="black"/>
<path d="M55.3523 48V45.0909H57.108V45.4034H55.7045V46.3864H57.017V46.6989H55.7045V47.6875H57.1307V48H55.3523ZM58.6747 48.0398C58.4872 48.0398 58.3201 48.0076 58.1733 47.9432C58.0275 47.8788 57.9115 47.7893 57.8253 47.6747C57.7401 47.5592 57.6937 47.4252 57.6861 47.2727H58.044C58.0516 47.3665 58.0838 47.4474 58.1406 47.5156C58.1974 47.5829 58.2718 47.6349 58.3636 47.6719C58.4555 47.7088 58.5573 47.7273 58.669 47.7273C58.794 47.7273 58.9048 47.7055 59.0014 47.6619C59.098 47.6184 59.1738 47.5578 59.2287 47.4801C59.2836 47.4025 59.3111 47.3125 59.3111 47.2102C59.3111 47.1032 59.2846 47.009 59.2315 46.9276C59.1785 46.8452 59.1009 46.7808 58.9986 46.7344C58.8963 46.688 58.7713 46.6648 58.6236 46.6648H58.3906V46.3523H58.6236C58.7391 46.3523 58.8404 46.3314 58.9276 46.2898C59.0156 46.2481 59.0843 46.1894 59.1335 46.1136C59.1837 46.0379 59.2088 45.9489 59.2088 45.8466C59.2088 45.7481 59.187 45.6624 59.1435 45.5895C59.0999 45.5166 59.0384 45.4598 58.9588 45.419C58.8802 45.3783 58.7874 45.358 58.6804 45.358C58.58 45.358 58.4853 45.3764 58.3963 45.4134C58.3082 45.4493 58.2363 45.5019 58.1804 45.571C58.1245 45.6392 58.0942 45.7216 58.0895 45.8182H57.7486C57.7543 45.6657 57.8002 45.5322 57.8864 45.4176C57.9725 45.3021 58.0852 45.2121 58.2244 45.1477C58.3646 45.0833 58.5185 45.0511 58.6861 45.0511C58.866 45.0511 59.0204 45.0876 59.1491 45.1605C59.2779 45.2325 59.3769 45.3277 59.446 45.446C59.5152 45.5644 59.5497 45.6922 59.5497 45.8295C59.5497 45.9934 59.5066 46.133 59.4205 46.2486C59.3352 46.3641 59.2192 46.4441 59.0724 46.4886V46.5114C59.2562 46.5417 59.3996 46.6198 59.5028 46.7457C59.6061 46.8707 59.6577 47.0256 59.6577 47.2102C59.6577 47.3684 59.6146 47.5104 59.5284 47.6364C59.4432 47.7614 59.3267 47.8598 59.179 47.9318C59.0313 48.0038 58.8632 48.0398 58.6747 48.0398Z" fill="black"/>
<path d="M82.7045 27.0909V30H82.3523V27.0909H82.7045ZM83.2915 29.4034V29.1136L84.57 27.0909H84.7802V27.5398H84.6381L83.6722 29.0682V29.0909H85.3938V29.4034H83.2915ZM84.6609 30V29.3153V29.1804V27.0909H84.9961V30H84.6609Z" fill="black"/>
<path d="M19.3523 30V27.0909H20.3352C20.5625 27.0909 20.7491 27.1297 20.8949 27.2074C21.0407 27.2841 21.1487 27.3897 21.2188 27.5241C21.2888 27.6586 21.3239 27.8116 21.3239 27.983C21.3239 28.1544 21.2888 28.3063 21.2188 28.4389C21.1487 28.5715 21.0412 28.6757 20.8963 28.7514C20.7514 28.8262 20.5663 28.8636 20.3409 28.8636H19.5455V28.5455H20.3295C20.4848 28.5455 20.6098 28.5227 20.7045 28.4773C20.8002 28.4318 20.8693 28.3674 20.9119 28.2841C20.9555 28.1998 20.9773 28.0994 20.9773 27.983C20.9773 27.8665 20.9555 27.7647 20.9119 27.6776C20.8684 27.5904 20.7988 27.5232 20.7031 27.4759C20.6075 27.4276 20.4811 27.4034 20.3239 27.4034H19.7045V30H19.3523ZM20.7216 28.6932L21.4375 30H21.0284L20.3239 28.6932H20.7216ZM22.8825 27.0909V30H22.5302V27.4602H22.5131L21.8029 27.9318V27.5739L22.5302 27.0909H22.8825Z" fill="black"/>
<path d="M62.3523 12V9.09091H63.3352C63.5625 9.09091 63.7491 9.12973 63.8949 9.20739C64.0407 9.28409 64.1487 9.38968 64.2188 9.52415C64.2888 9.65862 64.3239 9.81155 64.3239 9.98295C64.3239 10.1544 64.2888 10.3063 64.2188 10.4389C64.1487 10.5715 64.0412 10.6757 63.8963 10.7514C63.7514 10.8262 63.5663 10.8636 63.3409 10.8636H62.5455V10.5455H63.3295C63.4848 10.5455 63.6098 10.5227 63.7045 10.4773C63.8002 10.4318 63.8693 10.3674 63.9119 10.2841C63.9555 10.1998 63.9773 10.0994 63.9773 9.98295C63.9773 9.86648 63.9555 9.76468 63.9119 9.67756C63.8684 9.59044 63.7988 9.5232 63.7031 9.47585C63.6075 9.42756 63.4811 9.40341 63.3239 9.40341H62.7045V12H62.3523ZM63.7216 10.6932L64.4375 12H64.0284L63.3239 10.6932H63.7216ZM65.8256 12.0398C65.7063 12.0379 65.587 12.0152 65.4677 11.9716C65.3484 11.928 65.2395 11.8546 65.141 11.7514C65.0425 11.6473 64.9634 11.5066 64.9038 11.3295C64.8441 11.1515 64.8143 10.928 64.8143 10.6591C64.8143 10.4015 64.8384 10.1733 64.8867 9.97443C64.935 9.77462 65.0051 9.60653 65.0969 9.47017C65.1888 9.33286 65.2996 9.22869 65.4293 9.15767C65.56 9.08665 65.7073 9.05114 65.8711 9.05114C66.034 9.05114 66.1789 9.08381 66.3058 9.14915C66.4336 9.21354 66.5378 9.3035 66.6183 9.41903C66.6987 9.53456 66.7508 9.66761 66.7745 9.81818H66.4279C66.3957 9.6875 66.3332 9.57907 66.2404 9.4929C66.1476 9.40672 66.0245 9.36364 65.8711 9.36364C65.6457 9.36364 65.4682 9.46165 65.3384 9.65767C65.2096 9.85369 65.1448 10.1288 65.1438 10.483H65.1665C65.2196 10.4025 65.2826 10.3338 65.3555 10.277C65.4293 10.2192 65.5108 10.1747 65.5998 10.1435C65.6888 10.1122 65.783 10.0966 65.8825 10.0966C66.0491 10.0966 66.2016 10.1383 66.3398 10.2216C66.4781 10.304 66.5889 10.4181 66.6722 10.5639C66.7556 10.7088 66.7972 10.875 66.7972 11.0625C66.7972 11.2424 66.757 11.4072 66.6765 11.5568C66.596 11.7055 66.4828 11.8239 66.337 11.9119C66.1921 11.9991 66.0217 12.0417 65.8256 12.0398ZM65.8256 11.7273C65.945 11.7273 66.052 11.6974 66.1467 11.6378C66.2423 11.5781 66.3176 11.4981 66.3725 11.3977C66.4284 11.2973 66.4563 11.1856 66.4563 11.0625C66.4563 10.9422 66.4293 10.8329 66.3754 10.7344C66.3223 10.6349 66.2489 10.5559 66.1552 10.4972C66.0624 10.4384 65.9563 10.4091 65.837 10.4091C65.747 10.4091 65.6632 10.4271 65.5856 10.4631C65.5079 10.4981 65.4397 10.5464 65.381 10.608C65.3233 10.6695 65.2778 10.7401 65.2447 10.8196C65.2115 10.8982 65.195 10.9811 65.195 11.0682C65.195 11.1837 65.2219 11.2917 65.2759 11.392C65.3308 11.4924 65.4057 11.5734 65.5004 11.6349C65.596 11.6965 65.7044 11.7273 65.8256 11.7273Z" fill="black"/>
<path d="M66.3523 40V37.0909H67.3352C67.5625 37.0909 67.7491 37.1297 67.8949 37.2074C68.0407 37.2841 68.1487 37.3897 68.2188 37.5241C68.2888 37.6586 68.3239 37.8116 68.3239 37.983C68.3239 38.1544 68.2888 38.3063 68.2188 38.4389C68.1487 38.5715 68.0412 38.6757 67.8963 38.7514C67.7514 38.8262 67.5663 38.8636 67.3409 38.8636H66.5455V38.5455H67.3295C67.4848 38.5455 67.6098 38.5227 67.7045 38.4773C67.8002 38.4318 67.8693 38.3674 67.9119 38.2841C67.9555 38.1998 67.9773 38.0994 67.9773 37.983C67.9773 37.8665 67.9555 37.7647 67.9119 37.6776C67.8684 37.5904 67.7988 37.5232 67.7031 37.4759C67.6075 37.4276 67.4811 37.4034 67.3239 37.4034H66.7045V40H66.3523ZM67.7216 38.6932L68.4375 40H68.0284L67.3239 38.6932H67.7216ZM68.7915 39.4034V39.1136L70.07 37.0909H70.2802V37.5398H70.1381L69.1722 39.0682V39.0909H70.8938V39.4034H68.7915ZM70.1609 40V39.3153V39.1804V37.0909H70.4961V40H70.1609ZM72.3352 40.0398C72.1686 40.0398 72.0185 40.0066 71.8849 39.9403C71.7514 39.8741 71.6444 39.7831 71.5639 39.6676C71.4834 39.5521 71.4394 39.4205 71.4318 39.2727H71.7727C71.786 39.4044 71.8456 39.5133 71.9517 39.5994C72.0587 39.6847 72.1866 39.7273 72.3352 39.7273C72.4545 39.7273 72.5606 39.6993 72.6534 39.6435C72.7472 39.5876 72.8205 39.5109 72.8736 39.4134C72.9276 39.3149 72.9545 39.2036 72.9545 39.0795C72.9545 38.9527 72.9266 38.8395 72.8707 38.7401C72.8158 38.6397 72.7401 38.5606 72.6435 38.5028C72.5469 38.4451 72.4366 38.4157 72.3125 38.4148C72.2235 38.4138 72.1321 38.4276 72.0384 38.456C71.9446 38.4834 71.8674 38.5189 71.8068 38.5625L71.4773 38.5227L71.6534 37.0909H73.1648V37.4034H71.9489L71.8466 38.2614H71.8636C71.9233 38.214 71.9981 38.1747 72.0881 38.1435C72.178 38.1122 72.2718 38.0966 72.3693 38.0966C72.5473 38.0966 72.706 38.1392 72.8452 38.2244C72.9853 38.3087 73.0952 38.4242 73.1747 38.571C73.2552 38.7178 73.2955 38.8854 73.2955 39.0739C73.2955 39.2595 73.2538 39.4252 73.1705 39.571C73.0881 39.7159 72.9744 39.8305 72.8295 39.9148C72.6847 39.9981 72.5199 40.0398 72.3352 40.0398Z" fill="black"/>
<path d="M52.3523 30V27.0909H53.3352C53.5625 27.0909 53.7491 27.1297 53.8949 27.2074C54.0407 27.2841 54.1487 27.3897 54.2188 27.5241C54.2888 27.6586 54.3239 27.8116 54.3239 27.983C54.3239 28.1544 54.2888 28.3063 54.2188 28.4389C54.1487 28.5715 54.0412 28.6757 53.8963 28.7514C53.7514 28.8262 53.5663 28.8636 53.3409 28.8636H52.5455V28.5455H53.3295C53.4848 28.5455 53.6098 28.5227 53.7045 28.4773C53.8002 28.4318 53.8693 28.3674 53.9119 28.2841C53.9555 28.1998 53.9773 28.0994 53.9773 27.983C53.9773 27.8665 53.9555 27.7647 53.9119 27.6776C53.8684 27.5904 53.7988 27.5232 53.7031 27.4759C53.6075 27.4276 53.4811 27.4034 53.3239 27.4034H52.7045V30H52.3523ZM53.7216 28.6932L54.4375 30H54.0284L53.3239 28.6932H53.7216ZM55.8427 30.0398C55.6552 30.0398 55.488 30.0076 55.3413 29.9432C55.1954 29.8788 55.0794 29.7893 54.9933 29.6747C54.908 29.5592 54.8616 29.4252 54.854 29.2727H55.212C55.2196 29.3665 55.2518 29.4474 55.3086 29.5156C55.3654 29.5829 55.4397 29.6349 55.5316 29.6719C55.6235 29.7088 55.7253 29.7273 55.837 29.7273C55.962 29.7273 56.0728 29.7055 56.1694 29.6619C56.266 29.6184 56.3417 29.5578 56.3967 29.4801C56.4516 29.4025 56.479 29.3125 56.479 29.2102C56.479 29.1032 56.4525 29.009 56.3995 28.9276C56.3465 28.8452 56.2688 28.7808 56.1665 28.7344C56.0643 28.688 55.9393 28.6648 55.7915 28.6648H55.5586V28.3523H55.7915C55.9071 28.3523 56.0084 28.3314 56.0955 28.2898C56.1836 28.2481 56.2522 28.1894 56.3015 28.1136C56.3517 28.0379 56.3768 27.9489 56.3768 27.8466C56.3768 27.7481 56.355 27.6624 56.3114 27.5895C56.2679 27.5166 56.2063 27.4598 56.1268 27.419C56.0482 27.3783 55.9554 27.358 55.8484 27.358C55.748 27.358 55.6533 27.3764 55.5643 27.4134C55.4762 27.4493 55.4042 27.5019 55.3484 27.571C55.2925 27.6392 55.2622 27.7216 55.2575 27.8182H54.9165C54.9222 27.6657 54.9682 27.5322 55.0543 27.4176C55.1405 27.3021 55.2532 27.2121 55.3924 27.1477C55.5326 27.0833 55.6864 27.0511 55.854 27.0511C56.034 27.0511 56.1883 27.0876 56.3171 27.1605C56.4459 27.2325 56.5449 27.3277 56.614 27.446C56.6831 27.5644 56.7177 27.6922 56.7177 27.8295C56.7177 27.9934 56.6746 28.133 56.5884 28.2486C56.5032 28.3641 56.3872 28.4441 56.2404 28.4886V28.5114C56.4241 28.5417 56.5676 28.6198 56.6708 28.7457C56.774 28.8707 56.8256 29.0256 56.8256 29.2102C56.8256 29.3684 56.7826 29.5104 56.6964 29.6364C56.6112 29.7614 56.4947 29.8598 56.3469 29.9318C56.1992 30.0038 56.0311 30.0398 55.8427 30.0398Z" fill="black"/>
<circle cx="92" cy="29" r="4.75" transform="rotate(-90 92 29)" stroke="black" stroke-width="0.5"/>
<path d="M92 33L92 29.5M92 29.5L90.5 31M92 29.5L93.5 31M90.5 28.5L92 27L93.5 28.5" stroke="black" stroke-width="0.5"/>
<path d="M92 41L92 33" stroke="black" stroke-width="0.5" stroke-linecap="square"/>
<path d="M92 24L92 17" stroke="black" stroke-width="0.5" stroke-linecap="square"/>
<path d="M92 58V41" stroke="black" stroke-width="0.5"/>
<path d="M77 51L77 58" stroke="black" stroke-width="0.5"/>
<path d="M77 27V17" stroke="black" stroke-width="0.5"/>
<path d="M78.4261 65.7727C78.4261 65.4148 78.4725 65.0857 78.5653 64.7855C78.6591 64.4844 78.7926 64.2074 78.9659 63.9545H79.2614C79.1932 64.0483 79.1293 64.1638 79.0696 64.3011C79.0109 64.4375 78.9593 64.5876 78.9148 64.7514C78.8703 64.9143 78.8352 65.0829 78.8097 65.2571C78.785 65.4313 78.7727 65.6032 78.7727 65.7727C78.7727 65.9981 78.7945 66.2268 78.8381 66.4588C78.8816 66.6908 78.9403 66.9062 79.0142 67.1051C79.0881 67.304 79.1705 67.4659 79.2614 67.5909H78.9659C78.7926 67.3381 78.6591 67.0616 78.5653 66.7614C78.4725 66.4602 78.4261 66.1307 78.4261 65.7727ZM79.756 67.8182V64.8182H80.0799V65.1648H80.1197C80.1443 65.1269 80.1784 65.0786 80.2219 65.0199C80.2665 64.9602 80.3299 64.9072 80.4123 64.8608C80.4956 64.8134 80.6083 64.7898 80.7504 64.7898C80.9341 64.7898 81.096 64.8357 81.2362 64.9276C81.3763 65.0194 81.4857 65.1496 81.5643 65.3182C81.6429 65.4867 81.6822 65.6856 81.6822 65.9148C81.6822 66.1458 81.6429 66.3461 81.5643 66.5156C81.4857 66.6842 81.3768 66.8149 81.2376 66.9077C81.0984 66.9995 80.9379 67.0455 80.756 67.0455C80.6159 67.0455 80.5037 67.0223 80.4194 66.9759C80.3351 66.9285 80.2702 66.875 80.2248 66.8153C80.1793 66.7547 80.1443 66.7045 80.1197 66.6648H80.0913V67.8182H79.756ZM80.0856 65.9091C80.0856 66.0739 80.1097 66.2192 80.158 66.3452C80.2063 66.4702 80.2769 66.5682 80.3697 66.6392C80.4625 66.7093 80.5761 66.7443 80.7106 66.7443C80.8507 66.7443 80.9677 66.7074 81.0614 66.6335C81.1561 66.5587 81.2272 66.4583 81.2745 66.3324C81.3228 66.2055 81.3469 66.0644 81.3469 65.9091C81.3469 65.7557 81.3233 65.6174 81.2759 65.4943C81.2295 65.3703 81.159 65.2723 81.0643 65.2003C80.9705 65.1274 80.8526 65.0909 80.7106 65.0909C80.5742 65.0909 80.4596 65.1255 80.3668 65.1946C80.274 65.2628 80.204 65.3584 80.1566 65.4815C80.1093 65.6037 80.0856 65.7462 80.0856 65.9091ZM82.5288 66.5057L83.5799 64.8182H83.9663V67H83.631V65.3125L82.5856 67H82.1935V64.8182H82.5288V66.5057ZM85.4666 67.0455C85.2621 67.0455 85.0859 66.9972 84.9382 66.9006C84.7905 66.804 84.6768 66.6709 84.5973 66.5014C84.5178 66.3319 84.478 66.1383 84.478 65.9205C84.478 65.6989 84.5187 65.5033 84.6001 65.3338C84.6825 65.1634 84.7971 65.0303 84.9439 64.9347C85.0916 64.8381 85.264 64.7898 85.4609 64.7898C85.6143 64.7898 85.7526 64.8182 85.8757 64.875C85.9988 64.9318 86.0997 65.0114 86.1783 65.1136C86.2569 65.2159 86.3056 65.3352 86.3246 65.4716H85.9893C85.9638 65.3722 85.907 65.2841 85.8189 65.2074C85.7318 65.1297 85.6143 65.0909 85.4666 65.0909C85.3359 65.0909 85.2214 65.125 85.1229 65.1932C85.0253 65.2604 84.9491 65.3556 84.8942 65.4787C84.8402 65.6009 84.8132 65.7443 84.8132 65.9091C84.8132 66.0777 84.8397 66.2244 84.8928 66.3494C84.9467 66.4744 85.0225 66.5715 85.12 66.6406C85.2185 66.7098 85.334 66.7443 85.4666 66.7443C85.5537 66.7443 85.6328 66.7292 85.7038 66.6989C85.7749 66.6686 85.835 66.625 85.8842 66.5682C85.9335 66.5114 85.9685 66.4432 85.9893 66.3636H86.3246C86.3056 66.4924 86.2588 66.6084 86.1839 66.7116C86.1101 66.8139 86.0121 66.8954 85.8899 66.956C85.7687 67.0156 85.6276 67.0455 85.4666 67.0455ZM87.0589 67.0227C86.9889 67.0227 86.9287 66.9976 86.8786 66.9474C86.8284 66.8973 86.8033 66.8371 86.8033 66.767C86.8033 66.697 86.8284 66.6368 86.8786 66.5866C86.9287 66.5365 86.9889 66.5114 87.0589 66.5114C87.129 66.5114 87.1892 66.5365 87.2393 66.5866C87.2895 66.6368 87.3146 66.697 87.3146 66.767C87.3146 66.8134 87.3028 66.8561 87.2791 66.8949C87.2564 66.9337 87.2256 66.965 87.1868 66.9886C87.1489 67.0114 87.1063 67.0227 87.0589 67.0227ZM90.0185 67.0398C89.831 67.0398 89.6638 67.0076 89.517 66.9432C89.3712 66.8788 89.2552 66.7893 89.169 66.6747C89.0838 66.5592 89.0374 66.4252 89.0298 66.2727H89.3878C89.3954 66.3665 89.4276 66.4474 89.4844 66.5156C89.5412 66.5829 89.6155 66.6349 89.7074 66.6719C89.7992 66.7088 89.901 66.7273 90.0128 66.7273C90.1378 66.7273 90.2486 66.7055 90.3452 66.6619C90.4418 66.6184 90.5175 66.5578 90.5724 66.4801C90.6274 66.4025 90.6548 66.3125 90.6548 66.2102C90.6548 66.1032 90.6283 66.009 90.5753 65.9276C90.5223 65.8452 90.4446 65.7808 90.3423 65.7344C90.2401 65.688 90.1151 65.6648 89.9673 65.6648H89.7344V65.3523H89.9673C90.0829 65.3523 90.1842 65.3314 90.2713 65.2898C90.3594 65.2481 90.428 65.1894 90.4773 65.1136C90.5275 65.0379 90.5526 64.9489 90.5526 64.8466C90.5526 64.7481 90.5308 64.6624 90.4872 64.5895C90.4437 64.5166 90.3821 64.4598 90.3026 64.419C90.224 64.3783 90.1312 64.358 90.0241 64.358C89.9238 64.358 89.8291 64.3764 89.7401 64.4134C89.652 64.4493 89.58 64.5019 89.5241 64.571C89.4683 64.6392 89.438 64.7216 89.4332 64.8182H89.0923C89.098 64.6657 89.1439 64.5322 89.2301 64.4176C89.3163 64.3021 89.429 64.2121 89.5682 64.1477C89.7083 64.0833 89.8622 64.0511 90.0298 64.0511C90.2098 64.0511 90.3641 64.0876 90.4929 64.1605C90.6217 64.2325 90.7206 64.3277 90.7898 64.446C90.8589 64.5644 90.8935 64.6922 90.8935 64.8295C90.8935 64.9934 90.8504 65.133 90.7642 65.2486C90.679 65.3641 90.563 65.4441 90.4162 65.4886V65.5114C90.5999 65.5417 90.7434 65.6198 90.8466 65.7457C90.9498 65.8707 91.0014 66.0256 91.0014 66.2102C91.0014 66.3684 90.9583 66.5104 90.8722 66.6364C90.7869 66.7614 90.6705 66.8598 90.5227 66.9318C90.375 67.0038 90.2069 67.0398 90.0185 67.0398ZM92.304 65.5455C92.304 65.9034 92.2571 66.233 92.1634 66.5341C92.0705 66.8343 91.9375 67.1108 91.7642 67.3636H91.4688C91.5369 67.2699 91.6004 67.1544 91.6591 67.017C91.7188 66.8807 91.7708 66.7311 91.8153 66.5682C91.8598 66.4044 91.8944 66.2353 91.919 66.0611C91.9446 65.8859 91.9574 65.714 91.9574 65.5455C91.9574 65.3201 91.9356 65.0914 91.892 64.8594C91.8485 64.6274 91.7898 64.4119 91.7159 64.2131C91.642 64.0142 91.5597 63.8523 91.4688 63.7273H91.7642C91.9375 63.9801 92.0705 64.2571 92.1634 64.5582C92.2571 64.8584 92.304 65.1875 92.304 65.5455Z" fill="black"/>
</svg>
