<svg width="113" height="72" viewBox="0 0 113 72" fill="none" xmlns="http://www.w3.org/2000/svg">
<rect width="113" height="72" rx="6" fill="white"/>
<path fill-rule="evenodd" clip-rule="evenodd" d="M36.5 17C36.5 19.4853 34.4853 21.5 32 21.5C29.5986 21.5 27.6365 19.619 27.5068 17.25H28H28.25H33.8964L32.8232 18.3232L33.1768 18.6768L34.6768 17.1768L34.8536 17L34.6768 16.8232L33.1768 15.3232L32.8232 15.6768L33.8964 16.75H28.25H28H27.5068C27.6365 14.381 29.5986 12.5 32 12.5C34.4853 12.5 36.5 14.5147 36.5 17ZM32 22C29.3224 22 27.1364 19.8953 27.0061 17.25H20H19.75V16.75H20H27.0061C27.1364 14.1047 29.3224 12 32 12C34.6776 12 36.8636 14.1047 36.9939 16.75H37H44H44.25V17.25H44H37H36.9939C36.8636 19.8953 34.6776 22 32 22Z" fill="black"/>
<path fill-rule="evenodd" clip-rule="evenodd" d="M13.5 24.5L13.5 33.5L16.5 33.5L16.5 24.5L13.5 24.5ZM13 33.5L13 34L13.5 34L14.75 34L14.75 41L14.75 41.25L15.25 41.25L15.25 41L15.25 34L16.5 34L17 34L17 33.5L17 24.5L17 24L16.5 24L15.25 24L15.25 17L15.25 16.75L14.75 16.75L14.75 17L14.75 24L13.5 24L13 24L13 24.5L13 33.5Z" fill="black"/>
<path fill-rule="evenodd" clip-rule="evenodd" d="M46.5 24.5L46.5 33.5L49.5 33.5L49.5 24.5L46.5 24.5ZM46 33.5L46 34L46.5 34L47.75 34L47.75 41L47.75 41.25L48.25 41.25L48.25 41L48.25 34L49.5 34L50 34L50 33.5L50 24.5L50 24L49.5 24L48.25 24L48.25 17L48.25 16.75L47.75 16.75L47.75 17L47.75 24L46.5 24L46 24L46 24.5L46 33.5Z" fill="black"/>
<path fill-rule="evenodd" clip-rule="evenodd" d="M69.5 15.5L60.5 15.5V18.5L69.5 18.5V15.5ZM60.5 15H60V15.5V16.75H53H52.75V17.25H53H60V18.5V19H60.5L69.5 19H70V18.5V17.25H77H77.25V16.75H77H70V15.5V15H69.5L60.5 15Z" fill="black"/>
<path fill-rule="evenodd" clip-rule="evenodd" d="M15 50.5C12.5147 50.5 10.5 48.4853 10.5 46C10.5 43.5986 12.381 41.6365 14.75 41.5068L14.75 42L14.75 42.25L14.75 47.8964L13.6768 46.8232L13.3232 47.1768L14.8232 48.6768L15 48.8536L15.1768 48.6768L16.6768 47.1768L16.3232 46.8232L15.25 47.8964L15.25 42.25L15.25 42L15.25 41.5068C17.619 41.6365 19.5 43.5986 19.5 46C19.5 48.4853 17.4853 50.5 15 50.5ZM10 46C10 43.3224 12.1047 41.1364 14.75 41.0061L14.75 34L14.75 33.75L15.25 33.75L15.25 34L15.25 41.0061C17.8953 41.1364 20 43.3224 20 46C20 48.6776 17.8953 50.8636 15.25 50.9939L15.25 51L15.25 58L15.25 58.25L14.75 58.25L14.75 58L14.75 51L14.75 50.9939C12.1047 50.8636 10 48.6776 10 46Z" fill="black"/>
<path fill-rule="evenodd" clip-rule="evenodd" d="M48 50.5C45.5147 50.5 43.5 48.4853 43.5 46C43.5 43.5986 45.381 41.6365 47.75 41.5068L47.75 42L47.75 42.25L47.75 47.8964L46.6768 46.8232L46.3232 47.1768L47.8232 48.6768L48 48.8536L48.1768 48.6768L49.6768 47.1768L49.3232 46.8232L48.25 47.8964L48.25 42.25L48.25 42L48.25 41.5068C50.619 41.6365 52.5 43.5986 52.5 46C52.5 48.4853 50.4853 50.5 48 50.5ZM43 46C43 43.3224 45.1047 41.1364 47.75 41.0061L47.75 34L47.75 33.75L48.25 33.75L48.25 34L48.25 41.0061C50.8953 41.1364 53 43.3224 53 46C53 48.6776 50.8953 50.8636 48.25 50.9939L48.25 51L48.25 58L48.25 58.25L47.75 58.25L47.75 58L47.75 51L47.75 50.9939C45.1047 50.8636 43 48.6776 43 46Z" fill="black"/>
<path d="M15 58H68.2564H77V45" stroke="black" stroke-width="0.5"/>
<path d="M44 17H53" stroke="black" stroke-width="0.5"/>
<path d="M15 17H20.5" stroke="black" stroke-width="0.5"/>
<circle cx="48" cy="58" r="1" fill="black"/>
<circle cx="48" cy="17" r="1" fill="black"/>
<path d="M22.3523 47V44.0909H24.108V44.4034H22.7045V45.3864H24.017V45.6989H22.7045V46.6875H24.1307V47H22.3523ZM25.7145 44.0909V47H25.3622V44.4602H25.3452L24.6349 44.9318V44.5739L25.3622 44.0909H25.7145Z" fill="black"/>
<path d="M29.3523 10V7.09091H31.108V7.40341H29.7045V8.38636H31.017V8.69886H29.7045V9.6875H31.1307V10H29.3523ZM31.6918 10V9.74432L32.652 8.69318C32.7647 8.57008 32.8575 8.46307 32.9304 8.37216C33.0033 8.2803 33.0573 8.19413 33.0923 8.11364C33.1283 8.0322 33.1463 7.94697 33.1463 7.85795C33.1463 7.75568 33.1217 7.66714 33.0724 7.59233C33.0241 7.51752 32.9579 7.45975 32.8736 7.41903C32.7893 7.37831 32.6946 7.35795 32.5895 7.35795C32.4777 7.35795 32.3802 7.38116 32.2969 7.42756C32.2145 7.47301 32.1506 7.53693 32.1051 7.61932C32.0606 7.7017 32.0384 7.7983 32.0384 7.90909H31.7031C31.7031 7.73864 31.7424 7.58902 31.821 7.46023C31.8996 7.33144 32.0066 7.23106 32.142 7.15909C32.2784 7.08712 32.4313 7.05114 32.6009 7.05114C32.7713 7.05114 32.9223 7.08712 33.054 7.15909C33.1856 7.23106 33.2888 7.32812 33.3636 7.45028C33.4384 7.57244 33.4759 7.70833 33.4759 7.85795C33.4759 7.96496 33.4564 8.0696 33.4176 8.17188C33.3797 8.2732 33.3134 8.38636 33.2188 8.51136C33.125 8.63542 32.9948 8.78693 32.8281 8.96591L32.1747 9.66477V9.6875H33.527V10H31.6918Z" fill="black"/>
<path d="M55.3523 48V45.0909H57.108V45.4034H55.7045V46.3864H57.017V46.6989H55.7045V47.6875H57.1307V48H55.3523ZM58.6747 48.0398C58.4872 48.0398 58.3201 48.0076 58.1733 47.9432C58.0275 47.8788 57.9115 47.7893 57.8253 47.6747C57.7401 47.5592 57.6937 47.4252 57.6861 47.2727H58.044C58.0516 47.3665 58.0838 47.4474 58.1406 47.5156C58.1974 47.5829 58.2718 47.6349 58.3636 47.6719C58.4555 47.7088 58.5573 47.7273 58.669 47.7273C58.794 47.7273 58.9048 47.7055 59.0014 47.6619C59.098 47.6184 59.1738 47.5578 59.2287 47.4801C59.2836 47.4025 59.3111 47.3125 59.3111 47.2102C59.3111 47.1032 59.2846 47.009 59.2315 46.9276C59.1785 46.8452 59.1009 46.7808 58.9986 46.7344C58.8963 46.688 58.7713 46.6648 58.6236 46.6648H58.3906V46.3523H58.6236C58.7391 46.3523 58.8404 46.3314 58.9276 46.2898C59.0156 46.2481 59.0843 46.1894 59.1335 46.1136C59.1837 46.0379 59.2088 45.9489 59.2088 45.8466C59.2088 45.7481 59.187 45.6624 59.1435 45.5895C59.0999 45.5166 59.0384 45.4598 58.9588 45.419C58.8802 45.3783 58.7874 45.358 58.6804 45.358C58.58 45.358 58.4853 45.3764 58.3963 45.4134C58.3082 45.4493 58.2363 45.5019 58.1804 45.571C58.1245 45.6392 58.0942 45.7216 58.0895 45.8182H57.7486C57.7543 45.6657 57.8002 45.5322 57.8864 45.4176C57.9725 45.3021 58.0852 45.2121 58.2244 45.1477C58.3646 45.0833 58.5185 45.0511 58.6861 45.0511C58.866 45.0511 59.0204 45.0876 59.1491 45.1605C59.2779 45.2325 59.3769 45.3277 59.446 45.446C59.5152 45.5644 59.5497 45.6922 59.5497 45.8295C59.5497 45.9934 59.5066 46.133 59.4205 46.2486C59.3352 46.3641 59.2192 46.4441 59.0724 46.4886V46.5114C59.2562 46.5417 59.3996 46.6198 59.5028 46.7457C59.6061 46.8707 59.6577 47.0256 59.6577 47.2102C59.6577 47.3684 59.6146 47.5104 59.5284 47.6364C59.4432 47.7614 59.3267 47.8598 59.179 47.9318C59.0313 48.0038 58.8632 48.0398 58.6747 48.0398Z" fill="black"/>
<path d="M19.3523 30V27.0909H20.3352C20.5625 27.0909 20.7491 27.1297 20.8949 27.2074C21.0407 27.2841 21.1487 27.3897 21.2188 27.5241C21.2888 27.6586 21.3239 27.8116 21.3239 27.983C21.3239 28.1544 21.2888 28.3063 21.2188 28.4389C21.1487 28.5715 21.0412 28.6757 20.8963 28.7514C20.7514 28.8262 20.5663 28.8636 20.3409 28.8636H19.5455V28.5455H20.3295C20.4848 28.5455 20.6098 28.5227 20.7045 28.4773C20.8002 28.4318 20.8693 28.3674 20.9119 28.2841C20.9555 28.1998 20.9773 28.0994 20.9773 27.983C20.9773 27.8665 20.9555 27.7647 20.9119 27.6776C20.8684 27.5904 20.7988 27.5232 20.7031 27.4759C20.6075 27.4276 20.4811 27.4034 20.3239 27.4034H19.7045V30H19.3523ZM20.7216 28.6932L21.4375 30H21.0284L20.3239 28.6932H20.7216ZM22.8825 27.0909V30H22.5302V27.4602H22.5131L21.8029 27.9318V27.5739L22.5302 27.0909H22.8825Z" fill="black"/>
<path d="M62.3523 12V9.09091H63.3352C63.5625 9.09091 63.7491 9.12973 63.8949 9.20739C64.0407 9.28409 64.1487 9.38968 64.2188 9.52415C64.2888 9.65862 64.3239 9.81155 64.3239 9.98295C64.3239 10.1544 64.2888 10.3063 64.2188 10.4389C64.1487 10.5715 64.0412 10.6757 63.8963 10.7514C63.7514 10.8262 63.5663 10.8636 63.3409 10.8636H62.5455V10.5455H63.3295C63.4848 10.5455 63.6098 10.5227 63.7045 10.4773C63.8002 10.4318 63.8693 10.3674 63.9119 10.2841C63.9555 10.1998 63.9773 10.0994 63.9773 9.98295C63.9773 9.86648 63.9555 9.76468 63.9119 9.67756C63.8684 9.59044 63.7988 9.5232 63.7031 9.47585C63.6075 9.42756 63.4811 9.40341 63.3239 9.40341H62.7045V12H62.3523ZM63.7216 10.6932L64.4375 12H64.0284L63.3239 10.6932H63.7216ZM65.8256 12.0398C65.7063 12.0379 65.587 12.0152 65.4677 11.9716C65.3484 11.928 65.2395 11.8546 65.141 11.7514C65.0425 11.6473 64.9634 11.5066 64.9038 11.3295C64.8441 11.1515 64.8143 10.928 64.8143 10.6591C64.8143 10.4015 64.8384 10.1733 64.8867 9.97443C64.935 9.77462 65.0051 9.60653 65.0969 9.47017C65.1888 9.33286 65.2996 9.22869 65.4293 9.15767C65.56 9.08665 65.7073 9.05114 65.8711 9.05114C66.034 9.05114 66.1789 9.08381 66.3058 9.14915C66.4336 9.21354 66.5378 9.3035 66.6183 9.41903C66.6987 9.53456 66.7508 9.66761 66.7745 9.81818H66.4279C66.3957 9.6875 66.3332 9.57907 66.2404 9.4929C66.1476 9.40672 66.0245 9.36364 65.8711 9.36364C65.6457 9.36364 65.4682 9.46165 65.3384 9.65767C65.2096 9.85369 65.1448 10.1288 65.1438 10.483H65.1665C65.2196 10.4025 65.2826 10.3338 65.3555 10.277C65.4293 10.2192 65.5108 10.1747 65.5998 10.1435C65.6888 10.1122 65.783 10.0966 65.8825 10.0966C66.0491 10.0966 66.2016 10.1383 66.3398 10.2216C66.4781 10.304 66.5889 10.4181 66.6722 10.5639C66.7556 10.7088 66.7972 10.875 66.7972 11.0625C66.7972 11.2424 66.757 11.4072 66.6765 11.5568C66.596 11.7055 66.4828 11.8239 66.337 11.9119C66.1921 11.9991 66.0217 12.0417 65.8256 12.0398ZM65.8256 11.7273C65.945 11.7273 66.052 11.6974 66.1467 11.6378C66.2423 11.5781 66.3176 11.4981 66.3725 11.3977C66.4284 11.2973 66.4563 11.1856 66.4563 11.0625C66.4563 10.9422 66.4293 10.8329 66.3754 10.7344C66.3223 10.6349 66.2489 10.5559 66.1552 10.4972C66.0624 10.4384 65.9563 10.4091 65.837 10.4091C65.747 10.4091 65.6632 10.4271 65.5856 10.4631C65.5079 10.4981 65.4397 10.5464 65.381 10.608C65.3233 10.6695 65.2778 10.7401 65.2447 10.8196C65.2115 10.8982 65.195 10.9811 65.195 11.0682C65.195 11.1837 65.2219 11.2917 65.2759 11.392C65.3308 11.4924 65.4057 11.5734 65.5004 11.6349C65.596 11.6965 65.7044 11.7273 65.8256 11.7273Z" fill="black"/>
<path d="M84.3523 48V45.0909H86.108V45.4034H84.7045V46.3864H86.017V46.6989H84.7045V47.6875H86.1307V48H84.3523ZM86.6236 47.4034V47.1136L87.902 45.0909H88.1122V45.5398H87.9702L87.0043 47.0682V47.0909H88.7259V47.4034H86.6236ZM87.9929 48V47.3153V47.1804V45.0909H88.3281V48H87.9929ZM90.1673 48.0398C90.0006 48.0398 89.8505 48.0066 89.717 47.9403C89.5835 47.8741 89.4764 47.7831 89.396 47.6676C89.3155 47.5521 89.2714 47.4205 89.2638 47.2727H89.6048C89.618 47.4044 89.6777 47.5133 89.7837 47.5994C89.8907 47.6847 90.0186 47.7273 90.1673 47.7273C90.2866 47.7273 90.3926 47.6993 90.4854 47.6435C90.5792 47.5876 90.6526 47.5109 90.7056 47.4134C90.7596 47.3149 90.7866 47.2036 90.7866 47.0795C90.7866 46.9527 90.7586 46.8395 90.7028 46.7401C90.6478 46.6397 90.5721 46.5606 90.4755 46.5028C90.3789 46.4451 90.2686 46.4157 90.1445 46.4148C90.0555 46.4138 89.9641 46.4276 89.8704 46.456C89.7766 46.4834 89.6995 46.5189 89.6388 46.5625L89.3093 46.5227L89.4854 45.0909H90.9968V45.4034H89.7809L89.6786 46.2614H89.6957C89.7553 46.214 89.8301 46.1747 89.9201 46.1435C90.0101 46.1122 90.1038 46.0966 90.2013 46.0966C90.3794 46.0966 90.538 46.1392 90.6772 46.2244C90.8174 46.3087 90.9272 46.4242 91.0067 46.571C91.0872 46.7178 91.1275 46.8854 91.1275 47.0739C91.1275 47.2595 91.0858 47.4252 91.0025 47.571C90.9201 47.7159 90.8065 47.8305 90.6616 47.9148C90.5167 47.9981 90.3519 48.0398 90.1673 48.0398Z" fill="black"/>
<path d="M81.3523 30V27.0909H82.3352C82.5625 27.0909 82.7491 27.1297 82.8949 27.2074C83.0407 27.2841 83.1487 27.3897 83.2188 27.5241C83.2888 27.6586 83.3239 27.8116 83.3239 27.983C83.3239 28.1544 83.2888 28.3063 83.2188 28.4389C83.1487 28.5715 83.0412 28.6757 82.8963 28.7514C82.7514 28.8262 82.5663 28.8636 82.3409 28.8636H81.5455V28.5455H82.3295C82.4848 28.5455 82.6098 28.5227 82.7045 28.4773C82.8002 28.4318 82.8693 28.3674 82.9119 28.2841C82.9555 28.1998 82.9773 28.0994 82.9773 27.983C82.9773 27.8665 82.9555 27.7647 82.9119 27.6776C82.8684 27.5904 82.7988 27.5232 82.7031 27.4759C82.6075 27.4276 82.4811 27.4034 82.3239 27.4034H81.7045V30H81.3523ZM82.7216 28.6932L83.4375 30H83.0284L82.3239 28.6932H82.7216ZM83.7915 29.4034V29.1136L85.07 27.0909H85.2802V27.5398H85.1381L84.1722 29.0682V29.0909H85.8938V29.4034H83.7915ZM85.1609 30V29.3153V29.1804V27.0909H85.4961V30H85.1609ZM87.3352 30.0398C87.1686 30.0398 87.0185 30.0066 86.8849 29.9403C86.7514 29.8741 86.6444 29.7831 86.5639 29.6676C86.4834 29.5521 86.4394 29.4205 86.4318 29.2727H86.7727C86.786 29.4044 86.8456 29.5133 86.9517 29.5994C87.0587 29.6847 87.1866 29.7273 87.3352 29.7273C87.4545 29.7273 87.5606 29.6993 87.6534 29.6435C87.7472 29.5876 87.8205 29.5109 87.8736 29.4134C87.9276 29.3149 87.9545 29.2036 87.9545 29.0795C87.9545 28.9527 87.9266 28.8395 87.8707 28.7401C87.8158 28.6397 87.7401 28.5606 87.6435 28.5028C87.5469 28.4451 87.4366 28.4157 87.3125 28.4148C87.2235 28.4138 87.1321 28.4276 87.0384 28.456C86.9446 28.4834 86.8674 28.5189 86.8068 28.5625L86.4773 28.5227L86.6534 27.0909H88.1648V27.4034H86.9489L86.8466 28.2614H86.8636C86.9233 28.214 86.9981 28.1747 87.0881 28.1435C87.178 28.1122 87.2718 28.0966 87.3693 28.0966C87.5473 28.0966 87.706 28.1392 87.8452 28.2244C87.9853 28.3087 88.0952 28.4242 88.1747 28.571C88.2552 28.7178 88.2955 28.8854 88.2955 29.0739C88.2955 29.2595 88.2538 29.4252 88.1705 29.571C88.0881 29.7159 87.9744 29.8305 87.8295 29.9148C87.6847 29.9981 87.5199 30.0398 87.3352 30.0398Z" fill="black"/>
<path d="M52.3523 30V27.0909H53.3352C53.5625 27.0909 53.7491 27.1297 53.8949 27.2074C54.0407 27.2841 54.1487 27.3897 54.2188 27.5241C54.2888 27.6586 54.3239 27.8116 54.3239 27.983C54.3239 28.1544 54.2888 28.3063 54.2188 28.4389C54.1487 28.5715 54.0412 28.6757 53.8963 28.7514C53.7514 28.8262 53.5663 28.8636 53.3409 28.8636H52.5455V28.5455H53.3295C53.4848 28.5455 53.6098 28.5227 53.7045 28.4773C53.8002 28.4318 53.8693 28.3674 53.9119 28.2841C53.9555 28.1998 53.9773 28.0994 53.9773 27.983C53.9773 27.8665 53.9555 27.7647 53.9119 27.6776C53.8684 27.5904 53.7988 27.5232 53.7031 27.4759C53.6075 27.4276 53.4811 27.4034 53.3239 27.4034H52.7045V30H52.3523ZM53.7216 28.6932L54.4375 30H54.0284L53.3239 28.6932H53.7216ZM55.8427 30.0398C55.6552 30.0398 55.488 30.0076 55.3413 29.9432C55.1954 29.8788 55.0794 29.7893 54.9933 29.6747C54.908 29.5592 54.8616 29.4252 54.854 29.2727H55.212C55.2196 29.3665 55.2518 29.4474 55.3086 29.5156C55.3654 29.5829 55.4397 29.6349 55.5316 29.6719C55.6235 29.7088 55.7253 29.7273 55.837 29.7273C55.962 29.7273 56.0728 29.7055 56.1694 29.6619C56.266 29.6184 56.3417 29.5578 56.3967 29.4801C56.4516 29.4025 56.479 29.3125 56.479 29.2102C56.479 29.1032 56.4525 29.009 56.3995 28.9276C56.3465 28.8452 56.2688 28.7808 56.1665 28.7344C56.0643 28.688 55.9393 28.6648 55.7915 28.6648H55.5586V28.3523H55.7915C55.9071 28.3523 56.0084 28.3314 56.0955 28.2898C56.1836 28.2481 56.2522 28.1894 56.3015 28.1136C56.3517 28.0379 56.3768 27.9489 56.3768 27.8466C56.3768 27.7481 56.355 27.6624 56.3114 27.5895C56.2679 27.5166 56.2063 27.4598 56.1268 27.419C56.0482 27.3783 55.9554 27.358 55.8484 27.358C55.748 27.358 55.6533 27.3764 55.5643 27.4134C55.4762 27.4493 55.4042 27.5019 55.3484 27.571C55.2925 27.6392 55.2622 27.7216 55.2575 27.8182H54.9165C54.9222 27.6657 54.9682 27.5322 55.0543 27.4176C55.1405 27.3021 55.2532 27.2121 55.3924 27.1477C55.5326 27.0833 55.6864 27.0511 55.854 27.0511C56.034 27.0511 56.1883 27.0876 56.3171 27.1605C56.4459 27.2325 56.5449 27.3277 56.614 27.446C56.6831 27.5644 56.7177 27.6922 56.7177 27.8295C56.7177 27.9934 56.6746 28.133 56.5884 28.2486C56.5032 28.3641 56.3872 28.4441 56.2404 28.4886V28.5114C56.4241 28.5417 56.5676 28.6198 56.6708 28.7457C56.774 28.8707 56.8256 29.0256 56.8256 29.2102C56.8256 29.3684 56.7826 29.5104 56.6964 29.6364C56.6112 29.7614 56.4947 29.8598 56.3469 29.9318C56.1992 30.0038 56.0311 30.0398 55.8427 30.0398Z" fill="black"/>
<path d="M77 51L77 58" stroke="black" stroke-width="0.5"/>
<path d="M77 24V17" stroke="black" stroke-width="0.5"/>
<path fill-rule="evenodd" clip-rule="evenodd" d="M77 41.5C79.4853 41.5 81.5 43.5147 81.5 46C81.5 48.4014 79.619 50.3635 77.25 50.4932L77.25 50L77.25 49.75L77.25 44.1036L78.3232 45.1768L78.6768 44.8232L77.1768 43.3232L77 43.1464L76.8232 43.3232L75.3232 44.8232L75.6768 45.1768L76.75 44.1036L76.75 49.75L76.75 50L76.75 50.4932C74.381 50.3635 72.5 48.4014 72.5 46C72.5 43.5147 74.5147 41.5 77 41.5ZM82 46C82 48.6776 79.8953 50.8636 77.25 50.9939L77.25 58L77.25 58.25L76.75 58.25L76.75 58L76.75 50.9939C74.1047 50.8636 72 48.6776 72 46C72 43.3224 74.1047 41.1364 76.75 41.0061L76.75 41L76.75 34L76.75 33.75L77.25 33.75L77.25 34L77.25 41L77.25 41.0061C79.8953 41.1364 82 43.3224 82 46Z" fill="black"/>
<path fill-rule="evenodd" clip-rule="evenodd" d="M75.5 24.5L75.5 33.5L78.5 33.5L78.5 24.5L75.5 24.5ZM75 33.5L75 34L75.5 34L76.75 34L76.75 41L76.75 41.25L77.25 41.25L77.25 41L77.25 34L78.5 34L79 34L79 33.5L79 24.5L79 24L78.5 24L77.25 24L77.25 17L77.25 16.75L76.75 16.75L76.75 17L76.75 24L75.5 24L75 24L75 24.5L75 33.5Z" fill="black"/>
<path d="M62.4261 62.7727C62.4261 62.4148 62.4725 62.0857 62.5653 61.7855C62.6591 61.4844 62.7926 61.2074 62.9659 60.9545H63.2614C63.1932 61.0483 63.1293 61.1638 63.0696 61.3011C63.0109 61.4375 62.9593 61.5876 62.9148 61.7514C62.8703 61.9143 62.8352 62.0829 62.8097 62.2571C62.785 62.4313 62.7727 62.6032 62.7727 62.7727C62.7727 62.9981 62.7945 63.2268 62.8381 63.4588C62.8816 63.6908 62.9403 63.9062 63.0142 64.1051C63.0881 64.304 63.1705 64.4659 63.2614 64.5909H62.9659C62.7926 64.3381 62.6591 64.0616 62.5653 63.7614C62.4725 63.4602 62.4261 63.1307 62.4261 62.7727ZM63.756 64.8182V61.8182H64.0799V62.1648H64.1197C64.1443 62.1269 64.1784 62.0786 64.2219 62.0199C64.2665 61.9602 64.3299 61.9072 64.4123 61.8608C64.4956 61.8134 64.6083 61.7898 64.7504 61.7898C64.9341 61.7898 65.096 61.8357 65.2362 61.9276C65.3763 62.0194 65.4857 62.1496 65.5643 62.3182C65.6429 62.4867 65.6822 62.6856 65.6822 62.9148C65.6822 63.1458 65.6429 63.3461 65.5643 63.5156C65.4857 63.6842 65.3768 63.8149 65.2376 63.9077C65.0984 63.9995 64.9379 64.0455 64.756 64.0455C64.6159 64.0455 64.5037 64.0223 64.4194 63.9759C64.3351 63.9285 64.2702 63.875 64.2248 63.8153C64.1793 63.7547 64.1443 63.7045 64.1197 63.6648H64.0913V64.8182H63.756ZM64.0856 62.9091C64.0856 63.0739 64.1097 63.2192 64.158 63.3452C64.2063 63.4702 64.2769 63.5682 64.3697 63.6392C64.4625 63.7093 64.5761 63.7443 64.7106 63.7443C64.8507 63.7443 64.9677 63.7074 65.0614 63.6335C65.1561 63.5587 65.2272 63.4583 65.2745 63.3324C65.3228 63.2055 65.3469 63.0644 65.3469 62.9091C65.3469 62.7557 65.3233 62.6174 65.2759 62.4943C65.2295 62.3703 65.159 62.2723 65.0643 62.2003C64.9705 62.1274 64.8526 62.0909 64.7106 62.0909C64.5742 62.0909 64.4596 62.1255 64.3668 62.1946C64.274 62.2628 64.204 62.3584 64.1566 62.4815C64.1093 62.6037 64.0856 62.7462 64.0856 62.9091ZM66.5288 63.5057L67.5799 61.8182H67.9663V64H67.631V62.3125L66.5856 64H66.1935V61.8182H66.5288V63.5057ZM69.4666 64.0455C69.2621 64.0455 69.0859 63.9972 68.9382 63.9006C68.7905 63.804 68.6768 63.6709 68.5973 63.5014C68.5178 63.3319 68.478 63.1383 68.478 62.9205C68.478 62.6989 68.5187 62.5033 68.6001 62.3338C68.6825 62.1634 68.7971 62.0303 68.9439 61.9347C69.0916 61.8381 69.264 61.7898 69.4609 61.7898C69.6143 61.7898 69.7526 61.8182 69.8757 61.875C69.9988 61.9318 70.0997 62.0114 70.1783 62.1136C70.2569 62.2159 70.3056 62.3352 70.3246 62.4716H69.9893C69.9638 62.3722 69.907 62.2841 69.8189 62.2074C69.7318 62.1297 69.6143 62.0909 69.4666 62.0909C69.3359 62.0909 69.2214 62.125 69.1229 62.1932C69.0253 62.2604 68.9491 62.3556 68.8942 62.4787C68.8402 62.6009 68.8132 62.7443 68.8132 62.9091C68.8132 63.0777 68.8397 63.2244 68.8928 63.3494C68.9467 63.4744 69.0225 63.5715 69.12 63.6406C69.2185 63.7098 69.334 63.7443 69.4666 63.7443C69.5537 63.7443 69.6328 63.7292 69.7038 63.6989C69.7749 63.6686 69.835 63.625 69.8842 63.5682C69.9335 63.5114 69.9685 63.4432 69.9893 63.3636H70.3246C70.3056 63.4924 70.2588 63.6084 70.1839 63.7116C70.1101 63.8139 70.0121 63.8954 69.8899 63.956C69.7687 64.0156 69.6276 64.0455 69.4666 64.0455ZM71.0589 64.0227C70.9889 64.0227 70.9287 63.9976 70.8786 63.9474C70.8284 63.8973 70.8033 63.8371 70.8033 63.767C70.8033 63.697 70.8284 63.6368 70.8786 63.5866C70.9287 63.5365 70.9889 63.5114 71.0589 63.5114C71.129 63.5114 71.1892 63.5365 71.2393 63.5866C71.2895 63.6368 71.3146 63.697 71.3146 63.767C71.3146 63.8134 71.3028 63.8561 71.2791 63.8949C71.2564 63.9337 71.2256 63.965 71.1868 63.9886C71.1489 64.0114 71.1063 64.0227 71.0589 64.0227ZM72.9673 63.4034V63.1136L74.2457 61.0909H74.456V61.5398H74.3139L73.348 63.0682V63.0909H75.0696V63.4034H72.9673ZM74.3366 64V63.3153V63.1804V61.0909H74.6719V64H74.3366ZM76.3235 62.5455C76.3235 62.9034 76.2766 63.233 76.1829 63.5341C76.0901 63.8343 75.957 64.1108 75.7837 64.3636H75.4883C75.5565 64.2699 75.6199 64.1544 75.6786 64.017C75.7383 63.8807 75.7904 63.7311 75.8349 63.5682C75.8794 63.4044 75.9139 63.2353 75.9386 63.0611C75.9641 62.8859 75.9769 62.714 75.9769 62.5455C75.9769 62.3201 75.9551 62.0914 75.9116 61.8594C75.868 61.6274 75.8093 61.4119 75.7354 61.2131C75.6616 61.0142 75.5792 60.8523 75.4883 60.7273H75.7837C75.957 60.9801 76.0901 61.2571 76.1829 61.5582C76.2766 61.8584 76.3235 62.1875 76.3235 62.5455Z" fill="black"/>
</svg>
