<svg width="113" height="72" viewBox="0 0 113 72" fill="none" xmlns="http://www.w3.org/2000/svg">
<rect width="113" height="72" rx="6" fill="white"/>
<path fill-rule="evenodd" clip-rule="evenodd" d="M36.5 17C36.5 19.4853 34.4853 21.5 32 21.5C29.5986 21.5 27.6365 19.619 27.5068 17.25H28H28.25H33.8964L32.8232 18.3232L33.1768 18.6768L34.6768 17.1768L34.8536 17L34.6768 16.8232L33.1768 15.3232L32.8232 15.6768L33.8964 16.75H28.25H28H27.5068C27.6365 14.381 29.5986 12.5 32 12.5C34.4853 12.5 36.5 14.5147 36.5 17ZM32 22C29.3224 22 27.1364 19.8953 27.0061 17.25H20H19.75V16.75H20H27.0061C27.1364 14.1047 29.3224 12 32 12C34.6776 12 36.8636 14.1047 36.9939 16.75H37H44H44.25V17.25H44H37H36.9939C36.8636 19.8953 34.6776 22 32 22Z" fill="black"/>
<path fill-rule="evenodd" clip-rule="evenodd" d="M13.5 24.5L13.5 33.5L16.5 33.5L16.5 24.5L13.5 24.5ZM13 33.5L13 34L13.5 34L14.75 34L14.75 41L14.75 41.25L15.25 41.25L15.25 41L15.25 34L16.5 34L17 34L17 33.5L17 24.5L17 24L16.5 24L15.25 24L15.25 17L15.25 16.75L14.75 16.75L14.75 17L14.75 24L13.5 24L13 24L13 24.5L13 33.5Z" fill="black"/>
<path fill-rule="evenodd" clip-rule="evenodd" d="M46.5 24.5L46.5 33.5L49.5 33.5L49.5 24.5L46.5 24.5ZM46 33.5L46 34L46.5 34L47.75 34L47.75 41L47.75 41.25L48.25 41.25L48.25 41L48.25 34L49.5 34L50 34L50 33.5L50 24.5L50 24L49.5 24L48.25 24L48.25 17L48.25 16.75L47.75 16.75L47.75 17L47.75 24L46.5 24L46 24L46 24.5L46 33.5Z" fill="black"/>
<path fill-rule="evenodd" clip-rule="evenodd" d="M15 50.5C12.5147 50.5 10.5 48.4853 10.5 46C10.5 43.5986 12.381 41.6365 14.75 41.5068L14.75 42L14.75 42.25L14.75 47.8964L13.6768 46.8232L13.3232 47.1768L14.8232 48.6768L15 48.8536L15.1768 48.6768L16.6768 47.1768L16.3232 46.8232L15.25 47.8964L15.25 42.25L15.25 42L15.25 41.5068C17.619 41.6365 19.5 43.5986 19.5 46C19.5 48.4853 17.4853 50.5 15 50.5ZM10 46C10 43.3224 12.1047 41.1364 14.75 41.0061L14.75 34L14.75 33.75L15.25 33.75L15.25 34L15.25 41.0061C17.8953 41.1364 20 43.3224 20 46C20 48.6776 17.8953 50.8636 15.25 50.9939L15.25 51L15.25 58L15.25 58.25L14.75 58.25L14.75 58L14.75 51L14.75 50.9939C12.1047 50.8636 10 48.6776 10 46Z" fill="black"/>
<path fill-rule="evenodd" clip-rule="evenodd" d="M48 50.5C45.5147 50.5 43.5 48.4853 43.5 46C43.5 43.5986 45.381 41.6365 47.75 41.5068L47.75 42L47.75 42.25L47.75 47.8964L46.6768 46.8232L46.3232 47.1768L47.8232 48.6768L48 48.8536L48.1768 48.6768L49.6768 47.1768L49.3232 46.8232L48.25 47.8964L48.25 42.25L48.25 42L48.25 41.5068C50.619 41.6365 52.5 43.5986 52.5 46C52.5 48.4853 50.4853 50.5 48 50.5ZM43 46C43 43.3224 45.1047 41.1364 47.75 41.0061L47.75 34L47.75 33.75L48.25 33.75L48.25 34L48.25 41.0061C50.8953 41.1364 53 43.3224 53 46C53 48.6776 50.8953 50.8636 48.25 50.9939L48.25 51L48.25 58L48.25 58.25L47.75 58.25L47.75 58L47.75 51L47.75 50.9939C45.1047 50.8636 43 48.6776 43 46Z" fill="black"/>
<path d="M15 58H68.2564H77V45" stroke="black" stroke-width="0.5"/>
<path d="M44 17H77" stroke="black" stroke-width="0.5"/>
<path d="M15 17H20.5" stroke="black" stroke-width="0.5"/>
<circle cx="48" cy="58" r="1" fill="black"/>
<circle cx="48" cy="17" r="1" fill="black"/>
<path d="M22.3523 47V44.0909H24.108V44.4034H22.7045V45.3864H24.017V45.6989H22.7045V46.6875H24.1307V47H22.3523ZM25.7145 44.0909V47H25.3622V44.4602H25.3452L24.6349 44.9318V44.5739L25.3622 44.0909H25.7145Z" fill="black"/>
<path d="M29.3523 10V7.09091H31.108V7.40341H29.7045V8.38636H31.017V8.69886H29.7045V9.6875H31.1307V10H29.3523ZM31.6918 10V9.74432L32.652 8.69318C32.7647 8.57008 32.8575 8.46307 32.9304 8.37216C33.0033 8.2803 33.0573 8.19413 33.0923 8.11364C33.1283 8.0322 33.1463 7.94697 33.1463 7.85795C33.1463 7.75568 33.1217 7.66714 33.0724 7.59233C33.0241 7.51752 32.9579 7.45975 32.8736 7.41903C32.7893 7.37831 32.6946 7.35795 32.5895 7.35795C32.4777 7.35795 32.3802 7.38116 32.2969 7.42756C32.2145 7.47301 32.1506 7.53693 32.1051 7.61932C32.0606 7.7017 32.0384 7.7983 32.0384 7.90909H31.7031C31.7031 7.73864 31.7424 7.58902 31.821 7.46023C31.8996 7.33144 32.0066 7.23106 32.142 7.15909C32.2784 7.08712 32.4313 7.05114 32.6009 7.05114C32.7713 7.05114 32.9223 7.08712 33.054 7.15909C33.1856 7.23106 33.2888 7.32812 33.3636 7.45028C33.4384 7.57244 33.4759 7.70833 33.4759 7.85795C33.4759 7.96496 33.4564 8.0696 33.4176 8.17188C33.3797 8.2732 33.3134 8.38636 33.2188 8.51136C33.125 8.63542 32.9948 8.78693 32.8281 8.96591L32.1747 9.66477V9.6875H33.527V10H31.6918Z" fill="black"/>
<path d="M55.3523 48V45.0909H57.108V45.4034H55.7045V46.3864H57.017V46.6989H55.7045V47.6875H57.1307V48H55.3523ZM58.6747 48.0398C58.4872 48.0398 58.3201 48.0076 58.1733 47.9432C58.0275 47.8788 57.9115 47.7893 57.8253 47.6747C57.7401 47.5592 57.6937 47.4252 57.6861 47.2727H58.044C58.0516 47.3665 58.0838 47.4474 58.1406 47.5156C58.1974 47.5829 58.2718 47.6349 58.3636 47.6719C58.4555 47.7088 58.5573 47.7273 58.669 47.7273C58.794 47.7273 58.9048 47.7055 59.0014 47.6619C59.098 47.6184 59.1738 47.5578 59.2287 47.4801C59.2836 47.4025 59.3111 47.3125 59.3111 47.2102C59.3111 47.1032 59.2846 47.009 59.2315 46.9276C59.1785 46.8452 59.1009 46.7808 58.9986 46.7344C58.8963 46.688 58.7713 46.6648 58.6236 46.6648H58.3906V46.3523H58.6236C58.7391 46.3523 58.8404 46.3314 58.9276 46.2898C59.0156 46.2481 59.0843 46.1894 59.1335 46.1136C59.1837 46.0379 59.2088 45.9489 59.2088 45.8466C59.2088 45.7481 59.187 45.6624 59.1435 45.5895C59.0999 45.5166 59.0384 45.4598 58.9588 45.419C58.8802 45.3783 58.7874 45.358 58.6804 45.358C58.58 45.358 58.4853 45.3764 58.3963 45.4134C58.3082 45.4493 58.2363 45.5019 58.1804 45.571C58.1245 45.6392 58.0942 45.7216 58.0895 45.8182H57.7486C57.7543 45.6657 57.8002 45.5322 57.8864 45.4176C57.9725 45.3021 58.0852 45.2121 58.2244 45.1477C58.3646 45.0833 58.5185 45.0511 58.6861 45.0511C58.866 45.0511 59.0204 45.0876 59.1491 45.1605C59.2779 45.2325 59.3769 45.3277 59.446 45.446C59.5152 45.5644 59.5497 45.6922 59.5497 45.8295C59.5497 45.9934 59.5066 46.133 59.4205 46.2486C59.3352 46.3641 59.2192 46.4441 59.0724 46.4886V46.5114C59.2562 46.5417 59.3996 46.6198 59.5028 46.7457C59.6061 46.8707 59.6577 47.0256 59.6577 47.2102C59.6577 47.3684 59.6146 47.5104 59.5284 47.6364C59.4432 47.7614 59.3267 47.8598 59.179 47.9318C59.0313 48.0038 58.8632 48.0398 58.6747 48.0398Z" fill="black"/>
<path d="M19.3523 30V27.0909H20.3352C20.5625 27.0909 20.7491 27.1297 20.8949 27.2074C21.0407 27.2841 21.1487 27.3897 21.2188 27.5241C21.2888 27.6586 21.3239 27.8116 21.3239 27.983C21.3239 28.1544 21.2888 28.3063 21.2188 28.4389C21.1487 28.5715 21.0412 28.6757 20.8963 28.7514C20.7514 28.8262 20.5663 28.8636 20.3409 28.8636H19.5455V28.5455H20.3295C20.4848 28.5455 20.6098 28.5227 20.7045 28.4773C20.8002 28.4318 20.8693 28.3674 20.9119 28.2841C20.9555 28.1998 20.9773 28.0994 20.9773 27.983C20.9773 27.8665 20.9555 27.7647 20.9119 27.6776C20.8684 27.5904 20.7988 27.5232 20.7031 27.4759C20.6075 27.4276 20.4811 27.4034 20.3239 27.4034H19.7045V30H19.3523ZM20.7216 28.6932L21.4375 30H21.0284L20.3239 28.6932H20.7216ZM22.8825 27.0909V30H22.5302V27.4602H22.5131L21.8029 27.9318V27.5739L22.5302 27.0909H22.8825Z" fill="black"/>
<path d="M84.3523 48V45.0909H86.108V45.4034H84.7045V46.3864H86.017V46.6989H84.7045V47.6875H86.1307V48H84.3523ZM86.6236 47.4034V47.1136L87.902 45.0909H88.1122V45.5398H87.9702L87.0043 47.0682V47.0909H88.7259V47.4034H86.6236ZM87.9929 48V47.3153V47.1804V45.0909H88.3281V48H87.9929ZM90.1673 48.0398C90.0006 48.0398 89.8505 48.0066 89.717 47.9403C89.5835 47.8741 89.4764 47.7831 89.396 47.6676C89.3155 47.5521 89.2714 47.4205 89.2638 47.2727H89.6048C89.618 47.4044 89.6777 47.5133 89.7837 47.5994C89.8907 47.6847 90.0186 47.7273 90.1673 47.7273C90.2866 47.7273 90.3926 47.6993 90.4854 47.6435C90.5792 47.5876 90.6526 47.5109 90.7056 47.4134C90.7596 47.3149 90.7866 47.2036 90.7866 47.0795C90.7866 46.9527 90.7586 46.8395 90.7028 46.7401C90.6478 46.6397 90.5721 46.5606 90.4755 46.5028C90.3789 46.4451 90.2686 46.4157 90.1445 46.4148C90.0555 46.4138 89.9641 46.4276 89.8704 46.456C89.7766 46.4834 89.6995 46.5189 89.6388 46.5625L89.3093 46.5227L89.4854 45.0909H90.9968V45.4034H89.7809L89.6786 46.2614H89.6957C89.7553 46.214 89.8301 46.1747 89.9201 46.1435C90.0101 46.1122 90.1038 46.0966 90.2013 46.0966C90.3794 46.0966 90.538 46.1392 90.6772 46.2244C90.8174 46.3087 90.9272 46.4242 91.0067 46.571C91.0872 46.7178 91.1275 46.8854 91.1275 47.0739C91.1275 47.2595 91.0858 47.4252 91.0025 47.571C90.9201 47.7159 90.8065 47.8305 90.6616 47.9148C90.5167 47.9981 90.3519 48.0398 90.1673 48.0398Z" fill="black"/>
<path d="M81.3523 30V27.0909H82.3352C82.5625 27.0909 82.7491 27.1297 82.8949 27.2074C83.0407 27.2841 83.1487 27.3897 83.2188 27.5241C83.2888 27.6586 83.3239 27.8116 83.3239 27.983C83.3239 28.1544 83.2888 28.3063 83.2188 28.4389C83.1487 28.5715 83.0412 28.6757 82.8963 28.7514C82.7514 28.8262 82.5663 28.8636 82.3409 28.8636H81.5455V28.5455H82.3295C82.4848 28.5455 82.6098 28.5227 82.7045 28.4773C82.8002 28.4318 82.8693 28.3674 82.9119 28.2841C82.9555 28.1998 82.9773 28.0994 82.9773 27.983C82.9773 27.8665 82.9555 27.7647 82.9119 27.6776C82.8684 27.5904 82.7988 27.5232 82.7031 27.4759C82.6075 27.4276 82.4811 27.4034 82.3239 27.4034H81.7045V30H81.3523ZM82.7216 28.6932L83.4375 30H83.0284L82.3239 28.6932H82.7216ZM83.7915 29.4034V29.1136L85.07 27.0909H85.2802V27.5398H85.1381L84.1722 29.0682V29.0909H85.8938V29.4034H83.7915ZM85.1609 30V29.3153V29.1804V27.0909H85.4961V30H85.1609ZM87.3352 30.0398C87.1686 30.0398 87.0185 30.0066 86.8849 29.9403C86.7514 29.8741 86.6444 29.7831 86.5639 29.6676C86.4834 29.5521 86.4394 29.4205 86.4318 29.2727H86.7727C86.786 29.4044 86.8456 29.5133 86.9517 29.5994C87.0587 29.6847 87.1866 29.7273 87.3352 29.7273C87.4545 29.7273 87.5606 29.6993 87.6534 29.6435C87.7472 29.5876 87.8205 29.5109 87.8736 29.4134C87.9276 29.3149 87.9545 29.2036 87.9545 29.0795C87.9545 28.9527 87.9266 28.8395 87.8707 28.7401C87.8158 28.6397 87.7401 28.5606 87.6435 28.5028C87.5469 28.4451 87.4366 28.4157 87.3125 28.4148C87.2235 28.4138 87.1321 28.4276 87.0384 28.456C86.9446 28.4834 86.8674 28.5189 86.8068 28.5625L86.4773 28.5227L86.6534 27.0909H88.1648V27.4034H86.9489L86.8466 28.2614H86.8636C86.9233 28.214 86.9981 28.1747 87.0881 28.1435C87.178 28.1122 87.2718 28.0966 87.3693 28.0966C87.5473 28.0966 87.706 28.1392 87.8452 28.2244C87.9853 28.3087 88.0952 28.4242 88.1747 28.571C88.2552 28.7178 88.2955 28.8854 88.2955 29.0739C88.2955 29.2595 88.2538 29.4252 88.1705 29.571C88.0881 29.7159 87.9744 29.8305 87.8295 29.9148C87.6847 29.9981 87.5199 30.0398 87.3352 30.0398ZM89.8256 30.0398C89.7063 30.0379 89.587 30.0152 89.4677 29.9716C89.3484 29.928 89.2395 29.8546 89.141 29.7514C89.0425 29.6473 88.9634 29.5066 88.9038 29.3295C88.8441 29.1515 88.8143 28.928 88.8143 28.6591C88.8143 28.4015 88.8384 28.1733 88.8867 27.9744C88.935 27.7746 89.0051 27.6065 89.0969 27.4702C89.1888 27.3329 89.2996 27.2287 89.4293 27.1577C89.56 27.0866 89.7073 27.0511 89.8711 27.0511C90.034 27.0511 90.1789 27.0838 90.3058 27.1491C90.4336 27.2135 90.5378 27.3035 90.6183 27.419C90.6987 27.5346 90.7508 27.6676 90.7745 27.8182H90.4279C90.3957 27.6875 90.3332 27.5791 90.2404 27.4929C90.1476 27.4067 90.0245 27.3636 89.8711 27.3636C89.6457 27.3636 89.4682 27.4616 89.3384 27.6577C89.2096 27.8537 89.1448 28.1288 89.1438 28.483H89.1665C89.2196 28.4025 89.2826 28.3338 89.3555 28.277C89.4293 28.2192 89.5108 28.1747 89.5998 28.1435C89.6888 28.1122 89.783 28.0966 89.8825 28.0966C90.0491 28.0966 90.2016 28.1383 90.3398 28.2216C90.4781 28.304 90.5889 28.4181 90.6722 28.5639C90.7556 28.7088 90.7972 28.875 90.7972 29.0625C90.7972 29.2424 90.757 29.4072 90.6765 29.5568C90.596 29.7055 90.4828 29.8239 90.337 29.9119C90.1921 29.9991 90.0217 30.0417 89.8256 30.0398ZM89.8256 29.7273C89.945 29.7273 90.052 29.6974 90.1467 29.6378C90.2423 29.5781 90.3176 29.4981 90.3725 29.3977C90.4284 29.2973 90.4563 29.1856 90.4563 29.0625C90.4563 28.9422 90.4293 28.8329 90.3754 28.7344C90.3223 28.6349 90.2489 28.5559 90.1552 28.4972C90.0624 28.4384 89.9563 28.4091 89.837 28.4091C89.747 28.4091 89.6632 28.4271 89.5856 28.4631C89.5079 28.4981 89.4397 28.5464 89.381 28.608C89.3233 28.6695 89.2778 28.7401 89.2447 28.8196C89.2115 28.8982 89.195 28.9811 89.195 29.0682C89.195 29.1837 89.2219 29.2917 89.2759 29.392C89.3308 29.4924 89.4057 29.5734 89.5004 29.6349C89.596 29.6965 89.7044 29.7273 89.8256 29.7273Z" fill="black"/>
<path d="M52.3523 30V27.0909H53.3352C53.5625 27.0909 53.7491 27.1297 53.8949 27.2074C54.0407 27.2841 54.1487 27.3897 54.2188 27.5241C54.2888 27.6586 54.3239 27.8116 54.3239 27.983C54.3239 28.1544 54.2888 28.3063 54.2188 28.4389C54.1487 28.5715 54.0412 28.6757 53.8963 28.7514C53.7514 28.8262 53.5663 28.8636 53.3409 28.8636H52.5455V28.5455H53.3295C53.4848 28.5455 53.6098 28.5227 53.7045 28.4773C53.8002 28.4318 53.8693 28.3674 53.9119 28.2841C53.9555 28.1998 53.9773 28.0994 53.9773 27.983C53.9773 27.8665 53.9555 27.7647 53.9119 27.6776C53.8684 27.5904 53.7988 27.5232 53.7031 27.4759C53.6075 27.4276 53.4811 27.4034 53.3239 27.4034H52.7045V30H52.3523ZM53.7216 28.6932L54.4375 30H54.0284L53.3239 28.6932H53.7216ZM55.8427 30.0398C55.6552 30.0398 55.488 30.0076 55.3413 29.9432C55.1954 29.8788 55.0794 29.7893 54.9933 29.6747C54.908 29.5592 54.8616 29.4252 54.854 29.2727H55.212C55.2196 29.3665 55.2518 29.4474 55.3086 29.5156C55.3654 29.5829 55.4397 29.6349 55.5316 29.6719C55.6235 29.7088 55.7253 29.7273 55.837 29.7273C55.962 29.7273 56.0728 29.7055 56.1694 29.6619C56.266 29.6184 56.3417 29.5578 56.3967 29.4801C56.4516 29.4025 56.479 29.3125 56.479 29.2102C56.479 29.1032 56.4525 29.009 56.3995 28.9276C56.3465 28.8452 56.2688 28.7808 56.1665 28.7344C56.0643 28.688 55.9393 28.6648 55.7915 28.6648H55.5586V28.3523H55.7915C55.9071 28.3523 56.0084 28.3314 56.0955 28.2898C56.1836 28.2481 56.2522 28.1894 56.3015 28.1136C56.3517 28.0379 56.3768 27.9489 56.3768 27.8466C56.3768 27.7481 56.355 27.6624 56.3114 27.5895C56.2679 27.5166 56.2063 27.4598 56.1268 27.419C56.0482 27.3783 55.9554 27.358 55.8484 27.358C55.748 27.358 55.6533 27.3764 55.5643 27.4134C55.4762 27.4493 55.4042 27.5019 55.3484 27.571C55.2925 27.6392 55.2622 27.7216 55.2575 27.8182H54.9165C54.9222 27.6657 54.9682 27.5322 55.0543 27.4176C55.1405 27.3021 55.2532 27.2121 55.3924 27.1477C55.5326 27.0833 55.6864 27.0511 55.854 27.0511C56.034 27.0511 56.1883 27.0876 56.3171 27.1605C56.4459 27.2325 56.5449 27.3277 56.614 27.446C56.6831 27.5644 56.7177 27.6922 56.7177 27.8295C56.7177 27.9934 56.6746 28.133 56.5884 28.2486C56.5032 28.3641 56.3872 28.4441 56.2404 28.4886V28.5114C56.4241 28.5417 56.5676 28.6198 56.6708 28.7457C56.774 28.8707 56.8256 29.0256 56.8256 29.2102C56.8256 29.3684 56.7826 29.5104 56.6964 29.6364C56.6112 29.7614 56.4947 29.8598 56.3469 29.9318C56.1992 30.0038 56.0311 30.0398 55.8427 30.0398Z" fill="black"/>
<path d="M77 51L77 58" stroke="black" stroke-width="0.5"/>
<path d="M77 24V17" stroke="black" stroke-width="0.5"/>
<path fill-rule="evenodd" clip-rule="evenodd" d="M77 41.5C79.4853 41.5 81.5 43.5147 81.5 46C81.5 48.4014 79.619 50.3635 77.25 50.4932L77.25 50L77.25 49.75L77.25 44.1036L78.3232 45.1768L78.6768 44.8232L77.1768 43.3232L77 43.1464L76.8232 43.3232L75.3232 44.8232L75.6768 45.1768L76.75 44.1036L76.75 49.75L76.75 50L76.75 50.4932C74.381 50.3635 72.5 48.4014 72.5 46C72.5 43.5147 74.5147 41.5 77 41.5ZM82 46C82 48.6776 79.8953 50.8636 77.25 50.9939L77.25 58L77.25 58.25L76.75 58.25L76.75 58L76.75 50.9939C74.1047 50.8636 72 48.6776 72 46C72 43.3224 74.1047 41.1364 76.75 41.0061L76.75 41L76.75 34L76.75 33.75L77.25 33.75L77.25 34L77.25 41L77.25 41.0061C79.8953 41.1364 82 43.3224 82 46Z" fill="black"/>
<path fill-rule="evenodd" clip-rule="evenodd" d="M75.5 24.5L75.5 33.5L78.5 33.5L78.5 24.5L75.5 24.5ZM75 33.5L75 34L75.5 34L76.75 34L76.75 41L76.75 41.25L77.25 41.25L77.25 41L77.25 34L78.5 34L79 34L79 33.5L79 24.5L79 24L78.5 24L77.25 24L77.25 17L77.25 16.75L76.75 16.75L76.75 17L76.75 24L75.5 24L75 24L75 24.5L75 33.5Z" fill="black"/>
<path d="M64.4261 64.7727C64.4261 64.4148 64.4725 64.0857 64.5653 63.7855C64.6591 63.4844 64.7926 63.2074 64.9659 62.9545H65.2614C65.1932 63.0483 65.1293 63.1638 65.0696 63.3011C65.0109 63.4375 64.9593 63.5876 64.9148 63.7514C64.8703 63.9143 64.8352 64.0829 64.8097 64.2571C64.785 64.4313 64.7727 64.6032 64.7727 64.7727C64.7727 64.9981 64.7945 65.2268 64.8381 65.4588C64.8816 65.6908 64.9403 65.9062 65.0142 66.1051C65.0881 66.304 65.1705 66.4659 65.2614 66.5909H64.9659C64.7926 66.3381 64.6591 66.0616 64.5653 65.7614C64.4725 65.4602 64.4261 65.1307 64.4261 64.7727ZM65.756 66.8182V63.8182H66.0799V64.1648H66.1197C66.1443 64.1269 66.1784 64.0786 66.2219 64.0199C66.2665 63.9602 66.3299 63.9072 66.4123 63.8608C66.4956 63.8134 66.6083 63.7898 66.7504 63.7898C66.9341 63.7898 67.096 63.8357 67.2362 63.9276C67.3763 64.0194 67.4857 64.1496 67.5643 64.3182C67.6429 64.4867 67.6822 64.6856 67.6822 64.9148C67.6822 65.1458 67.6429 65.3461 67.5643 65.5156C67.4857 65.6842 67.3768 65.8149 67.2376 65.9077C67.0984 65.9995 66.9379 66.0455 66.756 66.0455C66.6159 66.0455 66.5037 66.0223 66.4194 65.9759C66.3351 65.9285 66.2702 65.875 66.2248 65.8153C66.1793 65.7547 66.1443 65.7045 66.1197 65.6648H66.0913V66.8182H65.756ZM66.0856 64.9091C66.0856 65.0739 66.1097 65.2192 66.158 65.3452C66.2063 65.4702 66.2769 65.5682 66.3697 65.6392C66.4625 65.7093 66.5761 65.7443 66.7106 65.7443C66.8507 65.7443 66.9677 65.7074 67.0614 65.6335C67.1561 65.5587 67.2272 65.4583 67.2745 65.3324C67.3228 65.2055 67.3469 65.0644 67.3469 64.9091C67.3469 64.7557 67.3233 64.6174 67.2759 64.4943C67.2295 64.3703 67.159 64.2723 67.0643 64.2003C66.9705 64.1274 66.8526 64.0909 66.7106 64.0909C66.5742 64.0909 66.4596 64.1255 66.3668 64.1946C66.274 64.2628 66.204 64.3584 66.1566 64.4815C66.1093 64.6037 66.0856 64.7462 66.0856 64.9091ZM68.5288 65.5057L69.5799 63.8182H69.9663V66H69.631V64.3125L68.5856 66H68.1935V63.8182H68.5288V65.5057ZM71.4666 66.0455C71.2621 66.0455 71.0859 65.9972 70.9382 65.9006C70.7905 65.804 70.6768 65.6709 70.5973 65.5014C70.5178 65.3319 70.478 65.1383 70.478 64.9205C70.478 64.6989 70.5187 64.5033 70.6001 64.3338C70.6825 64.1634 70.7971 64.0303 70.9439 63.9347C71.0916 63.8381 71.264 63.7898 71.4609 63.7898C71.6143 63.7898 71.7526 63.8182 71.8757 63.875C71.9988 63.9318 72.0997 64.0114 72.1783 64.1136C72.2569 64.2159 72.3056 64.3352 72.3246 64.4716H71.9893C71.9638 64.3722 71.907 64.2841 71.8189 64.2074C71.7318 64.1297 71.6143 64.0909 71.4666 64.0909C71.3359 64.0909 71.2214 64.125 71.1229 64.1932C71.0253 64.2604 70.9491 64.3556 70.8942 64.4787C70.8402 64.6009 70.8132 64.7443 70.8132 64.9091C70.8132 65.0777 70.8397 65.2244 70.8928 65.3494C70.9467 65.4744 71.0225 65.5715 71.12 65.6406C71.2185 65.7098 71.334 65.7443 71.4666 65.7443C71.5537 65.7443 71.6328 65.7292 71.7038 65.6989C71.7749 65.6686 71.835 65.625 71.8842 65.5682C71.9335 65.5114 71.9685 65.4432 71.9893 65.3636H72.3246C72.3056 65.4924 72.2588 65.6084 72.1839 65.7116C72.1101 65.8139 72.0121 65.8954 71.8899 65.956C71.7687 66.0156 71.6276 66.0455 71.4666 66.0455ZM73.0589 66.0227C72.9889 66.0227 72.9287 65.9976 72.8786 65.9474C72.8284 65.8973 72.8033 65.8371 72.8033 65.767C72.8033 65.697 72.8284 65.6368 72.8786 65.5866C72.9287 65.5365 72.9889 65.5114 73.0589 65.5114C73.129 65.5114 73.1892 65.5365 73.2393 65.5866C73.2895 65.6368 73.3146 65.697 73.3146 65.767C73.3146 65.8134 73.3028 65.8561 73.2791 65.8949C73.2564 65.9337 73.2256 65.965 73.1868 65.9886C73.1489 66.0114 73.1063 66.0227 73.0589 66.0227ZM75.9446 66.0398C75.7779 66.0398 75.6278 66.0066 75.4943 65.9403C75.3608 65.8741 75.2538 65.7831 75.1733 65.6676C75.0928 65.5521 75.0488 65.4205 75.0412 65.2727H75.3821C75.3954 65.4044 75.455 65.5133 75.5611 65.5994C75.6681 65.6847 75.7959 65.7273 75.9446 65.7273C76.0639 65.7273 76.17 65.6993 76.2628 65.6435C76.3565 65.5876 76.4299 65.5109 76.483 65.4134C76.5369 65.3149 76.5639 65.2036 76.5639 65.0795C76.5639 64.9527 76.536 64.8395 76.4801 64.7401C76.4252 64.6397 76.3494 64.5606 76.2528 64.5028C76.1563 64.4451 76.0459 64.4157 75.9219 64.4148C75.8329 64.4138 75.7415 64.4276 75.6477 64.456C75.554 64.4834 75.4768 64.5189 75.4162 64.5625L75.0866 64.5227L75.2628 63.0909H76.7741V63.4034H75.5582L75.456 64.2614H75.473C75.5327 64.214 75.6075 64.1747 75.6974 64.1435C75.7874 64.1122 75.8812 64.0966 75.9787 64.0966C76.1567 64.0966 76.3153 64.1392 76.4545 64.2244C76.5947 64.3087 76.7045 64.4242 76.7841 64.571C76.8646 64.7178 76.9048 64.8854 76.9048 65.0739C76.9048 65.2595 76.8632 65.4252 76.7798 65.571C76.6974 65.7159 76.5838 65.8305 76.4389 65.9148C76.294 65.9981 76.1293 66.0398 75.9446 66.0398ZM78.1907 64.5455C78.1907 64.9034 78.1438 65.233 78.0501 65.5341C77.9573 65.8343 77.8242 66.1108 77.6509 66.3636H77.3555C77.4237 66.2699 77.4871 66.1544 77.5458 66.017C77.6055 65.8807 77.6576 65.7311 77.7021 65.5682C77.7466 65.4044 77.7811 65.2353 77.8058 65.0611C77.8313 64.8859 77.8441 64.714 77.8441 64.5455C77.8441 64.3201 77.8223 64.0914 77.7788 63.8594C77.7352 63.6274 77.6765 63.4119 77.6026 63.2131C77.5288 63.0142 77.4464 62.8523 77.3555 62.7273H77.6509C77.8242 62.9801 77.9573 63.2571 78.0501 63.5582C78.1438 63.8584 78.1907 64.1875 78.1907 64.5455Z" fill="black"/>
</svg>
