<svg width="113" height="72" viewBox="0 0 113 72" fill="none" xmlns="http://www.w3.org/2000/svg">
<rect width="113" height="72" rx="6" fill="white"/>
<path fill-rule="evenodd" clip-rule="evenodd" d="M36.5 17C36.5 19.4853 34.4853 21.5 32 21.5C29.5986 21.5 27.6365 19.619 27.5068 17.25H28H28.25H33.8964L32.8232 18.3232L33.1768 18.6768L34.6768 17.1768L34.8536 17L34.6768 16.8232L33.1768 15.3232L32.8232 15.6768L33.8964 16.75H28.25H28H27.5068C27.6365 14.381 29.5986 12.5 32 12.5C34.4853 12.5 36.5 14.5147 36.5 17ZM32 22C29.3224 22 27.1364 19.8953 27.0061 17.25H20H19.75V16.75H20H27.0061C27.1364 14.1047 29.3224 12 32 12C34.6776 12 36.8636 14.1047 36.9939 16.75H37H44H44.25V17.25H44H37H36.9939C36.8636 19.8953 34.6776 22 32 22Z" fill="black"/>
<path fill-rule="evenodd" clip-rule="evenodd" d="M13.5 24.5L13.5 33.5L16.5 33.5L16.5 24.5L13.5 24.5ZM13 33.5L13 34L13.5 34L14.75 34L14.75 41L14.75 41.25L15.25 41.25L15.25 41L15.25 34L16.5 34L17 34L17 33.5L17 24.5L17 24L16.5 24L15.25 24L15.25 17L15.25 16.75L14.75 16.75L14.75 17L14.75 24L13.5 24L13 24L13 24.5L13 33.5Z" fill="black"/>
<path fill-rule="evenodd" clip-rule="evenodd" d="M60.5 24.5L60.5 33.5L63.5 33.5L63.5 24.5L60.5 24.5ZM60 33.5L60 34L60.5 34L61.75 34L61.75 41L61.75 41.25L62.25 41.25L62.25 41L62.25 34L63.5 34L64 34L64 33.5L64 24.5L64 24L63.5 24L62.25 24L62.25 17L62.25 16.75L61.75 16.75L61.75 17L61.75 24L60.5 24L60 24L60 24.5L60 33.5Z" fill="black"/>
<path fill-rule="evenodd" clip-rule="evenodd" d="M15 50.5C12.5147 50.5 10.5 48.4853 10.5 46C10.5 43.5986 12.381 41.6365 14.75 41.5068L14.75 42L14.75 42.25L14.75 47.8964L13.6768 46.8232L13.3232 47.1768L14.8232 48.6768L15 48.8536L15.1768 48.6768L16.6768 47.1768L16.3232 46.8232L15.25 47.8964L15.25 42.25L15.25 42L15.25 41.5068C17.619 41.6365 19.5 43.5986 19.5 46C19.5 48.4853 17.4853 50.5 15 50.5ZM10 46C10 43.3224 12.1047 41.1364 14.75 41.0061L14.75 34L14.75 33.75L15.25 33.75L15.25 34L15.25 41.0061C17.8953 41.1364 20 43.3224 20 46C20 48.6776 17.8953 50.8636 15.25 50.9939L15.25 51L15.25 58L15.25 58.25L14.75 58.25L14.75 58L14.75 51L14.75 50.9939C12.1047 50.8636 10 48.6776 10 46Z" fill="black"/>
<path d="M15 58H68.2564H77" stroke="black" stroke-width="0.5"/>
<path d="M44 17H77" stroke="black" stroke-width="0.5"/>
<path d="M15 17H20.5" stroke="black" stroke-width="0.5"/>
<circle cx="48" cy="58" r="1" fill="black"/>
<circle cx="48" cy="17" r="1" fill="black"/>
<circle cx="62" cy="17" r="1" fill="black"/>
<circle cx="62" cy="58" r="1" fill="black"/>
<path d="M22.3523 47V44.0909H24.108V44.4034H22.7045V45.3864H24.017V45.6989H22.7045V46.6875H24.1307V47H22.3523ZM25.7145 44.0909V47H25.3622V44.4602H25.3452L24.6349 44.9318V44.5739L25.3622 44.0909H25.7145Z" fill="black"/>
<path d="M29.3523 10V7.09091H31.108V7.40341H29.7045V8.38636H31.017V8.69886H29.7045V9.6875H31.1307V10H29.3523ZM31.6918 10V9.74432L32.652 8.69318C32.7647 8.57008 32.8575 8.46307 32.9304 8.37216C33.0033 8.2803 33.0573 8.19413 33.0923 8.11364C33.1283 8.0322 33.1463 7.94697 33.1463 7.85795C33.1463 7.75568 33.1217 7.66714 33.0724 7.59233C33.0241 7.51752 32.9579 7.45975 32.8736 7.41903C32.7893 7.37831 32.6946 7.35795 32.5895 7.35795C32.4777 7.35795 32.3802 7.38116 32.2969 7.42756C32.2145 7.47301 32.1506 7.53693 32.1051 7.61932C32.0606 7.7017 32.0384 7.7983 32.0384 7.90909H31.7031C31.7031 7.73864 31.7424 7.58902 31.821 7.46023C31.8996 7.33144 32.0066 7.23106 32.142 7.15909C32.2784 7.08712 32.4313 7.05114 32.6009 7.05114C32.7713 7.05114 32.9223 7.08712 33.054 7.15909C33.1856 7.23106 33.2888 7.32812 33.3636 7.45028C33.4384 7.57244 33.4759 7.70833 33.4759 7.85795C33.4759 7.96496 33.4564 8.0696 33.4176 8.17188C33.3797 8.2732 33.3134 8.38636 33.2188 8.51136C33.125 8.63542 32.9948 8.78693 32.8281 8.96591L32.1747 9.66477V9.6875H33.527V10H31.6918Z" fill="black"/>
<path d="M36.7045 45.0909V48H36.3523V45.0909H36.7045ZM38.3427 48.0398C38.1552 48.0398 37.988 48.0076 37.8413 47.9432C37.6954 47.8788 37.5794 47.7893 37.4933 47.6747C37.408 47.5592 37.3616 47.4252 37.354 47.2727H37.712C37.7196 47.3665 37.7518 47.4474 37.8086 47.5156C37.8654 47.5829 37.9397 47.6349 38.0316 47.6719C38.1235 47.7088 38.2253 47.7273 38.337 47.7273C38.462 47.7273 38.5728 47.7055 38.6694 47.6619C38.766 47.6184 38.8417 47.5578 38.8967 47.4801C38.9516 47.4025 38.979 47.3125 38.979 47.2102C38.979 47.1032 38.9525 47.009 38.8995 46.9276C38.8465 46.8452 38.7688 46.7808 38.6665 46.7344C38.5643 46.688 38.4393 46.6648 38.2915 46.6648H38.0586V46.3523H38.2915C38.4071 46.3523 38.5084 46.3314 38.5955 46.2898C38.6836 46.2481 38.7522 46.1894 38.8015 46.1136C38.8517 46.0379 38.8768 45.9489 38.8768 45.8466C38.8768 45.7481 38.855 45.6624 38.8114 45.5895C38.7679 45.5166 38.7063 45.4598 38.6268 45.419C38.5482 45.3783 38.4554 45.358 38.3484 45.358C38.248 45.358 38.1533 45.3764 38.0643 45.4134C37.9762 45.4493 37.9042 45.5019 37.8484 45.571C37.7925 45.6392 37.7622 45.7216 37.7575 45.8182H37.4165C37.4222 45.6657 37.4682 45.5322 37.5543 45.4176C37.6405 45.3021 37.7532 45.2121 37.8924 45.1477C38.0326 45.0833 38.1864 45.0511 38.354 45.0511C38.534 45.0511 38.6883 45.0876 38.8171 45.1605C38.9459 45.2325 39.0449 45.3277 39.114 45.446C39.1831 45.5644 39.2177 45.6922 39.2177 45.8295C39.2177 45.9934 39.1746 46.133 39.0884 46.2486C39.0032 46.3641 38.8872 46.4441 38.7404 46.4886V46.5114C38.9241 46.5417 39.0676 46.6198 39.1708 46.7457C39.274 46.8707 39.3256 47.0256 39.3256 47.2102C39.3256 47.3684 39.2826 47.5104 39.1964 47.6364C39.1112 47.7614 38.9947 47.8598 38.8469 47.9318C38.6992 48.0038 38.5311 48.0398 38.3427 48.0398Z" fill="black"/>
<path d="M19.3523 30V27.0909H20.3352C20.5625 27.0909 20.7491 27.1297 20.8949 27.2074C21.0407 27.2841 21.1487 27.3897 21.2188 27.5241C21.2888 27.6586 21.3239 27.8116 21.3239 27.983C21.3239 28.1544 21.2888 28.3063 21.2188 28.4389C21.1487 28.5715 21.0412 28.6757 20.8963 28.7514C20.7514 28.8262 20.5663 28.8636 20.3409 28.8636H19.5455V28.5455H20.3295C20.4848 28.5455 20.6098 28.5227 20.7045 28.4773C20.8002 28.4318 20.8693 28.3674 20.9119 28.2841C20.9555 28.1998 20.9773 28.0994 20.9773 27.983C20.9773 27.8665 20.9555 27.7647 20.9119 27.6776C20.8684 27.5904 20.7988 27.5232 20.7031 27.4759C20.6075 27.4276 20.4811 27.4034 20.3239 27.4034H19.7045V30H19.3523ZM20.7216 28.6932L21.4375 30H21.0284L20.3239 28.6932H20.7216ZM22.8825 27.0909V30H22.5302V27.4602H22.5131L21.8029 27.9318V27.5739L22.5302 27.0909H22.8825Z" fill="black"/>
<path d="M82.7045 49.0909V52H82.3523V49.0909H82.7045ZM83.2915 51.4034V51.1136L84.57 49.0909H84.7802V49.5398H84.6381L83.6722 51.0682V51.0909H85.3938V51.4034H83.2915ZM84.6609 52V51.3153V51.1804V49.0909H84.9961V52H84.6609ZM86.8352 52.0398C86.6686 52.0398 86.5185 52.0066 86.3849 51.9403C86.2514 51.8741 86.1444 51.7831 86.0639 51.6676C85.9834 51.5521 85.9394 51.4205 85.9318 51.2727H86.2727C86.286 51.4044 86.3456 51.5133 86.4517 51.5994C86.5587 51.6847 86.6866 51.7273 86.8352 51.7273C86.9545 51.7273 87.0606 51.6993 87.1534 51.6435C87.2472 51.5876 87.3205 51.5109 87.3736 51.4134C87.4276 51.3149 87.4545 51.2036 87.4545 51.0795C87.4545 50.9527 87.4266 50.8395 87.3707 50.7401C87.3158 50.6397 87.2401 50.5606 87.1435 50.5028C87.0469 50.4451 86.9366 50.4157 86.8125 50.4148C86.7235 50.4138 86.6321 50.4276 86.5384 50.456C86.4446 50.4834 86.3674 50.5189 86.3068 50.5625L85.9773 50.5227L86.1534 49.0909H87.6648V49.4034H86.4489L86.3466 50.2614H86.3636C86.4233 50.214 86.4981 50.1747 86.5881 50.1435C86.678 50.1122 86.7718 50.0966 86.8693 50.0966C87.0473 50.0966 87.206 50.1392 87.3452 50.2244C87.4853 50.3087 87.5952 50.4242 87.6747 50.571C87.7552 50.7178 87.7955 50.8854 87.7955 51.0739C87.7955 51.2595 87.7538 51.4252 87.6705 51.571C87.5881 51.7159 87.4744 51.8305 87.3295 51.9148C87.1847 51.9981 87.0199 52.0398 86.8352 52.0398ZM89.3256 52.0398C89.2063 52.0379 89.087 52.0152 88.9677 51.9716C88.8484 51.928 88.7395 51.8546 88.641 51.7514C88.5425 51.6473 88.4634 51.5066 88.4038 51.3295C88.3441 51.1515 88.3143 50.928 88.3143 50.6591C88.3143 50.4015 88.3384 50.1733 88.3867 49.9744C88.435 49.7746 88.5051 49.6065 88.5969 49.4702C88.6888 49.3329 88.7996 49.2287 88.9293 49.1577C89.06 49.0866 89.2073 49.0511 89.3711 49.0511C89.534 49.0511 89.6789 49.0838 89.8058 49.1491C89.9336 49.2135 90.0378 49.3035 90.1183 49.419C90.1987 49.5346 90.2508 49.6676 90.2745 49.8182H89.9279C89.8957 49.6875 89.8332 49.5791 89.7404 49.4929C89.6476 49.4067 89.5245 49.3636 89.3711 49.3636C89.1457 49.3636 88.9682 49.4616 88.8384 49.6577C88.7096 49.8537 88.6448 50.1288 88.6438 50.483H88.6665C88.7196 50.4025 88.7826 50.3338 88.8555 50.277C88.9293 50.2192 89.0108 50.1747 89.0998 50.1435C89.1888 50.1122 89.283 50.0966 89.3825 50.0966C89.5491 50.0966 89.7016 50.1383 89.8398 50.2216C89.9781 50.304 90.0889 50.4181 90.1722 50.5639C90.2556 50.7088 90.2972 50.875 90.2972 51.0625C90.2972 51.2424 90.257 51.4072 90.1765 51.5568C90.096 51.7055 89.9828 51.8239 89.837 51.9119C89.6921 51.9991 89.5217 52.0417 89.3256 52.0398ZM89.3256 51.7273C89.445 51.7273 89.552 51.6974 89.6467 51.6378C89.7423 51.5781 89.8176 51.4981 89.8725 51.3977C89.9284 51.2973 89.9563 51.1856 89.9563 51.0625C89.9563 50.9422 89.9293 50.8329 89.8754 50.7344C89.8223 50.6349 89.7489 50.5559 89.6552 50.4972C89.5624 50.4384 89.4563 50.4091 89.337 50.4091C89.247 50.4091 89.1632 50.4271 89.0856 50.4631C89.0079 50.4981 88.9397 50.5464 88.881 50.608C88.8233 50.6695 88.7778 50.7401 88.7447 50.8196C88.7115 50.8982 88.695 50.9811 88.695 51.0682C88.695 51.1837 88.7219 51.2917 88.7759 51.392C88.8308 51.4924 88.9057 51.5734 89.0004 51.6349C89.096 51.6965 89.2044 51.7273 89.3256 51.7273Z" fill="black"/>
<path d="M97.3523 30V27.0909H98.3352C98.5625 27.0909 98.7491 27.1297 98.8949 27.2074C99.0407 27.2841 99.1487 27.3897 99.2188 27.5241C99.2888 27.6586 99.3239 27.8116 99.3239 27.983C99.3239 28.1544 99.2888 28.3063 99.2188 28.4389C99.1487 28.5715 99.0412 28.6757 98.8963 28.7514C98.7514 28.8262 98.5663 28.8636 98.3409 28.8636H97.5455V28.5455H98.3295C98.4848 28.5455 98.6098 28.5227 98.7045 28.4773C98.8002 28.4318 98.8693 28.3674 98.9119 28.2841C98.9555 28.1998 98.9773 28.0994 98.9773 27.983C98.9773 27.8665 98.9555 27.7647 98.9119 27.6776C98.8684 27.5904 98.7988 27.5232 98.7031 27.4759C98.6075 27.4276 98.4811 27.4034 98.3239 27.4034H97.7045V30H97.3523ZM98.7216 28.6932L99.4375 30H99.0284L98.3239 28.6932H98.7216ZM99.7915 29.4034V29.1136L101.07 27.0909H101.28V27.5398H101.138L100.172 29.0682V29.0909H101.894V29.4034H99.7915ZM101.161 30V29.3153V29.1804V27.0909H101.496V30H101.161ZM103.335 30.0398C103.169 30.0398 103.018 30.0066 102.885 29.9403C102.751 29.8741 102.644 29.7831 102.564 29.6676C102.483 29.5521 102.439 29.4205 102.432 29.2727H102.773C102.786 29.4044 102.846 29.5133 102.952 29.5994C103.059 29.6847 103.187 29.7273 103.335 29.7273C103.455 29.7273 103.561 29.6993 103.653 29.6435C103.747 29.5876 103.821 29.5109 103.874 29.4134C103.928 29.3149 103.955 29.2036 103.955 29.0795C103.955 28.9527 103.927 28.8395 103.871 28.7401C103.816 28.6397 103.74 28.5606 103.643 28.5028C103.547 28.4451 103.437 28.4157 103.312 28.4148C103.223 28.4138 103.132 28.4276 103.038 28.456C102.945 28.4834 102.867 28.5189 102.807 28.5625L102.477 28.5227L102.653 27.0909H104.165V27.4034H102.949L102.847 28.2614H102.864C102.923 28.214 102.998 28.1747 103.088 28.1435C103.178 28.1122 103.272 28.0966 103.369 28.0966C103.547 28.0966 103.706 28.1392 103.845 28.2244C103.985 28.3087 104.095 28.4242 104.175 28.571C104.255 28.7178 104.295 28.8854 104.295 29.0739C104.295 29.2595 104.254 29.4252 104.17 29.571C104.088 29.7159 103.974 29.8305 103.83 29.9148C103.685 29.9981 103.52 30.0398 103.335 30.0398ZM105.826 30.0398C105.706 30.0379 105.587 30.0152 105.468 29.9716C105.348 29.928 105.239 29.8546 105.141 29.7514C105.042 29.6473 104.963 29.5066 104.904 29.3295C104.844 29.1515 104.814 28.928 104.814 28.6591C104.814 28.4015 104.838 28.1733 104.887 27.9744C104.935 27.7746 105.005 27.6065 105.097 27.4702C105.189 27.3329 105.3 27.2287 105.429 27.1577C105.56 27.0866 105.707 27.0511 105.871 27.0511C106.034 27.0511 106.179 27.0838 106.306 27.1491C106.434 27.2135 106.538 27.3035 106.618 27.419C106.699 27.5346 106.751 27.6676 106.775 27.8182H106.428C106.396 27.6875 106.333 27.5791 106.24 27.4929C106.148 27.4067 106.025 27.3636 105.871 27.3636C105.646 27.3636 105.468 27.4616 105.338 27.6577C105.21 27.8537 105.145 28.1288 105.144 28.483H105.167C105.22 28.4025 105.283 28.3338 105.355 28.277C105.429 28.2192 105.511 28.1747 105.6 28.1435C105.689 28.1122 105.783 28.0966 105.882 28.0966C106.049 28.0966 106.202 28.1383 106.34 28.2216C106.478 28.304 106.589 28.4181 106.672 28.5639C106.756 28.7088 106.797 28.875 106.797 29.0625C106.797 29.2424 106.757 29.4072 106.676 29.5568C106.596 29.7055 106.483 29.8239 106.337 29.9119C106.192 29.9991 106.022 30.0417 105.826 30.0398ZM105.826 29.7273C105.945 29.7273 106.052 29.6974 106.147 29.6378C106.242 29.5781 106.318 29.4981 106.373 29.3977C106.428 29.2973 106.456 29.1856 106.456 29.0625C106.456 28.9422 106.429 28.8329 106.375 28.7344C106.322 28.6349 106.249 28.5559 106.155 28.4972C106.062 28.4384 105.956 28.4091 105.837 28.4091C105.747 28.4091 105.663 28.4271 105.586 28.4631C105.508 28.4981 105.44 28.5464 105.381 28.608C105.323 28.6695 105.278 28.7401 105.245 28.8196C105.212 28.8982 105.195 28.9811 105.195 29.0682C105.195 29.1837 105.222 29.2917 105.276 29.392C105.331 29.4924 105.406 29.5734 105.5 29.6349C105.596 29.6965 105.704 29.7273 105.826 29.7273Z" fill="black"/>
<path d="M66.3523 30V27.0909H67.3352C67.5625 27.0909 67.7491 27.1297 67.8949 27.2074C68.0407 27.2841 68.1487 27.3897 68.2188 27.5241C68.2888 27.6586 68.3239 27.8116 68.3239 27.983C68.3239 28.1544 68.2888 28.3063 68.2188 28.4389C68.1487 28.5715 68.0412 28.6757 67.8963 28.7514C67.7514 28.8262 67.5663 28.8636 67.3409 28.8636H66.5455V28.5455H67.3295C67.4848 28.5455 67.6098 28.5227 67.7045 28.4773C67.8002 28.4318 67.8693 28.3674 67.9119 28.2841C67.9555 28.1998 67.9773 28.0994 67.9773 27.983C67.9773 27.8665 67.9555 27.7647 67.9119 27.6776C67.8684 27.5904 67.7988 27.5232 67.7031 27.4759C67.6075 27.4276 67.4811 27.4034 67.3239 27.4034H66.7045V30H66.3523ZM67.7216 28.6932L68.4375 30H68.0284L67.3239 28.6932H67.7216ZM69.8427 30.0398C69.6552 30.0398 69.488 30.0076 69.3413 29.9432C69.1954 29.8788 69.0794 29.7893 68.9933 29.6747C68.908 29.5592 68.8616 29.4252 68.854 29.2727H69.212C69.2196 29.3665 69.2518 29.4474 69.3086 29.5156C69.3654 29.5829 69.4397 29.6349 69.5316 29.6719C69.6235 29.7088 69.7253 29.7273 69.837 29.7273C69.962 29.7273 70.0728 29.7055 70.1694 29.6619C70.266 29.6184 70.3417 29.5578 70.3967 29.4801C70.4516 29.4025 70.479 29.3125 70.479 29.2102C70.479 29.1032 70.4525 29.009 70.3995 28.9276C70.3465 28.8452 70.2688 28.7808 70.1665 28.7344C70.0643 28.688 69.9393 28.6648 69.7915 28.6648H69.5586V28.3523H69.7915C69.9071 28.3523 70.0084 28.3314 70.0955 28.2898C70.1836 28.2481 70.2522 28.1894 70.3015 28.1136C70.3517 28.0379 70.3768 27.9489 70.3768 27.8466C70.3768 27.7481 70.355 27.6624 70.3114 27.5895C70.2679 27.5166 70.2063 27.4598 70.1268 27.419C70.0482 27.3783 69.9554 27.358 69.8484 27.358C69.748 27.358 69.6533 27.3764 69.5643 27.4134C69.4762 27.4493 69.4042 27.5019 69.3484 27.571C69.2925 27.6392 69.2622 27.7216 69.2575 27.8182H68.9165C68.9222 27.6657 68.9682 27.5322 69.0543 27.4176C69.1405 27.3021 69.2532 27.2121 69.3924 27.1477C69.5326 27.0833 69.6864 27.0511 69.854 27.0511C70.034 27.0511 70.1883 27.0876 70.3171 27.1605C70.4459 27.2325 70.5449 27.3277 70.614 27.446C70.6831 27.5644 70.7177 27.6922 70.7177 27.8295C70.7177 27.9934 70.6746 28.133 70.5884 28.2486C70.5032 28.3641 70.3872 28.4441 70.2404 28.4886V28.5114C70.4241 28.5417 70.5676 28.6198 70.6708 28.7457C70.774 28.8707 70.8256 29.0256 70.8256 29.2102C70.8256 29.3684 70.7826 29.5104 70.6964 29.6364C70.6112 29.7614 70.4947 29.8598 70.3469 29.9318C70.1992 30.0038 70.0311 30.0398 69.8427 30.0398Z" fill="black"/>
<path d="M77 34V17" stroke="black" stroke-width="0.5"/>
<path fill-rule="evenodd" clip-rule="evenodd" d="M91.5 24.5L91.5 33.5L94.5 33.5L94.5 24.5L91.5 24.5ZM91 33.5L91 34L91.5 34L92.75 34L92.75 41L92.75 41.25L93.25 41.25L93.25 41L93.25 34L94.5 34L95 34L95 33.5L95 24.5L95 24L94.5 24L93.25 24L93.25 17L93.25 16.75L92.75 16.75L92.75 17L92.75 24L91.5 24L91 24L91 24.5L91 33.5Z" fill="black"/>
<path d="M48 17V34" stroke="black" stroke-width="0.5"/>
<path d="M62 41V58" stroke="black" stroke-width="0.5"/>
<circle cx="48" cy="46" r="4.75" transform="rotate(90 48 46)" stroke="black" stroke-width="0.5"/>
<path d="M48 42L48 45.5M48 45.5L49.5 44M48 45.5L46.5 44M49.5 46.5L48 48L46.5 46.5" stroke="black" stroke-width="0.5"/>
<path d="M48 34L48 42" stroke="black" stroke-width="0.5" stroke-linecap="square"/>
<path d="M48 51L48 58" stroke="black" stroke-width="0.5" stroke-linecap="square"/>
<circle cx="77" cy="46" r="4.75" transform="rotate(-90 77 46)" stroke="black" stroke-width="0.5"/>
<path d="M77 50L77 46.5M77 46.5L75.5 48M77 46.5L78.5 48M75.5 45.5L77 44L78.5 45.5" stroke="black" stroke-width="0.5"/>
<path d="M77 58L77 50" stroke="black" stroke-width="0.5" stroke-linecap="square"/>
<path d="M77 41L77 34" stroke="black" stroke-width="0.5" stroke-linecap="square"/>
<path d="M77 17H93" stroke="black" stroke-width="0.5"/>
<path d="M77 58H93V40" stroke="black" stroke-width="0.5"/>
<path d="M78.4261 66.7727C78.4261 66.4148 78.4725 66.0857 78.5653 65.7855C78.6591 65.4844 78.7926 65.2074 78.9659 64.9545H79.2614C79.1932 65.0483 79.1293 65.1638 79.0696 65.3011C79.0109 65.4375 78.9593 65.5876 78.9148 65.7514C78.8703 65.9143 78.8352 66.0829 78.8097 66.2571C78.785 66.4313 78.7727 66.6032 78.7727 66.7727C78.7727 66.9981 78.7945 67.2268 78.8381 67.4588C78.8816 67.6908 78.9403 67.9062 79.0142 68.1051C79.0881 68.304 79.1705 68.4659 79.2614 68.5909H78.9659C78.7926 68.3381 78.6591 68.0616 78.5653 67.7614C78.4725 67.4602 78.4261 67.1307 78.4261 66.7727ZM79.756 68.8182V65.8182H80.0799V66.1648H80.1197C80.1443 66.1269 80.1784 66.0786 80.2219 66.0199C80.2665 65.9602 80.3299 65.9072 80.4123 65.8608C80.4956 65.8134 80.6083 65.7898 80.7504 65.7898C80.9341 65.7898 81.096 65.8357 81.2362 65.9276C81.3763 66.0194 81.4857 66.1496 81.5643 66.3182C81.6429 66.4867 81.6822 66.6856 81.6822 66.9148C81.6822 67.1458 81.6429 67.3461 81.5643 67.5156C81.4857 67.6842 81.3768 67.8149 81.2376 67.9077C81.0984 67.9995 80.9379 68.0455 80.756 68.0455C80.6159 68.0455 80.5037 68.0223 80.4194 67.9759C80.3351 67.9285 80.2702 67.875 80.2248 67.8153C80.1793 67.7547 80.1443 67.7045 80.1197 67.6648H80.0913V68.8182H79.756ZM80.0856 66.9091C80.0856 67.0739 80.1097 67.2192 80.158 67.3452C80.2063 67.4702 80.2769 67.5682 80.3697 67.6392C80.4625 67.7093 80.5761 67.7443 80.7106 67.7443C80.8507 67.7443 80.9677 67.7074 81.0614 67.6335C81.1561 67.5587 81.2272 67.4583 81.2745 67.3324C81.3228 67.2055 81.3469 67.0644 81.3469 66.9091C81.3469 66.7557 81.3233 66.6174 81.2759 66.4943C81.2295 66.3703 81.159 66.2723 81.0643 66.2003C80.9705 66.1274 80.8526 66.0909 80.7106 66.0909C80.5742 66.0909 80.4596 66.1255 80.3668 66.1946C80.274 66.2628 80.204 66.3584 80.1566 66.4815C80.1093 66.6037 80.0856 66.7462 80.0856 66.9091ZM82.5288 67.5057L83.5799 65.8182H83.9663V68H83.631V66.3125L82.5856 68H82.1935V65.8182H82.5288V67.5057ZM85.4666 68.0455C85.2621 68.0455 85.0859 67.9972 84.9382 67.9006C84.7905 67.804 84.6768 67.6709 84.5973 67.5014C84.5178 67.3319 84.478 67.1383 84.478 66.9205C84.478 66.6989 84.5187 66.5033 84.6001 66.3338C84.6825 66.1634 84.7971 66.0303 84.9439 65.9347C85.0916 65.8381 85.264 65.7898 85.4609 65.7898C85.6143 65.7898 85.7526 65.8182 85.8757 65.875C85.9988 65.9318 86.0997 66.0114 86.1783 66.1136C86.2569 66.2159 86.3056 66.3352 86.3246 66.4716H85.9893C85.9638 66.3722 85.907 66.2841 85.8189 66.2074C85.7318 66.1297 85.6143 66.0909 85.4666 66.0909C85.3359 66.0909 85.2214 66.125 85.1229 66.1932C85.0253 66.2604 84.9491 66.3556 84.8942 66.4787C84.8402 66.6009 84.8132 66.7443 84.8132 66.9091C84.8132 67.0777 84.8397 67.2244 84.8928 67.3494C84.9467 67.4744 85.0225 67.5715 85.12 67.6406C85.2185 67.7098 85.334 67.7443 85.4666 67.7443C85.5537 67.7443 85.6328 67.7292 85.7038 67.6989C85.7749 67.6686 85.835 67.625 85.8842 67.5682C85.9335 67.5114 85.9685 67.4432 85.9893 67.3636H86.3246C86.3056 67.4924 86.2588 67.6084 86.1839 67.7116C86.1101 67.8139 86.0121 67.8954 85.8899 67.956C85.7687 68.0156 85.6276 68.0455 85.4666 68.0455ZM87.0589 68.0227C86.9889 68.0227 86.9287 67.9976 86.8786 67.9474C86.8284 67.8973 86.8033 67.8371 86.8033 67.767C86.8033 67.697 86.8284 67.6368 86.8786 67.5866C86.9287 67.5365 86.9889 67.5114 87.0589 67.5114C87.129 67.5114 87.1892 67.5365 87.2393 67.5866C87.2895 67.6368 87.3146 67.697 87.3146 67.767C87.3146 67.8134 87.3028 67.8561 87.2791 67.8949C87.2564 67.9337 87.2256 67.965 87.1868 67.9886C87.1489 68.0114 87.1063 68.0227 87.0589 68.0227ZM90.0014 68.0398C89.8821 68.0379 89.7628 68.0152 89.6435 67.9716C89.5241 67.928 89.4152 67.8546 89.3168 67.7514C89.2183 67.6473 89.1392 67.5066 89.0795 67.3295C89.0199 67.1515 88.9901 66.928 88.9901 66.6591C88.9901 66.4015 89.0142 66.1733 89.0625 65.9744C89.1108 65.7746 89.1809 65.6065 89.2727 65.4702C89.3646 65.3329 89.4754 65.2287 89.6051 65.1577C89.7358 65.0866 89.883 65.0511 90.0469 65.0511C90.2098 65.0511 90.3546 65.0838 90.4815 65.1491C90.6094 65.2135 90.7135 65.3035 90.794 65.419C90.8745 65.5346 90.9266 65.6676 90.9503 65.8182H90.6037C90.5715 65.6875 90.509 65.5791 90.4162 65.4929C90.3234 65.4067 90.2003 65.3636 90.0469 65.3636C89.8215 65.3636 89.6439 65.4616 89.5142 65.6577C89.3854 65.8537 89.3205 66.1288 89.3196 66.483H89.3423C89.3954 66.4025 89.4583 66.3338 89.5312 66.277C89.6051 66.2192 89.6866 66.1747 89.7756 66.1435C89.8646 66.1122 89.9588 66.0966 90.0582 66.0966C90.2249 66.0966 90.3774 66.1383 90.5156 66.2216C90.6539 66.304 90.7647 66.4181 90.848 66.5639C90.9313 66.7088 90.973 66.875 90.973 67.0625C90.973 67.2424 90.9328 67.4072 90.8523 67.5568C90.7718 67.7055 90.6586 67.8239 90.5128 67.9119C90.3679 67.9991 90.1974 68.0417 90.0014 68.0398ZM90.0014 67.7273C90.1207 67.7273 90.2277 67.6974 90.3224 67.6378C90.4181 67.5781 90.4934 67.4981 90.5483 67.3977C90.6042 67.2973 90.6321 67.1856 90.6321 67.0625C90.6321 66.9422 90.6051 66.8329 90.5511 66.7344C90.4981 66.6349 90.4247 66.5559 90.331 66.4972C90.2382 66.4384 90.1321 66.4091 90.0128 66.4091C89.9228 66.4091 89.839 66.4271 89.7614 66.4631C89.6837 66.4981 89.6155 66.5464 89.5568 66.608C89.4991 66.6695 89.4536 66.7401 89.4205 66.8196C89.3873 66.8982 89.3707 66.9811 89.3707 67.0682C89.3707 67.1837 89.3977 67.2917 89.4517 67.392C89.5066 67.4924 89.5814 67.5734 89.6761 67.6349C89.7718 67.6965 89.8802 67.7273 90.0014 67.7273ZM92.2532 66.5455C92.2532 66.9034 92.2063 67.233 92.1126 67.5341C92.0198 67.8343 91.8867 68.1108 91.7134 68.3636H91.418C91.4862 68.2699 91.5496 68.1544 91.6083 68.017C91.668 67.8807 91.7201 67.7311 91.7646 67.5682C91.8091 67.4044 91.8436 67.2353 91.8683 67.0611C91.8938 66.8859 91.9066 66.714 91.9066 66.5455C91.9066 66.3201 91.8848 66.0914 91.8413 65.8594C91.7977 65.6274 91.739 65.4119 91.6651 65.2131C91.5913 65.0142 91.5089 64.8523 91.418 64.7273H91.7134C91.8867 64.9801 92.0198 65.2571 92.1126 65.5582C92.2063 65.8584 92.2532 66.1875 92.2532 66.5455Z" fill="black"/>
</svg>
