<svg width="113" height="72" viewBox="0 0 113 72" fill="none" xmlns="http://www.w3.org/2000/svg">
<rect width="113" height="72" rx="6" fill="white"/>
<path fill-rule="evenodd" clip-rule="evenodd" d="M36.5 17C36.5 19.4853 34.4853 21.5 32 21.5C29.5986 21.5 27.6365 19.619 27.5068 17.25H28H28.25H33.8964L32.8232 18.3232L33.1768 18.6768L34.6768 17.1768L34.8536 17L34.6768 16.8232L33.1768 15.3232L32.8232 15.6768L33.8964 16.75H28.25H28H27.5068C27.6365 14.381 29.5986 12.5 32 12.5C34.4853 12.5 36.5 14.5147 36.5 17ZM32 22C29.3224 22 27.1364 19.8953 27.0061 17.25H20H19.75V16.75H20H27.0061C27.1364 14.1047 29.3224 12 32 12C34.6776 12 36.8636 14.1047 36.9939 16.75H37H44H44.25V17.25H44H37H36.9939C36.8636 19.8953 34.6776 22 32 22Z" fill="black"/>
<path fill-rule="evenodd" clip-rule="evenodd" d="M48 50.5C45.5147 50.5 43.5 48.4853 43.5 46C43.5 43.5986 45.381 41.6365 47.75 41.5068L47.75 42L47.75 42.25L47.75 47.8964L46.6768 46.8232L46.3232 47.1768L47.8232 48.6768L48 48.8536L48.1768 48.6768L49.6768 47.1768L49.3232 46.8232L48.25 47.8964L48.25 42.25L48.25 42L48.25 41.5068C50.619 41.6365 52.5 43.5986 52.5 46C52.5 48.4853 50.4853 50.5 48 50.5ZM43 46C43 43.3224 45.1047 41.1364 47.75 41.0061L47.75 34L47.75 33.75L48.25 33.75L48.25 34L48.25 41.0061C50.8953 41.1364 53 43.3224 53 46C53 48.6776 50.8953 50.8636 48.25 50.9939L48.25 51L48.25 58L48.25 58.25L47.75 58.25L47.75 58L47.75 51L47.75 50.9939C45.1047 50.8636 43 48.6776 43 46Z" fill="black"/>
<path fill-rule="evenodd" clip-rule="evenodd" d="M13.5 24.5L13.5 33.5L16.5 33.5L16.5 24.5L13.5 24.5ZM13 33.5L13 34L13.5 34L14.75 34L14.75 41L14.75 41.25L15.25 41.25L15.25 41L15.25 34L16.5 34L17 34L17 33.5L17 24.5L17 24L16.5 24L15.25 24L15.25 17L15.25 16.75L14.75 16.75L14.75 17L14.75 24L13.5 24L13 24L13 24.5L13 33.5Z" fill="black"/>
<path fill-rule="evenodd" clip-rule="evenodd" d="M46.5 24.5L46.5 33.5L49.5 33.5L49.5 24.5L46.5 24.5ZM46 33.5L46 34L46.5 34L47.75 34L47.75 41L47.75 41.25L48.25 41.25L48.25 41L48.25 34L49.5 34L50 34L50 33.5L50 24.5L50 24L49.5 24L48.25 24L48.25 17L48.25 16.75L47.75 16.75L47.75 17L47.75 24L46.5 24L46 24L46 24.5L46 33.5Z" fill="black"/>
<path fill-rule="evenodd" clip-rule="evenodd" d="M80.5 24.5L80.5 33.5L83.5 33.5L83.5 24.5L80.5 24.5ZM80 33.5L80 34L80.5 34L81.75 34L81.75 41L81.75 41.25L82.25 41.25L82.25 41L82.25 34L83.5 34L84 34L84 33.5L84 24.5L84 24L83.5 24L82.25 24L82.25 17L82.25 16.75L81.75 16.75L81.75 17L81.75 24L80.5 24L80 24L80 24.5L80 33.5Z" fill="black"/>
<path fill-rule="evenodd" clip-rule="evenodd" d="M15 50.5C12.5147 50.5 10.5 48.4853 10.5 46C10.5 43.5986 12.381 41.6365 14.75 41.5068L14.75 42L14.75 42.25L14.75 47.8964L13.6768 46.8232L13.3232 47.1768L14.8232 48.6768L15 48.8536L15.1768 48.6768L16.6768 47.1768L16.3232 46.8232L15.25 47.8964L15.25 42.25L15.25 42L15.25 41.5068C17.619 41.6365 19.5 43.5986 19.5 46C19.5 48.4853 17.4853 50.5 15 50.5ZM10 46C10 43.3224 12.1047 41.1364 14.75 41.0061L14.75 34L14.75 33.75L15.25 33.75L15.25 34L15.25 41.0061C17.8953 41.1364 20 43.3224 20 46C20 48.6776 17.8953 50.8636 15.25 50.9939L15.25 51L15.25 58L15.25 58.25L14.75 58.25L14.75 58L14.75 51L14.75 50.9939C12.1047 50.8636 10 48.6776 10 46Z" fill="black"/>
<path fill-rule="evenodd" clip-rule="evenodd" d="M62 24.5C64.4853 24.5 66.5 26.5147 66.5 29C66.5 31.4014 64.619 33.3635 62.25 33.4932L62.25 33L62.25 32.75L62.25 27.1036L63.3232 28.1768L63.6768 27.8232L62.1768 26.3232L62 26.1464L61.8232 26.3232L60.3232 27.8232L60.6768 28.1768L61.75 27.1036L61.75 32.75L61.75 33L61.75 33.4932C59.381 33.3635 57.5 31.4014 57.5 29C57.5 26.5147 59.5147 24.5 62 24.5ZM67 29C67 31.6776 64.8953 33.8636 62.25 33.9939L62.25 41L62.25 41.25L61.75 41.25L61.75 41L61.75 33.9939C59.1047 33.8636 57 31.6776 57 29C57 26.3224 59.1047 24.1364 61.75 24.0061L61.75 24L61.75 17L61.75 16.75L62.25 16.75L62.25 17L62.25 24L62.25 24.0061C64.8953 24.1364 67 26.3224 67 29Z" fill="black"/>
<path d="M62 41H82" stroke="black" stroke-width="0.5"/>
<path d="M62 17H82" stroke="black" stroke-width="0.5"/>
<path d="M48 58H15" stroke="black" stroke-width="0.5"/>
<path d="M15 17H20.5" stroke="black" stroke-width="0.5"/>
<path d="M22.3523 47V44.0909H24.108V44.4034H22.7045V45.3864H24.017V45.6989H22.7045V46.6875H24.1307V47H22.3523ZM25.7145 44.0909V47H25.3622V44.4602H25.3452L24.6349 44.9318V44.5739L25.3622 44.0909H25.7145Z" fill="black"/>
<path d="M68.3523 30V27.0909H70.108V27.4034H68.7045V28.3864H70.017V28.6989H68.7045V29.6875H70.1307V30H68.3523ZM70.9048 29.0511C70.867 29.0516 70.8288 29.0613 70.7905 29.0803C70.7526 29.0992 70.7209 29.1243 70.6953 29.1555C70.6702 29.1863 70.6577 29.2206 70.6577 29.2585H70.4929C70.4929 29.2112 70.5043 29.1657 70.527 29.1222C70.5497 29.0786 70.5803 29.0398 70.6186 29.0057C70.6574 28.9716 70.7015 28.9446 70.7507 28.9247C70.8004 28.9048 70.8518 28.8949 70.9048 28.8949C71.0043 28.8949 71.0885 28.92 71.1577 28.9702C71.2273 29.0204 71.2801 29.0866 71.3161 29.169C71.3525 29.2514 71.3707 29.3409 71.3707 29.4375V29.4773C71.3707 29.5734 71.3525 29.6629 71.3161 29.7457C71.2801 29.8281 71.2273 29.8944 71.1577 29.9446C71.0885 29.9948 71.0043 30.0199 70.9048 30.0199C70.8253 30.0199 70.7545 30.0024 70.6925 29.9673C70.6304 29.9318 70.5817 29.8845 70.5462 29.8253C70.5107 29.7661 70.4929 29.7003 70.4929 29.6278H70.6577C70.6577 29.669 70.6693 29.7076 70.6925 29.7436C70.7161 29.7791 70.7467 29.808 70.7841 29.8303C70.822 29.852 70.8622 29.8632 70.9048 29.8636C70.9683 29.8632 71.0223 29.8433 71.0668 29.804C71.1113 29.7647 71.1451 29.7154 71.1683 29.6562C71.1915 29.5971 71.2031 29.5374 71.2031 29.4773V29.4375C71.2031 29.3759 71.1915 29.3158 71.1683 29.2571C71.1456 29.1979 71.112 29.1489 71.0675 29.1101C71.0234 29.0713 70.9692 29.0516 70.9048 29.0511ZM71.2713 29.3722V29.5284H70.794V29.3722H71.2713ZM71.6261 30V28.9091H71.7937V29.3835H71.9045L72.2965 28.9091H72.5124L72.0721 29.4347L72.5181 30H72.3022L71.9442 29.5398H71.7937V30H71.6261ZM72.7003 30V28.9091H73.1463C73.2637 28.9091 73.357 28.9356 73.4261 28.9886C73.4953 29.0417 73.5298 29.1117 73.5298 29.1989C73.5298 29.2652 73.5102 29.3165 73.4709 29.353C73.4316 29.389 73.3812 29.4134 73.3196 29.4261C73.3598 29.4318 73.3989 29.446 73.4368 29.4688C73.4751 29.4915 73.5069 29.5227 73.532 29.5625C73.5571 29.6018 73.5696 29.6501 73.5696 29.7074C73.5696 29.7633 73.5554 29.8132 73.527 29.8572C73.4986 29.9013 73.4579 29.9361 73.4048 29.9616C73.3518 29.9872 73.2884 30 73.2145 30H72.7003ZM72.8594 29.8466H73.2145C73.2723 29.8466 73.3175 29.8329 73.3501 29.8054C73.3828 29.7779 73.3991 29.7405 73.3991 29.6932C73.3991 29.6368 73.3828 29.5926 73.3501 29.5604C73.3175 29.5277 73.2723 29.5114 73.2145 29.5114H72.8594V29.8466ZM72.8594 29.3665H73.1463C73.1913 29.3665 73.2299 29.3603 73.2621 29.348C73.2943 29.3352 73.3189 29.3172 73.3359 29.294C73.3535 29.2704 73.3622 29.2424 73.3622 29.2102C73.3622 29.1643 73.343 29.1283 73.3047 29.1023C73.2663 29.0758 73.2135 29.0625 73.1463 29.0625H72.8594V29.3665Z" fill="black"/>
<path d="M29.3523 10V7.09091H31.108V7.40341H29.7045V8.38636H31.017V8.69886H29.7045V9.6875H31.1307V10H29.3523ZM31.6918 10V9.74432L32.652 8.69318C32.7647 8.57008 32.8575 8.46307 32.9304 8.37216C33.0033 8.2803 33.0573 8.19413 33.0923 8.11364C33.1283 8.0322 33.1463 7.94697 33.1463 7.85795C33.1463 7.75568 33.1217 7.66714 33.0724 7.59233C33.0241 7.51752 32.9579 7.45975 32.8736 7.41903C32.7893 7.37831 32.6946 7.35795 32.5895 7.35795C32.4777 7.35795 32.3802 7.38116 32.2969 7.42756C32.2145 7.47301 32.1506 7.53693 32.1051 7.61932C32.0606 7.7017 32.0384 7.7983 32.0384 7.90909H31.7031C31.7031 7.73864 31.7424 7.58902 31.821 7.46023C31.8996 7.33144 32.0066 7.23106 32.142 7.15909C32.2784 7.08712 32.4313 7.05114 32.6009 7.05114C32.7713 7.05114 32.9223 7.08712 33.054 7.15909C33.1856 7.23106 33.2888 7.32812 33.3636 7.45028C33.4384 7.57244 33.4759 7.70833 33.4759 7.85795C33.4759 7.96496 33.4564 8.0696 33.4176 8.17188C33.3797 8.2732 33.3134 8.38636 33.2188 8.51136C33.125 8.63542 32.9948 8.78693 32.8281 8.96591L32.1747 9.66477V9.6875H33.527V10H31.6918Z" fill="black"/>
<path d="M19.3523 30V27.0909H20.3352C20.5625 27.0909 20.7491 27.1297 20.8949 27.2074C21.0407 27.2841 21.1487 27.3897 21.2188 27.5241C21.2888 27.6586 21.3239 27.8116 21.3239 27.983C21.3239 28.1544 21.2888 28.3063 21.2188 28.4389C21.1487 28.5715 21.0412 28.6757 20.8963 28.7514C20.7514 28.8262 20.5663 28.8636 20.3409 28.8636H19.5455V28.5455H20.3295C20.4848 28.5455 20.6098 28.5227 20.7045 28.4773C20.8002 28.4318 20.8693 28.3674 20.9119 28.2841C20.9555 28.1998 20.9773 28.0994 20.9773 27.983C20.9773 27.8665 20.9555 27.7647 20.9119 27.6776C20.8684 27.5904 20.7988 27.5232 20.7031 27.4759C20.6075 27.4276 20.4811 27.4034 20.3239 27.4034H19.7045V30H19.3523ZM20.7216 28.6932L21.4375 30H21.0284L20.3239 28.6932H20.7216ZM22.8825 27.0909V30H22.5302V27.4602H22.5131L21.8029 27.9318V27.5739L22.5302 27.0909H22.8825Z" fill="black"/>
<path d="M85.3523 30V27.0909H86.3352C86.5625 27.0909 86.7491 27.1297 86.8949 27.2074C87.0407 27.2841 87.1487 27.3897 87.2188 27.5241C87.2888 27.6586 87.3239 27.8116 87.3239 27.983C87.3239 28.1544 87.2888 28.3063 87.2188 28.4389C87.1487 28.5715 87.0412 28.6757 86.8963 28.7514C86.7514 28.8262 86.5663 28.8636 86.3409 28.8636H85.5455V28.5455H86.3295C86.4848 28.5455 86.6098 28.5227 86.7045 28.4773C86.8002 28.4318 86.8693 28.3674 86.9119 28.2841C86.9555 28.1998 86.9773 28.0994 86.9773 27.983C86.9773 27.8665 86.9555 27.7647 86.9119 27.6776C86.8684 27.5904 86.7988 27.5232 86.7031 27.4759C86.6075 27.4276 86.4811 27.4034 86.3239 27.4034H85.7045V30H85.3523ZM86.7216 28.6932L87.4375 30H87.0284L86.3239 28.6932H86.7216ZM88.0728 29.0511C88.0349 29.0516 87.9968 29.0613 87.9585 29.0803C87.9206 29.0992 87.8888 29.1243 87.8633 29.1555C87.8382 29.1863 87.8256 29.2206 87.8256 29.2585H87.6609C87.6609 29.2112 87.6722 29.1657 87.695 29.1222C87.7177 29.0786 87.7482 29.0398 87.7866 29.0057C87.8254 28.9716 87.8694 28.9446 87.9187 28.9247C87.9684 28.9048 88.0198 28.8949 88.0728 28.8949C88.1722 28.8949 88.2565 28.92 88.3256 28.9702C88.3952 29.0204 88.448 29.0866 88.484 29.169C88.5205 29.2514 88.5387 29.3409 88.5387 29.4375V29.4773C88.5387 29.5734 88.5205 29.6629 88.484 29.7457C88.448 29.8281 88.3952 29.8944 88.3256 29.9446C88.2565 29.9948 88.1722 30.0199 88.0728 30.0199C87.9933 30.0199 87.9225 30.0024 87.8604 29.9673C87.7984 29.9318 87.7496 29.8845 87.7141 29.8253C87.6786 29.7661 87.6609 29.7003 87.6609 29.6278H87.8256C87.8256 29.669 87.8372 29.7076 87.8604 29.7436C87.8841 29.7791 87.9147 29.808 87.9521 29.8303C87.9899 29.852 88.0302 29.8632 88.0728 29.8636C88.1362 29.8632 88.1902 29.8433 88.2347 29.804C88.2792 29.7647 88.3131 29.7154 88.3363 29.6562C88.3595 29.5971 88.3711 29.5374 88.3711 29.4773V29.4375C88.3711 29.3759 88.3595 29.3158 88.3363 29.2571C88.3136 29.1979 88.2799 29.1489 88.2354 29.1101C88.1914 29.0713 88.1372 29.0516 88.0728 29.0511ZM88.4393 29.3722V29.5284H87.962V29.3722H88.4393ZM88.794 30V28.9091H88.9616V29.3835H89.0724L89.4645 28.9091H89.6804L89.2401 29.4347L89.6861 30H89.4702L89.1122 29.5398H88.9616V30H88.794ZM89.8683 30V28.9091H90.3143C90.4317 28.9091 90.525 28.9356 90.5941 28.9886C90.6632 29.0417 90.6978 29.1117 90.6978 29.1989C90.6978 29.2652 90.6781 29.3165 90.6388 29.353C90.5996 29.389 90.5491 29.4134 90.4876 29.4261C90.5278 29.4318 90.5669 29.446 90.6048 29.4688C90.6431 29.4915 90.6748 29.5227 90.6999 29.5625C90.725 29.6018 90.7376 29.6501 90.7376 29.7074C90.7376 29.7633 90.7234 29.8132 90.695 29.8572C90.6665 29.9013 90.6258 29.9361 90.5728 29.9616C90.5198 29.9872 90.4563 30 90.3825 30H89.8683ZM90.0273 29.8466H90.3825C90.4402 29.8466 90.4854 29.8329 90.5181 29.8054C90.5508 29.7779 90.5671 29.7405 90.5671 29.6932C90.5671 29.6368 90.5508 29.5926 90.5181 29.5604C90.4854 29.5277 90.4402 29.5114 90.3825 29.5114H90.0273V29.8466ZM90.0273 29.3665H90.3143C90.3593 29.3665 90.3978 29.3603 90.43 29.348C90.4622 29.3352 90.4869 29.3172 90.5039 29.294C90.5214 29.2704 90.5302 29.2424 90.5302 29.2102C90.5302 29.1643 90.511 29.1283 90.4727 29.1023C90.4343 29.0758 90.3815 29.0625 90.3143 29.0625H90.0273V29.3665Z" fill="black"/>
<path d="M30.3523 51V48.0909H32.108V48.4034H30.7045V49.3864H32.017V49.6989H30.7045V50.6875H32.1307V51H30.3523ZM33.6747 51.0398C33.4872 51.0398 33.3201 51.0076 33.1733 50.9432C33.0275 50.8788 32.9115 50.7893 32.8253 50.6747C32.7401 50.5592 32.6937 50.4252 32.6861 50.2727H33.044C33.0516 50.3665 33.0838 50.4474 33.1406 50.5156C33.1974 50.5829 33.2718 50.6349 33.3636 50.6719C33.4555 50.7088 33.5573 50.7273 33.669 50.7273C33.794 50.7273 33.9048 50.7055 34.0014 50.6619C34.098 50.6184 34.1738 50.5578 34.2287 50.4801C34.2836 50.4025 34.3111 50.3125 34.3111 50.2102C34.3111 50.1032 34.2846 50.009 34.2315 49.9276C34.1785 49.8452 34.1009 49.7808 33.9986 49.7344C33.8963 49.688 33.7713 49.6648 33.6236 49.6648H33.3906V49.3523H33.6236C33.7391 49.3523 33.8404 49.3314 33.9276 49.2898C34.0156 49.2481 34.0843 49.1894 34.1335 49.1136C34.1837 49.0379 34.2088 48.9489 34.2088 48.8466C34.2088 48.7481 34.187 48.6624 34.1435 48.5895C34.0999 48.5166 34.0384 48.4598 33.9588 48.419C33.8802 48.3783 33.7874 48.358 33.6804 48.358C33.58 48.358 33.4853 48.3764 33.3963 48.4134C33.3082 48.4493 33.2363 48.5019 33.1804 48.571C33.1245 48.6392 33.0942 48.7216 33.0895 48.8182H32.7486C32.7543 48.6657 32.8002 48.5322 32.8864 48.4176C32.9725 48.3021 33.0852 48.2121 33.2244 48.1477C33.3646 48.0833 33.5185 48.0511 33.6861 48.0511C33.866 48.0511 34.0204 48.0876 34.1491 48.1605C34.2779 48.2325 34.3769 48.3277 34.446 48.446C34.5152 48.5644 34.5497 48.6922 34.5497 48.8295C34.5497 48.9934 34.5066 49.133 34.4205 49.2486C34.3352 49.3641 34.2192 49.4441 34.0724 49.4886V49.5114C34.2562 49.5417 34.3996 49.6198 34.5028 49.7457C34.6061 49.8707 34.6577 50.0256 34.6577 50.2102C34.6577 50.3684 34.6146 50.5104 34.5284 50.6364C34.4432 50.7614 34.3267 50.8598 34.179 50.9318C34.0313 51.0038 33.8632 51.0398 33.6747 51.0398ZM35.1705 50.4034V50.1136L36.4489 48.0909H36.6591V48.5398H36.517L35.5511 50.0682V50.0909H37.2727V50.4034H35.1705ZM36.5398 51V50.3153V50.1804V48.0909H36.875V51H36.5398ZM38.7141 51.0398C38.5475 51.0398 38.3974 51.0066 38.2638 50.9403C38.1303 50.8741 38.0233 50.7831 37.9428 50.6676C37.8623 50.5521 37.8183 50.4205 37.8107 50.2727H38.1516C38.1649 50.4044 38.2246 50.5133 38.3306 50.5994C38.4376 50.6847 38.5655 50.7273 38.7141 50.7273C38.8335 50.7273 38.9395 50.6993 39.0323 50.6435C39.1261 50.5876 39.1995 50.5109 39.2525 50.4134C39.3065 50.3149 39.3335 50.2036 39.3335 50.0795C39.3335 49.9527 39.3055 49.8395 39.2496 49.7401C39.1947 49.6397 39.119 49.5606 39.0224 49.5028C38.9258 49.4451 38.8155 49.4157 38.6914 49.4148C38.6024 49.4138 38.511 49.4276 38.4173 49.456C38.3235 49.4834 38.2463 49.5189 38.1857 49.5625L37.8562 49.5227L38.0323 48.0909H39.5437V48.4034H38.3278L38.2255 49.2614H38.2425C38.3022 49.214 38.377 49.1747 38.467 49.1435C38.5569 49.1122 38.6507 49.0966 38.7482 49.0966C38.9263 49.0966 39.0849 49.1392 39.2241 49.2244C39.3642 49.3087 39.4741 49.4242 39.5536 49.571C39.6341 49.7178 39.6744 49.8854 39.6744 50.0739C39.6744 50.2595 39.6327 50.4252 39.5494 50.571C39.467 50.7159 39.3533 50.8305 39.2085 50.9148C39.0636 50.9981 38.8988 51.0398 38.7141 51.0398ZM41.2045 51.0398C41.0852 51.0379 40.9659 51.0152 40.8466 50.9716C40.7273 50.928 40.6184 50.8546 40.5199 50.7514C40.4214 50.6473 40.3423 50.5066 40.2827 50.3295C40.223 50.1515 40.1932 49.928 40.1932 49.6591C40.1932 49.4015 40.2173 49.1733 40.2656 48.9744C40.3139 48.7746 40.384 48.6065 40.4759 48.4702C40.5677 48.3329 40.6785 48.2287 40.8082 48.1577C40.9389 48.0866 41.0862 48.0511 41.25 48.0511C41.4129 48.0511 41.5578 48.0838 41.6847 48.1491C41.8125 48.2135 41.9167 48.3035 41.9972 48.419C42.0777 48.5346 42.1297 48.6676 42.1534 48.8182H41.8068C41.7746 48.6875 41.7121 48.5791 41.6193 48.4929C41.5265 48.4067 41.4034 48.3636 41.25 48.3636C41.0246 48.3636 40.8471 48.4616 40.7173 48.6577C40.5885 48.8537 40.5237 49.1288 40.5227 49.483H40.5455C40.5985 49.4025 40.6615 49.3338 40.7344 49.277C40.8082 49.2192 40.8897 49.1747 40.9787 49.1435C41.0677 49.1122 41.1619 49.0966 41.2614 49.0966C41.428 49.0966 41.5805 49.1383 41.7188 49.2216C41.857 49.304 41.9678 49.4181 42.0511 49.5639C42.1345 49.7088 42.1761 49.875 42.1761 50.0625C42.1761 50.2424 42.1359 50.4072 42.0554 50.5568C41.9749 50.7055 41.8617 50.8239 41.7159 50.9119C41.571 50.9991 41.4006 51.0417 41.2045 51.0398ZM41.2045 50.7273C41.3239 50.7273 41.4309 50.6974 41.5256 50.6378C41.6212 50.5781 41.6965 50.4981 41.7514 50.3977C41.8073 50.2973 41.8352 50.1856 41.8352 50.0625C41.8352 49.9422 41.8082 49.8329 41.7543 49.7344C41.7012 49.6349 41.6278 49.5559 41.5341 49.4972C41.4413 49.4384 41.3352 49.4091 41.2159 49.4091C41.1259 49.4091 41.0421 49.4271 40.9645 49.4631C40.8868 49.4981 40.8187 49.5464 40.7599 49.608C40.7022 49.6695 40.6567 49.7401 40.6236 49.8196C40.5904 49.8982 40.5739 49.9811 40.5739 50.0682C40.5739 50.1837 40.6009 50.2917 40.6548 50.392C40.7098 50.4924 40.7846 50.5734 40.8793 50.6349C40.9749 50.6965 41.0833 50.7273 41.2045 50.7273Z" fill="black"/>
<path d="M32.3523 32V29.0909H33.3352C33.5625 29.0909 33.7491 29.1297 33.8949 29.2074C34.0407 29.2841 34.1487 29.3897 34.2188 29.5241C34.2888 29.6586 34.3239 29.8116 34.3239 29.983C34.3239 30.1544 34.2888 30.3063 34.2188 30.4389C34.1487 30.5715 34.0412 30.6757 33.8963 30.7514C33.7514 30.8262 33.5663 30.8636 33.3409 30.8636H32.5455V30.5455H33.3295C33.4848 30.5455 33.6098 30.5227 33.7045 30.4773C33.8002 30.4318 33.8693 30.3674 33.9119 30.2841C33.9555 30.1998 33.9773 30.0994 33.9773 29.983C33.9773 29.8665 33.9555 29.7647 33.9119 29.6776C33.8684 29.5904 33.7988 29.5232 33.7031 29.4759C33.6075 29.4276 33.4811 29.4034 33.3239 29.4034H32.7045V32H32.3523ZM33.7216 30.6932L34.4375 32H34.0284L33.3239 30.6932H33.7216ZM35.8427 32.0398C35.6552 32.0398 35.488 32.0076 35.3413 31.9432C35.1954 31.8788 35.0794 31.7893 34.9933 31.6747C34.908 31.5592 34.8616 31.4252 34.854 31.2727H35.212C35.2196 31.3665 35.2518 31.4474 35.3086 31.5156C35.3654 31.5829 35.4397 31.6349 35.5316 31.6719C35.6235 31.7088 35.7253 31.7273 35.837 31.7273C35.962 31.7273 36.0728 31.7055 36.1694 31.6619C36.266 31.6184 36.3417 31.5578 36.3967 31.4801C36.4516 31.4025 36.479 31.3125 36.479 31.2102C36.479 31.1032 36.4525 31.009 36.3995 30.9276C36.3465 30.8452 36.2688 30.7808 36.1665 30.7344C36.0643 30.688 35.9393 30.6648 35.7915 30.6648H35.5586V30.3523H35.7915C35.9071 30.3523 36.0084 30.3314 36.0955 30.2898C36.1836 30.2481 36.2522 30.1894 36.3015 30.1136C36.3517 30.0379 36.3768 29.9489 36.3768 29.8466C36.3768 29.7481 36.355 29.6624 36.3114 29.5895C36.2679 29.5166 36.2063 29.4598 36.1268 29.419C36.0482 29.3783 35.9554 29.358 35.8484 29.358C35.748 29.358 35.6533 29.3764 35.5643 29.4134C35.4762 29.4493 35.4042 29.5019 35.3484 29.571C35.2925 29.6392 35.2622 29.7216 35.2575 29.8182H34.9165C34.9222 29.6657 34.9682 29.5322 35.0543 29.4176C35.1405 29.3021 35.2532 29.2121 35.3924 29.1477C35.5326 29.0833 35.6864 29.0511 35.854 29.0511C36.034 29.0511 36.1883 29.0876 36.3171 29.1605C36.4459 29.2325 36.5449 29.3277 36.614 29.446C36.6831 29.5644 36.7177 29.6922 36.7177 29.8295C36.7177 29.9934 36.6746 30.133 36.5884 30.2486C36.5032 30.3641 36.3872 30.4441 36.2404 30.4886V30.5114C36.4241 30.5417 36.5676 30.6198 36.6708 30.7457C36.774 30.8707 36.8256 31.0256 36.8256 31.2102C36.8256 31.3684 36.7826 31.5104 36.6964 31.6364C36.6112 31.7614 36.4947 31.8598 36.3469 31.9318C36.1992 32.0038 36.0311 32.0398 35.8427 32.0398ZM37.3384 31.4034V31.1136L38.6168 29.0909H38.8271V29.5398H38.685L37.7191 31.0682V31.0909H39.4407V31.4034H37.3384ZM38.7077 32V31.3153V31.1804V29.0909H39.043V32H38.7077ZM40.8821 32.0398C40.7154 32.0398 40.5653 32.0066 40.4318 31.9403C40.2983 31.8741 40.1913 31.7831 40.1108 31.6676C40.0303 31.5521 39.9863 31.4205 39.9787 31.2727H40.3196C40.3329 31.4044 40.3925 31.5133 40.4986 31.5994C40.6056 31.6847 40.7334 31.7273 40.8821 31.7273C41.0014 31.7273 41.1075 31.6993 41.2003 31.6435C41.294 31.5876 41.3674 31.5109 41.4205 31.4134C41.4744 31.3149 41.5014 31.2036 41.5014 31.0795C41.5014 30.9527 41.4735 30.8395 41.4176 30.7401C41.3627 30.6397 41.2869 30.5606 41.1903 30.5028C41.0938 30.4451 40.9834 30.4157 40.8594 30.4148C40.7704 30.4138 40.679 30.4276 40.5852 30.456C40.4915 30.4834 40.4143 30.5189 40.3537 30.5625L40.0241 30.5227L40.2003 29.0909H41.7116V29.4034H40.4957L40.3935 30.2614H40.4105C40.4702 30.214 40.545 30.1747 40.6349 30.1435C40.7249 30.1122 40.8187 30.0966 40.9162 30.0966C41.0942 30.0966 41.2528 30.1392 41.392 30.2244C41.5322 30.3087 41.642 30.4242 41.7216 30.571C41.8021 30.7178 41.8423 30.8854 41.8423 31.0739C41.8423 31.2595 41.8007 31.4252 41.7173 31.571C41.6349 31.7159 41.5213 31.8305 41.3764 31.9148C41.2315 31.9981 41.0668 32.0398 40.8821 32.0398ZM43.3725 32.0398C43.2532 32.0379 43.1339 32.0152 43.0146 31.9716C42.8952 31.928 42.7863 31.8546 42.6879 31.7514C42.5894 31.6473 42.5103 31.5066 42.4506 31.3295C42.391 31.1515 42.3612 30.928 42.3612 30.6591C42.3612 30.4015 42.3853 30.1733 42.4336 29.9744C42.4819 29.7746 42.552 29.6065 42.6438 29.4702C42.7357 29.3329 42.8465 29.2287 42.9762 29.1577C43.1069 29.0866 43.2541 29.0511 43.418 29.0511C43.5808 29.0511 43.7257 29.0838 43.8526 29.1491C43.9805 29.2135 44.0846 29.3035 44.1651 29.419C44.2456 29.5346 44.2977 29.6676 44.3214 29.8182H43.9748C43.9426 29.6875 43.8801 29.5791 43.7873 29.4929C43.6945 29.4067 43.5714 29.3636 43.418 29.3636C43.1926 29.3636 43.015 29.4616 42.8853 29.6577C42.7565 29.8537 42.6916 30.1288 42.6907 30.483H42.7134C42.7665 30.4025 42.8294 30.3338 42.9023 30.277C42.9762 30.2192 43.0576 30.1747 43.1467 30.1435C43.2357 30.1122 43.3299 30.0966 43.4293 30.0966C43.596 30.0966 43.7485 30.1383 43.8867 30.2216C44.025 30.304 44.1358 30.4181 44.2191 30.5639C44.3024 30.7088 44.3441 30.875 44.3441 31.0625C44.3441 31.2424 44.3039 31.4072 44.2234 31.5568C44.1429 31.7055 44.0297 31.8239 43.8839 31.9119C43.739 31.9991 43.5685 32.0417 43.3725 32.0398ZM43.3725 31.7273C43.4918 31.7273 43.5988 31.6974 43.6935 31.6378C43.7892 31.5781 43.8645 31.4981 43.9194 31.3977C43.9753 31.2973 44.0032 31.1856 44.0032 31.0625C44.0032 30.9422 43.9762 30.8329 43.9222 30.7344C43.8692 30.6349 43.7958 30.5559 43.7021 30.4972C43.6093 30.4384 43.5032 30.4091 43.3839 30.4091C43.2939 30.4091 43.2101 30.4271 43.1325 30.4631C43.0548 30.4981 42.9866 30.5464 42.9279 30.608C42.8701 30.6695 42.8247 30.7401 42.7915 30.8196C42.7584 30.8982 42.7418 30.9811 42.7418 31.0682C42.7418 31.1837 42.7688 31.2917 42.8228 31.392C42.8777 31.4924 42.9525 31.5734 43.0472 31.6349C43.1429 31.6965 43.2513 31.7273 43.3725 31.7273Z" fill="black"/>
<path d="M48 17V24" stroke="black" stroke-width="0.5"/>
<path d="M44 17L48 17" stroke="black" stroke-width="0.5"/>
<path d="M67.4261 53.7727C67.4261 53.4148 67.4725 53.0857 67.5653 52.7855C67.6591 52.4844 67.7926 52.2074 67.9659 51.9545H68.2614C68.1932 52.0483 68.1293 52.1638 68.0696 52.3011C68.0109 52.4375 67.9593 52.5876 67.9148 52.7514C67.8703 52.9143 67.8352 53.0829 67.8097 53.2571C67.785 53.4313 67.7727 53.6032 67.7727 53.7727C67.7727 53.9981 67.7945 54.2268 67.8381 54.4588C67.8816 54.6908 67.9403 54.9062 68.0142 55.1051C68.0881 55.304 68.1705 55.4659 68.2614 55.5909H67.9659C67.7926 55.3381 67.6591 55.0616 67.5653 54.7614C67.4725 54.4602 67.4261 54.1307 67.4261 53.7727ZM68.756 55.8182V52.8182H69.0799V53.1648H69.1197C69.1443 53.1269 69.1784 53.0786 69.2219 53.0199C69.2665 52.9602 69.3299 52.9072 69.4123 52.8608C69.4956 52.8134 69.6083 52.7898 69.7504 52.7898C69.9341 52.7898 70.096 52.8357 70.2362 52.9276C70.3763 53.0194 70.4857 53.1496 70.5643 53.3182C70.6429 53.4867 70.6822 53.6856 70.6822 53.9148C70.6822 54.1458 70.6429 54.3461 70.5643 54.5156C70.4857 54.6842 70.3768 54.8149 70.2376 54.9077C70.0984 54.9995 69.9379 55.0455 69.756 55.0455C69.6159 55.0455 69.5037 55.0223 69.4194 54.9759C69.3351 54.9285 69.2702 54.875 69.2248 54.8153C69.1793 54.7547 69.1443 54.7045 69.1197 54.6648H69.0913V55.8182H68.756ZM69.0856 53.9091C69.0856 54.0739 69.1097 54.2192 69.158 54.3452C69.2063 54.4702 69.2769 54.5682 69.3697 54.6392C69.4625 54.7093 69.5761 54.7443 69.7106 54.7443C69.8507 54.7443 69.9677 54.7074 70.0614 54.6335C70.1561 54.5587 70.2272 54.4583 70.2745 54.3324C70.3228 54.2055 70.3469 54.0644 70.3469 53.9091C70.3469 53.7557 70.3233 53.6174 70.2759 53.4943C70.2295 53.3703 70.159 53.2723 70.0643 53.2003C69.9705 53.1274 69.8526 53.0909 69.7106 53.0909C69.5742 53.0909 69.4596 53.1255 69.3668 53.1946C69.274 53.2628 69.204 53.3584 69.1566 53.4815C69.1093 53.6037 69.0856 53.7462 69.0856 53.9091ZM71.5288 54.5057L72.5799 52.8182H72.9663V55H72.631V53.3125L71.5856 55H71.1935V52.8182H71.5288V54.5057ZM74.4666 55.0455C74.2621 55.0455 74.0859 54.9972 73.9382 54.9006C73.7905 54.804 73.6768 54.6709 73.5973 54.5014C73.5178 54.3319 73.478 54.1383 73.478 53.9205C73.478 53.6989 73.5187 53.5033 73.6001 53.3338C73.6825 53.1634 73.7971 53.0303 73.9439 52.9347C74.0916 52.8381 74.264 52.7898 74.4609 52.7898C74.6143 52.7898 74.7526 52.8182 74.8757 52.875C74.9988 52.9318 75.0997 53.0114 75.1783 53.1136C75.2569 53.2159 75.3056 53.3352 75.3246 53.4716H74.9893C74.9638 53.3722 74.907 53.2841 74.8189 53.2074C74.7318 53.1297 74.6143 53.0909 74.4666 53.0909C74.3359 53.0909 74.2214 53.125 74.1229 53.1932C74.0253 53.2604 73.9491 53.3556 73.8942 53.4787C73.8402 53.6009 73.8132 53.7443 73.8132 53.9091C73.8132 54.0777 73.8397 54.2244 73.8928 54.3494C73.9467 54.4744 74.0225 54.5715 74.12 54.6406C74.2185 54.7098 74.334 54.7443 74.4666 54.7443C74.5537 54.7443 74.6328 54.7292 74.7038 54.6989C74.7749 54.6686 74.835 54.625 74.8842 54.5682C74.9335 54.5114 74.9685 54.4432 74.9893 54.3636H75.3246C75.3056 54.4924 75.2588 54.6084 75.1839 54.7116C75.1101 54.8139 75.0121 54.8954 74.8899 54.956C74.7687 55.0156 74.6276 55.0455 74.4666 55.0455ZM76.0589 55.0227C75.9889 55.0227 75.9287 54.9976 75.8786 54.9474C75.8284 54.8973 75.8033 54.8371 75.8033 54.767C75.8033 54.697 75.8284 54.6368 75.8786 54.5866C75.9287 54.5365 75.9889 54.5114 76.0589 54.5114C76.129 54.5114 76.1892 54.5365 76.2393 54.5866C76.2895 54.6368 76.3146 54.697 76.3146 54.767C76.3146 54.8134 76.3028 54.8561 76.2791 54.8949C76.2564 54.9337 76.2256 54.965 76.1868 54.9886C76.1489 55.0114 76.1063 55.0227 76.0589 55.0227ZM78.1264 55L79.4276 52.4261V52.4034H77.9276V52.0909H79.7912V52.4205L78.4957 55H78.1264ZM81.0423 53.5455C81.0423 53.9034 80.9954 54.233 80.9016 54.5341C80.8088 54.8343 80.6758 55.1108 80.5025 55.3636H80.207C80.2752 55.2699 80.3387 55.1544 80.3974 55.017C80.457 54.8807 80.5091 54.7311 80.5536 54.5682C80.5981 54.4044 80.6327 54.2353 80.6573 54.0611C80.6829 53.8859 80.6957 53.714 80.6957 53.5455C80.6957 53.3201 80.6739 53.0914 80.6303 52.8594C80.5868 52.6274 80.5281 52.4119 80.4542 52.2131C80.3803 52.0142 80.2979 51.8523 80.207 51.7273H80.5025C80.6758 51.9801 80.8088 52.2571 80.9016 52.5582C80.9954 52.8584 81.0423 53.1875 81.0423 53.5455Z" fill="black"/>
</svg>
