<svg width="106" height="62" viewBox="0 0 106 62" fill="none" xmlns="http://www.w3.org/2000/svg">
<rect width="106" height="62" rx="6" fill="white"/>
<path fill-rule="evenodd" clip-rule="evenodd" d="M32.5 12C32.5 14.4853 30.4853 16.5 28 16.5C25.5986 16.5 23.6365 14.619 23.5068 12.25H24H24.25H29.8964L28.8232 13.3232L29.1768 13.6768L30.6768 12.1768L30.8536 12L30.6768 11.8232L29.1768 10.3232L28.8232 10.6768L29.8964 11.75H24.25H24H23.5068C23.6365 9.381 25.5986 7.5 28 7.5C30.4853 7.5 32.5 9.51472 32.5 12ZM28 17C25.3224 17 23.1364 14.8953 23.0061 12.25H16H15.75V11.75H16H23.0061C23.1364 9.10472 25.3224 7 28 7C30.6776 7 32.8636 9.10472 32.9939 11.75H33H40H40.25V12.25H40H33H32.9939C32.8636 14.8953 30.6776 17 28 17Z" fill="black"/>
<path fill-rule="evenodd" clip-rule="evenodd" d="M9.5 19.5L9.5 28.5L12.5 28.5L12.5 19.5L9.5 19.5ZM9 28.5L9 29L9.5 29L10.75 29L10.75 36L10.75 36.25L11.25 36.25L11.25 36L11.25 29L12.5 29L13 29L13 28.5L13 19.5L13 19L12.5 19L11.25 19L11.25 12L11.25 11.75L10.75 11.75L10.75 12L10.75 19L9.5 19L9 19L9 19.5L9 28.5Z" fill="black"/>
<path fill-rule="evenodd" clip-rule="evenodd" d="M42.5 19.5L42.5 28.5L45.5 28.5L45.5 19.5L42.5 19.5ZM42 28.5L42 29L42.5 29L43.75 29L43.75 36L43.75 36.25L44.25 36.25L44.25 36L44.25 29L45.5 29L46 29L46 28.5L46 19.5L46 19L45.5 19L44.25 19L44.25 12L44.25 11.75L43.75 11.75L43.75 12L43.75 19L42.5 19L42 19L42 19.5L42 28.5Z" fill="black"/>
<path fill-rule="evenodd" clip-rule="evenodd" d="M76.5 19.5L76.5 28.5L79.5 28.5L79.5 19.5L76.5 19.5ZM76 28.5L76 29L76.5 29L77.75 29L77.75 36L77.75 36.25L78.25 36.25L78.25 36L78.25 29L79.5 29L80 29L80 28.5L80 19.5L80 19L79.5 19L78.25 19L78.25 12L78.25 11.75L77.75 11.75L77.75 12L77.75 19L76.5 19L76 19L76 19.5L76 28.5Z" fill="black"/>
<path fill-rule="evenodd" clip-rule="evenodd" d="M99.5 19.5L99.5 28.5L102.5 28.5L102.5 19.5L99.5 19.5ZM99 28.5L99 29L99.5 29L100.75 29L100.75 36L100.75 36.25L101.25 36.25L101.25 36L101.25 29L102.5 29L103 29L103 28.5L103 19.5L103 19L102.5 19L101.25 19L101.25 12L101.25 11.75L100.75 11.75L100.75 12L100.75 19L99.5 19L99 19L99 19.5L99 28.5Z" fill="black"/>
<path fill-rule="evenodd" clip-rule="evenodd" d="M65.5 10.5L56.5 10.5V13.5L65.5 13.5V10.5ZM56.5 10H56V10.5V11.75L49 11.75H48.75V12.25H49L56 12.25V13.5V14H56.5L65.5 14H66V13.5V12.25H73H73.25V11.75H73H66V10.5V10H65.5L56.5 10Z" fill="black"/>
<path fill-rule="evenodd" clip-rule="evenodd" d="M11 45.5C8.51472 45.5 6.5 43.4853 6.5 41C6.5 38.5986 8.381 36.6365 10.75 36.5068L10.75 37L10.75 37.25L10.75 42.8964L9.67678 41.8232L9.32322 42.1768L10.8232 43.6768L11 43.8536L11.1768 43.6768L12.6768 42.1768L12.3232 41.8232L11.25 42.8964L11.25 37.25L11.25 37L11.25 36.5068C13.619 36.6365 15.5 38.5986 15.5 41C15.5 43.4853 13.4853 45.5 11 45.5ZM6 41C6 38.3224 8.10472 36.1364 10.75 36.0061L10.75 29L10.75 28.75L11.25 28.75L11.25 29L11.25 36.0061C13.8953 36.1364 16 38.3224 16 41C16 43.6776 13.8953 45.8636 11.25 45.9939L11.25 46L11.25 53L11.25 53.25L10.75 53.25L10.75 53L10.75 46L10.75 45.9939C8.10472 45.8636 6 43.6776 6 41Z" fill="black"/>
<path fill-rule="evenodd" clip-rule="evenodd" d="M44 45.5C41.5147 45.5 39.5 43.4853 39.5 41C39.5 38.5986 41.381 36.6365 43.75 36.5068L43.75 37L43.75 37.25L43.75 42.8964L42.6768 41.8232L42.3232 42.1768L43.8232 43.6768L44 43.8536L44.1768 43.6768L45.6768 42.1768L45.3232 41.8232L44.25 42.8964L44.25 37.25L44.25 37L44.25 36.5068C46.619 36.6365 48.5 38.5986 48.5 41C48.5 43.4853 46.4853 45.5 44 45.5ZM39 41C39 38.3224 41.1047 36.1364 43.75 36.0061L43.75 29L43.75 28.75L44.25 28.75L44.25 29L44.25 36.0061C46.8953 36.1364 49 38.3224 49 41C49 43.6776 46.8953 45.8636 44.25 45.9939L44.25 46L44.25 53L44.25 53.25L43.75 53.25L43.75 53L43.75 46L43.75 45.9939C41.1047 45.8636 39 43.6776 39 41Z" fill="black"/>
<path fill-rule="evenodd" clip-rule="evenodd" d="M78 36.5C80.4853 36.5 82.5 38.5147 82.5 41C82.5 43.4014 80.619 45.3635 78.25 45.4932L78.25 45L78.25 44.75L78.25 39.1036L79.3232 40.1768L79.6768 39.8232L78.1768 38.3232L78 38.1464L77.8232 38.3232L76.3232 39.8232L76.6768 40.1768L77.75 39.1036L77.75 44.75L77.75 45L77.75 45.4932C75.381 45.3635 73.5 43.4014 73.5 41C73.5 38.5147 75.5147 36.5 78 36.5ZM83 41C83 43.6776 80.8953 45.8636 78.25 45.9939L78.25 53L78.25 53.25L77.75 53.25L77.75 53L77.75 45.9939C75.1047 45.8636 73 43.6776 73 41C73 38.3224 75.1047 36.1364 77.75 36.0061L77.75 36L77.75 29L77.75 28.75L78.25 28.75L78.25 29L78.25 36L78.25 36.0061C80.8953 36.1364 83 38.3224 83 41Z" fill="black"/>
<path d="M11 53H88.3077H101V36" stroke="black" stroke-width="0.5"/>
<path d="M101 12H73" stroke="black" stroke-width="0.5"/>
<path d="M40 12H49" stroke="black" stroke-width="0.5"/>
<path d="M11 12H16.5" stroke="black" stroke-width="0.5"/>
<circle cx="61" cy="53" r="1" fill="black"/>
<circle cx="44" cy="12" r="1" fill="black"/>
<circle cx="78" cy="12" r="1" fill="black"/>
<path d="M18.3523 42V39.0909H20.108V39.4034H18.7045V40.3864H20.017V40.6989H18.7045V41.6875H20.1307V42H18.3523ZM21.7145 39.0909V42H21.3622V39.4602H21.3452L20.6349 39.9318V39.5739L21.3622 39.0909H21.7145Z" fill="black"/>
<path d="M25.3523 5V2.09091H27.108V2.40341H25.7045V3.38636H27.017V3.69886H25.7045V4.6875H27.1307V5H25.3523ZM27.6918 5V4.74432L28.652 3.69318C28.7647 3.57008 28.8575 3.46307 28.9304 3.37216C29.0033 3.2803 29.0573 3.19413 29.0923 3.11364C29.1283 3.0322 29.1463 2.94697 29.1463 2.85795C29.1463 2.75568 29.1217 2.66714 29.0724 2.59233C29.0241 2.51752 28.9579 2.45975 28.8736 2.41903C28.7893 2.37831 28.6946 2.35795 28.5895 2.35795C28.4777 2.35795 28.3802 2.38116 28.2969 2.42756C28.2145 2.47301 28.1506 2.53693 28.1051 2.61932C28.0606 2.7017 28.0384 2.7983 28.0384 2.90909H27.7031C27.7031 2.73864 27.7424 2.58902 27.821 2.46023C27.8996 2.33144 28.0066 2.23106 28.142 2.15909C28.2784 2.08712 28.4313 2.05114 28.6009 2.05114C28.7713 2.05114 28.9223 2.08712 29.054 2.15909C29.1856 2.23106 29.2888 2.32812 29.3636 2.45028C29.4384 2.57244 29.4759 2.70833 29.4759 2.85795C29.4759 2.96496 29.4564 3.0696 29.4176 3.17188C29.3797 3.2732 29.3134 3.38636 29.2188 3.51136C29.125 3.63542 28.9948 3.78693 28.8281 3.96591L28.1747 4.66477V4.6875H29.527V5H27.6918Z" fill="black"/>
<path d="M51.3523 43V40.0909H53.108V40.4034H51.7045V41.3864H53.017V41.6989H51.7045V42.6875H53.1307V43H51.3523ZM54.6747 43.0398C54.4872 43.0398 54.3201 43.0076 54.1733 42.9432C54.0275 42.8788 53.9115 42.7893 53.8253 42.6747C53.7401 42.5592 53.6937 42.4252 53.6861 42.2727H54.044C54.0516 42.3665 54.0838 42.4474 54.1406 42.5156C54.1974 42.5829 54.2718 42.6349 54.3636 42.6719C54.4555 42.7088 54.5573 42.7273 54.669 42.7273C54.794 42.7273 54.9048 42.7055 55.0014 42.6619C55.098 42.6184 55.1738 42.5578 55.2287 42.4801C55.2836 42.4025 55.3111 42.3125 55.3111 42.2102C55.3111 42.1032 55.2846 42.009 55.2315 41.9276C55.1785 41.8452 55.1009 41.7808 54.9986 41.7344C54.8963 41.688 54.7713 41.6648 54.6236 41.6648H54.3906V41.3523H54.6236C54.7391 41.3523 54.8404 41.3314 54.9276 41.2898C55.0156 41.2481 55.0843 41.1894 55.1335 41.1136C55.1837 41.0379 55.2088 40.9489 55.2088 40.8466C55.2088 40.7481 55.187 40.6624 55.1435 40.5895C55.0999 40.5166 55.0384 40.4598 54.9588 40.419C54.8802 40.3783 54.7874 40.358 54.6804 40.358C54.58 40.358 54.4853 40.3764 54.3963 40.4134C54.3082 40.4493 54.2363 40.5019 54.1804 40.571C54.1245 40.6392 54.0942 40.7216 54.0895 40.8182H53.7486C53.7543 40.6657 53.8002 40.5322 53.8864 40.4176C53.9725 40.3021 54.0852 40.2121 54.2244 40.1477C54.3646 40.0833 54.5185 40.0511 54.6861 40.0511C54.866 40.0511 55.0204 40.0876 55.1491 40.1605C55.2779 40.2325 55.3769 40.3277 55.446 40.446C55.5152 40.5644 55.5497 40.6922 55.5497 40.8295C55.5497 40.9934 55.5066 41.133 55.4205 41.2486C55.3352 41.3641 55.2192 41.4441 55.0724 41.4886V41.5114C55.2562 41.5417 55.3996 41.6198 55.5028 41.7457C55.6061 41.8707 55.6577 42.0256 55.6577 42.2102C55.6577 42.3684 55.6146 42.5104 55.5284 42.6364C55.4432 42.7614 55.3267 42.8598 55.179 42.9318C55.0313 43.0038 54.8632 43.0398 54.6747 43.0398Z" fill="black"/>
<path d="M66.3523 43V40.0909H68.108V40.4034H66.7045V41.3864H68.017V41.6989H66.7045V42.6875H68.1307V43H66.3523ZM68.6236 42.4034V42.1136L69.902 40.0909H70.1122V40.5398H69.9702L69.0043 42.0682V42.0909H70.7259V42.4034H68.6236ZM69.9929 43V42.3153V42.1804V40.0909H70.3281V43H69.9929Z" fill="black"/>
<path d="M15.3523 25V22.0909H16.3352C16.5625 22.0909 16.7491 22.1297 16.8949 22.2074C17.0407 22.2841 17.1487 22.3897 17.2188 22.5241C17.2888 22.6586 17.3239 22.8116 17.3239 22.983C17.3239 23.1544 17.2888 23.3063 17.2188 23.4389C17.1487 23.5715 17.0412 23.6757 16.8963 23.7514C16.7514 23.8262 16.5663 23.8636 16.3409 23.8636H15.5455V23.5455H16.3295C16.4848 23.5455 16.6098 23.5227 16.7045 23.4773C16.8002 23.4318 16.8693 23.3674 16.9119 23.2841C16.9555 23.1998 16.9773 23.0994 16.9773 22.983C16.9773 22.8665 16.9555 22.7647 16.9119 22.6776C16.8684 22.5904 16.7988 22.5232 16.7031 22.4759C16.6075 22.4276 16.4811 22.4034 16.3239 22.4034H15.7045V25H15.3523ZM16.7216 23.6932L17.4375 25H17.0284L16.3239 23.6932H16.7216ZM18.8825 22.0909V25H18.5302V22.4602H18.5131L17.8029 22.9318V22.5739L18.5302 22.0909H18.8825Z" fill="black"/>
<path d="M58.3523 7V4.09091H59.3352C59.5625 4.09091 59.7491 4.12973 59.8949 4.20739C60.0407 4.28409 60.1487 4.38968 60.2188 4.52415C60.2888 4.65862 60.3239 4.81155 60.3239 4.98295C60.3239 5.15436 60.2888 5.30634 60.2188 5.43892C60.1487 5.5715 60.0412 5.67566 59.8963 5.75142C59.7514 5.82623 59.5663 5.86364 59.3409 5.86364H58.5455V5.54545H59.3295C59.4848 5.54545 59.6098 5.52273 59.7045 5.47727C59.8002 5.43182 59.8693 5.36742 59.9119 5.28409C59.9555 5.19981 59.9773 5.09943 59.9773 4.98295C59.9773 4.86648 59.9555 4.76468 59.9119 4.67756C59.8684 4.59044 59.7988 4.5232 59.7031 4.47585C59.6075 4.42756 59.4811 4.40341 59.3239 4.40341H58.7045V7H58.3523ZM59.7216 5.69318L60.4375 7H60.0284L59.3239 5.69318H59.7216ZM61.8256 7.03977C61.7063 7.03788 61.587 7.01515 61.4677 6.97159C61.3484 6.92803 61.2395 6.85464 61.141 6.75142C61.0425 6.64725 60.9634 6.50663 60.9038 6.32955C60.8441 6.15152 60.8143 5.92803 60.8143 5.65909C60.8143 5.40152 60.8384 5.1733 60.8867 4.97443C60.935 4.77462 61.0051 4.60653 61.0969 4.47017C61.1888 4.33286 61.2996 4.22869 61.4293 4.15767C61.56 4.08665 61.7073 4.05114 61.8711 4.05114C62.034 4.05114 62.1789 4.08381 62.3058 4.14915C62.4336 4.21354 62.5378 4.3035 62.6183 4.41903C62.6987 4.53456 62.7508 4.66761 62.7745 4.81818H62.4279C62.3957 4.6875 62.3332 4.57907 62.2404 4.4929C62.1476 4.40672 62.0245 4.36364 61.8711 4.36364C61.6457 4.36364 61.4682 4.46165 61.3384 4.65767C61.2096 4.85369 61.1448 5.12879 61.1438 5.48295H61.1665C61.2196 5.40246 61.2826 5.33381 61.3555 5.27699C61.4293 5.21922 61.5108 5.17472 61.5998 5.14347C61.6888 5.11222 61.783 5.09659 61.8825 5.09659C62.0491 5.09659 62.2016 5.13826 62.3398 5.22159C62.4781 5.30398 62.5889 5.41809 62.6722 5.56392C62.7556 5.70881 62.7972 5.875 62.7972 6.0625C62.7972 6.24242 62.757 6.4072 62.6765 6.55682C62.596 6.70549 62.4828 6.82386 62.337 6.91193C62.1921 6.99905 62.0217 7.04167 61.8256 7.03977ZM61.8256 6.72727C61.945 6.72727 62.052 6.69744 62.1467 6.63778C62.2423 6.57812 62.3176 6.49811 62.3725 6.39773C62.4284 6.29735 62.4563 6.18561 62.4563 6.0625C62.4563 5.94223 62.4293 5.83286 62.3754 5.73438C62.3223 5.63494 62.2489 5.55587 62.1552 5.49716C62.0624 5.43845 61.9563 5.40909 61.837 5.40909C61.747 5.40909 61.6632 5.42708 61.5856 5.46307C61.5079 5.49811 61.4397 5.5464 61.381 5.60795C61.3233 5.66951 61.2778 5.74006 61.2447 5.8196C61.2115 5.8982 61.195 5.98106 61.195 6.06818C61.195 6.18371 61.2219 6.29167 61.2759 6.39205C61.3308 6.49242 61.4057 6.57339 61.5004 6.63494C61.596 6.6965 61.7044 6.72727 61.8256 6.72727Z" fill="black"/>
<path d="M70.3523 24V21.0909H71.3352C71.5625 21.0909 71.7491 21.1297 71.8949 21.2074C72.0407 21.2841 72.1487 21.3897 72.2188 21.5241C72.2888 21.6586 72.3239 21.8116 72.3239 21.983C72.3239 22.1544 72.2888 22.3063 72.2188 22.4389C72.1487 22.5715 72.0412 22.6757 71.8963 22.7514C71.7514 22.8262 71.5663 22.8636 71.3409 22.8636H70.5455V22.5455H71.3295C71.4848 22.5455 71.6098 22.5227 71.7045 22.4773C71.8002 22.4318 71.8693 22.3674 71.9119 22.2841C71.9555 22.1998 71.9773 22.0994 71.9773 21.983C71.9773 21.8665 71.9555 21.7647 71.9119 21.6776C71.8684 21.5904 71.7988 21.5232 71.7031 21.4759C71.6075 21.4276 71.4811 21.4034 71.3239 21.4034H70.7045V24H70.3523ZM71.7216 22.6932L72.4375 24H72.0284L71.3239 22.6932H71.7216ZM72.7915 23.4034V23.1136L74.07 21.0909H74.2802V21.5398H74.1381L73.1722 23.0682V23.0909H74.8938V23.4034H72.7915ZM74.1609 24V23.3153V23.1804V21.0909H74.4961V24H74.1609Z" fill="black"/>
<path d="M48.3523 25V22.0909H49.3352C49.5625 22.0909 49.7491 22.1297 49.8949 22.2074C50.0407 22.2841 50.1487 22.3897 50.2188 22.5241C50.2888 22.6586 50.3239 22.8116 50.3239 22.983C50.3239 23.1544 50.2888 23.3063 50.2188 23.4389C50.1487 23.5715 50.0412 23.6757 49.8963 23.7514C49.7514 23.8262 49.5663 23.8636 49.3409 23.8636H48.5455V23.5455H49.3295C49.4848 23.5455 49.6098 23.5227 49.7045 23.4773C49.8002 23.4318 49.8693 23.3674 49.9119 23.2841C49.9555 23.1998 49.9773 23.0994 49.9773 22.983C49.9773 22.8665 49.9555 22.7647 49.9119 22.6776C49.8684 22.5904 49.7988 22.5232 49.7031 22.4759C49.6075 22.4276 49.4811 22.4034 49.3239 22.4034H48.7045V25H48.3523ZM49.7216 23.6932L50.4375 25H50.0284L49.3239 23.6932H49.7216ZM51.8427 25.0398C51.6552 25.0398 51.488 25.0076 51.3413 24.9432C51.1954 24.8788 51.0794 24.7893 50.9933 24.6747C50.908 24.5592 50.8616 24.4252 50.854 24.2727H51.212C51.2196 24.3665 51.2518 24.4474 51.3086 24.5156C51.3654 24.5829 51.4397 24.6349 51.5316 24.6719C51.6235 24.7088 51.7253 24.7273 51.837 24.7273C51.962 24.7273 52.0728 24.7055 52.1694 24.6619C52.266 24.6184 52.3417 24.5578 52.3967 24.4801C52.4516 24.4025 52.479 24.3125 52.479 24.2102C52.479 24.1032 52.4525 24.009 52.3995 23.9276C52.3465 23.8452 52.2688 23.7808 52.1665 23.7344C52.0643 23.688 51.9393 23.6648 51.7915 23.6648H51.5586V23.3523H51.7915C51.9071 23.3523 52.0084 23.3314 52.0955 23.2898C52.1836 23.2481 52.2522 23.1894 52.3015 23.1136C52.3517 23.0379 52.3768 22.9489 52.3768 22.8466C52.3768 22.7481 52.355 22.6624 52.3114 22.5895C52.2679 22.5166 52.2063 22.4598 52.1268 22.419C52.0482 22.3783 51.9554 22.358 51.8484 22.358C51.748 22.358 51.6533 22.3764 51.5643 22.4134C51.4762 22.4493 51.4042 22.5019 51.3484 22.571C51.2925 22.6392 51.2622 22.7216 51.2575 22.8182H50.9165C50.9222 22.6657 50.9682 22.5322 51.0543 22.4176C51.1405 22.3021 51.2532 22.2121 51.3924 22.1477C51.5326 22.0833 51.6864 22.0511 51.854 22.0511C52.034 22.0511 52.1883 22.0876 52.3171 22.1605C52.4459 22.2325 52.5449 22.3277 52.614 22.446C52.6831 22.5644 52.7177 22.6922 52.7177 22.8295C52.7177 22.9934 52.6746 23.133 52.5884 23.2486C52.5032 23.3641 52.3872 23.4441 52.2404 23.4886V23.5114C52.4241 23.5417 52.5676 23.6198 52.6708 23.7457C52.774 23.8707 52.8256 24.0256 52.8256 24.2102C52.8256 24.3684 52.7826 24.5104 52.6964 24.6364C52.6112 24.7614 52.4947 24.8598 52.3469 24.9318C52.1992 25.0038 52.0311 25.0398 51.8427 25.0398Z" fill="black"/>
<path d="M92.3523 25V22.0909H93.3352C93.5625 22.0909 93.7491 22.1297 93.8949 22.2074C94.0407 22.2841 94.1487 22.3897 94.2188 22.5241C94.2888 22.6586 94.3239 22.8116 94.3239 22.983C94.3239 23.1544 94.2888 23.3063 94.2188 23.4389C94.1487 23.5715 94.0412 23.6757 93.8963 23.7514C93.7514 23.8262 93.5663 23.8636 93.3409 23.8636H92.5455V23.5455H93.3295C93.4848 23.5455 93.6098 23.5227 93.7045 23.4773C93.8002 23.4318 93.8693 23.3674 93.9119 23.2841C93.9555 23.1998 93.9773 23.0994 93.9773 22.983C93.9773 22.8665 93.9555 22.7647 93.9119 22.6776C93.8684 22.5904 93.7988 22.5232 93.7031 22.4759C93.6075 22.4276 93.4811 22.4034 93.3239 22.4034H92.7045V25H92.3523ZM93.7216 23.6932L94.4375 25H94.0284L93.3239 23.6932H93.7216ZM95.7688 25.0398C95.6022 25.0398 95.4521 25.0066 95.3185 24.9403C95.185 24.8741 95.078 24.7831 94.9975 24.6676C94.917 24.5521 94.873 24.4205 94.8654 24.2727H95.2063C95.2196 24.4044 95.2792 24.5133 95.3853 24.5994C95.4923 24.6847 95.6201 24.7273 95.7688 24.7273C95.8881 24.7273 95.9942 24.6993 96.087 24.6435C96.1808 24.5876 96.2541 24.5109 96.3072 24.4134C96.3612 24.3149 96.3881 24.2036 96.3881 24.0795C96.3881 23.9527 96.3602 23.8395 96.3043 23.7401C96.2494 23.6397 96.1737 23.5606 96.0771 23.5028C95.9805 23.4451 95.8701 23.4157 95.7461 23.4148C95.6571 23.4138 95.5657 23.4276 95.4719 23.456C95.3782 23.4834 95.301 23.5189 95.2404 23.5625L94.9109 23.5227L95.087 22.0909H96.5984V22.4034H95.3825L95.2802 23.2614H95.2972C95.3569 23.214 95.4317 23.1747 95.5217 23.1435C95.6116 23.1122 95.7054 23.0966 95.8029 23.0966C95.9809 23.0966 96.1396 23.1392 96.2788 23.2244C96.4189 23.3087 96.5288 23.4242 96.6083 23.571C96.6888 23.7178 96.729 23.8854 96.729 24.0739C96.729 24.2595 96.6874 24.4252 96.604 24.571C96.5217 24.7159 96.408 24.8305 96.2631 24.9148C96.1183 24.9981 95.9535 25.0398 95.7688 25.0398Z" fill="black"/>
<path d="M85.4261 57.7727C85.4261 57.4148 85.4725 57.0857 85.5653 56.7855C85.6591 56.4844 85.7926 56.2074 85.9659 55.9545H86.2614C86.1932 56.0483 86.1293 56.1638 86.0696 56.3011C86.0109 56.4375 85.9593 56.5876 85.9148 56.7514C85.8703 56.9143 85.8352 57.0829 85.8097 57.2571C85.785 57.4313 85.7727 57.6032 85.7727 57.7727C85.7727 57.9981 85.7945 58.2268 85.8381 58.4588C85.8816 58.6908 85.9403 58.9062 86.0142 59.1051C86.0881 59.304 86.1705 59.4659 86.2614 59.5909H85.9659C85.7926 59.3381 85.6591 59.0616 85.5653 58.7614C85.4725 58.4602 85.4261 58.1307 85.4261 57.7727ZM86.756 59.8182V56.8182H87.0799V57.1648H87.1197C87.1443 57.1269 87.1784 57.0786 87.2219 57.0199C87.2665 56.9602 87.3299 56.9072 87.4123 56.8608C87.4956 56.8134 87.6083 56.7898 87.7504 56.7898C87.9341 56.7898 88.096 56.8357 88.2362 56.9276C88.3763 57.0194 88.4857 57.1496 88.5643 57.3182C88.6429 57.4867 88.6822 57.6856 88.6822 57.9148C88.6822 58.1458 88.6429 58.3461 88.5643 58.5156C88.4857 58.6842 88.3768 58.8149 88.2376 58.9077C88.0984 58.9995 87.9379 59.0455 87.756 59.0455C87.6159 59.0455 87.5037 59.0223 87.4194 58.9759C87.3351 58.9285 87.2702 58.875 87.2248 58.8153C87.1793 58.7547 87.1443 58.7045 87.1197 58.6648H87.0913V59.8182H86.756ZM87.0856 57.9091C87.0856 58.0739 87.1097 58.2192 87.158 58.3452C87.2063 58.4702 87.2769 58.5682 87.3697 58.6392C87.4625 58.7093 87.5761 58.7443 87.7106 58.7443C87.8507 58.7443 87.9677 58.7074 88.0614 58.6335C88.1561 58.5587 88.2272 58.4583 88.2745 58.3324C88.3228 58.2055 88.3469 58.0644 88.3469 57.9091C88.3469 57.7557 88.3233 57.6174 88.2759 57.4943C88.2295 57.3703 88.159 57.2723 88.0643 57.2003C87.9705 57.1274 87.8526 57.0909 87.7106 57.0909C87.5742 57.0909 87.4596 57.1255 87.3668 57.1946C87.274 57.2628 87.204 57.3584 87.1566 57.4815C87.1093 57.6037 87.0856 57.7462 87.0856 57.9091ZM89.5288 58.5057L90.5799 56.8182H90.9663V59H90.631V57.3125L89.5856 59H89.1935V56.8182H89.5288V58.5057ZM92.4666 59.0455C92.2621 59.0455 92.0859 58.9972 91.9382 58.9006C91.7905 58.804 91.6768 58.6709 91.5973 58.5014C91.5178 58.3319 91.478 58.1383 91.478 57.9205C91.478 57.6989 91.5187 57.5033 91.6001 57.3338C91.6825 57.1634 91.7971 57.0303 91.9439 56.9347C92.0916 56.8381 92.264 56.7898 92.4609 56.7898C92.6143 56.7898 92.7526 56.8182 92.8757 56.875C92.9988 56.9318 93.0997 57.0114 93.1783 57.1136C93.2569 57.2159 93.3056 57.3352 93.3246 57.4716H92.9893C92.9638 57.3722 92.907 57.2841 92.8189 57.2074C92.7318 57.1297 92.6143 57.0909 92.4666 57.0909C92.3359 57.0909 92.2214 57.125 92.1229 57.1932C92.0253 57.2604 91.9491 57.3556 91.8942 57.4787C91.8402 57.6009 91.8132 57.7443 91.8132 57.9091C91.8132 58.0777 91.8397 58.2244 91.8928 58.3494C91.9467 58.4744 92.0225 58.5715 92.12 58.6406C92.2185 58.7098 92.334 58.7443 92.4666 58.7443C92.5537 58.7443 92.6328 58.7292 92.7038 58.6989C92.7749 58.6686 92.835 58.625 92.8842 58.5682C92.9335 58.5114 92.9685 58.4432 92.9893 58.3636H93.3246C93.3056 58.4924 93.2588 58.6084 93.1839 58.7116C93.1101 58.8139 93.0121 58.8954 92.8899 58.956C92.7687 59.0156 92.6276 59.0455 92.4666 59.0455ZM94.0589 59.0227C93.9889 59.0227 93.9287 58.9976 93.8786 58.9474C93.8284 58.8973 93.8033 58.8371 93.8033 58.767C93.8033 58.697 93.8284 58.6368 93.8786 58.5866C93.9287 58.5365 93.9889 58.5114 94.0589 58.5114C94.129 58.5114 94.1892 58.5365 94.2393 58.5866C94.2895 58.6368 94.3146 58.697 94.3146 58.767C94.3146 58.8134 94.3028 58.8561 94.2791 58.8949C94.2564 58.9337 94.2256 58.965 94.1868 58.9886C94.1489 59.0114 94.1063 59.0227 94.0589 59.0227ZM97.0582 56.0909V59H96.706V56.4602H96.6889L95.9787 56.9318V56.5739L96.706 56.0909H97.0582ZM98.6165 57.5455C98.6165 57.9034 98.5696 58.233 98.4759 58.5341C98.383 58.8343 98.25 59.1108 98.0767 59.3636H97.7812C97.8494 59.2699 97.9129 59.1544 97.9716 59.017C98.0313 58.8807 98.0833 58.7311 98.1278 58.5682C98.1723 58.4044 98.2069 58.2353 98.2315 58.0611C98.2571 57.8859 98.2699 57.714 98.2699 57.5455C98.2699 57.3201 98.2481 57.0914 98.2045 56.8594C98.161 56.6274 98.1023 56.4119 98.0284 56.2131C97.9545 56.0142 97.8722 55.8523 97.7812 55.7273H98.0767C98.25 55.9801 98.383 56.2571 98.4759 56.5582C98.5696 56.8584 98.6165 57.1875 98.6165 57.5455Z" fill="black"/>
<path d="M9 16L11 14L13 16" stroke="black" stroke-width="0.5"/>
<path d="M4.70455 13.0909V16H4.35227V13.0909H4.70455ZM6.38246 13.0909V16H6.03018V13.4602H6.01314L5.30291 13.9318V13.5739L6.03018 13.0909H6.38246Z" fill="black"/>
<path d="M46 15L44 17L42 15" stroke="black" stroke-width="0.5"/>
<path d="M76 16L78 14L80 16" stroke="black" stroke-width="0.5"/>
<path d="M103 14L101 16L99 14" stroke="black" stroke-width="0.5"/>
<path d="M49 10L51 12L49 14" stroke="black" stroke-width="0.5"/>
<path d="M37.7045 14.0909V17H37.3523V14.0909H37.7045ZM39.3427 17.0398C39.1552 17.0398 38.988 17.0076 38.8413 16.9432C38.6954 16.8788 38.5794 16.7893 38.4933 16.6747C38.408 16.5592 38.3616 16.4252 38.354 16.2727H38.712C38.7196 16.3665 38.7518 16.4474 38.8086 16.5156C38.8654 16.5829 38.9397 16.6349 39.0316 16.6719C39.1235 16.7088 39.2253 16.7273 39.337 16.7273C39.462 16.7273 39.5728 16.7055 39.6694 16.6619C39.766 16.6184 39.8417 16.5578 39.8967 16.4801C39.9516 16.4025 39.979 16.3125 39.979 16.2102C39.979 16.1032 39.9525 16.009 39.8995 15.9276C39.8465 15.8452 39.7688 15.7808 39.6665 15.7344C39.5643 15.688 39.4393 15.6648 39.2915 15.6648H39.0586V15.3523H39.2915C39.4071 15.3523 39.5084 15.3314 39.5955 15.2898C39.6836 15.2481 39.7522 15.1894 39.8015 15.1136C39.8517 15.0379 39.8768 14.9489 39.8768 14.8466C39.8768 14.7481 39.855 14.6624 39.8114 14.5895C39.7679 14.5166 39.7063 14.4598 39.6268 14.419C39.5482 14.3783 39.4554 14.358 39.3484 14.358C39.248 14.358 39.1533 14.3764 39.0643 14.4134C38.9762 14.4493 38.9042 14.5019 38.8484 14.571C38.7925 14.6392 38.7622 14.7216 38.7575 14.8182H38.4165C38.4222 14.6657 38.4682 14.5322 38.5543 14.4176C38.6405 14.3021 38.7532 14.2121 38.8924 14.1477C39.0326 14.0833 39.1864 14.0511 39.354 14.0511C39.534 14.0511 39.6883 14.0876 39.8171 14.1605C39.9459 14.2325 40.0449 14.3277 40.114 14.446C40.1831 14.5644 40.2177 14.6922 40.2177 14.8295C40.2177 14.9934 40.1746 15.133 40.0884 15.2486C40.0032 15.3641 39.8872 15.4441 39.7404 15.4886V15.5114C39.9241 15.5417 40.0676 15.6198 40.1708 15.7457C40.274 15.8707 40.3256 16.0256 40.3256 16.2102C40.3256 16.3684 40.2826 16.5104 40.1964 16.6364C40.1112 16.7614 39.9947 16.8598 39.8469 16.9318C39.6992 17.0038 39.5311 17.0398 39.3427 17.0398Z" fill="black"/>
<path d="M71.7045 14.0909V17H71.3523V14.0909H71.7045ZM72.2915 16.4034V16.1136L73.57 14.0909H73.7802V14.5398H73.6381L72.6722 16.0682V16.0909H74.3938V16.4034H72.2915ZM73.6609 17V16.3153V16.1804V14.0909H73.9961V17H73.6609Z" fill="black"/>
<path d="M94.7045 14.0909V17H94.3523V14.0909H94.7045ZM96.2688 17.0398C96.1022 17.0398 95.9521 17.0066 95.8185 16.9403C95.685 16.8741 95.578 16.7831 95.4975 16.6676C95.417 16.5521 95.373 16.4205 95.3654 16.2727H95.7063C95.7196 16.4044 95.7792 16.5133 95.8853 16.5994C95.9923 16.6847 96.1201 16.7273 96.2688 16.7273C96.3881 16.7273 96.4942 16.6993 96.587 16.6435C96.6808 16.5876 96.7541 16.5109 96.8072 16.4134C96.8612 16.3149 96.8881 16.2036 96.8881 16.0795C96.8881 15.9527 96.8602 15.8395 96.8043 15.7401C96.7494 15.6397 96.6737 15.5606 96.5771 15.5028C96.4805 15.4451 96.3701 15.4157 96.2461 15.4148C96.1571 15.4138 96.0657 15.4276 95.9719 15.456C95.8782 15.4834 95.801 15.5189 95.7404 15.5625L95.4109 15.5227L95.587 14.0909H97.0984V14.4034H95.8825L95.7802 15.2614H95.7972C95.8569 15.214 95.9317 15.1747 96.0217 15.1435C96.1116 15.1122 96.2054 15.0966 96.3029 15.0966C96.4809 15.0966 96.6396 15.1392 96.7788 15.2244C96.9189 15.3087 97.0288 15.4242 97.1083 15.571C97.1888 15.7178 97.229 15.8854 97.229 16.0739C97.229 16.2595 97.1874 16.4252 97.104 16.571C97.0217 16.7159 96.908 16.8305 96.7631 16.9148C96.6183 16.9981 96.4535 17.0398 96.2688 17.0398Z" fill="black"/>
<path d="M48.7045 5.09091V8H48.3523V5.09091H48.7045ZM50.3256 8.03977C50.2063 8.03788 50.087 8.01515 49.9677 7.97159C49.8484 7.92803 49.7395 7.85464 49.641 7.75142C49.5425 7.64725 49.4634 7.50663 49.4038 7.32955C49.3441 7.15152 49.3143 6.92803 49.3143 6.65909C49.3143 6.40152 49.3384 6.1733 49.3867 5.97443C49.435 5.77462 49.5051 5.60653 49.5969 5.47017C49.6888 5.33286 49.7996 5.22869 49.9293 5.15767C50.06 5.08665 50.2073 5.05114 50.3711 5.05114C50.534 5.05114 50.6789 5.08381 50.8058 5.14915C50.9336 5.21354 51.0378 5.3035 51.1183 5.41903C51.1987 5.53456 51.2508 5.66761 51.2745 5.81818H50.9279C50.8957 5.6875 50.8332 5.57907 50.7404 5.4929C50.6476 5.40672 50.5245 5.36364 50.3711 5.36364C50.1457 5.36364 49.9682 5.46165 49.8384 5.65767C49.7096 5.85369 49.6448 6.12879 49.6438 6.48295H49.6665C49.7196 6.40246 49.7826 6.33381 49.8555 6.27699C49.9293 6.21922 50.0108 6.17472 50.0998 6.14347C50.1888 6.11222 50.283 6.09659 50.3825 6.09659C50.5491 6.09659 50.7016 6.13826 50.8398 6.22159C50.9781 6.30398 51.0889 6.41809 51.1722 6.56392C51.2556 6.70881 51.2972 6.875 51.2972 7.0625C51.2972 7.24242 51.257 7.4072 51.1765 7.55682C51.096 7.70549 50.9828 7.82386 50.837 7.91193C50.6921 7.99905 50.5217 8.04167 50.3256 8.03977ZM50.3256 7.72727C50.445 7.72727 50.552 7.69744 50.6467 7.63778C50.7423 7.57812 50.8176 7.49811 50.8725 7.39773C50.9284 7.29735 50.9563 7.18561 50.9563 7.0625C50.9563 6.94223 50.9293 6.83286 50.8754 6.73438C50.8223 6.63494 50.7489 6.55587 50.6552 6.49716C50.5624 6.43845 50.4563 6.40909 50.337 6.40909C50.247 6.40909 50.1632 6.42708 50.0856 6.46307C50.0079 6.49811 49.9397 6.5464 49.881 6.60795C49.8233 6.66951 49.7778 6.74006 49.7447 6.8196C49.7115 6.8982 49.695 6.98106 49.695 7.06818C49.695 7.18371 49.7219 7.29167 49.7759 7.39205C49.8308 7.49242 49.9057 7.57339 50.0004 7.63494C50.096 7.6965 50.2044 7.72727 50.3256 7.72727Z" fill="black"/>
<path d="M28.1133 30.0909V33H27.761V30.0909H28.1133Z" fill="black"/>
<path d="M62.053 29.0909V32H61.7008V29.0909H62.053ZM63.1116 29.0909V32H62.7594V29.0909H63.1116Z" fill="black"/>
<path d="M87.9928 30.0909V33H87.6405V30.0909H87.9928ZM89.0514 30.0909V33H88.6991V30.0909H89.0514ZM90.1099 30.0909V33H89.7577V30.0909H90.1099Z" fill="black"/>
<path d="M24.25 31C24.25 30.2583 24.4699 29.5333 24.882 28.9166C25.294 28.2999 25.8797 27.8193 26.5649 27.5355C27.2502 27.2516 28.0042 27.1774 28.7316 27.3221C29.459 27.4667 30.1272 27.8239 30.6517 28.3483C31.1761 28.8728 31.5333 29.541 31.6779 30.2684C31.8226 30.9958 31.7484 31.7498 31.4645 32.4351C31.1807 33.1203 30.7001 33.706 30.0834 34.118C29.4667 34.5301 28.7417 34.75 28 34.75" stroke="black" stroke-width="0.5"/>
<path d="M58.25 31C58.25 30.2583 58.4699 29.5333 58.882 28.9166C59.294 28.2999 59.8797 27.8193 60.5649 27.5355C61.2502 27.2516 62.0042 27.1774 62.7316 27.3221C63.459 27.4667 64.1272 27.8239 64.6517 28.3483C65.1761 28.8728 65.5333 29.541 65.6779 30.2684C65.8226 30.9958 65.7484 31.7498 65.4645 32.4351C65.1807 33.1203 64.7001 33.706 64.0834 34.118C63.4667 34.5301 62.7417 34.75 62 34.75" stroke="black" stroke-width="0.5"/>
<path d="M85.25 31C85.25 30.2583 85.4699 29.5333 85.882 28.9166C86.294 28.2999 86.8797 27.8193 87.5649 27.5355C88.2502 27.2516 89.0042 27.1774 89.7316 27.3221C90.459 27.4667 91.1272 27.8239 91.6517 28.3483C92.1761 28.8728 92.5333 29.541 92.6779 30.2684C92.8226 30.9958 92.7484 31.7498 92.4645 32.4351C92.1807 33.1203 91.7001 33.706 91.0834 34.118C90.4667 34.5301 89.7417 34.75 89 34.75" stroke="black" stroke-width="0.5"/>
<path d="M23 30L24.2 31L26 30.3333" stroke="black" stroke-width="0.5"/>
<path d="M57 30L58.2 31L60 30.3333" stroke="black" stroke-width="0.5"/>
<path d="M84 30L85.2 31L87 30.3333" stroke="black" stroke-width="0.5"/>
<path d="M44.3239 6.09091V9H43.9716V6.46023H43.9545L43.2443 6.93182V6.57386L43.9716 6.09091H44.3239Z" fill="black"/>
<path d="M77.3011 9V8.74432L78.2614 7.69318C78.3741 7.57008 78.4669 7.46307 78.5398 7.37216C78.6127 7.2803 78.6667 7.19413 78.7017 7.11364C78.7377 7.0322 78.7557 6.94697 78.7557 6.85795C78.7557 6.75568 78.7311 6.66714 78.6818 6.59233C78.6335 6.51752 78.5672 6.45975 78.483 6.41903C78.3987 6.37831 78.304 6.35795 78.1989 6.35795C78.0871 6.35795 77.9896 6.38116 77.9062 6.42756C77.8239 6.47301 77.7599 6.53693 77.7145 6.61932C77.67 6.7017 77.6477 6.7983 77.6477 6.90909H77.3125C77.3125 6.73864 77.3518 6.58902 77.4304 6.46023C77.509 6.33144 77.616 6.23106 77.7514 6.15909C77.8878 6.08712 78.0407 6.05114 78.2102 6.05114C78.3807 6.05114 78.5317 6.08712 78.6634 6.15909C78.795 6.23106 78.8982 6.32812 78.973 6.45028C79.0478 6.57244 79.0852 6.70833 79.0852 6.85795C79.0852 6.96496 79.0658 7.0696 79.027 7.17188C78.9891 7.2732 78.9228 7.38636 78.8281 7.51136C78.7344 7.63542 78.6042 7.78693 78.4375 7.96591L77.7841 8.66477V8.6875H79.1364V9H77.3011Z" fill="black"/>
<path d="M61.2841 58.0398C61.0966 58.0398 60.9295 58.0076 60.7827 57.9432C60.6368 57.8788 60.5208 57.7893 60.4347 57.6747C60.3494 57.5592 60.303 57.4252 60.2955 57.2727H60.6534C60.661 57.3665 60.6932 57.4474 60.75 57.5156C60.8068 57.5829 60.8812 57.6349 60.973 57.6719C61.0649 57.7088 61.1667 57.7273 61.2784 57.7273C61.4034 57.7273 61.5142 57.7055 61.6108 57.6619C61.7074 57.6184 61.7831 57.5578 61.8381 57.4801C61.893 57.4025 61.9205 57.3125 61.9205 57.2102C61.9205 57.1032 61.8939 57.009 61.8409 56.9276C61.7879 56.8452 61.7102 56.7808 61.608 56.7344C61.5057 56.688 61.3807 56.6648 61.233 56.6648H61V56.3523H61.233C61.3485 56.3523 61.4498 56.3314 61.5369 56.2898C61.625 56.2481 61.6937 56.1894 61.7429 56.1136C61.7931 56.0379 61.8182 55.9489 61.8182 55.8466C61.8182 55.7481 61.7964 55.6624 61.7528 55.5895C61.7093 55.5166 61.6477 55.4598 61.5682 55.419C61.4896 55.3783 61.3968 55.358 61.2898 55.358C61.1894 55.358 61.0947 55.3764 61.0057 55.4134C60.9176 55.4493 60.8456 55.5019 60.7898 55.571C60.7339 55.6392 60.7036 55.7216 60.6989 55.8182H60.358C60.3636 55.6657 60.4096 55.5322 60.4957 55.4176C60.5819 55.3021 60.6946 55.2121 60.8338 55.1477C60.974 55.0833 61.1278 55.0511 61.2955 55.0511C61.4754 55.0511 61.6297 55.0876 61.7585 55.1605C61.8873 55.2325 61.9863 55.3277 62.0554 55.446C62.1245 55.5644 62.1591 55.6922 62.1591 55.8295C62.1591 55.9934 62.116 56.133 62.0298 56.2486C61.9446 56.3641 61.8286 56.4441 61.6818 56.4886V56.5114C61.8655 56.5417 62.009 56.6198 62.1122 56.7457C62.2154 56.8707 62.267 57.0256 62.267 57.2102C62.267 57.3684 62.224 57.5104 62.1378 57.6364C62.0526 57.7614 61.9361 57.8598 61.7884 57.9318C61.6406 58.0038 61.4725 58.0398 61.2841 58.0398Z" fill="black"/>
</svg>
