<svg width="117" height="124" viewBox="0 0 117 124" fill="none" xmlns="http://www.w3.org/2000/svg">
<rect width="117" height="124" rx="6" fill="white"/>
<path d="M107.352 58V55.0909H108.335C108.563 55.0909 108.749 55.1297 108.895 55.2074C109.041 55.2841 109.149 55.3897 109.219 55.5241C109.289 55.6586 109.324 55.8116 109.324 55.983C109.324 56.1544 109.289 56.3063 109.219 56.4389C109.149 56.5715 109.041 56.6757 108.896 56.7514C108.751 56.8262 108.566 56.8636 108.341 56.8636H107.545V56.5455H108.33C108.485 56.5455 108.61 56.5227 108.705 56.4773C108.8 56.4318 108.869 56.3674 108.912 56.2841C108.955 56.1998 108.977 56.0994 108.977 55.983C108.977 55.8665 108.955 55.7647 108.912 55.6776C108.868 55.5904 108.799 55.5232 108.703 55.4759C108.607 55.4276 108.481 55.4034 108.324 55.4034H107.705V58H107.352ZM108.722 56.6932L109.438 58H109.028L108.324 56.6932H108.722ZM110.365 57.6023L110.343 57.7557C110.327 57.8636 110.302 57.9792 110.269 58.1023C110.237 58.2254 110.203 58.3414 110.168 58.4503C110.133 58.5592 110.104 58.6458 110.081 58.7102H109.826C109.838 58.6496 109.854 58.5696 109.874 58.4702C109.894 58.3707 109.914 58.2595 109.934 58.1364C109.954 58.0142 109.971 57.8892 109.985 57.7614L110.002 57.6023H110.365ZM113.487 56.5455C113.487 56.8523 113.431 57.1174 113.32 57.3409C113.21 57.5644 113.058 57.7367 112.864 57.858C112.671 57.9792 112.451 58.0398 112.202 58.0398C111.954 58.0398 111.734 57.9792 111.54 57.858C111.347 57.7367 111.195 57.5644 111.085 57.3409C110.974 57.1174 110.918 56.8523 110.918 56.5455C110.918 56.2386 110.974 55.9735 111.085 55.75C111.195 55.5265 111.347 55.3542 111.54 55.233C111.734 55.1117 111.954 55.0511 112.202 55.0511C112.451 55.0511 112.671 55.1117 112.864 55.233C113.058 55.3542 113.21 55.5265 113.32 55.75C113.431 55.9735 113.487 56.2386 113.487 56.5455ZM113.146 56.5455C113.146 56.2936 113.103 56.081 113.019 55.9077C112.936 55.7344 112.823 55.6032 112.68 55.5142C112.538 55.4252 112.379 55.3807 112.202 55.3807C112.026 55.3807 111.867 55.4252 111.724 55.5142C111.582 55.6032 111.469 55.7344 111.384 55.9077C111.301 56.081 111.259 56.2936 111.259 56.5455C111.259 56.7973 111.301 57.0099 111.384 57.1832C111.469 57.3565 111.582 57.4877 111.724 57.5767C111.867 57.6657 112.026 57.7102 112.202 57.7102C112.379 57.7102 112.538 57.6657 112.68 57.5767C112.823 57.4877 112.936 57.3565 113.019 57.1832C113.103 57.0099 113.146 56.7973 113.146 56.5455ZM115.227 57.5455L115.988 55.8182H116.306L115.363 58H115.09L114.164 55.8182H114.477L115.227 57.5455ZM114.369 55.8182V58H114.033V55.8182H114.369ZM116.085 58V55.8182H116.42V58H116.085Z" fill="black"/>
<path d="M3.6856 8.60227L3.66288 8.75568C3.64678 8.86364 3.62216 8.97917 3.58901 9.10227C3.55681 9.22538 3.5232 9.34138 3.48816 9.45028C3.45312 9.55919 3.42424 9.64583 3.40151 9.71023H3.14583C3.15814 9.64962 3.17424 9.5696 3.19413 9.47017C3.21401 9.37074 3.2339 9.25947 3.25378 9.13636C3.27462 9.0142 3.29166 8.8892 3.30492 8.76136L3.32197 8.60227H3.6856ZM4.35215 9V6.09091H5.3692C5.57185 6.09091 5.73899 6.12595 5.87062 6.19602C6.00225 6.26515 6.10026 6.35843 6.16465 6.47585C6.22904 6.59233 6.26124 6.72159 6.26124 6.86364C6.26124 6.98864 6.23899 7.09186 6.19448 7.1733C6.15092 7.25473 6.09315 7.31913 6.02118 7.36648C5.95016 7.41383 5.87298 7.44886 5.78965 7.47159V7.5C5.87867 7.50568 5.96815 7.53693 6.05812 7.59375C6.14808 7.65057 6.22336 7.73201 6.28397 7.83807C6.34457 7.94413 6.37488 8.07386 6.37488 8.22727C6.37488 8.37311 6.34173 8.50426 6.27545 8.62074C6.20916 8.73722 6.10452 8.82955 5.96153 8.89773C5.81853 8.96591 5.63245 9 5.40329 9H4.35215ZM4.70442 8.6875H5.40329C5.6334 8.6875 5.79675 8.64299 5.89334 8.55398C5.99088 8.46402 6.03965 8.35511 6.03965 8.22727C6.03965 8.12879 6.01456 8.03788 5.96437 7.95455C5.91418 7.87027 5.84268 7.80303 5.74988 7.75284C5.65707 7.7017 5.54723 7.67614 5.42033 7.67614H4.70442V8.6875ZM4.70442 7.36932H5.35783C5.46389 7.36932 5.55954 7.34848 5.64476 7.30682C5.73094 7.26515 5.79912 7.20644 5.84931 7.13068C5.90045 7.05492 5.92601 6.96591 5.92601 6.86364C5.92601 6.7358 5.88151 6.62737 5.79249 6.53835C5.70348 6.44839 5.56238 6.40341 5.3692 6.40341H4.70442V7.36932Z" fill="black"/>
<path d="M0.190909 7.05455C0.190909 7.15758 0.212121 7.25 0.254545 7.33182C0.29697 7.41364 0.351515 7.47576 0.418182 7.51818C0.484849 7.56061 0.55 7.59545 0.613636 7.62273C0.677273 7.65 0.730303 7.6697 0.772727 7.68182L0.840909 7.69091L0.85 7.68636L0.909091 7.5C0.963636 7.32424 1.01364 7.17424 1.05909 7.05C1.10455 6.92576 1.16364 6.79242 1.23636 6.65C1.30909 6.50758 1.38182 6.39242 1.45455 6.30455C1.52727 6.21667 1.61667 6.14394 1.72273 6.08636C1.82879 6.02879 1.93939 6 2.05455 6C2.19091 6 2.31212 6.04848 2.41818 6.14545C2.52424 6.24242 2.57879 6.40606 2.58182 6.63636C2.58182 6.87273 2.51667 7.1 2.38636 7.31818C2.25606 7.53636 2.07727 7.71364 1.85 7.85C1.62273 7.98636 1.38333 8.05455 1.13182 8.05455C1.05303 8.05455 1.01364 8.05758 1.01364 8.06364L0.981818 8.22727C0.963636 8.33333 0.942424 8.45 0.918182 8.57727C0.893939 8.70455 0.877273 8.78636 0.868182 8.82273C0.85303 8.89545 0.813636 8.94545 0.75 8.97273C0.716667 8.99091 0.678788 9 0.636364 9C0.542424 8.99091 0.495455 8.94091 0.495455 8.85C0.495455 8.8197 0.578788 8.54242 0.745455 8.01818L0.722727 8.00909C0.707576 8.00303 0.686364 7.99545 0.659091 7.98636C0.631818 7.97727 0.598485 7.96364 0.559091 7.94545C0.519697 7.92727 0.480303 7.90606 0.440909 7.88182C0.401515 7.85758 0.360606 7.8303 0.318182 7.8C0.275758 7.7697 0.236364 7.73182 0.2 7.68636C0.163636 7.64091 0.128788 7.59242 0.0954546 7.54091C0.0621212 7.48939 0.0393939 7.4303 0.0272727 7.36364C0.0151515 7.29697 0.00606061 7.22424 0 7.14545C0 7 0.0393939 6.81667 0.118182 6.59545C0.19697 6.37424 0.307576 6.19242 0.45 6.05H0.509091C0.572727 6.05 0.604545 6.06212 0.604545 6.08636C0.604545 6.10455 0.592424 6.12576 0.568182 6.15C0.443939 6.29545 0.351515 6.46061 0.290909 6.64545C0.230303 6.8303 0.19697 6.96667 0.190909 7.05455ZM2.38182 6.74545C2.38182 6.61818 2.34545 6.51818 2.27273 6.44545C2.2 6.37273 2.10303 6.33485 1.98182 6.33182C1.83333 6.33182 1.69394 6.39242 1.56364 6.51364C1.43333 6.63485 1.32576 6.80303 1.24091 7.01818C1.19848 7.12121 1.15606 7.28636 1.11364 7.51364L1.07273 7.71818C1.12727 7.72424 1.15758 7.72727 1.16364 7.72727C1.51818 7.72727 1.80909 7.62273 2.03636 7.41364C2.26364 7.20455 2.37879 6.98182 2.38182 6.74545Z" fill="black"/>
<path d="M14 124L14 1" stroke="black" stroke-width="0.5"/>
<path d="M16 64H114" stroke="black" stroke-width="0.5"/>
<path d="M12 8H16" stroke="black" stroke-width="0.5"/>
<path d="M12 16H16" stroke="black" stroke-width="0.5"/>
<path d="M12 24H16" stroke="black" stroke-width="0.5"/>
<path d="M12 32H16" stroke="black" stroke-width="0.5"/>
<path d="M12 40H16" stroke="black" stroke-width="0.5"/>
<path d="M12 48H16" stroke="black" stroke-width="0.5"/>
<path d="M12 56H16" stroke="black" stroke-width="0.5"/>
<path d="M12 64H16" stroke="black" stroke-width="0.5"/>
<path d="M12 72H16" stroke="black" stroke-width="0.5"/>
<path d="M16 80L12 80" stroke="black" stroke-width="0.5"/>
<path d="M16 88L12 88" stroke="black" stroke-width="0.5"/>
<path d="M16 96L12 96" stroke="black" stroke-width="0.5"/>
<path d="M16 104L12 104" stroke="black" stroke-width="0.5"/>
<path d="M16 112L12 112" stroke="black" stroke-width="0.5"/>
<path d="M16 120L12 120" stroke="black" stroke-width="0.5"/>
<path d="M108 62L108 66" stroke="black" stroke-width="0.5"/>
<path d="M100 62L100 66" stroke="black" stroke-width="0.5"/>
<path d="M92 62L92 66" stroke="black" stroke-width="0.5"/>
<path d="M84 62L84 66" stroke="black" stroke-width="0.5"/>
<path d="M76 62L76 66" stroke="black" stroke-width="0.5"/>
<path d="M68 62L68 66" stroke="black" stroke-width="0.5"/>
<path d="M60 66L60 62" stroke="black" stroke-width="0.5"/>
<path d="M52 66L52 62" stroke="black" stroke-width="0.5"/>
<path d="M44 66L44 62" stroke="black" stroke-width="0.5"/>
<path d="M36 66L36 62" stroke="black" stroke-width="0.5"/>
<path d="M28 66L28 62" stroke="black" stroke-width="0.5"/>
<path d="M20 66L20 62" stroke="black" stroke-width="0.5"/>
<path d="M12 3L14 1L16 3" stroke="black" stroke-width="0.5"/>
<path d="M112 62L114 64L112 66" stroke="black" stroke-width="0.5"/>
<path d="M9.10689 10L10.408 7.42614V7.40341H8.90803V7.09091H10.7717V7.42045L9.47621 10H9.10689Z" fill="black"/>
<path d="M9.77095 18.0398C9.65163 18.0379 9.53232 18.0152 9.413 17.9716C9.29368 17.928 9.18478 17.8546 9.08629 17.7514C8.98781 17.6473 8.90874 17.5066 8.84908 17.3295C8.78942 17.1515 8.75959 16.928 8.75959 16.6591C8.75959 16.4015 8.78374 16.1733 8.83203 15.9744C8.88033 15.7746 8.9504 15.6065 9.04226 15.4702C9.13411 15.3329 9.24491 15.2287 9.37464 15.1577C9.50533 15.0866 9.65258 15.0511 9.81641 15.0511C9.97929 15.0511 10.1242 15.0838 10.2511 15.1491C10.3789 15.2135 10.4831 15.3035 10.5636 15.419C10.6441 15.5346 10.6961 15.6676 10.7198 15.8182H10.3732C10.341 15.6875 10.2785 15.5791 10.1857 15.4929C10.0929 15.4067 9.96982 15.3636 9.81641 15.3636C9.59103 15.3636 9.41347 15.4616 9.28374 15.6577C9.15495 15.8537 9.09008 16.1288 9.08913 16.483H9.11186C9.16489 16.4025 9.22786 16.3338 9.30078 16.277C9.37464 16.2192 9.45608 16.1747 9.5451 16.1435C9.63411 16.1122 9.72834 16.0966 9.82777 16.0966C9.99444 16.0966 10.1469 16.1383 10.2852 16.2216C10.4234 16.304 10.5342 16.4181 10.6175 16.5639C10.7009 16.7088 10.7425 16.875 10.7425 17.0625C10.7425 17.2424 10.7023 17.4072 10.6218 17.5568C10.5413 17.7055 10.4281 17.8239 10.2823 17.9119C10.1374 17.9991 9.96697 18.0417 9.77095 18.0398ZM9.77095 17.7273C9.89027 17.7273 9.99728 17.6974 10.092 17.6378C10.1876 17.5781 10.2629 17.4981 10.3178 17.3977C10.3737 17.2973 10.4016 17.1856 10.4016 17.0625C10.4016 16.9422 10.3746 16.8329 10.3207 16.7344C10.2676 16.6349 10.1942 16.5559 10.1005 16.4972C10.0077 16.4384 9.90163 16.4091 9.78232 16.4091C9.69235 16.4091 9.60855 16.4271 9.53089 16.4631C9.45324 16.4981 9.38506 16.5464 9.32635 16.608C9.26858 16.6695 9.22313 16.7401 9.18999 16.8196C9.15684 16.8982 9.14027 16.9811 9.14027 17.0682C9.14027 17.1837 9.16726 17.2917 9.22124 17.392C9.27616 17.4924 9.35097 17.5734 9.44567 17.6349C9.54131 17.6965 9.64974 17.7273 9.77095 17.7273Z" fill="black"/>
<path d="M9.77663 26.0398C9.60997 26.0398 9.45987 26.0066 9.32635 25.9403C9.19283 25.8741 9.08582 25.7831 9.00533 25.6676C8.92483 25.5521 8.8808 25.4205 8.87322 25.2727H9.21413C9.22739 25.4044 9.28705 25.5133 9.39311 25.5994C9.50012 25.6847 9.62796 25.7273 9.77663 25.7273C9.89595 25.7273 10.002 25.6993 10.0948 25.6435C10.1886 25.5876 10.262 25.5109 10.315 25.4134C10.369 25.3149 10.396 25.2036 10.396 25.0795C10.396 24.9527 10.368 24.8395 10.3121 24.7401C10.2572 24.6397 10.1815 24.5606 10.0849 24.5028C9.98828 24.4451 9.87796 24.4157 9.75391 24.4148C9.66489 24.4138 9.57351 24.4276 9.47976 24.456C9.38601 24.4834 9.30883 24.5189 9.24822 24.5625L8.91868 24.5227L9.09482 23.0909H10.6062V23.4034H9.39027L9.288 24.2614H9.30504C9.3647 24.214 9.43951 24.1747 9.52947 24.1435C9.61944 24.1122 9.71319 24.0966 9.81072 24.0966C9.98875 24.0966 10.1474 24.1392 10.2866 24.2244C10.4267 24.3087 10.5366 24.4242 10.6161 24.571C10.6966 24.7178 10.7369 24.8854 10.7369 25.0739C10.7369 25.2595 10.6952 25.4252 10.6119 25.571C10.5295 25.7159 10.4158 25.8305 10.271 25.9148C10.1261 25.9981 9.96129 26.0398 9.77663 26.0398Z" fill="black"/>
<path d="M8.66655 33.4034V33.1136L9.94496 31.0909H10.1552V31.5398H10.0131L9.04723 33.0682V33.0909H10.7688V33.4034H8.66655ZM10.0359 34V33.3153V33.1804V31.0909H10.3711V34H10.0359Z" fill="black"/>
<path d="M9.73722 42.0398C9.54972 42.0398 9.38258 42.0076 9.2358 41.9432C9.08996 41.8788 8.97396 41.7893 8.88778 41.6747C8.80256 41.5592 8.75616 41.4252 8.74858 41.2727H9.10653C9.11411 41.3665 9.14631 41.4474 9.20312 41.5156C9.25994 41.5829 9.33428 41.6349 9.42614 41.6719C9.51799 41.7088 9.61979 41.7273 9.73153 41.7273C9.85653 41.7273 9.96733 41.7055 10.0639 41.6619C10.1605 41.6184 10.2363 41.5578 10.2912 41.4801C10.3461 41.4025 10.3736 41.3125 10.3736 41.2102C10.3736 41.1032 10.3471 41.009 10.294 40.9276C10.241 40.8452 10.1634 40.7808 10.0611 40.7344C9.95881 40.688 9.83381 40.6648 9.68608 40.6648H9.45312V40.3523H9.68608C9.80161 40.3523 9.90294 40.3314 9.99006 40.2898C10.0781 40.2481 10.1468 40.1894 10.196 40.1136C10.2462 40.0379 10.2713 39.9489 10.2713 39.8466C10.2713 39.7481 10.2495 39.6624 10.206 39.5895C10.1624 39.5166 10.1009 39.4598 10.0213 39.419C9.94271 39.3783 9.84991 39.358 9.7429 39.358C9.64252 39.358 9.54782 39.3764 9.45881 39.4134C9.37074 39.4493 9.29877 39.5019 9.2429 39.571C9.18703 39.6392 9.15672 39.7216 9.15199 39.8182H8.81108C8.81676 39.6657 8.86269 39.5322 8.94886 39.4176C9.03504 39.3021 9.14773 39.2121 9.28693 39.1477C9.42708 39.0833 9.58097 39.0511 9.74858 39.0511C9.9285 39.0511 10.0829 39.0876 10.2116 39.1605C10.3404 39.2325 10.4394 39.3277 10.5085 39.446C10.5777 39.5644 10.6122 39.6922 10.6122 39.8295C10.6122 39.9934 10.5691 40.133 10.483 40.2486C10.3977 40.3641 10.2817 40.4441 10.1349 40.4886V40.5114C10.3187 40.5417 10.4621 40.6198 10.5653 40.7457C10.6686 40.8707 10.7202 41.0256 10.7202 41.2102C10.7202 41.3684 10.6771 41.5104 10.5909 41.6364C10.5057 41.7614 10.3892 41.8598 10.2415 41.9318C10.0938 42.0038 9.92566 42.0398 9.73722 42.0398Z" fill="black"/>
<path d="M8.87926 50V49.7443L9.83949 48.6932C9.95218 48.5701 10.045 48.4631 10.1179 48.3722C10.1908 48.2803 10.2448 48.1941 10.2798 48.1136C10.3158 48.0322 10.3338 47.947 10.3338 47.858C10.3338 47.7557 10.3092 47.6671 10.2599 47.5923C10.2116 47.5175 10.1454 47.4598 10.0611 47.419C9.9768 47.3783 9.8821 47.358 9.77699 47.358C9.66525 47.358 9.56771 47.3812 9.48438 47.4276C9.40199 47.473 9.33807 47.5369 9.29261 47.6193C9.24811 47.7017 9.22585 47.7983 9.22585 47.9091H8.89062C8.89062 47.7386 8.92992 47.589 9.00852 47.4602C9.08712 47.3314 9.19413 47.2311 9.32955 47.1591C9.46591 47.0871 9.61884 47.0511 9.78835 47.0511C9.95881 47.0511 10.1098 47.0871 10.2415 47.1591C10.3731 47.2311 10.4763 47.3281 10.5511 47.4503C10.6259 47.5724 10.6634 47.7083 10.6634 47.858C10.6634 47.965 10.6439 48.0696 10.6051 48.1719C10.5672 48.2732 10.5009 48.3864 10.4062 48.5114C10.3125 48.6354 10.1823 48.7869 10.0156 48.9659L9.36222 49.6648V49.6875H10.7145V50H8.87926Z" fill="black"/>
<path d="M10.4645 55.0909V58H10.1122V55.4602H10.0952L9.38494 55.9318V55.5739L10.1122 55.0909H10.4645Z" fill="black"/>
<path d="M9.75 66.0398C9.53598 66.0398 9.35369 65.9815 9.20312 65.8651C9.05256 65.7476 8.9375 65.5777 8.85795 65.3551C8.77841 65.1316 8.73864 64.8617 8.73864 64.5455C8.73864 64.2311 8.77841 63.9626 8.85795 63.7401C8.93845 63.5166 9.05398 63.3461 9.20455 63.2287C9.35606 63.1103 9.53788 63.0511 9.75 63.0511C9.96212 63.0511 10.1435 63.1103 10.294 63.2287C10.4455 63.3461 10.5611 63.5166 10.6406 63.7401C10.7211 63.9626 10.7614 64.2311 10.7614 64.5455C10.7614 64.8617 10.7216 65.1316 10.642 65.3551C10.5625 65.5777 10.4474 65.7476 10.2969 65.8651C10.1463 65.9815 9.96402 66.0398 9.75 66.0398ZM9.75 65.7273C9.96212 65.7273 10.1269 65.625 10.2443 65.4205C10.3617 65.2159 10.4205 64.9242 10.4205 64.5455C10.4205 64.2936 10.3935 64.0791 10.3395 63.902C10.2865 63.7249 10.2098 63.59 10.1094 63.4972C10.0099 63.4044 9.89015 63.358 9.75 63.358C9.53977 63.358 9.37547 63.4616 9.2571 63.669C9.13873 63.8755 9.07955 64.1676 9.07955 64.5455C9.07955 64.7973 9.10606 65.0114 9.15909 65.1875C9.21212 65.3636 9.28835 65.4976 9.38778 65.5895C9.48816 65.6813 9.6089 65.7273 9.75 65.7273Z" fill="black"/>
<path d="M8.8576 72.3892V72.7017H7.58487V72.3892H8.8576ZM10.4645 71.0909V74H10.1122V71.4602H10.0952L9.38494 71.9318V71.5739L10.1122 71.0909H10.4645Z" fill="black"/>
<path d="M8.43182 80.3892V80.7017H7.15909V80.3892H8.43182ZM8.87926 82V81.7443L9.83949 80.6932C9.95218 80.5701 10.045 80.4631 10.1179 80.3722C10.1908 80.2803 10.2448 80.1941 10.2798 80.1136C10.3158 80.0322 10.3338 79.947 10.3338 79.858C10.3338 79.7557 10.3092 79.6671 10.2599 79.5923C10.2116 79.5175 10.1454 79.4598 10.0611 79.419C9.9768 79.3783 9.8821 79.358 9.77699 79.358C9.66525 79.358 9.56771 79.3812 9.48438 79.4276C9.40199 79.473 9.33807 79.5369 9.29261 79.6193C9.24811 79.7017 9.22585 79.7983 9.22585 79.9091H8.89062C8.89062 79.7386 8.92992 79.589 9.00852 79.4602C9.08712 79.3314 9.19413 79.2311 9.32955 79.1591C9.46591 79.0871 9.61884 79.0511 9.78835 79.0511C9.95881 79.0511 10.1098 79.0871 10.2415 79.1591C10.3731 79.2311 10.4763 79.3281 10.5511 79.4503C10.6259 79.5724 10.6634 79.7083 10.6634 79.858C10.6634 79.965 10.6439 80.0696 10.6051 80.1719C10.5672 80.2732 10.5009 80.3864 10.4062 80.5114C10.3125 80.6354 10.1823 80.7869 10.0156 80.9659L9.36222 81.6648V81.6875H10.7145V82H8.87926Z" fill="black"/>
<path d="M8.21697 88.3892V88.7017H6.94425V88.3892H8.21697ZM9.73722 90.0398C9.54972 90.0398 9.38258 90.0076 9.2358 89.9432C9.08996 89.8788 8.97396 89.7893 8.88778 89.6747C8.80256 89.5592 8.75616 89.4252 8.74858 89.2727H9.10653C9.11411 89.3665 9.14631 89.4474 9.20312 89.5156C9.25994 89.5829 9.33428 89.6349 9.42614 89.6719C9.51799 89.7088 9.61979 89.7273 9.73153 89.7273C9.85653 89.7273 9.96733 89.7055 10.0639 89.6619C10.1605 89.6184 10.2363 89.5578 10.2912 89.4801C10.3461 89.4025 10.3736 89.3125 10.3736 89.2102C10.3736 89.1032 10.3471 89.009 10.294 88.9276C10.241 88.8452 10.1634 88.7808 10.0611 88.7344C9.95881 88.688 9.83381 88.6648 9.68608 88.6648H9.45312V88.3523H9.68608C9.80161 88.3523 9.90294 88.3314 9.99006 88.2898C10.0781 88.2481 10.1468 88.1894 10.196 88.1136C10.2462 88.0379 10.2713 87.9489 10.2713 87.8466C10.2713 87.7481 10.2495 87.6624 10.206 87.5895C10.1624 87.5166 10.1009 87.4598 10.0213 87.419C9.94271 87.3783 9.84991 87.358 9.7429 87.358C9.64252 87.358 9.54782 87.3764 9.45881 87.4134C9.37074 87.4493 9.29877 87.5019 9.2429 87.571C9.18703 87.6392 9.15672 87.7216 9.15199 87.8182H8.81108C8.81676 87.6657 8.86269 87.5322 8.94886 87.4176C9.03504 87.3021 9.14773 87.2121 9.28693 87.1477C9.42708 87.0833 9.58097 87.0511 9.74858 87.0511C9.9285 87.0511 10.0829 87.0876 10.2116 87.1605C10.3404 87.2325 10.4394 87.3277 10.5085 87.446C10.5777 87.5644 10.6122 87.6922 10.6122 87.8295C10.6122 87.9934 10.5691 88.133 10.483 88.2486C10.3977 88.3641 10.2817 88.4441 10.1349 88.4886V88.5114C10.3187 88.5417 10.4621 88.6198 10.5653 88.7457C10.6686 88.8707 10.7202 89.0256 10.7202 89.2102C10.7202 89.3684 10.6771 89.5104 10.5909 89.6364C10.5057 89.7614 10.3892 89.8598 10.2415 89.9318C10.0938 90.0038 9.92566 90.0398 9.73722 90.0398Z" fill="black"/>
<path d="M8.15057 96.3892V96.7017H6.87784V96.3892H8.15057ZM8.66655 97.4034V97.1136L9.94496 95.0909H10.1552V95.5398H10.0131L9.04723 97.0682V97.0909H10.7688V97.4034H8.66655ZM10.0359 98V97.3153V97.1804V95.0909H10.3711V98H10.0359Z" fill="black"/>
<path d="M8.28338 104.389V104.702H7.01065V104.389H8.28338ZM9.77663 106.04C9.60997 106.04 9.45987 106.007 9.32635 105.94C9.19283 105.874 9.08582 105.783 9.00533 105.668C8.92483 105.552 8.8808 105.42 8.87322 105.273H9.21413C9.22739 105.404 9.28705 105.513 9.39311 105.599C9.50012 105.685 9.62796 105.727 9.77663 105.727C9.89595 105.727 10.002 105.699 10.0948 105.643C10.1886 105.588 10.262 105.511 10.315 105.413C10.369 105.315 10.396 105.204 10.396 105.08C10.396 104.953 10.368 104.839 10.3121 104.74C10.2572 104.64 10.1815 104.561 10.0849 104.503C9.98828 104.445 9.87796 104.416 9.75391 104.415C9.66489 104.414 9.57351 104.428 9.47976 104.456C9.38601 104.483 9.30883 104.519 9.24822 104.562L8.91868 104.523L9.09482 103.091H10.6062V103.403H9.39027L9.288 104.261H9.30504C9.3647 104.214 9.43951 104.175 9.52947 104.143C9.61944 104.112 9.71319 104.097 9.81072 104.097C9.98875 104.097 10.1474 104.139 10.2866 104.224C10.4267 104.309 10.5366 104.424 10.6161 104.571C10.6966 104.718 10.7369 104.885 10.7369 105.074C10.7369 105.259 10.6952 105.425 10.6119 105.571C10.5295 105.716 10.4158 105.83 10.271 105.915C10.1261 105.998 9.96129 106.04 9.77663 106.04Z" fill="black"/>
<path d="M8.22088 112.389V112.702H6.94815V112.389H8.22088ZM9.77095 114.04C9.65163 114.038 9.53232 114.015 9.413 113.972C9.29368 113.928 9.18478 113.855 9.08629 113.751C8.98781 113.647 8.90874 113.507 8.84908 113.33C8.78942 113.152 8.75959 112.928 8.75959 112.659C8.75959 112.402 8.78374 112.173 8.83203 111.974C8.88033 111.775 8.9504 111.607 9.04226 111.47C9.13411 111.333 9.24491 111.229 9.37464 111.158C9.50533 111.087 9.65258 111.051 9.81641 111.051C9.97929 111.051 10.1242 111.084 10.2511 111.149C10.3789 111.214 10.4831 111.304 10.5636 111.419C10.6441 111.535 10.6961 111.668 10.7198 111.818H10.3732C10.341 111.687 10.2785 111.579 10.1857 111.493C10.0929 111.407 9.96982 111.364 9.81641 111.364C9.59103 111.364 9.41347 111.462 9.28374 111.658C9.15495 111.854 9.09008 112.129 9.08913 112.483H9.11186C9.16489 112.402 9.22786 112.334 9.30078 112.277C9.37464 112.219 9.45608 112.175 9.5451 112.143C9.63411 112.112 9.72834 112.097 9.82777 112.097C9.99444 112.097 10.1469 112.138 10.2852 112.222C10.4234 112.304 10.5342 112.418 10.6175 112.564C10.7009 112.709 10.7425 112.875 10.7425 113.062C10.7425 113.242 10.7023 113.407 10.6218 113.557C10.5413 113.705 10.4281 113.824 10.2823 113.912C10.1374 113.999 9.96697 114.042 9.77095 114.04ZM9.77095 113.727C9.89027 113.727 9.99728 113.697 10.092 113.638C10.1876 113.578 10.2629 113.498 10.3178 113.398C10.3737 113.297 10.4016 113.186 10.4016 113.062C10.4016 112.942 10.3746 112.833 10.3207 112.734C10.2676 112.635 10.1942 112.556 10.1005 112.497C10.0077 112.438 9.90163 112.409 9.78232 112.409C9.69235 112.409 9.60855 112.427 9.53089 112.463C9.45324 112.498 9.38506 112.546 9.32635 112.608C9.26858 112.67 9.22313 112.74 9.18999 112.82C9.15684 112.898 9.14027 112.981 9.14027 113.068C9.14027 113.184 9.16726 113.292 9.22124 113.392C9.27616 113.492 9.35097 113.573 9.44567 113.635C9.54131 113.696 9.64974 113.727 9.77095 113.727Z" fill="black"/>
<path d="M8.52166 120.389V120.702H7.24893V120.389H8.52166ZM9.10689 122L10.408 119.426V119.403H8.90803V119.091H10.7717V119.42L9.47621 122H9.10689Z" fill="black"/>
<path d="M14 64V104L36 110.5V15L38 110.5L68 64" stroke="#9A9A9A" stroke-width="0.7"/>
<path d="M20.4645 68.0909V71H20.1122V68.4602H20.0952L19.3849 68.9318V68.5739L20.1122 68.0909H20.4645Z" fill="black"/>
<path d="M26.8793 71V70.7443L27.8395 69.6932C27.9522 69.5701 28.045 69.4631 28.1179 69.3722C28.1908 69.2803 28.2448 69.1941 28.2798 69.1136C28.3158 69.0322 28.3338 68.947 28.3338 68.858C28.3338 68.7557 28.3092 68.6671 28.2599 68.5923C28.2116 68.5175 28.1454 68.4598 28.0611 68.419C27.9768 68.3783 27.8821 68.358 27.777 68.358C27.6652 68.358 27.5677 68.3812 27.4844 68.4276C27.402 68.473 27.3381 68.5369 27.2926 68.6193C27.2481 68.7017 27.2259 68.7983 27.2259 68.9091H26.8906C26.8906 68.7386 26.9299 68.589 27.0085 68.4602C27.0871 68.3314 27.1941 68.2311 27.3295 68.1591C27.4659 68.0871 27.6188 68.0511 27.7884 68.0511C27.9588 68.0511 28.1098 68.0871 28.2415 68.1591C28.3731 68.2311 28.4763 68.3281 28.5511 68.4503C28.6259 68.5724 28.6634 68.7083 28.6634 68.858C28.6634 68.965 28.6439 69.0696 28.6051 69.1719C28.5672 69.2732 28.5009 69.3864 28.4062 69.5114C28.3125 69.6354 28.1823 69.7869 28.0156 69.9659L27.3622 70.6648V70.6875H28.7145V71H26.8793Z" fill="black"/>
<path d="M35.7372 71.0398C35.5497 71.0398 35.3826 71.0076 35.2358 70.9432C35.09 70.8788 34.974 70.7893 34.8878 70.6747C34.8026 70.5592 34.7562 70.4252 34.7486 70.2727H35.1065C35.1141 70.3665 35.1463 70.4474 35.2031 70.5156C35.2599 70.5829 35.3343 70.6349 35.4261 70.6719C35.518 70.7088 35.6198 70.7273 35.7315 70.7273C35.8565 70.7273 35.9673 70.7055 36.0639 70.6619C36.1605 70.6184 36.2363 70.5578 36.2912 70.4801C36.3461 70.4025 36.3736 70.3125 36.3736 70.2102C36.3736 70.1032 36.3471 70.009 36.294 69.9276C36.241 69.8452 36.1634 69.7808 36.0611 69.7344C35.9588 69.688 35.8338 69.6648 35.6861 69.6648H35.4531V69.3523H35.6861C35.8016 69.3523 35.9029 69.3314 35.9901 69.2898C36.0781 69.2481 36.1468 69.1894 36.196 69.1136C36.2462 69.0379 36.2713 68.9489 36.2713 68.8466C36.2713 68.7481 36.2495 68.6624 36.206 68.5895C36.1624 68.5166 36.1009 68.4598 36.0213 68.419C35.9427 68.3783 35.8499 68.358 35.7429 68.358C35.6425 68.358 35.5478 68.3764 35.4588 68.4134C35.3707 68.4493 35.2988 68.5019 35.2429 68.571C35.187 68.6392 35.1567 68.7216 35.152 68.8182H34.8111C34.8168 68.6657 34.8627 68.5322 34.9489 68.4176C35.035 68.3021 35.1477 68.2121 35.2869 68.1477C35.4271 68.0833 35.581 68.0511 35.7486 68.0511C35.9285 68.0511 36.0829 68.0876 36.2116 68.1605C36.3404 68.2325 36.4394 68.3277 36.5085 68.446C36.5777 68.5644 36.6122 68.6922 36.6122 68.8295C36.6122 68.9934 36.5691 69.133 36.483 69.2486C36.3977 69.3641 36.2817 69.4441 36.1349 69.4886V69.5114C36.3187 69.5417 36.4621 69.6198 36.5653 69.7457C36.6686 69.8707 36.7202 70.0256 36.7202 70.2102C36.7202 70.3684 36.6771 70.5104 36.5909 70.6364C36.5057 70.7614 36.3892 70.8598 36.2415 70.9318C36.0938 71.0038 35.9257 71.0398 35.7372 71.0398Z" fill="black"/>
<path d="M42.6665 70.4034V70.1136L43.945 68.0909H44.1552V68.5398H44.0131L43.0472 70.0682V70.0909H44.7688V70.4034H42.6665ZM44.0359 71V70.3153V70.1804V68.0909H44.3711V71H44.0359Z" fill="black"/>
<path d="M51.7766 71.0398C51.61 71.0398 51.4599 71.0066 51.3263 70.9403C51.1928 70.8741 51.0858 70.7831 51.0053 70.6676C50.9248 70.5521 50.8808 70.4205 50.8732 70.2727H51.2141C51.2274 70.4044 51.2871 70.5133 51.3931 70.5994C51.5001 70.6847 51.628 70.7273 51.7766 70.7273C51.896 70.7273 52.002 70.6993 52.0948 70.6435C52.1886 70.5876 52.262 70.5109 52.315 70.4134C52.369 70.3149 52.396 70.2036 52.396 70.0795C52.396 69.9527 52.368 69.8395 52.3121 69.7401C52.2572 69.6397 52.1815 69.5606 52.0849 69.5028C51.9883 69.4451 51.878 69.4157 51.7539 69.4148C51.6649 69.4138 51.5735 69.4276 51.4798 69.456C51.386 69.4834 51.3088 69.5189 51.2482 69.5625L50.9187 69.5227L51.0948 68.0909H52.6062V68.4034H51.3903L51.288 69.2614H51.305C51.3647 69.214 51.4395 69.1747 51.5295 69.1435C51.6194 69.1122 51.7132 69.0966 51.8107 69.0966C51.9888 69.0966 52.1474 69.1392 52.2866 69.2244C52.4267 69.3087 52.5366 69.4242 52.6161 69.571C52.6966 69.7178 52.7369 69.8854 52.7369 70.0739C52.7369 70.2595 52.6952 70.4252 52.6119 70.571C52.5295 70.7159 52.4158 70.8305 52.271 70.9148C52.1261 70.9981 51.9613 71.0398 51.7766 71.0398Z" fill="black"/>
<path d="M59.771 71.0398C59.6516 71.0379 59.5323 71.0152 59.413 70.9716C59.2937 70.928 59.1848 70.8546 59.0863 70.7514C58.9878 70.6473 58.9087 70.5066 58.8491 70.3295C58.7894 70.1515 58.7596 69.928 58.7596 69.6591C58.7596 69.4015 58.7837 69.1733 58.832 68.9744C58.8803 68.7746 58.9504 68.6065 59.0423 68.4702C59.1341 68.3329 59.2449 68.2287 59.3746 68.1577C59.5053 68.0866 59.6526 68.0511 59.8164 68.0511C59.9793 68.0511 60.1242 68.0838 60.2511 68.1491C60.3789 68.2135 60.4831 68.3035 60.5636 68.419C60.6441 68.5346 60.6961 68.6676 60.7198 68.8182H60.3732C60.341 68.6875 60.2785 68.5791 60.1857 68.4929C60.0929 68.4067 59.9698 68.3636 59.8164 68.3636C59.591 68.3636 59.4135 68.4616 59.2837 68.6577C59.1549 68.8537 59.0901 69.1288 59.0891 69.483H59.1119C59.1649 69.4025 59.2279 69.3338 59.3008 69.277C59.3746 69.2192 59.4561 69.1747 59.5451 69.1435C59.6341 69.1122 59.7283 69.0966 59.8278 69.0966C59.9944 69.0966 60.1469 69.1383 60.2852 69.2216C60.4234 69.304 60.5342 69.4181 60.6175 69.5639C60.7009 69.7088 60.7425 69.875 60.7425 70.0625C60.7425 70.2424 60.7023 70.4072 60.6218 70.5568C60.5413 70.7055 60.4281 70.8239 60.2823 70.9119C60.1374 70.9991 59.967 71.0417 59.771 71.0398ZM59.771 70.7273C59.8903 70.7273 59.9973 70.6974 60.092 70.6378C60.1876 70.5781 60.2629 70.4981 60.3178 70.3977C60.3737 70.2973 60.4016 70.1856 60.4016 70.0625C60.4016 69.9422 60.3746 69.8329 60.3207 69.7344C60.2676 69.6349 60.1942 69.5559 60.1005 69.4972C60.0077 69.4384 59.9016 69.4091 59.7823 69.4091C59.6924 69.4091 59.6085 69.4271 59.5309 69.4631C59.4532 69.4981 59.3851 69.5464 59.3263 69.608C59.2686 69.6695 59.2231 69.7401 59.19 69.8196C59.1568 69.8982 59.1403 69.9811 59.1403 70.0682C59.1403 70.1837 59.1673 70.2917 59.2212 70.392C59.2762 70.4924 59.351 70.5734 59.4457 70.6349C59.5413 70.6965 59.6497 70.7273 59.771 70.7273Z" fill="black"/>
<path d="M67.1069 71L68.408 68.4261V68.4034H66.908V68.0909H68.7717V68.4205L67.4762 71H67.1069Z" fill="black"/>
<path d="M75.7681 71.0398C75.573 71.0398 75.4007 71.0052 75.2511 70.9361C75.1024 70.866 74.9864 70.7699 74.9031 70.6477C74.8197 70.5246 74.7785 70.3845 74.7795 70.2273C74.7785 70.1042 74.8027 69.9905 74.8519 69.8864C74.9012 69.7812 74.9684 69.6937 75.0536 69.6236C75.1398 69.5526 75.2359 69.5076 75.342 69.4886V69.4716C75.2028 69.4356 75.092 69.3575 75.0096 69.2372C74.9272 69.116 74.8865 68.9782 74.8874 68.8239C74.8865 68.6761 74.9239 68.544 74.9996 68.4276C75.0754 68.3111 75.1796 68.2192 75.3121 68.152C75.4457 68.0848 75.5977 68.0511 75.7681 68.0511C75.9367 68.0511 76.0872 68.0848 76.2198 68.152C76.3524 68.2192 76.4566 68.3111 76.5323 68.4276C76.609 68.544 76.6478 68.6761 76.6488 68.8239C76.6478 68.9782 76.6057 69.116 76.5224 69.2372C76.44 69.3575 76.3306 69.4356 76.1942 69.4716V69.4886C76.2994 69.5076 76.3941 69.5526 76.4783 69.6236C76.5626 69.6937 76.6299 69.7812 76.68 69.8864C76.7302 69.9905 76.7558 70.1042 76.7567 70.2273C76.7558 70.3845 76.7132 70.5246 76.6289 70.6477C76.5456 70.7699 76.4296 70.866 76.2809 70.9361C76.1332 71.0052 75.9622 71.0398 75.7681 71.0398ZM75.7681 70.7273C75.8997 70.7273 76.0134 70.706 76.109 70.6634C76.2047 70.6207 76.2785 70.5606 76.3306 70.483C76.3827 70.4053 76.4092 70.3144 76.4102 70.2102C76.4092 70.1004 76.3808 70.0033 76.3249 69.919C76.2691 69.8348 76.1928 69.7685 76.0962 69.7202C76.0006 69.6719 75.8912 69.6477 75.7681 69.6477C75.6441 69.6477 75.5333 69.6719 75.4357 69.7202C75.3391 69.7685 75.2629 69.8348 75.207 69.919C75.1521 70.0033 75.1251 70.1004 75.1261 70.2102C75.1251 70.3144 75.1502 70.4053 75.2013 70.483C75.2534 70.5606 75.3278 70.6207 75.4244 70.6634C75.521 70.706 75.6355 70.7273 75.7681 70.7273ZM75.7681 69.3466C75.8723 69.3466 75.9646 69.3258 76.0451 69.2841C76.1265 69.2424 76.1905 69.1842 76.2369 69.1094C76.2833 69.0346 76.3069 68.947 76.3079 68.8466C76.3069 68.7481 76.2837 68.6624 76.2383 68.5895C76.1928 68.5156 76.1299 68.4588 76.0494 68.419C75.9689 68.3783 75.8751 68.358 75.7681 68.358C75.6592 68.358 75.564 68.3783 75.4826 68.419C75.4012 68.4588 75.3382 68.5156 75.2937 68.5895C75.2492 68.6624 75.2274 68.7481 75.2283 68.8466C75.2274 68.947 75.2496 69.0346 75.2951 69.1094C75.3415 69.1842 75.4054 69.2424 75.4869 69.2841C75.5683 69.3258 75.6621 69.3466 75.7681 69.3466Z" fill="black"/>
<path d="M83.7312 68.0511C83.8505 68.0521 83.9698 68.0748 84.0891 68.1193C84.2085 68.1638 84.3174 68.2377 84.4158 68.3409C84.5143 68.4432 84.5934 68.5829 84.6531 68.7599C84.7127 68.937 84.7425 69.1591 84.7425 69.4261C84.7425 69.6847 84.7179 69.9143 84.6687 70.1151C84.6204 70.3149 84.5503 70.4834 84.4585 70.6207C84.3675 70.758 84.2567 70.8622 84.1261 70.9332C83.9963 71.0043 83.8496 71.0398 83.6857 71.0398C83.5228 71.0398 83.3775 71.0076 83.2496 70.9432C83.1228 70.8778 83.0186 70.7874 82.9371 70.6719C82.8567 70.5554 82.805 70.4205 82.7823 70.267H83.1289C83.1602 70.4006 83.2222 70.5109 83.315 70.598C83.4087 70.6842 83.5323 70.7273 83.6857 70.7273C83.9102 70.7273 84.0872 70.6293 84.217 70.4332C84.3477 70.2372 84.413 69.9602 84.413 69.6023H84.3903C84.3372 69.6818 84.2743 69.7505 84.2013 69.8082C84.1284 69.866 84.0475 69.9105 83.9585 69.9418C83.8694 69.973 83.7747 69.9886 83.6744 69.9886C83.5077 69.9886 83.3548 69.9474 83.2156 69.8651C83.0773 69.7817 82.9665 69.6676 82.8832 69.5227C82.8008 69.3769 82.7596 69.2102 82.7596 69.0227C82.7596 68.8447 82.7994 68.6818 82.8789 68.5341C82.9594 68.3854 83.0721 68.267 83.217 68.179C83.3628 68.0909 83.5342 68.0483 83.7312 68.0511ZM83.7312 68.3636C83.6119 68.3636 83.5044 68.3935 83.4087 68.4531C83.314 68.5118 83.2388 68.5914 83.1829 68.6918C83.128 68.7912 83.1005 68.9015 83.1005 69.0227C83.1005 69.1439 83.127 69.2543 83.18 69.3537C83.234 69.4522 83.3074 69.5308 83.4002 69.5895C83.494 69.6473 83.6005 69.6761 83.7198 69.6761C83.8098 69.6761 83.8936 69.6586 83.9712 69.6236C84.0489 69.5876 84.1166 69.5388 84.1744 69.4773C84.2331 69.4148 84.279 69.3442 84.3121 69.2656C84.3453 69.1861 84.3619 69.1032 84.3619 69.017C84.3619 68.9034 84.3344 68.7969 84.2795 68.6974C84.2255 68.598 84.1507 68.5175 84.055 68.456C83.9603 68.3944 83.8524 68.3636 83.7312 68.3636Z" fill="black"/>
<path d="M90.9645 68.0909V71H90.6122V68.4602H90.5952L89.8849 68.9318V68.5739L90.6122 68.0909H90.9645ZM92.75 71.0398C92.536 71.0398 92.3537 70.9815 92.2031 70.8651C92.0526 70.7476 91.9375 70.5777 91.858 70.3551C91.7784 70.1316 91.7386 69.8617 91.7386 69.5455C91.7386 69.2311 91.7784 68.9626 91.858 68.7401C91.9384 68.5166 92.054 68.3461 92.2045 68.2287C92.3561 68.1103 92.5379 68.0511 92.75 68.0511C92.9621 68.0511 93.1435 68.1103 93.294 68.2287C93.4455 68.3461 93.5611 68.5166 93.6406 68.7401C93.7211 68.9626 93.7614 69.2311 93.7614 69.5455C93.7614 69.8617 93.7216 70.1316 93.642 70.3551C93.5625 70.5777 93.4474 70.7476 93.2969 70.8651C93.1463 70.9815 92.964 71.0398 92.75 71.0398ZM92.75 70.7273C92.9621 70.7273 93.1269 70.625 93.2443 70.4205C93.3617 70.2159 93.4205 69.9242 93.4205 69.5455C93.4205 69.2936 93.3935 69.0791 93.3395 68.902C93.2865 68.7249 93.2098 68.59 93.1094 68.4972C93.0099 68.4044 92.8902 68.358 92.75 68.358C92.5398 68.358 92.3755 68.4616 92.2571 68.669C92.1387 68.8755 92.0795 69.1676 92.0795 69.5455C92.0795 69.7973 92.1061 70.0114 92.1591 70.1875C92.2121 70.3636 92.2884 70.4976 92.3878 70.5895C92.4882 70.6813 92.6089 70.7273 92.75 70.7273Z" fill="black"/>
<path d="M99.6051 68.0909V71H99.2528V68.4602H99.2358L98.5256 68.9318V68.5739L99.2528 68.0909H99.6051ZM101.464 68.0909V71H101.112V68.4602H101.095L100.385 68.9318V68.5739L101.112 68.0909H101.464Z" fill="black"/>
<path d="M107.043 68.0909V71H106.69V68.4602H106.673L105.963 68.9318V68.5739L106.69 68.0909H107.043ZM107.879 71V70.7443L108.839 69.6932C108.952 69.5701 109.045 69.4631 109.118 69.3722C109.191 69.2803 109.245 69.1941 109.28 69.1136C109.316 69.0322 109.334 68.947 109.334 68.858C109.334 68.7557 109.309 68.6671 109.26 68.5923C109.212 68.5175 109.145 68.4598 109.061 68.419C108.977 68.3783 108.882 68.358 108.777 68.358C108.665 68.358 108.568 68.3812 108.484 68.4276C108.402 68.473 108.338 68.5369 108.293 68.6193C108.248 68.7017 108.226 68.7983 108.226 68.9091H107.891C107.891 68.7386 107.93 68.589 108.009 68.4602C108.087 68.3314 108.194 68.2311 108.33 68.1591C108.466 68.0871 108.619 68.0511 108.788 68.0511C108.959 68.0511 109.11 68.0871 109.241 68.1591C109.373 68.2311 109.476 68.3281 109.551 68.4503C109.626 68.5724 109.663 68.7083 109.663 68.858C109.663 68.965 109.644 69.0696 109.605 69.1719C109.567 69.2732 109.501 69.3864 109.406 69.5114C109.312 69.6354 109.182 69.7869 109.016 69.9659L108.362 70.6648V70.6875H109.714V71H107.879Z" fill="black"/>
<path d="M33.1629 104.04C32.9754 104.04 32.8082 104.008 32.6615 103.943C32.5156 103.879 32.3996 103.789 32.3134 103.675C32.2282 103.559 32.1818 103.425 32.1742 103.273H32.5322C32.5398 103.366 32.572 103.447 32.6288 103.516C32.6856 103.583 32.7599 103.635 32.8518 103.672C32.9437 103.709 33.0455 103.727 33.1572 103.727C33.2822 103.727 33.393 103.705 33.4896 103.662C33.5862 103.618 33.6619 103.558 33.7169 103.48C33.7718 103.402 33.7992 103.312 33.7992 103.21C33.7992 103.103 33.7727 103.009 33.7197 102.928C33.6667 102.845 33.589 102.781 33.4867 102.734C33.3845 102.688 33.2595 102.665 33.1117 102.665H32.8788V102.352H33.1117C33.2273 102.352 33.3286 102.331 33.4157 102.29C33.5038 102.248 33.5724 102.189 33.6217 102.114C33.6719 102.038 33.697 101.949 33.697 101.847C33.697 101.748 33.6752 101.662 33.6316 101.589C33.5881 101.517 33.5265 101.46 33.447 101.419C33.3684 101.378 33.2756 101.358 33.1686 101.358C33.0682 101.358 32.9735 101.376 32.8845 101.413C32.7964 101.449 32.7244 101.502 32.6686 101.571C32.6127 101.639 32.5824 101.722 32.5776 101.818H32.2367C32.2424 101.666 32.2883 101.532 32.3745 101.418C32.4607 101.302 32.5734 101.212 32.7126 101.148C32.8527 101.083 33.0066 101.051 33.1742 101.051C33.3542 101.051 33.5085 101.088 33.6373 101.161C33.7661 101.232 33.8651 101.328 33.9342 101.446C34.0033 101.564 34.0379 101.692 34.0379 101.83C34.0379 101.993 33.9948 102.133 33.9086 102.249C33.8234 102.364 33.7074 102.444 33.5606 102.489V102.511C33.7443 102.542 33.8878 102.62 33.991 102.746C34.0942 102.871 34.1458 103.026 34.1458 103.21C34.1458 103.368 34.1027 103.51 34.0166 103.636C33.9313 103.761 33.8149 103.86 33.6671 103.932C33.5194 104.004 33.3513 104.04 33.1629 104.04Z" fill="black"/>
<path d="M29.1909 102.055C29.1909 102.158 29.2121 102.25 29.2545 102.332C29.297 102.414 29.3515 102.476 29.4182 102.518C29.4848 102.561 29.55 102.595 29.6136 102.623C29.6773 102.65 29.7303 102.67 29.7727 102.682L29.8409 102.691L29.85 102.686L29.9091 102.5C29.9636 102.324 30.0136 102.174 30.0591 102.05C30.1045 101.926 30.1636 101.792 30.2364 101.65C30.3091 101.508 30.3818 101.392 30.4545 101.305C30.5273 101.217 30.6167 101.144 30.7227 101.086C30.8288 101.029 30.9394 101 31.0545 101C31.1909 101 31.3121 101.048 31.4182 101.145C31.5242 101.242 31.5788 101.406 31.5818 101.636C31.5818 101.873 31.5167 102.1 31.3864 102.318C31.2561 102.536 31.0773 102.714 30.85 102.85C30.6227 102.986 30.3833 103.055 30.1318 103.055C30.053 103.055 30.0136 103.058 30.0136 103.064L29.9818 103.227C29.9636 103.333 29.9424 103.45 29.9182 103.577C29.8939 103.705 29.8773 103.786 29.8682 103.823C29.853 103.895 29.8136 103.945 29.75 103.973C29.7167 103.991 29.6788 104 29.6364 104C29.5424 103.991 29.4955 103.941 29.4955 103.85C29.4955 103.82 29.5788 103.542 29.7455 103.018L29.7227 103.009C29.7076 103.003 29.6864 102.995 29.6591 102.986C29.6318 102.977 29.5985 102.964 29.5591 102.945C29.5197 102.927 29.4803 102.906 29.4409 102.882C29.4015 102.858 29.3606 102.83 29.3182 102.8C29.2758 102.77 29.2364 102.732 29.2 102.686C29.1636 102.641 29.1288 102.592 29.0955 102.541C29.0621 102.489 29.0394 102.43 29.0273 102.364C29.0152 102.297 29.0061 102.224 29 102.145C29 102 29.0394 101.817 29.1182 101.595C29.197 101.374 29.3076 101.192 29.45 101.05H29.5091C29.5727 101.05 29.6045 101.062 29.6045 101.086C29.6045 101.105 29.5924 101.126 29.5682 101.15C29.4439 101.295 29.3515 101.461 29.2909 101.645C29.2303 101.83 29.197 101.967 29.1909 102.055ZM31.3818 101.745C31.3818 101.618 31.3455 101.518 31.2727 101.445C31.2 101.373 31.103 101.335 30.9818 101.332C30.8333 101.332 30.6939 101.392 30.5636 101.514C30.4333 101.635 30.3258 101.803 30.2409 102.018C30.1985 102.121 30.1561 102.286 30.1136 102.514L30.0727 102.718C30.1273 102.724 30.1576 102.727 30.1636 102.727C30.5182 102.727 30.8091 102.623 31.0364 102.414C31.2636 102.205 31.3788 101.982 31.3818 101.745Z" fill="black"/>
<path d="M42.089 117.04C41.9223 117.04 41.7723 117.007 41.6387 116.94C41.5052 116.874 41.3982 116.783 41.3177 116.668C41.2372 116.552 41.1932 116.42 41.1856 116.273H41.5265C41.5398 116.404 41.5994 116.513 41.7055 116.599C41.8125 116.685 41.9403 116.727 42.089 116.727C42.2083 116.727 42.3144 116.699 42.4072 116.643C42.5009 116.588 42.5743 116.511 42.6274 116.413C42.6813 116.315 42.7083 116.204 42.7083 116.08C42.7083 115.953 42.6804 115.839 42.6245 115.74C42.5696 115.64 42.4938 115.561 42.3973 115.503C42.3007 115.445 42.1903 115.416 42.0663 115.415C41.9773 115.414 41.8859 115.428 41.7921 115.456C41.6984 115.483 41.6212 115.519 41.5606 115.562L41.2311 115.523L41.4072 114.091H42.9186V114.403H41.7026L41.6004 115.261H41.6174C41.6771 115.214 41.7519 115.175 41.8419 115.143C41.9318 115.112 42.0256 115.097 42.1231 115.097C42.3011 115.097 42.4598 115.139 42.599 115.224C42.7391 115.309 42.849 115.424 42.9285 115.571C43.009 115.718 43.0492 115.885 43.0492 116.074C43.0492 116.259 43.0076 116.425 42.9242 116.571C42.8419 116.716 42.7282 116.83 42.5833 116.915C42.4384 116.998 42.2737 117.04 42.089 117.04Z" fill="black"/>
<path d="M38.1909 115.055C38.1909 115.158 38.2121 115.25 38.2545 115.332C38.297 115.414 38.3515 115.476 38.4182 115.518C38.4848 115.561 38.55 115.595 38.6136 115.623C38.6773 115.65 38.7303 115.67 38.7727 115.682L38.8409 115.691L38.85 115.686L38.9091 115.5C38.9636 115.324 39.0136 115.174 39.0591 115.05C39.1045 114.926 39.1636 114.792 39.2364 114.65C39.3091 114.508 39.3818 114.392 39.4545 114.305C39.5273 114.217 39.6167 114.144 39.7227 114.086C39.8288 114.029 39.9394 114 40.0545 114C40.1909 114 40.3121 114.048 40.4182 114.145C40.5242 114.242 40.5788 114.406 40.5818 114.636C40.5818 114.873 40.5167 115.1 40.3864 115.318C40.2561 115.536 40.0773 115.714 39.85 115.85C39.6227 115.986 39.3833 116.055 39.1318 116.055C39.053 116.055 39.0136 116.058 39.0136 116.064L38.9818 116.227C38.9636 116.333 38.9424 116.45 38.9182 116.577C38.8939 116.705 38.8773 116.786 38.8682 116.823C38.853 116.895 38.8136 116.945 38.75 116.973C38.7167 116.991 38.6788 117 38.6364 117C38.5424 116.991 38.4955 116.941 38.4955 116.85C38.4955 116.82 38.5788 116.542 38.7455 116.018L38.7227 116.009C38.7076 116.003 38.6864 115.995 38.6591 115.986C38.6318 115.977 38.5985 115.964 38.5591 115.945C38.5197 115.927 38.4803 115.906 38.4409 115.882C38.4015 115.858 38.3606 115.83 38.3182 115.8C38.2758 115.77 38.2364 115.732 38.2 115.686C38.1636 115.641 38.1288 115.592 38.0955 115.541C38.0621 115.489 38.0394 115.43 38.0273 115.364C38.0152 115.297 38.0061 115.224 38 115.145C38 115 38.0394 114.817 38.1182 114.595C38.197 114.374 38.3076 114.192 38.45 114.05H38.5091C38.5727 114.05 38.6045 114.062 38.6045 114.086C38.6045 114.105 38.5924 114.126 38.5682 114.15C38.4439 114.295 38.3515 114.461 38.2909 114.645C38.2303 114.83 38.197 114.967 38.1909 115.055ZM40.3818 114.745C40.3818 114.618 40.3455 114.518 40.2727 114.445C40.2 114.373 40.103 114.335 39.9818 114.332C39.8333 114.332 39.6939 114.392 39.5636 114.514C39.4333 114.635 39.3258 114.803 39.2409 115.018C39.1985 115.121 39.1561 115.286 39.1136 115.514L39.0727 115.718C39.1273 115.724 39.1576 115.727 39.1636 115.727C39.5182 115.727 39.8091 115.623 40.0364 115.414C40.2636 115.205 40.3788 114.982 40.3818 114.745Z" fill="black"/>
<path d="M5.20265 63.0909V66H4.85038V63.4602H4.83333L4.1231 63.9318V63.5739L4.85038 63.0909H5.20265Z" fill="black"/>
<path d="M1.19091 64.0545C1.19091 64.1576 1.21212 64.25 1.25455 64.3318C1.29697 64.4136 1.35152 64.4758 1.41818 64.5182C1.48485 64.5606 1.55 64.5955 1.61364 64.6227C1.67727 64.65 1.7303 64.6697 1.77273 64.6818L1.84091 64.6909L1.85 64.6864L1.90909 64.5C1.96364 64.3242 2.01364 64.1742 2.05909 64.05C2.10455 63.9258 2.16364 63.7924 2.23636 63.65C2.30909 63.5076 2.38182 63.3924 2.45455 63.3045C2.52727 63.2167 2.61667 63.1439 2.72273 63.0864C2.82879 63.0288 2.93939 63 3.05455 63C3.19091 63 3.31212 63.0485 3.41818 63.1455C3.52424 63.2424 3.57879 63.4061 3.58182 63.6364C3.58182 63.8727 3.51667 64.1 3.38636 64.3182C3.25606 64.5364 3.07727 64.7136 2.85 64.85C2.62273 64.9864 2.38333 65.0545 2.13182 65.0545C2.05303 65.0545 2.01364 65.0576 2.01364 65.0636L1.98182 65.2273C1.96364 65.3333 1.94242 65.45 1.91818 65.5773C1.89394 65.7045 1.87727 65.7864 1.86818 65.8227C1.85303 65.8955 1.81364 65.9455 1.75 65.9727C1.71667 65.9909 1.67879 66 1.63636 66C1.54242 65.9909 1.49545 65.9409 1.49545 65.85C1.49545 65.8197 1.57879 65.5424 1.74545 65.0182L1.72273 65.0091C1.70758 65.003 1.68636 64.9955 1.65909 64.9864C1.63182 64.9773 1.59848 64.9636 1.55909 64.9455C1.5197 64.9273 1.4803 64.9061 1.44091 64.8818C1.40152 64.8576 1.36061 64.8303 1.31818 64.8C1.27576 64.7697 1.23636 64.7318 1.2 64.6864C1.16364 64.6409 1.12879 64.5924 1.09545 64.5409C1.06212 64.4894 1.03939 64.4303 1.02727 64.3636C1.01515 64.297 1.00606 64.2242 1 64.1455C1 64 1.03939 63.8167 1.11818 63.5955C1.19697 63.3742 1.30758 63.1924 1.45 63.05H1.50909C1.57273 63.05 1.60455 63.0621 1.60455 63.0864C1.60455 63.1045 1.59242 63.1258 1.56818 63.15C1.44394 63.2955 1.35152 63.4606 1.29091 63.6455C1.2303 63.8303 1.19697 63.9667 1.19091 64.0545ZM3.38182 63.7455C3.38182 63.6182 3.34545 63.5182 3.27273 63.4455C3.2 63.3727 3.10303 63.3348 2.98182 63.3318C2.83333 63.3318 2.69394 63.3924 2.56364 63.5136C2.43333 63.6348 2.32576 63.803 2.24091 64.0182C2.19848 64.1212 2.15606 64.2864 2.11364 64.5136L2.07273 64.7182C2.12727 64.7242 2.15758 64.7273 2.16364 64.7273C2.51818 64.7273 2.80909 64.6227 3.03636 64.4136C3.26364 64.2045 3.37879 63.9818 3.38182 63.7455Z" fill="black"/>
<path d="M70.2026 57.0909V60H69.8504V57.4602H69.8333L69.1231 57.9318V57.5739L69.8504 57.0909H70.2026Z" fill="black"/>
<path d="M66.1909 58.0545C66.1909 58.1576 66.2121 58.25 66.2545 58.3318C66.297 58.4136 66.3515 58.4758 66.4182 58.5182C66.4848 58.5606 66.55 58.5955 66.6136 58.6227C66.6773 58.65 66.7303 58.6697 66.7727 58.6818L66.8409 58.6909L66.85 58.6864L66.9091 58.5C66.9636 58.3242 67.0136 58.1742 67.0591 58.05C67.1045 57.9258 67.1636 57.7924 67.2364 57.65C67.3091 57.5076 67.3818 57.3924 67.4545 57.3045C67.5273 57.2167 67.6167 57.1439 67.7227 57.0864C67.8288 57.0288 67.9394 57 68.0545 57C68.1909 57 68.3121 57.0485 68.4182 57.1455C68.5242 57.2424 68.5788 57.4061 68.5818 57.6364C68.5818 57.8727 68.5167 58.1 68.3864 58.3182C68.2561 58.5364 68.0773 58.7136 67.85 58.85C67.6227 58.9864 67.3833 59.0545 67.1318 59.0545C67.053 59.0545 67.0136 59.0576 67.0136 59.0636L66.9818 59.2273C66.9636 59.3333 66.9424 59.45 66.9182 59.5773C66.8939 59.7045 66.8773 59.7864 66.8682 59.8227C66.853 59.8955 66.8136 59.9455 66.75 59.9727C66.7167 59.9909 66.6788 60 66.6364 60C66.5424 59.9909 66.4955 59.9409 66.4955 59.85C66.4955 59.8197 66.5788 59.5424 66.7455 59.0182L66.7227 59.0091C66.7076 59.003 66.6864 58.9955 66.6591 58.9864C66.6318 58.9773 66.5985 58.9636 66.5591 58.9455C66.5197 58.9273 66.4803 58.9061 66.4409 58.8818C66.4015 58.8576 66.3606 58.8303 66.3182 58.8C66.2758 58.7697 66.2364 58.7318 66.2 58.6864C66.1636 58.6409 66.1288 58.5924 66.0955 58.5409C66.0621 58.4894 66.0394 58.4303 66.0273 58.3636C66.0152 58.297 66.0061 58.2242 66 58.1455C66 58 66.0394 57.8167 66.1182 57.5955C66.197 57.3742 66.3076 57.1924 66.45 57.05H66.5091C66.5727 57.05 66.6045 57.0621 66.6045 57.0864C66.6045 57.1045 66.5924 57.1258 66.5682 57.15C66.4439 57.2955 66.3515 57.4606 66.2909 57.6455C66.2303 57.8303 66.197 57.9667 66.1909 58.0545ZM68.3818 57.7455C68.3818 57.6182 68.3455 57.5182 68.2727 57.4455C68.2 57.3727 68.103 57.3348 67.9818 57.3318C67.8333 57.3318 67.6939 57.3924 67.5636 57.5136C67.4333 57.6348 67.3258 57.803 67.2409 58.0182C67.1985 58.1212 67.1561 58.2864 67.1136 58.5136L67.0727 58.7182C67.1273 58.7242 67.1576 58.7273 67.1636 58.7273C67.5182 58.7273 67.8091 58.6227 68.0364 58.4136C68.2636 58.2045 68.3788 57.9818 68.3818 57.7455Z" fill="black"/>
<path d="M19.1799 101V100.744L20.1401 99.6932C20.2528 99.5701 20.3456 99.4631 20.4186 99.3722C20.4915 99.2803 20.5455 99.1941 20.5805 99.1136C20.6165 99.0322 20.6345 98.947 20.6345 98.858C20.6345 98.7557 20.6098 98.6671 20.5606 98.5923C20.5123 98.5175 20.446 98.4598 20.3617 98.419C20.2775 98.3783 20.1828 98.358 20.0776 98.358C19.9659 98.358 19.8684 98.3812 19.785 98.4276C19.7026 98.473 19.6387 98.5369 19.5933 98.6193C19.5488 98.7017 19.5265 98.7983 19.5265 98.9091H19.1913C19.1913 98.7386 19.2306 98.589 19.3092 98.4602C19.3878 98.3314 19.4948 98.2311 19.6302 98.1591C19.7666 98.0871 19.9195 98.0511 20.089 98.0511C20.2595 98.0511 20.4105 98.0871 20.5421 98.1591C20.6738 98.2311 20.777 98.3281 20.8518 98.4503C20.9266 98.5724 20.964 98.7083 20.964 98.858C20.964 98.965 20.9446 99.0696 20.9058 99.1719C20.8679 99.2732 20.8016 99.3864 20.7069 99.5114C20.6132 99.6354 20.483 99.7869 20.3163 99.9659L19.6629 100.665V100.688H21.0151V101H19.1799Z" fill="black"/>
<path d="M16.1909 99.0545C16.1909 99.1576 16.2121 99.25 16.2545 99.3318C16.297 99.4136 16.3515 99.4758 16.4182 99.5182C16.4848 99.5606 16.55 99.5955 16.6136 99.6227C16.6773 99.65 16.7303 99.6697 16.7727 99.6818L16.8409 99.6909L16.85 99.6864L16.9091 99.5C16.9636 99.3242 17.0136 99.1742 17.0591 99.05C17.1045 98.9258 17.1636 98.7924 17.2364 98.65C17.3091 98.5076 17.3818 98.3924 17.4545 98.3045C17.5273 98.2167 17.6167 98.1439 17.7227 98.0864C17.8288 98.0288 17.9394 98 18.0545 98C18.1909 98 18.3121 98.0485 18.4182 98.1455C18.5242 98.2424 18.5788 98.4061 18.5818 98.6364C18.5818 98.8727 18.5167 99.1 18.3864 99.3182C18.2561 99.5364 18.0773 99.7136 17.85 99.85C17.6227 99.9864 17.3833 100.055 17.1318 100.055C17.053 100.055 17.0136 100.058 17.0136 100.064L16.9818 100.227C16.9636 100.333 16.9424 100.45 16.9182 100.577C16.8939 100.705 16.8773 100.786 16.8682 100.823C16.853 100.895 16.8136 100.945 16.75 100.973C16.7167 100.991 16.6788 101 16.6364 101C16.5424 100.991 16.4955 100.941 16.4955 100.85C16.4955 100.82 16.5788 100.542 16.7455 100.018L16.7227 100.009C16.7076 100.003 16.6864 99.9955 16.6591 99.9864C16.6318 99.9773 16.5985 99.9636 16.5591 99.9455C16.5197 99.9273 16.4803 99.9061 16.4409 99.8818C16.4015 99.8576 16.3606 99.8303 16.3182 99.8C16.2758 99.7697 16.2364 99.7318 16.2 99.6864C16.1636 99.6409 16.1288 99.5924 16.0955 99.5409C16.0621 99.4894 16.0394 99.4303 16.0273 99.3636C16.0152 99.297 16.0061 99.2242 16 99.1455C16 99 16.0394 98.8167 16.1182 98.5955C16.197 98.3742 16.3076 98.1924 16.45 98.05H16.5091C16.5727 98.05 16.6045 98.0621 16.6045 98.0864C16.6045 98.1045 16.5924 98.1258 16.5682 98.15C16.4439 98.2955 16.3515 98.4606 16.2909 98.6455C16.2303 98.8303 16.197 98.9667 16.1909 99.0545ZM18.3818 98.7455C18.3818 98.6182 18.3455 98.5182 18.2727 98.4455C18.2 98.3727 18.103 98.3348 17.9818 98.3318C17.8333 98.3318 17.6939 98.3924 17.5636 98.5136C17.4333 98.6348 17.3258 98.803 17.2409 99.0182C17.1985 99.1212 17.1561 99.2864 17.1136 99.5136L17.0727 99.7182C17.1273 99.7242 17.1576 99.7273 17.1636 99.7273C17.5182 99.7273 17.8091 99.6227 18.0364 99.4136C18.2636 99.2045 18.3788 98.9818 18.3818 98.7455Z" fill="black"/>
<path d="M37.1117 12.4034V12.1136L38.3901 10.0909H38.6004V10.5398H38.4583L37.4924 12.0682V12.0909H39.214V12.4034H37.1117ZM38.4811 13V12.3153V12.1804V10.0909H38.8163V13H38.4811Z" fill="black"/>
<path d="M34.1909 11.0545C34.1909 11.1576 34.2121 11.25 34.2545 11.3318C34.297 11.4136 34.3515 11.4758 34.4182 11.5182C34.4848 11.5606 34.55 11.5955 34.6136 11.6227C34.6773 11.65 34.7303 11.6697 34.7727 11.6818L34.8409 11.6909L34.85 11.6864L34.9091 11.5C34.9636 11.3242 35.0136 11.1742 35.0591 11.05C35.1045 10.9258 35.1636 10.7924 35.2364 10.65C35.3091 10.5076 35.3818 10.3924 35.4545 10.3045C35.5273 10.2167 35.6167 10.1439 35.7227 10.0864C35.8288 10.0288 35.9394 10 36.0545 10C36.1909 10 36.3121 10.0485 36.4182 10.1455C36.5242 10.2424 36.5788 10.4061 36.5818 10.6364C36.5818 10.8727 36.5167 11.1 36.3864 11.3182C36.2561 11.5364 36.0773 11.7136 35.85 11.85C35.6227 11.9864 35.3833 12.0545 35.1318 12.0545C35.053 12.0545 35.0136 12.0576 35.0136 12.0636L34.9818 12.2273C34.9636 12.3333 34.9424 12.45 34.9182 12.5773C34.8939 12.7045 34.8773 12.7864 34.8682 12.8227C34.853 12.8955 34.8136 12.9455 34.75 12.9727C34.7167 12.9909 34.6788 13 34.6364 13C34.5424 12.9909 34.4955 12.9409 34.4955 12.85C34.4955 12.8197 34.5788 12.5424 34.7455 12.0182L34.7227 12.0091C34.7076 12.003 34.6864 11.9955 34.6591 11.9864C34.6318 11.9773 34.5985 11.9636 34.5591 11.9455C34.5197 11.9273 34.4803 11.9061 34.4409 11.8818C34.4015 11.8576 34.3606 11.8303 34.3182 11.8C34.2758 11.7697 34.2364 11.7318 34.2 11.6864C34.1636 11.6409 34.1288 11.5924 34.0955 11.5409C34.0621 11.4894 34.0394 11.4303 34.0273 11.3636C34.0152 11.297 34.0061 11.2242 34 11.1455C34 11 34.0394 10.8167 34.1182 10.5955C34.197 10.3742 34.3076 10.1924 34.45 10.05H34.5091C34.5727 10.05 34.6045 10.0621 34.6045 10.0864C34.6045 10.1045 34.5924 10.1258 34.5682 10.15C34.4439 10.2955 34.3515 10.4606 34.2909 10.6455C34.2303 10.8303 34.197 10.9667 34.1909 11.0545ZM36.3818 10.7455C36.3818 10.6182 36.3455 10.5182 36.2727 10.4455C36.2 10.3727 36.103 10.3348 35.9818 10.3318C35.8333 10.3318 35.6939 10.3924 35.5636 10.5136C35.4333 10.6348 35.3258 10.803 35.2409 11.0182C35.1985 11.1212 35.1561 11.2864 35.1136 11.5136L35.0727 11.7182C35.1273 11.7242 35.1576 11.7273 35.1636 11.7273C35.5182 11.7273 35.8091 11.6227 36.0364 11.4136C36.2636 11.2045 36.3788 10.9818 36.3818 10.7455Z" fill="black"/>
<path d="M23.3523 113V110.091H24.3352C24.5625 110.091 24.7491 110.13 24.8949 110.207C25.0407 110.284 25.1487 110.39 25.2188 110.524C25.2888 110.659 25.3239 110.812 25.3239 110.983C25.3239 111.154 25.2888 111.306 25.2188 111.439C25.1487 111.571 25.0412 111.676 24.8963 111.751C24.7514 111.826 24.5663 111.864 24.3409 111.864H23.5455V111.545H24.3295C24.4848 111.545 24.6098 111.523 24.7045 111.477C24.8002 111.432 24.8693 111.367 24.9119 111.284C24.9555 111.2 24.9773 111.099 24.9773 110.983C24.9773 110.866 24.9555 110.765 24.9119 110.678C24.8684 110.59 24.7988 110.523 24.7031 110.476C24.6075 110.428 24.4811 110.403 24.3239 110.403H23.7045V113H23.3523ZM24.7216 111.693L25.4375 113H25.0284L24.3239 111.693H24.7216ZM26.8825 110.091V113H26.5302V110.46H26.5131L25.8029 110.932V110.574L26.5302 110.091H26.8825Z" fill="black"/>
<path d="M55.3523 97V94.0909H56.3352C56.5625 94.0909 56.7491 94.1297 56.8949 94.2074C57.0407 94.2841 57.1487 94.3897 57.2188 94.5241C57.2888 94.6586 57.3239 94.8116 57.3239 94.983C57.3239 95.1544 57.2888 95.3063 57.2188 95.4389C57.1487 95.5715 57.0412 95.6757 56.8963 95.7514C56.7514 95.8262 56.5663 95.8636 56.3409 95.8636H55.5455V95.5455H56.3295C56.4848 95.5455 56.6098 95.5227 56.7045 95.4773C56.8002 95.4318 56.8693 95.3674 56.9119 95.2841C56.9555 95.1998 56.9773 95.0994 56.9773 94.983C56.9773 94.8665 56.9555 94.7647 56.9119 94.6776C56.8684 94.5904 56.7988 94.5232 56.7031 94.4759C56.6075 94.4276 56.4811 94.4034 56.3239 94.4034H55.7045V97H55.3523ZM56.7216 95.6932L57.4375 97H57.0284L56.3239 95.6932H56.7216ZM58.8427 97.0398C58.6552 97.0398 58.488 97.0076 58.3413 96.9432C58.1954 96.8788 58.0794 96.7893 57.9933 96.6747C57.908 96.5592 57.8616 96.4252 57.854 96.2727H58.212C58.2196 96.3665 58.2518 96.4474 58.3086 96.5156C58.3654 96.5829 58.4397 96.6349 58.5316 96.6719C58.6235 96.7088 58.7253 96.7273 58.837 96.7273C58.962 96.7273 59.0728 96.7055 59.1694 96.6619C59.266 96.6184 59.3417 96.5578 59.3967 96.4801C59.4516 96.4025 59.479 96.3125 59.479 96.2102C59.479 96.1032 59.4525 96.009 59.3995 95.9276C59.3465 95.8452 59.2688 95.7808 59.1665 95.7344C59.0643 95.688 58.9393 95.6648 58.7915 95.6648H58.5586V95.3523H58.7915C58.9071 95.3523 59.0084 95.3314 59.0955 95.2898C59.1836 95.2481 59.2522 95.1894 59.3015 95.1136C59.3517 95.0379 59.3768 94.9489 59.3768 94.8466C59.3768 94.7481 59.355 94.6624 59.3114 94.5895C59.2679 94.5166 59.2063 94.4598 59.1268 94.419C59.0482 94.3783 58.9554 94.358 58.8484 94.358C58.748 94.358 58.6533 94.3764 58.5643 94.4134C58.4762 94.4493 58.4042 94.5019 58.3484 94.571C58.2925 94.6392 58.2622 94.7216 58.2575 94.8182H57.9165C57.9222 94.6657 57.9682 94.5322 58.0543 94.4176C58.1405 94.3021 58.2532 94.2121 58.3924 94.1477C58.5326 94.0833 58.6864 94.0511 58.854 94.0511C59.034 94.0511 59.1883 94.0876 59.3171 94.1605C59.4459 94.2325 59.5449 94.3277 59.614 94.446C59.6831 94.5644 59.7177 94.6922 59.7177 94.8295C59.7177 94.9934 59.6746 95.133 59.5884 95.2486C59.5032 95.3641 59.3872 95.4441 59.2404 95.4886V95.5114C59.4241 95.5417 59.5676 95.6198 59.6708 95.7457C59.774 95.8707 59.8256 96.0256 59.8256 96.2102C59.8256 96.3684 59.7826 96.5104 59.6964 96.6364C59.6112 96.7614 59.4947 96.8598 59.3469 96.9318C59.1992 97.0038 59.0311 97.0398 58.8427 97.0398Z" fill="black"/>
</svg>
