<svg width="127" height="75" viewBox="0 0 127 75" fill="none" xmlns="http://www.w3.org/2000/svg">
<rect width="127" height="75" rx="6" fill="white"/>
<path fill-rule="evenodd" clip-rule="evenodd" d="M39.5 19C39.5 21.4853 37.4853 23.5 35 23.5C32.5986 23.5 30.6365 21.619 30.5068 19.25H31H31.25H36.8964L35.8232 20.3232L36.1768 20.6768L37.6768 19.1768L37.8536 19L37.6768 18.8232L36.1768 17.3232L35.8232 17.6768L36.8964 18.75H31.25H31H30.5068C30.6365 16.381 32.5986 14.5 35 14.5C37.4853 14.5 39.5 16.5147 39.5 19ZM35 24C32.3224 24 30.1364 21.8953 30.0061 19.25H23H22.75V18.75H23H30.0061C30.1364 16.1047 32.3224 14 35 14C37.6776 14 39.8636 16.1047 39.9939 18.75H40H47H47.25V19.25H47H40H39.9939C39.8636 21.8953 37.6776 24 35 24Z" fill="black"/>
<path fill-rule="evenodd" clip-rule="evenodd" d="M16.5 26.5L16.5 35.5L19.5 35.5L19.5 26.5L16.5 26.5ZM16 35.5L16 36L16.5 36L17.75 36L17.75 43L17.75 43.25L18.25 43.25L18.25 43L18.25 36L19.5 36L20 36L20 35.5L20 26.5L20 26L19.5 26L18.25 26L18.25 19L18.25 18.75L17.75 18.75L17.75 19L17.75 26L16.5 26L16 26L16 26.5L16 35.5Z" fill="black"/>
<path fill-rule="evenodd" clip-rule="evenodd" d="M49.5 26.5L49.5 35.5L52.5 35.5L52.5 26.5L49.5 26.5ZM49 35.5L49 36L49.5 36L50.75 36L50.75 43L50.75 43.25L51.25 43.25L51.25 43L51.25 36L52.5 36L53 36L53 35.5L53 26.5L53 26L52.5 26L51.25 26L51.25 19L51.25 18.75L50.75 18.75L50.75 19L50.75 26L49.5 26L49 26L49 26.5L49 35.5Z" fill="black"/>
<path fill-rule="evenodd" clip-rule="evenodd" d="M83.5 26.5L83.5 35.5L86.5 35.5L86.5 26.5L83.5 26.5ZM83 35.5L83 36L83.5 36L84.75 36L84.75 43L84.75 43.25L85.25 43.25L85.25 43L85.25 36L86.5 36L87 36L87 35.5L87 26.5L87 26L86.5 26L85.25 26L85.25 19L85.25 18.75L84.75 18.75L84.75 19L84.75 26L83.5 26L83 26L83 26.5L83 35.5Z" fill="black"/>
<path fill-rule="evenodd" clip-rule="evenodd" d="M106.5 26.5L106.5 35.5L109.5 35.5L109.5 26.5L106.5 26.5ZM106 35.5L106 36L106.5 36L107.75 36L107.75 43L107.75 43.25L108.25 43.25L108.25 43L108.25 36L109.5 36L110 36L110 35.5L110 26.5L110 26L109.5 26L108.25 26L108.25 19L108.25 18.75L107.75 18.75L107.75 19L107.75 26L106.5 26L106 26L106 26.5L106 35.5Z" fill="black"/>
<path fill-rule="evenodd" clip-rule="evenodd" d="M72.5 17.5L63.5 17.5V20.5L72.5 20.5V17.5ZM63.5 17H63V17.5V18.75H56H55.75V19.25H56H63V20.5V21H63.5L72.5 21H73V20.5V19.25H80H80.25V18.75H80H73V17.5V17H72.5L63.5 17Z" fill="black"/>
<path fill-rule="evenodd" clip-rule="evenodd" d="M18 52.5C15.5147 52.5 13.5 50.4853 13.5 48C13.5 45.5986 15.381 43.6365 17.75 43.5068L17.75 44L17.75 44.25L17.75 49.8964L16.6768 48.8232L16.3232 49.1768L17.8232 50.6768L18 50.8536L18.1768 50.6768L19.6768 49.1768L19.3232 48.8232L18.25 49.8964L18.25 44.25L18.25 44L18.25 43.5068C20.619 43.6365 22.5 45.5986 22.5 48C22.5 50.4853 20.4853 52.5 18 52.5ZM13 48C13 45.3224 15.1047 43.1364 17.75 43.0061L17.75 36L17.75 35.75L18.25 35.75L18.25 36L18.25 43.0061C20.8953 43.1364 23 45.3224 23 48C23 50.6776 20.8953 52.8636 18.25 52.9939L18.25 53L18.25 60L18.25 60.25L17.75 60.25L17.75 60L17.75 53L17.75 52.9939C15.1047 52.8636 13 50.6776 13 48Z" fill="black"/>
<path fill-rule="evenodd" clip-rule="evenodd" d="M51 52.5C48.5147 52.5 46.5 50.4853 46.5 48C46.5 45.5986 48.381 43.6365 50.75 43.5068L50.75 44L50.75 44.25L50.75 49.8964L49.6768 48.8232L49.3232 49.1768L50.8232 50.6768L51 50.8536L51.1768 50.6768L52.6768 49.1768L52.3232 48.8232L51.25 49.8964L51.25 44.25L51.25 44L51.25 43.5068C53.619 43.6365 55.5 45.5986 55.5 48C55.5 50.4853 53.4853 52.5 51 52.5ZM46 48C46 45.3224 48.1047 43.1364 50.75 43.0061L50.75 36L50.75 35.75L51.25 35.75L51.25 36L51.25 43.0061C53.8953 43.1364 56 45.3224 56 48C56 50.6776 53.8953 52.8636 51.25 52.9939L51.25 53L51.25 60L51.25 60.25L50.75 60.25L50.75 60L50.75 53L50.75 52.9939C48.1047 52.8636 46 50.6776 46 48Z" fill="black"/>
<path fill-rule="evenodd" clip-rule="evenodd" d="M85 43.5C87.4853 43.5 89.5 45.5147 89.5 48C89.5 50.4014 87.619 52.3635 85.25 52.4932L85.25 52L85.25 51.75L85.25 46.1036L86.3232 47.1768L86.6768 46.8232L85.1768 45.3232L85 45.1464L84.8232 45.3232L83.3232 46.8232L83.6768 47.1768L84.75 46.1036L84.75 51.75L84.75 52L84.75 52.4932C82.381 52.3635 80.5 50.4014 80.5 48C80.5 45.5147 82.5147 43.5 85 43.5ZM90 48C90 50.6776 87.8953 52.8636 85.25 52.9939L85.25 60L85.25 60.25L84.75 60.25L84.75 60L84.75 52.9939C82.1047 52.8636 80 50.6776 80 48C80 45.3224 82.1047 43.1364 84.75 43.0061L84.75 43L84.75 36L84.75 35.75L85.25 35.75L85.25 36L85.25 43L85.25 43.0061C87.8953 43.1364 90 45.3224 90 48Z" fill="black"/>
<path d="M18 60H95.3077H108V43" stroke="black" stroke-width="0.5"/>
<path d="M108 19H80" stroke="black" stroke-width="0.5"/>
<path d="M47 19H56" stroke="black" stroke-width="0.5"/>
<path d="M18 19H23.5" stroke="black" stroke-width="0.5"/>
<circle cx="68" cy="60" r="1" fill="black"/>
<circle cx="51" cy="19" r="1" fill="black"/>
<circle cx="85" cy="19" r="1" fill="black"/>
<path d="M25.3523 49V46.0909H27.108V46.4034H25.7045V47.3864H27.017V47.6989H25.7045V48.6875H27.1307V49H25.3523ZM28.7145 46.0909V49H28.3622V46.4602H28.3452L27.6349 46.9318V46.5739L28.3622 46.0909H28.7145Z" fill="black"/>
<path d="M32.3523 12V9.09091H34.108V9.40341H32.7045V10.3864H34.017V10.6989H32.7045V11.6875H34.1307V12H32.3523ZM34.6918 12V11.7443L35.652 10.6932C35.7647 10.5701 35.8575 10.4631 35.9304 10.3722C36.0033 10.2803 36.0573 10.1941 36.0923 10.1136C36.1283 10.0322 36.1463 9.94697 36.1463 9.85795C36.1463 9.75568 36.1217 9.66714 36.0724 9.59233C36.0241 9.51752 35.9579 9.45975 35.8736 9.41903C35.7893 9.37831 35.6946 9.35795 35.5895 9.35795C35.4777 9.35795 35.3802 9.38116 35.2969 9.42756C35.2145 9.47301 35.1506 9.53693 35.1051 9.61932C35.0606 9.7017 35.0384 9.7983 35.0384 9.90909H34.7031C34.7031 9.73864 34.7424 9.58902 34.821 9.46023C34.8996 9.33144 35.0066 9.23106 35.142 9.15909C35.2784 9.08712 35.4313 9.05114 35.6009 9.05114C35.7713 9.05114 35.9223 9.08712 36.054 9.15909C36.1856 9.23106 36.2888 9.32812 36.3636 9.45028C36.4384 9.57244 36.4759 9.70833 36.4759 9.85795C36.4759 9.96496 36.4564 10.0696 36.4176 10.1719C36.3797 10.2732 36.3134 10.3864 36.2188 10.5114C36.125 10.6354 35.9948 10.7869 35.8281 10.9659L35.1747 11.6648V11.6875H36.527V12H34.6918Z" fill="black"/>
<path d="M58.3523 50V47.0909H60.108V47.4034H58.7045V48.3864H60.017V48.6989H58.7045V49.6875H60.1307V50H58.3523ZM61.6747 50.0398C61.4872 50.0398 61.3201 50.0076 61.1733 49.9432C61.0275 49.8788 60.9115 49.7893 60.8253 49.6747C60.7401 49.5592 60.6937 49.4252 60.6861 49.2727H61.044C61.0516 49.3665 61.0838 49.4474 61.1406 49.5156C61.1974 49.5829 61.2718 49.6349 61.3636 49.6719C61.4555 49.7088 61.5573 49.7273 61.669 49.7273C61.794 49.7273 61.9048 49.7055 62.0014 49.6619C62.098 49.6184 62.1738 49.5578 62.2287 49.4801C62.2836 49.4025 62.3111 49.3125 62.3111 49.2102C62.3111 49.1032 62.2846 49.009 62.2315 48.9276C62.1785 48.8452 62.1009 48.7808 61.9986 48.7344C61.8963 48.688 61.7713 48.6648 61.6236 48.6648H61.3906V48.3523H61.6236C61.7391 48.3523 61.8404 48.3314 61.9276 48.2898C62.0156 48.2481 62.0843 48.1894 62.1335 48.1136C62.1837 48.0379 62.2088 47.9489 62.2088 47.8466C62.2088 47.7481 62.187 47.6624 62.1435 47.5895C62.0999 47.5166 62.0384 47.4598 61.9588 47.419C61.8802 47.3783 61.7874 47.358 61.6804 47.358C61.58 47.358 61.4853 47.3764 61.3963 47.4134C61.3082 47.4493 61.2363 47.5019 61.1804 47.571C61.1245 47.6392 61.0942 47.7216 61.0895 47.8182H60.7486C60.7543 47.6657 60.8002 47.5322 60.8864 47.4176C60.9725 47.3021 61.0852 47.2121 61.2244 47.1477C61.3646 47.0833 61.5185 47.0511 61.6861 47.0511C61.866 47.0511 62.0204 47.0876 62.1491 47.1605C62.2779 47.2325 62.3769 47.3277 62.446 47.446C62.5152 47.5644 62.5497 47.6922 62.5497 47.8295C62.5497 47.9934 62.5066 48.133 62.4205 48.2486C62.3352 48.3641 62.2192 48.4441 62.0724 48.4886V48.5114C62.2562 48.5417 62.3996 48.6198 62.5028 48.7457C62.6061 48.8707 62.6577 49.0256 62.6577 49.2102C62.6577 49.3684 62.6146 49.5104 62.5284 49.6364C62.4432 49.7614 62.3267 49.8598 62.179 49.9318C62.0313 50.0038 61.8632 50.0398 61.6747 50.0398Z" fill="black"/>
<path d="M73.3523 50V47.0909H75.108V47.4034H73.7045V48.3864H75.017V48.6989H73.7045V49.6875H75.1307V50H73.3523ZM75.6236 49.4034V49.1136L76.902 47.0909H77.1122V47.5398H76.9702L76.0043 49.0682V49.0909H77.7259V49.4034H75.6236ZM76.9929 50V49.3153V49.1804V47.0909H77.3281V50H76.9929Z" fill="black"/>
<path d="M22.3523 32V29.0909H23.3352C23.5625 29.0909 23.7491 29.1297 23.8949 29.2074C24.0407 29.2841 24.1487 29.3897 24.2188 29.5241C24.2888 29.6586 24.3239 29.8116 24.3239 29.983C24.3239 30.1544 24.2888 30.3063 24.2188 30.4389C24.1487 30.5715 24.0412 30.6757 23.8963 30.7514C23.7514 30.8262 23.5663 30.8636 23.3409 30.8636H22.5455V30.5455H23.3295C23.4848 30.5455 23.6098 30.5227 23.7045 30.4773C23.8002 30.4318 23.8693 30.3674 23.9119 30.2841C23.9555 30.1998 23.9773 30.0994 23.9773 29.983C23.9773 29.8665 23.9555 29.7647 23.9119 29.6776C23.8684 29.5904 23.7988 29.5232 23.7031 29.4759C23.6075 29.4276 23.4811 29.4034 23.3239 29.4034H22.7045V32H22.3523ZM23.7216 30.6932L24.4375 32H24.0284L23.3239 30.6932H23.7216ZM25.8825 29.0909V32H25.5302V29.4602H25.5131L24.8029 29.9318V29.5739L25.5302 29.0909H25.8825Z" fill="black"/>
<path d="M65.3523 14V11.0909H66.3352C66.5625 11.0909 66.7491 11.1297 66.8949 11.2074C67.0407 11.2841 67.1487 11.3897 67.2188 11.5241C67.2888 11.6586 67.3239 11.8116 67.3239 11.983C67.3239 12.1544 67.2888 12.3063 67.2188 12.4389C67.1487 12.5715 67.0412 12.6757 66.8963 12.7514C66.7514 12.8262 66.5663 12.8636 66.3409 12.8636H65.5455V12.5455H66.3295C66.4848 12.5455 66.6098 12.5227 66.7045 12.4773C66.8002 12.4318 66.8693 12.3674 66.9119 12.2841C66.9555 12.1998 66.9773 12.0994 66.9773 11.983C66.9773 11.8665 66.9555 11.7647 66.9119 11.6776C66.8684 11.5904 66.7988 11.5232 66.7031 11.4759C66.6075 11.4276 66.4811 11.4034 66.3239 11.4034H65.7045V14H65.3523ZM66.7216 12.6932L67.4375 14H67.0284L66.3239 12.6932H66.7216ZM68.8256 14.0398C68.7063 14.0379 68.587 14.0152 68.4677 13.9716C68.3484 13.928 68.2395 13.8546 68.141 13.7514C68.0425 13.6473 67.9634 13.5066 67.9038 13.3295C67.8441 13.1515 67.8143 12.928 67.8143 12.6591C67.8143 12.4015 67.8384 12.1733 67.8867 11.9744C67.935 11.7746 68.0051 11.6065 68.0969 11.4702C68.1888 11.3329 68.2996 11.2287 68.4293 11.1577C68.56 11.0866 68.7073 11.0511 68.8711 11.0511C69.034 11.0511 69.1789 11.0838 69.3058 11.1491C69.4336 11.2135 69.5378 11.3035 69.6183 11.419C69.6987 11.5346 69.7508 11.6676 69.7745 11.8182H69.4279C69.3957 11.6875 69.3332 11.5791 69.2404 11.4929C69.1476 11.4067 69.0245 11.3636 68.8711 11.3636C68.6457 11.3636 68.4682 11.4616 68.3384 11.6577C68.2096 11.8537 68.1448 12.1288 68.1438 12.483H68.1665C68.2196 12.4025 68.2826 12.3338 68.3555 12.277C68.4293 12.2192 68.5108 12.1747 68.5998 12.1435C68.6888 12.1122 68.783 12.0966 68.8825 12.0966C69.0491 12.0966 69.2016 12.1383 69.3398 12.2216C69.4781 12.304 69.5889 12.4181 69.6722 12.5639C69.7556 12.7088 69.7972 12.875 69.7972 13.0625C69.7972 13.2424 69.757 13.4072 69.6765 13.5568C69.596 13.7055 69.4828 13.8239 69.337 13.9119C69.1921 13.9991 69.0217 14.0417 68.8256 14.0398ZM68.8256 13.7273C68.945 13.7273 69.052 13.6974 69.1467 13.6378C69.2423 13.5781 69.3176 13.4981 69.3725 13.3977C69.4284 13.2973 69.4563 13.1856 69.4563 13.0625C69.4563 12.9422 69.4293 12.8329 69.3754 12.7344C69.3223 12.6349 69.2489 12.5559 69.1552 12.4972C69.0624 12.4384 68.9563 12.4091 68.837 12.4091C68.747 12.4091 68.6632 12.4271 68.5856 12.4631C68.5079 12.4981 68.4397 12.5464 68.381 12.608C68.3233 12.6695 68.2778 12.7401 68.2447 12.8196C68.2115 12.8982 68.195 12.9811 68.195 13.0682C68.195 13.1837 68.2219 13.2917 68.2759 13.392C68.3308 13.4924 68.4057 13.5734 68.5004 13.6349C68.596 13.6965 68.7044 13.7273 68.8256 13.7273Z" fill="black"/>
<path d="M77.3523 31V28.0909H78.3352C78.5625 28.0909 78.7491 28.1297 78.8949 28.2074C79.0407 28.2841 79.1487 28.3897 79.2188 28.5241C79.2888 28.6586 79.3239 28.8116 79.3239 28.983C79.3239 29.1544 79.2888 29.3063 79.2188 29.4389C79.1487 29.5715 79.0412 29.6757 78.8963 29.7514C78.7514 29.8262 78.5663 29.8636 78.3409 29.8636H77.5455V29.5455H78.3295C78.4848 29.5455 78.6098 29.5227 78.7045 29.4773C78.8002 29.4318 78.8693 29.3674 78.9119 29.2841C78.9555 29.1998 78.9773 29.0994 78.9773 28.983C78.9773 28.8665 78.9555 28.7647 78.9119 28.6776C78.8684 28.5904 78.7988 28.5232 78.7031 28.4759C78.6075 28.4276 78.4811 28.4034 78.3239 28.4034H77.7045V31H77.3523ZM78.7216 29.6932L79.4375 31H79.0284L78.3239 29.6932H78.7216ZM79.7915 30.4034V30.1136L81.07 28.0909H81.2802V28.5398H81.1381L80.1722 30.0682V30.0909H81.8938V30.4034H79.7915ZM81.1609 31V30.3153V30.1804V28.0909H81.4961V31H81.1609Z" fill="black"/>
<path d="M55.3523 32V29.0909H56.3352C56.5625 29.0909 56.7491 29.1297 56.8949 29.2074C57.0407 29.2841 57.1487 29.3897 57.2188 29.5241C57.2888 29.6586 57.3239 29.8116 57.3239 29.983C57.3239 30.1544 57.2888 30.3063 57.2188 30.4389C57.1487 30.5715 57.0412 30.6757 56.8963 30.7514C56.7514 30.8262 56.5663 30.8636 56.3409 30.8636H55.5455V30.5455H56.3295C56.4848 30.5455 56.6098 30.5227 56.7045 30.4773C56.8002 30.4318 56.8693 30.3674 56.9119 30.2841C56.9555 30.1998 56.9773 30.0994 56.9773 29.983C56.9773 29.8665 56.9555 29.7647 56.9119 29.6776C56.8684 29.5904 56.7988 29.5232 56.7031 29.4759C56.6075 29.4276 56.4811 29.4034 56.3239 29.4034H55.7045V32H55.3523ZM56.7216 30.6932L57.4375 32H57.0284L56.3239 30.6932H56.7216ZM58.8427 32.0398C58.6552 32.0398 58.488 32.0076 58.3413 31.9432C58.1954 31.8788 58.0794 31.7893 57.9933 31.6747C57.908 31.5592 57.8616 31.4252 57.854 31.2727H58.212C58.2196 31.3665 58.2518 31.4474 58.3086 31.5156C58.3654 31.5829 58.4397 31.6349 58.5316 31.6719C58.6235 31.7088 58.7253 31.7273 58.837 31.7273C58.962 31.7273 59.0728 31.7055 59.1694 31.6619C59.266 31.6184 59.3417 31.5578 59.3967 31.4801C59.4516 31.4025 59.479 31.3125 59.479 31.2102C59.479 31.1032 59.4525 31.009 59.3995 30.9276C59.3465 30.8452 59.2688 30.7808 59.1665 30.7344C59.0643 30.688 58.9393 30.6648 58.7915 30.6648H58.5586V30.3523H58.7915C58.9071 30.3523 59.0084 30.3314 59.0955 30.2898C59.1836 30.2481 59.2522 30.1894 59.3015 30.1136C59.3517 30.0379 59.3768 29.9489 59.3768 29.8466C59.3768 29.7481 59.355 29.6624 59.3114 29.5895C59.2679 29.5166 59.2063 29.4598 59.1268 29.419C59.0482 29.3783 58.9554 29.358 58.8484 29.358C58.748 29.358 58.6533 29.3764 58.5643 29.4134C58.4762 29.4493 58.4042 29.5019 58.3484 29.571C58.2925 29.6392 58.2622 29.7216 58.2575 29.8182H57.9165C57.9222 29.6657 57.9682 29.5322 58.0543 29.4176C58.1405 29.3021 58.2532 29.2121 58.3924 29.1477C58.5326 29.0833 58.6864 29.0511 58.854 29.0511C59.034 29.0511 59.1883 29.0876 59.3171 29.1605C59.4459 29.2325 59.5449 29.3277 59.614 29.446C59.6831 29.5644 59.7177 29.6922 59.7177 29.8295C59.7177 29.9934 59.6746 30.133 59.5884 30.2486C59.5032 30.3641 59.3872 30.4441 59.2404 30.4886V30.5114C59.4241 30.5417 59.5676 30.6198 59.6708 30.7457C59.774 30.8707 59.8256 31.0256 59.8256 31.2102C59.8256 31.3684 59.7826 31.5104 59.6964 31.6364C59.6112 31.7614 59.4947 31.8598 59.3469 31.9318C59.1992 32.0038 59.0311 32.0398 58.8427 32.0398Z" fill="black"/>
<path d="M99.3523 32V29.0909H100.335C100.563 29.0909 100.749 29.1297 100.895 29.2074C101.041 29.2841 101.149 29.3897 101.219 29.5241C101.289 29.6586 101.324 29.8116 101.324 29.983C101.324 30.1544 101.289 30.3063 101.219 30.4389C101.149 30.5715 101.041 30.6757 100.896 30.7514C100.751 30.8262 100.566 30.8636 100.341 30.8636H99.5455V30.5455H100.33C100.485 30.5455 100.61 30.5227 100.705 30.4773C100.8 30.4318 100.869 30.3674 100.912 30.2841C100.955 30.1998 100.977 30.0994 100.977 29.983C100.977 29.8665 100.955 29.7647 100.912 29.6776C100.868 29.5904 100.799 29.5232 100.703 29.4759C100.607 29.4276 100.481 29.4034 100.324 29.4034H99.7045V32H99.3523ZM100.722 30.6932L101.438 32H101.028L100.324 30.6932H100.722ZM102.769 32.0398C102.602 32.0398 102.452 32.0066 102.319 31.9403C102.185 31.8741 102.078 31.7831 101.998 31.6676C101.917 31.5521 101.873 31.4205 101.865 31.2727H102.206C102.22 31.4044 102.279 31.5133 102.385 31.5994C102.492 31.6847 102.62 31.7273 102.769 31.7273C102.888 31.7273 102.994 31.6993 103.087 31.6435C103.181 31.5876 103.254 31.5109 103.307 31.4134C103.361 31.3149 103.388 31.2036 103.388 31.0795C103.388 30.9527 103.36 30.8395 103.304 30.7401C103.249 30.6397 103.174 30.5606 103.077 30.5028C102.98 30.4451 102.87 30.4157 102.746 30.4148C102.657 30.4138 102.566 30.4276 102.472 30.456C102.378 30.4834 102.301 30.5189 102.24 30.5625L101.911 30.5227L102.087 29.0909H103.598V29.4034H102.382L102.28 30.2614H102.297C102.357 30.214 102.432 30.1747 102.522 30.1435C102.612 30.1122 102.705 30.0966 102.803 30.0966C102.981 30.0966 103.14 30.1392 103.279 30.2244C103.419 30.3087 103.529 30.4242 103.608 30.571C103.689 30.7178 103.729 30.8854 103.729 31.0739C103.729 31.2595 103.687 31.4252 103.604 31.571C103.522 31.7159 103.408 31.8305 103.263 31.9148C103.118 31.9981 102.953 32.0398 102.769 32.0398Z" fill="black"/>
<path d="M16 23L18 21L20 23" stroke="black" stroke-width="0.5"/>
<path d="M11.7045 20.0909V23H11.3523V20.0909H11.7045ZM13.3825 20.0909V23H13.0302V20.4602H13.0131L12.3029 20.9318V20.5739L13.0302 20.0909H13.3825Z" fill="black"/>
<path d="M53 22L51 24L49 22" stroke="black" stroke-width="0.5"/>
<path d="M83 23L85 21L87 23" stroke="black" stroke-width="0.5"/>
<path d="M110 21L108 23L106 21" stroke="black" stroke-width="0.5"/>
<path d="M56 17L58 19L56 21" stroke="black" stroke-width="0.5"/>
<path d="M44.7045 21.0909V24H44.3523V21.0909H44.7045ZM46.3427 24.0398C46.1552 24.0398 45.988 24.0076 45.8413 23.9432C45.6954 23.8788 45.5794 23.7893 45.4933 23.6747C45.408 23.5592 45.3616 23.4252 45.354 23.2727H45.712C45.7196 23.3665 45.7518 23.4474 45.8086 23.5156C45.8654 23.5829 45.9397 23.6349 46.0316 23.6719C46.1235 23.7088 46.2253 23.7273 46.337 23.7273C46.462 23.7273 46.5728 23.7055 46.6694 23.6619C46.766 23.6184 46.8417 23.5578 46.8967 23.4801C46.9516 23.4025 46.979 23.3125 46.979 23.2102C46.979 23.1032 46.9525 23.009 46.8995 22.9276C46.8465 22.8452 46.7688 22.7808 46.6665 22.7344C46.5643 22.688 46.4393 22.6648 46.2915 22.6648H46.0586V22.3523H46.2915C46.4071 22.3523 46.5084 22.3314 46.5955 22.2898C46.6836 22.2481 46.7522 22.1894 46.8015 22.1136C46.8517 22.0379 46.8768 21.9489 46.8768 21.8466C46.8768 21.7481 46.855 21.6624 46.8114 21.5895C46.7679 21.5166 46.7063 21.4598 46.6268 21.419C46.5482 21.3783 46.4554 21.358 46.3484 21.358C46.248 21.358 46.1533 21.3764 46.0643 21.4134C45.9762 21.4493 45.9042 21.5019 45.8484 21.571C45.7925 21.6392 45.7622 21.7216 45.7575 21.8182H45.4165C45.4222 21.6657 45.4682 21.5322 45.5543 21.4176C45.6405 21.3021 45.7532 21.2121 45.8924 21.1477C46.0326 21.0833 46.1864 21.0511 46.354 21.0511C46.534 21.0511 46.6883 21.0876 46.8171 21.1605C46.9459 21.2325 47.0449 21.3277 47.114 21.446C47.1831 21.5644 47.2177 21.6922 47.2177 21.8295C47.2177 21.9934 47.1746 22.133 47.0884 22.2486C47.0032 22.3641 46.8872 22.4441 46.7404 22.4886V22.5114C46.9241 22.5417 47.0676 22.6198 47.1708 22.7457C47.274 22.8707 47.3256 23.0256 47.3256 23.2102C47.3256 23.3684 47.2826 23.5104 47.1964 23.6364C47.1112 23.7614 46.9947 23.8598 46.8469 23.9318C46.6992 24.0038 46.5311 24.0398 46.3427 24.0398Z" fill="black"/>
<path d="M78.7045 21.0909V24H78.3523V21.0909H78.7045ZM79.2915 23.4034V23.1136L80.57 21.0909H80.7802V21.5398H80.6381L79.6722 23.0682V23.0909H81.3938V23.4034H79.2915ZM80.6609 24V23.3153V23.1804V21.0909H80.9961V24H80.6609Z" fill="black"/>
<path d="M101.705 21.0909V24H101.352V21.0909H101.705ZM103.269 24.0398C103.102 24.0398 102.952 24.0066 102.819 23.9403C102.685 23.8741 102.578 23.7831 102.498 23.6676C102.417 23.5521 102.373 23.4205 102.365 23.2727H102.706C102.72 23.4044 102.779 23.5133 102.885 23.5994C102.992 23.6847 103.12 23.7273 103.269 23.7273C103.388 23.7273 103.494 23.6993 103.587 23.6435C103.681 23.5876 103.754 23.5109 103.807 23.4134C103.861 23.3149 103.888 23.2036 103.888 23.0795C103.888 22.9527 103.86 22.8395 103.804 22.7401C103.749 22.6397 103.674 22.5606 103.577 22.5028C103.48 22.4451 103.37 22.4157 103.246 22.4148C103.157 22.4138 103.066 22.4276 102.972 22.456C102.878 22.4834 102.801 22.5189 102.74 22.5625L102.411 22.5227L102.587 21.0909H104.098V21.4034H102.882L102.78 22.2614H102.797C102.857 22.214 102.932 22.1747 103.022 22.1435C103.112 22.1122 103.205 22.0966 103.303 22.0966C103.481 22.0966 103.64 22.1392 103.779 22.2244C103.919 22.3087 104.029 22.4242 104.108 22.571C104.189 22.7178 104.229 22.8854 104.229 23.0739C104.229 23.2595 104.187 23.4252 104.104 23.571C104.022 23.7159 103.908 23.8305 103.763 23.9148C103.618 23.9981 103.453 24.0398 103.269 24.0398Z" fill="black"/>
<path d="M55.7045 12.0909V15H55.3523V12.0909H55.7045ZM57.3256 15.0398C57.2063 15.0379 57.087 15.0152 56.9677 14.9716C56.8484 14.928 56.7395 14.8546 56.641 14.7514C56.5425 14.6473 56.4634 14.5066 56.4038 14.3295C56.3441 14.1515 56.3143 13.928 56.3143 13.6591C56.3143 13.4015 56.3384 13.1733 56.3867 12.9744C56.435 12.7746 56.5051 12.6065 56.5969 12.4702C56.6888 12.3329 56.7996 12.2287 56.9293 12.1577C57.06 12.0866 57.2073 12.0511 57.3711 12.0511C57.534 12.0511 57.6789 12.0838 57.8058 12.1491C57.9336 12.2135 58.0378 12.3035 58.1183 12.419C58.1987 12.5346 58.2508 12.6676 58.2745 12.8182H57.9279C57.8957 12.6875 57.8332 12.5791 57.7404 12.4929C57.6476 12.4067 57.5245 12.3636 57.3711 12.3636C57.1457 12.3636 56.9682 12.4616 56.8384 12.6577C56.7096 12.8537 56.6448 13.1288 56.6438 13.483H56.6665C56.7196 13.4025 56.7826 13.3338 56.8555 13.277C56.9293 13.2192 57.0108 13.1747 57.0998 13.1435C57.1888 13.1122 57.283 13.0966 57.3825 13.0966C57.5491 13.0966 57.7016 13.1383 57.8398 13.2216C57.9781 13.304 58.0889 13.4181 58.1722 13.5639C58.2556 13.7088 58.2972 13.875 58.2972 14.0625C58.2972 14.2424 58.257 14.4072 58.1765 14.5568C58.096 14.7055 57.9828 14.8239 57.837 14.9119C57.6921 14.9991 57.5217 15.0417 57.3256 15.0398ZM57.3256 14.7273C57.445 14.7273 57.552 14.6974 57.6467 14.6378C57.7423 14.5781 57.8176 14.4981 57.8725 14.3977C57.9284 14.2973 57.9563 14.1856 57.9563 14.0625C57.9563 13.9422 57.9293 13.8329 57.8754 13.7344C57.8223 13.6349 57.7489 13.5559 57.6552 13.4972C57.5624 13.4384 57.4563 13.4091 57.337 13.4091C57.247 13.4091 57.1632 13.4271 57.0856 13.4631C57.0079 13.4981 56.9397 13.5464 56.881 13.608C56.8233 13.6695 56.7778 13.7401 56.7447 13.8196C56.7115 13.8982 56.695 13.9811 56.695 14.0682C56.695 14.1837 56.7219 14.2917 56.7759 14.392C56.8308 14.4924 56.9057 14.5734 57.0004 14.6349C57.096 14.6965 57.2044 14.7273 57.3256 14.7273Z" fill="black"/>
</svg>
