<svg width="74" height="75" viewBox="0 0 74 75" fill="none" xmlns="http://www.w3.org/2000/svg">
<rect width="74" height="75" rx="6" fill="white"/>
<path fill-rule="evenodd" clip-rule="evenodd" d="M39.5 19C39.5 21.4853 37.4853 23.5 35 23.5C32.5986 23.5 30.6365 21.619 30.5068 19.25H31H31.25H36.8964L35.8232 20.3232L36.1768 20.6768L37.6768 19.1768L37.8536 19L37.6768 18.8232L36.1768 17.3232L35.8232 17.6768L36.8964 18.75H31.25H31H30.5068C30.6365 16.381 32.5986 14.5 35 14.5C37.4853 14.5 39.5 16.5147 39.5 19ZM35 24C32.3224 24 30.1364 21.8953 30.0061 19.25H23H22.75V18.75H23H30.0061C30.1364 16.1047 32.3224 14 35 14C37.6776 14 39.8636 16.1047 39.9939 18.75H40H47H47.25V19.25H47H40H39.9939C39.8636 21.8953 37.6776 24 35 24Z" fill="black"/>
<path fill-rule="evenodd" clip-rule="evenodd" d="M16.5 26.5L16.5 35.5L19.5 35.5L19.5 26.5L16.5 26.5ZM16 35.5L16 36L16.5 36L17.75 36L17.75 43L17.75 43.25L18.25 43.25L18.25 43L18.25 36L19.5 36L20 36L20 35.5L20 26.5L20 26L19.5 26L18.25 26L18.25 19L18.25 18.75L17.75 18.75L17.75 19L17.75 26L16.5 26L16 26L16 26.5L16 35.5Z" fill="black"/>
<path fill-rule="evenodd" clip-rule="evenodd" d="M49.5 26.5L49.5 35.5L52.5 35.5L52.5 26.5L49.5 26.5ZM49 35.5L49 36L49.5 36L50.75 36L50.75 43L50.75 43.25L51.25 43.25L51.25 43L51.25 36L52.5 36L53 36L53 35.5L53 26.5L53 26L52.5 26L51.25 26L51.25 19L51.25 18.75L50.75 18.75L50.75 19L50.75 26L49.5 26L49 26L49 26.5L49 35.5Z" fill="black"/>
<path fill-rule="evenodd" clip-rule="evenodd" d="M18 52.5C15.5147 52.5 13.5 50.4853 13.5 48C13.5 45.5986 15.381 43.6365 17.75 43.5068L17.75 44L17.75 44.25L17.75 49.8964L16.6768 48.8232L16.3232 49.1768L17.8232 50.6768L18 50.8536L18.1768 50.6768L19.6768 49.1768L19.3232 48.8232L18.25 49.8964L18.25 44.25L18.25 44L18.25 43.5068C20.619 43.6365 22.5 45.5986 22.5 48C22.5 50.4853 20.4853 52.5 18 52.5ZM13 48C13 45.3224 15.1047 43.1364 17.75 43.0061L17.75 36L17.75 35.75L18.25 35.75L18.25 36L18.25 43.0061C20.8953 43.1364 23 45.3224 23 48C23 50.6776 20.8953 52.8636 18.25 52.9939L18.25 53L18.25 60L18.25 60.25L17.75 60.25L17.75 60L17.75 53L17.75 52.9939C15.1047 52.8636 13 50.6776 13 48Z" fill="black"/>
<path fill-rule="evenodd" clip-rule="evenodd" d="M51 52.5C48.5147 52.5 46.5 50.4853 46.5 48C46.5 45.5986 48.381 43.6365 50.75 43.5068L50.75 44L50.75 44.25L50.75 49.8964L49.6768 48.8232L49.3232 49.1768L50.8232 50.6768L51 50.8536L51.1768 50.6768L52.6768 49.1768L52.3232 48.8232L51.25 49.8964L51.25 44.25L51.25 44L51.25 43.5068C53.619 43.6365 55.5 45.5986 55.5 48C55.5 50.4853 53.4853 52.5 51 52.5ZM46 48C46 45.3224 48.1047 43.1364 50.75 43.0061L50.75 36L50.75 35.75L51.25 35.75L51.25 36L51.25 43.0061C53.8953 43.1364 56 45.3224 56 48C56 50.6776 53.8953 52.8636 51.25 52.9939L51.25 53L51.25 60L51.25 60.25L50.75 60.25L50.75 60L50.75 53L50.75 52.9939C48.1047 52.8636 46 50.6776 46 48Z" fill="black"/>
<path d="M18 19H23.5" stroke="black" stroke-width="0.5"/>
<circle cx="51" cy="60" r="1" fill="black"/>
<circle cx="51" cy="19" r="1" fill="black"/>
<circle cx="18" cy="19" r="1" fill="black"/>
<circle cx="18" cy="40" r="1" fill="black"/>
<circle cx="51" cy="40" r="1" fill="black"/>
<path d="M25.3523 49V46.0909H27.108V46.4034H25.7045V47.3864H27.017V47.6989H25.7045V48.6875H27.1307V49H25.3523ZM28.7145 46.0909V49H28.3622V46.4602H28.3452L27.6349 46.9318V46.5739L28.3622 46.0909H28.7145Z" fill="black"/>
<path d="M32.3523 12V9.09091H34.108V9.40341H32.7045V10.3864H34.017V10.6989H32.7045V11.6875H34.1307V12H32.3523ZM34.6918 12V11.7443L35.652 10.6932C35.7647 10.5701 35.8575 10.4631 35.9304 10.3722C36.0033 10.2803 36.0573 10.1941 36.0923 10.1136C36.1283 10.0322 36.1463 9.94697 36.1463 9.85795C36.1463 9.75568 36.1217 9.66714 36.0724 9.59233C36.0241 9.51752 35.9579 9.45975 35.8736 9.41903C35.7893 9.37831 35.6946 9.35795 35.5895 9.35795C35.4777 9.35795 35.3802 9.38116 35.2969 9.42756C35.2145 9.47301 35.1506 9.53693 35.1051 9.61932C35.0606 9.7017 35.0384 9.7983 35.0384 9.90909H34.7031C34.7031 9.73864 34.7424 9.58902 34.821 9.46023C34.8996 9.33144 35.0066 9.23106 35.142 9.15909C35.2784 9.08712 35.4313 9.05114 35.6009 9.05114C35.7713 9.05114 35.9223 9.08712 36.054 9.15909C36.1856 9.23106 36.2888 9.32812 36.3636 9.45028C36.4384 9.57244 36.4759 9.70833 36.4759 9.85795C36.4759 9.96496 36.4564 10.0696 36.4176 10.1719C36.3797 10.2732 36.3134 10.3864 36.2188 10.5114C36.125 10.6354 35.9948 10.7869 35.8281 10.9659L35.1747 11.6648V11.6875H36.527V12H34.6918Z" fill="black"/>
<path d="M58.3523 50V47.0909H60.108V47.4034H58.7045V48.3864H60.017V48.6989H58.7045V49.6875H60.1307V50H58.3523ZM61.6747 50.0398C61.4872 50.0398 61.3201 50.0076 61.1733 49.9432C61.0275 49.8788 60.9115 49.7893 60.8253 49.6747C60.7401 49.5592 60.6937 49.4252 60.6861 49.2727H61.044C61.0516 49.3665 61.0838 49.4474 61.1406 49.5156C61.1974 49.5829 61.2718 49.6349 61.3636 49.6719C61.4555 49.7088 61.5573 49.7273 61.669 49.7273C61.794 49.7273 61.9048 49.7055 62.0014 49.6619C62.098 49.6184 62.1738 49.5578 62.2287 49.4801C62.2836 49.4025 62.3111 49.3125 62.3111 49.2102C62.3111 49.1032 62.2846 49.009 62.2315 48.9276C62.1785 48.8452 62.1009 48.7808 61.9986 48.7344C61.8963 48.688 61.7713 48.6648 61.6236 48.6648H61.3906V48.3523H61.6236C61.7391 48.3523 61.8404 48.3314 61.9276 48.2898C62.0156 48.2481 62.0843 48.1894 62.1335 48.1136C62.1837 48.0379 62.2088 47.9489 62.2088 47.8466C62.2088 47.7481 62.187 47.6624 62.1435 47.5895C62.0999 47.5166 62.0384 47.4598 61.9588 47.419C61.8802 47.3783 61.7874 47.358 61.6804 47.358C61.58 47.358 61.4853 47.3764 61.3963 47.4134C61.3082 47.4493 61.2363 47.5019 61.1804 47.571C61.1245 47.6392 61.0942 47.7216 61.0895 47.8182H60.7486C60.7543 47.6657 60.8002 47.5322 60.8864 47.4176C60.9725 47.3021 61.0852 47.2121 61.2244 47.1477C61.3646 47.0833 61.5185 47.0511 61.6861 47.0511C61.866 47.0511 62.0204 47.0876 62.1491 47.1605C62.2779 47.2325 62.3769 47.3277 62.446 47.446C62.5152 47.5644 62.5497 47.6922 62.5497 47.8295C62.5497 47.9934 62.5066 48.133 62.4205 48.2486C62.3352 48.3641 62.2192 48.4441 62.0724 48.4886V48.5114C62.2562 48.5417 62.3996 48.6198 62.5028 48.7457C62.6061 48.8707 62.6577 49.0256 62.6577 49.2102C62.6577 49.3684 62.6146 49.5104 62.5284 49.6364C62.4432 49.7614 62.3267 49.8598 62.179 49.9318C62.0313 50.0038 61.8632 50.0398 61.6747 50.0398Z" fill="black"/>
<path d="M22.3523 32V29.0909H23.3352C23.5625 29.0909 23.7491 29.1297 23.8949 29.2074C24.0407 29.2841 24.1487 29.3897 24.2188 29.5241C24.2888 29.6586 24.3239 29.8116 24.3239 29.983C24.3239 30.1544 24.2888 30.3063 24.2188 30.4389C24.1487 30.5715 24.0412 30.6757 23.8963 30.7514C23.7514 30.8262 23.5663 30.8636 23.3409 30.8636H22.5455V30.5455H23.3295C23.4848 30.5455 23.6098 30.5227 23.7045 30.4773C23.8002 30.4318 23.8693 30.3674 23.9119 30.2841C23.9555 30.1998 23.9773 30.0994 23.9773 29.983C23.9773 29.8665 23.9555 29.7647 23.9119 29.6776C23.8684 29.5904 23.7988 29.5232 23.7031 29.4759C23.6075 29.4276 23.4811 29.4034 23.3239 29.4034H22.7045V32H22.3523ZM23.7216 30.6932L24.4375 32H24.0284L23.3239 30.6932H23.7216ZM25.8825 29.0909V32H25.5302V29.4602H25.5131L24.8029 29.9318V29.5739L25.5302 29.0909H25.8825Z" fill="black"/>
<path d="M55.3523 32V29.0909H56.3352C56.5625 29.0909 56.7491 29.1297 56.8949 29.2074C57.0407 29.2841 57.1487 29.3897 57.2188 29.5241C57.2888 29.6586 57.3239 29.8116 57.3239 29.983C57.3239 30.1544 57.2888 30.3063 57.2188 30.4389C57.1487 30.5715 57.0412 30.6757 56.8963 30.7514C56.7514 30.8262 56.5663 30.8636 56.3409 30.8636H55.5455V30.5455H56.3295C56.4848 30.5455 56.6098 30.5227 56.7045 30.4773C56.8002 30.4318 56.8693 30.3674 56.9119 30.2841C56.9555 30.1998 56.9773 30.0994 56.9773 29.983C56.9773 29.8665 56.9555 29.7647 56.9119 29.6776C56.8684 29.5904 56.7988 29.5232 56.7031 29.4759C56.6075 29.4276 56.4811 29.4034 56.3239 29.4034H55.7045V32H55.3523ZM56.7216 30.6932L57.4375 32H57.0284L56.3239 30.6932H56.7216ZM58.8427 32.0398C58.6552 32.0398 58.488 32.0076 58.3413 31.9432C58.1954 31.8788 58.0794 31.7893 57.9933 31.6747C57.908 31.5592 57.8616 31.4252 57.854 31.2727H58.212C58.2196 31.3665 58.2518 31.4474 58.3086 31.5156C58.3654 31.5829 58.4397 31.6349 58.5316 31.6719C58.6235 31.7088 58.7253 31.7273 58.837 31.7273C58.962 31.7273 59.0728 31.7055 59.1694 31.6619C59.266 31.6184 59.3417 31.5578 59.3967 31.4801C59.4516 31.4025 59.479 31.3125 59.479 31.2102C59.479 31.1032 59.4525 31.009 59.3995 30.9276C59.3465 30.8452 59.2688 30.7808 59.1665 30.7344C59.0643 30.688 58.9393 30.6648 58.7915 30.6648H58.5586V30.3523H58.7915C58.9071 30.3523 59.0084 30.3314 59.0955 30.2898C59.1836 30.2481 59.2522 30.1894 59.3015 30.1136C59.3517 30.0379 59.3768 29.9489 59.3768 29.8466C59.3768 29.7481 59.355 29.6624 59.3114 29.5895C59.2679 29.5166 59.2063 29.4598 59.1268 29.419C59.0482 29.3783 58.9554 29.358 58.8484 29.358C58.748 29.358 58.6533 29.3764 58.5643 29.4134C58.4762 29.4493 58.4042 29.5019 58.3484 29.571C58.2925 29.6392 58.2622 29.7216 58.2575 29.8182H57.9165C57.9222 29.6657 57.9682 29.5322 58.0543 29.4176C58.1405 29.3021 58.2532 29.2121 58.3924 29.1477C58.5326 29.0833 58.6864 29.0511 58.854 29.0511C59.034 29.0511 59.1883 29.0876 59.3171 29.1605C59.4459 29.2325 59.5449 29.3277 59.614 29.446C59.6831 29.5644 59.7177 29.6922 59.7177 29.8295C59.7177 29.9934 59.6746 30.133 59.5884 30.2486C59.5032 30.3641 59.3872 30.4441 59.2404 30.4886V30.5114C59.4241 30.5417 59.5676 30.6198 59.6708 30.7457C59.774 30.8707 59.8256 31.0256 59.8256 31.2102C59.8256 31.3684 59.7826 31.5104 59.6964 31.6364C59.6112 31.7614 59.4947 31.8598 59.3469 31.9318C59.1992 32.0038 59.0311 32.0398 58.8427 32.0398Z" fill="black"/>
<path d="M8.70455 29.0909V32H8.35227V29.0909H8.70455ZM10.3825 29.0909V32H10.0302V29.4602H10.0131L9.30291 29.9318V29.5739L10.0302 29.0909H10.3825Z" fill="black"/>
<path d="M48 33L47 34L46 33" stroke="black" stroke-width="0.5"/>
<path d="M13 28L14 27L15 28" stroke="black" stroke-width="0.5"/>
<path d="M39.7045 30.0909V33H39.3523V30.0909H39.7045ZM41.3427 33.0398C41.1552 33.0398 40.988 33.0076 40.8413 32.9432C40.6954 32.8788 40.5794 32.7893 40.4933 32.6747C40.408 32.5592 40.3616 32.4252 40.354 32.2727H40.712C40.7196 32.3665 40.7518 32.4474 40.8086 32.5156C40.8654 32.5829 40.9397 32.6349 41.0316 32.6719C41.1235 32.7088 41.2253 32.7273 41.337 32.7273C41.462 32.7273 41.5728 32.7055 41.6694 32.6619C41.766 32.6184 41.8417 32.5578 41.8967 32.4801C41.9516 32.4025 41.979 32.3125 41.979 32.2102C41.979 32.1032 41.9525 32.009 41.8995 31.9276C41.8465 31.8452 41.7688 31.7808 41.6665 31.7344C41.5643 31.688 41.4393 31.6648 41.2915 31.6648H41.0586V31.3523H41.2915C41.4071 31.3523 41.5084 31.3314 41.5955 31.2898C41.6836 31.2481 41.7522 31.1894 41.8015 31.1136C41.8517 31.0379 41.8768 30.9489 41.8768 30.8466C41.8768 30.7481 41.855 30.6624 41.8114 30.5895C41.7679 30.5166 41.7063 30.4598 41.6268 30.419C41.5482 30.3783 41.4554 30.358 41.3484 30.358C41.248 30.358 41.1533 30.3764 41.0643 30.4134C40.9762 30.4493 40.9042 30.5019 40.8484 30.571C40.7925 30.6392 40.7622 30.7216 40.7575 30.8182H40.4165C40.4222 30.6657 40.4682 30.5322 40.5543 30.4176C40.6405 30.3021 40.7532 30.2121 40.8924 30.1477C41.0326 30.0833 41.1864 30.0511 41.354 30.0511C41.534 30.0511 41.6883 30.0876 41.8171 30.1605C41.9459 30.2325 42.0449 30.3277 42.114 30.446C42.1831 30.5644 42.2177 30.6922 42.2177 30.8295C42.2177 30.9934 42.1746 31.133 42.0884 31.2486C42.0032 31.3641 41.8872 31.4441 41.7404 31.4886V31.5114C41.9241 31.5417 42.0676 31.6198 42.1708 31.7457C42.274 31.8707 42.3256 32.0256 42.3256 32.2102C42.3256 32.3684 42.2826 32.5104 42.1964 32.6364C42.1112 32.7614 41.9947 32.8598 41.8469 32.9318C41.6992 33.0038 41.5311 33.0398 41.3427 33.0398Z" fill="black"/>
<path d="M14.1629 41.0398C13.9754 41.0398 13.8082 41.0076 13.6615 40.9432C13.5156 40.8788 13.3996 40.7893 13.3134 40.6747C13.2282 40.5592 13.1818 40.4252 13.1742 40.2727H13.5322C13.5398 40.3665 13.572 40.4474 13.6288 40.5156C13.6856 40.5829 13.7599 40.6349 13.8518 40.6719C13.9437 40.7088 14.0455 40.7273 14.1572 40.7273C14.2822 40.7273 14.393 40.7055 14.4896 40.6619C14.5862 40.6184 14.6619 40.5578 14.7169 40.4801C14.7718 40.4025 14.7992 40.3125 14.7992 40.2102C14.7992 40.1032 14.7727 40.009 14.7197 39.9276C14.6667 39.8452 14.589 39.7808 14.4867 39.7344C14.3845 39.688 14.2595 39.6648 14.1117 39.6648H13.8788V39.3523H14.1117C14.2273 39.3523 14.3286 39.3314 14.4157 39.2898C14.5038 39.2481 14.5724 39.1894 14.6217 39.1136C14.6719 39.0379 14.697 38.9489 14.697 38.8466C14.697 38.7481 14.6752 38.6624 14.6316 38.5895C14.5881 38.5166 14.5265 38.4598 14.447 38.419C14.3684 38.3783 14.2756 38.358 14.1686 38.358C14.0682 38.358 13.9735 38.3764 13.8845 38.4134C13.7964 38.4493 13.7244 38.5019 13.6686 38.571C13.6127 38.6392 13.5824 38.7216 13.5776 38.8182H13.2367C13.2424 38.6657 13.2883 38.5322 13.3745 38.4176C13.4607 38.3021 13.5734 38.2121 13.7126 38.1477C13.8527 38.0833 14.0066 38.0511 14.1742 38.0511C14.3542 38.0511 14.5085 38.0876 14.6373 38.1605C14.7661 38.2325 14.8651 38.3277 14.9342 38.446C15.0033 38.5644 15.0379 38.6922 15.0379 38.8295C15.0379 38.9934 14.9948 39.133 14.9086 39.2486C14.8234 39.3641 14.7074 39.4441 14.5606 39.4886V39.5114C14.7443 39.5417 14.8878 39.6198 14.991 39.7457C15.0942 39.8707 15.1458 40.0256 15.1458 40.2102C15.1458 40.3684 15.1027 40.5104 15.0166 40.6364C14.9313 40.7614 14.8149 40.8598 14.6671 40.9318C14.5194 41.0038 14.3513 41.0398 14.1629 41.0398Z" fill="black"/>
<path d="M10.1909 39.0545C10.1909 39.1576 10.2121 39.25 10.2545 39.3318C10.297 39.4136 10.3515 39.4758 10.4182 39.5182C10.4848 39.5606 10.55 39.5955 10.6136 39.6227C10.6773 39.65 10.7303 39.6697 10.7727 39.6818L10.8409 39.6909L10.85 39.6864L10.9091 39.5C10.9636 39.3242 11.0136 39.1742 11.0591 39.05C11.1045 38.9258 11.1636 38.7924 11.2364 38.65C11.3091 38.5076 11.3818 38.3924 11.4545 38.3045C11.5273 38.2167 11.6167 38.1439 11.7227 38.0864C11.8288 38.0288 11.9394 38 12.0545 38C12.1909 38 12.3121 38.0485 12.4182 38.1455C12.5242 38.2424 12.5788 38.4061 12.5818 38.6364C12.5818 38.8727 12.5167 39.1 12.3864 39.3182C12.2561 39.5364 12.0773 39.7136 11.85 39.85C11.6227 39.9864 11.3833 40.0545 11.1318 40.0545C11.053 40.0545 11.0136 40.0576 11.0136 40.0636L10.9818 40.2273C10.9636 40.3333 10.9424 40.45 10.9182 40.5773C10.8939 40.7045 10.8773 40.7864 10.8682 40.8227C10.853 40.8955 10.8136 40.9455 10.75 40.9727C10.7167 40.9909 10.6788 41 10.6364 41C10.5424 40.9909 10.4955 40.9409 10.4955 40.85C10.4955 40.8197 10.5788 40.5424 10.7455 40.0182L10.7227 40.0091C10.7076 40.003 10.6864 39.9955 10.6591 39.9864C10.6318 39.9773 10.5985 39.9636 10.5591 39.9455C10.5197 39.9273 10.4803 39.9061 10.4409 39.8818C10.4015 39.8576 10.3606 39.8303 10.3182 39.8C10.2758 39.7697 10.2364 39.7318 10.2 39.6864C10.1636 39.6409 10.1288 39.5924 10.0955 39.5409C10.0621 39.4894 10.0394 39.4303 10.0273 39.3636C10.0152 39.297 10.0061 39.2242 10 39.1455C10 39 10.0394 38.8167 10.1182 38.5955C10.197 38.3742 10.3076 38.1924 10.45 38.05H10.5091C10.5727 38.05 10.6045 38.0621 10.6045 38.0864C10.6045 38.1045 10.5924 38.1258 10.5682 38.15C10.4439 38.2955 10.3515 38.4606 10.2909 38.6455C10.2303 38.8303 10.197 38.9667 10.1909 39.0545ZM12.3818 38.7455C12.3818 38.6182 12.3455 38.5182 12.2727 38.4455C12.2 38.3727 12.103 38.3348 11.9818 38.3318C11.8333 38.3318 11.6939 38.3924 11.5636 38.5136C11.4333 38.6348 11.3258 38.803 11.2409 39.0182C11.1985 39.1212 11.1561 39.2864 11.1136 39.5136L11.0727 39.7182C11.1273 39.7242 11.1576 39.7273 11.1636 39.7273C11.5182 39.7273 11.8091 39.6227 12.0364 39.4136C12.2636 39.2045 12.3788 38.9818 12.3818 38.7455Z" fill="black"/>
<path d="M58.089 41.0398C57.9223 41.0398 57.7723 41.0066 57.6387 40.9403C57.5052 40.8741 57.3982 40.7831 57.3177 40.6676C57.2372 40.5521 57.1932 40.4205 57.1856 40.2727H57.5265C57.5398 40.4044 57.5994 40.5133 57.7055 40.5994C57.8125 40.6847 57.9403 40.7273 58.089 40.7273C58.2083 40.7273 58.3144 40.6993 58.4072 40.6435C58.5009 40.5876 58.5743 40.5109 58.6274 40.4134C58.6813 40.3149 58.7083 40.2036 58.7083 40.0795C58.7083 39.9527 58.6804 39.8395 58.6245 39.7401C58.5696 39.6397 58.4938 39.5606 58.3973 39.5028C58.3007 39.4451 58.1903 39.4157 58.0663 39.4148C57.9773 39.4138 57.8859 39.4276 57.7921 39.456C57.6984 39.4834 57.6212 39.5189 57.5606 39.5625L57.2311 39.5227L57.4072 38.0909H58.9186V38.4034H57.7026L57.6004 39.2614H57.6174C57.6771 39.214 57.7519 39.1747 57.8419 39.1435C57.9318 39.1122 58.0256 39.0966 58.1231 39.0966C58.3011 39.0966 58.4598 39.1392 58.599 39.2244C58.7391 39.3087 58.849 39.4242 58.9285 39.571C59.009 39.7178 59.0492 39.8854 59.0492 40.0739C59.0492 40.2595 59.0076 40.4252 58.9242 40.571C58.8419 40.7159 58.7282 40.8305 58.5833 40.9148C58.4384 40.9981 58.2737 41.0398 58.089 41.0398Z" fill="black"/>
<path d="M54.1909 39.0545C54.1909 39.1576 54.2121 39.25 54.2545 39.3318C54.297 39.4136 54.3515 39.4758 54.4182 39.5182C54.4848 39.5606 54.55 39.5955 54.6136 39.6227C54.6773 39.65 54.7303 39.6697 54.7727 39.6818L54.8409 39.6909L54.85 39.6864L54.9091 39.5C54.9636 39.3242 55.0136 39.1742 55.0591 39.05C55.1045 38.9258 55.1636 38.7924 55.2364 38.65C55.3091 38.5076 55.3818 38.3924 55.4545 38.3045C55.5273 38.2167 55.6167 38.1439 55.7227 38.0864C55.8288 38.0288 55.9394 38 56.0545 38C56.1909 38 56.3121 38.0485 56.4182 38.1455C56.5242 38.2424 56.5788 38.4061 56.5818 38.6364C56.5818 38.8727 56.5167 39.1 56.3864 39.3182C56.2561 39.5364 56.0773 39.7136 55.85 39.85C55.6227 39.9864 55.3833 40.0545 55.1318 40.0545C55.053 40.0545 55.0136 40.0576 55.0136 40.0636L54.9818 40.2273C54.9636 40.3333 54.9424 40.45 54.9182 40.5773C54.8939 40.7045 54.8773 40.7864 54.8682 40.8227C54.853 40.8955 54.8136 40.9455 54.75 40.9727C54.7167 40.9909 54.6788 41 54.6364 41C54.5424 40.9909 54.4955 40.9409 54.4955 40.85C54.4955 40.8197 54.5788 40.5424 54.7455 40.0182L54.7227 40.0091C54.7076 40.003 54.6864 39.9955 54.6591 39.9864C54.6318 39.9773 54.5985 39.9636 54.5591 39.9455C54.5197 39.9273 54.4803 39.9061 54.4409 39.8818C54.4015 39.8576 54.3606 39.8303 54.3182 39.8C54.2758 39.7697 54.2364 39.7318 54.2 39.6864C54.1636 39.6409 54.1288 39.5924 54.0955 39.5409C54.0621 39.4894 54.0394 39.4303 54.0273 39.3636C54.0152 39.297 54.0061 39.2242 54 39.1455C54 39 54.0394 38.8167 54.1182 38.5955C54.197 38.3742 54.3076 38.1924 54.45 38.05H54.5091C54.5727 38.05 54.6045 38.0621 54.6045 38.0864C54.6045 38.1045 54.5924 38.1258 54.5682 38.15C54.4439 38.2955 54.3515 38.4606 54.2909 38.6455C54.2303 38.8303 54.197 38.9667 54.1909 39.0545ZM56.3818 38.7455C56.3818 38.6182 56.3455 38.5182 56.2727 38.4455C56.2 38.3727 56.103 38.3348 55.9818 38.3318C55.8333 38.3318 55.6939 38.3924 55.5636 38.5136C55.4333 38.6348 55.3258 38.803 55.2409 39.0182C55.1985 39.1212 55.1561 39.2864 55.1136 39.5136L55.0727 39.7182C55.1273 39.7242 55.1576 39.7273 55.1636 39.7273C55.5182 39.7273 55.8091 39.6227 56.0364 39.4136C56.2636 39.2045 56.3788 38.9818 56.3818 38.7455Z" fill="black"/>
<path d="M53.2026 12.0909V15H52.8504V12.4602H52.8333L52.1231 12.9318V12.5739L52.8504 12.0909H53.2026Z" fill="black"/>
<path d="M49.1909 13.0545C49.1909 13.1576 49.2121 13.25 49.2545 13.3318C49.297 13.4136 49.3515 13.4758 49.4182 13.5182C49.4848 13.5606 49.55 13.5955 49.6136 13.6227C49.6773 13.65 49.7303 13.6697 49.7727 13.6818L49.8409 13.6909L49.85 13.6864L49.9091 13.5C49.9636 13.3242 50.0136 13.1742 50.0591 13.05C50.1045 12.9258 50.1636 12.7924 50.2364 12.65C50.3091 12.5076 50.3818 12.3924 50.4545 12.3045C50.5273 12.2167 50.6167 12.1439 50.7227 12.0864C50.8288 12.0288 50.9394 12 51.0545 12C51.1909 12 51.3121 12.0485 51.4182 12.1455C51.5242 12.2424 51.5788 12.4061 51.5818 12.6364C51.5818 12.8727 51.5167 13.1 51.3864 13.3182C51.2561 13.5364 51.0773 13.7136 50.85 13.85C50.6227 13.9864 50.3833 14.0545 50.1318 14.0545C50.053 14.0545 50.0136 14.0576 50.0136 14.0636L49.9818 14.2273C49.9636 14.3333 49.9424 14.45 49.9182 14.5773C49.8939 14.7045 49.8773 14.7864 49.8682 14.8227C49.853 14.8955 49.8136 14.9455 49.75 14.9727C49.7167 14.9909 49.6788 15 49.6364 15C49.5424 14.9909 49.4955 14.9409 49.4955 14.85C49.4955 14.8197 49.5788 14.5424 49.7455 14.0182L49.7227 14.0091C49.7076 14.003 49.6864 13.9955 49.6591 13.9864C49.6318 13.9773 49.5985 13.9636 49.5591 13.9455C49.5197 13.9273 49.4803 13.9061 49.4409 13.8818C49.4015 13.8576 49.3606 13.8303 49.3182 13.8C49.2758 13.7697 49.2364 13.7318 49.2 13.6864C49.1636 13.6409 49.1288 13.5924 49.0955 13.5409C49.0621 13.4894 49.0394 13.4303 49.0273 13.3636C49.0152 13.297 49.0061 13.2242 49 13.1455C49 13 49.0394 12.8167 49.1182 12.5955C49.197 12.3742 49.3076 12.1924 49.45 12.05H49.5091C49.5727 12.05 49.6045 12.0621 49.6045 12.0864C49.6045 12.1045 49.5924 12.1258 49.5682 12.15C49.4439 12.2955 49.3515 12.4606 49.2909 12.6455C49.2303 12.8303 49.197 12.9667 49.1909 13.0545ZM51.3818 12.7455C51.3818 12.6182 51.3455 12.5182 51.2727 12.4455C51.2 12.3727 51.103 12.3348 50.9818 12.3318C50.8333 12.3318 50.6939 12.3924 50.5636 12.5136C50.4333 12.6348 50.3258 12.803 50.2409 13.0182C50.1985 13.1212 50.1561 13.2864 50.1136 13.5136L50.0727 13.7182C50.1273 13.7242 50.1576 13.7273 50.1636 13.7273C50.5182 13.7273 50.8091 13.6227 51.0364 13.4136C51.2636 13.2045 51.3788 12.9818 51.3818 12.7455Z" fill="black"/>
<path d="M18.1799 15V14.7443L19.1401 13.6932C19.2528 13.5701 19.3456 13.4631 19.4186 13.3722C19.4915 13.2803 19.5455 13.1941 19.5805 13.1136C19.6165 13.0322 19.6345 12.947 19.6345 12.858C19.6345 12.7557 19.6098 12.6671 19.5606 12.5923C19.5123 12.5175 19.446 12.4598 19.3617 12.419C19.2775 12.3783 19.1828 12.358 19.0776 12.358C18.9659 12.358 18.8684 12.3812 18.785 12.4276C18.7026 12.473 18.6387 12.5369 18.5933 12.6193C18.5488 12.7017 18.5265 12.7983 18.5265 12.9091H18.1913C18.1913 12.7386 18.2306 12.589 18.3092 12.4602C18.3878 12.3314 18.4948 12.2311 18.6302 12.1591C18.7666 12.0871 18.9195 12.0511 19.089 12.0511C19.2595 12.0511 19.4105 12.0871 19.5421 12.1591C19.6738 12.2311 19.777 12.3281 19.8518 12.4503C19.9266 12.5724 19.964 12.7083 19.964 12.858C19.964 12.965 19.9446 13.0696 19.9058 13.1719C19.8679 13.2732 19.8016 13.3864 19.7069 13.5114C19.6132 13.6354 19.483 13.7869 19.3163 13.9659L18.6629 14.6648V14.6875H20.0151V15H18.1799Z" fill="black"/>
<path d="M15.1909 13.0545C15.1909 13.1576 15.2121 13.25 15.2545 13.3318C15.297 13.4136 15.3515 13.4758 15.4182 13.5182C15.4848 13.5606 15.55 13.5955 15.6136 13.6227C15.6773 13.65 15.7303 13.6697 15.7727 13.6818L15.8409 13.6909L15.85 13.6864L15.9091 13.5C15.9636 13.3242 16.0136 13.1742 16.0591 13.05C16.1045 12.9258 16.1636 12.7924 16.2364 12.65C16.3091 12.5076 16.3818 12.3924 16.4545 12.3045C16.5273 12.2167 16.6167 12.1439 16.7227 12.0864C16.8288 12.0288 16.9394 12 17.0545 12C17.1909 12 17.3121 12.0485 17.4182 12.1455C17.5242 12.2424 17.5788 12.4061 17.5818 12.6364C17.5818 12.8727 17.5167 13.1 17.3864 13.3182C17.2561 13.5364 17.0773 13.7136 16.85 13.85C16.6227 13.9864 16.3833 14.0545 16.1318 14.0545C16.053 14.0545 16.0136 14.0576 16.0136 14.0636L15.9818 14.2273C15.9636 14.3333 15.9424 14.45 15.9182 14.5773C15.8939 14.7045 15.8773 14.7864 15.8682 14.8227C15.853 14.8955 15.8136 14.9455 15.75 14.9727C15.7167 14.9909 15.6788 15 15.6364 15C15.5424 14.9909 15.4955 14.9409 15.4955 14.85C15.4955 14.8197 15.5788 14.5424 15.7455 14.0182L15.7227 14.0091C15.7076 14.003 15.6864 13.9955 15.6591 13.9864C15.6318 13.9773 15.5985 13.9636 15.5591 13.9455C15.5197 13.9273 15.4803 13.9061 15.4409 13.8818C15.4015 13.8576 15.3606 13.8303 15.3182 13.8C15.2758 13.7697 15.2364 13.7318 15.2 13.6864C15.1636 13.6409 15.1288 13.5924 15.0955 13.5409C15.0621 13.4894 15.0394 13.4303 15.0273 13.3636C15.0152 13.297 15.0061 13.2242 15 13.1455C15 13 15.0394 12.8167 15.1182 12.5955C15.197 12.3742 15.3076 12.1924 15.45 12.05H15.5091C15.5727 12.05 15.6045 12.0621 15.6045 12.0864C15.6045 12.1045 15.5924 12.1258 15.5682 12.15C15.4439 12.2955 15.3515 12.4606 15.2909 12.6455C15.2303 12.8303 15.197 12.9667 15.1909 13.0545ZM17.3818 12.7455C17.3818 12.6182 17.3455 12.5182 17.2727 12.4455C17.2 12.3727 17.103 12.3348 16.9818 12.3318C16.8333 12.3318 16.6939 12.3924 16.5636 12.5136C16.4333 12.6348 16.3258 12.803 16.2409 13.0182C16.1985 13.1212 16.1561 13.2864 16.1136 13.5136L16.0727 13.7182C16.1273 13.7242 16.1576 13.7273 16.1636 13.7273C16.5182 13.7273 16.8091 13.6227 17.0364 13.4136C17.2636 13.2045 17.3788 12.9818 17.3818 12.7455Z" fill="black"/>
<path d="M51.1117 65.4034V65.1136L52.3901 63.0909H52.6004V63.5398H52.4583L51.4924 65.0682V65.0909H53.214V65.4034H51.1117ZM52.4811 66V65.3153V65.1804V63.0909H52.8163V66H52.4811Z" fill="black"/>
<path d="M48.1909 64.0545C48.1909 64.1576 48.2121 64.25 48.2545 64.3318C48.297 64.4136 48.3515 64.4758 48.4182 64.5182C48.4848 64.5606 48.55 64.5955 48.6136 64.6227C48.6773 64.65 48.7303 64.6697 48.7727 64.6818L48.8409 64.6909L48.85 64.6864L48.9091 64.5C48.9636 64.3242 49.0136 64.1742 49.0591 64.05C49.1045 63.9258 49.1636 63.7924 49.2364 63.65C49.3091 63.5076 49.3818 63.3924 49.4545 63.3045C49.5273 63.2167 49.6167 63.1439 49.7227 63.0864C49.8288 63.0288 49.9394 63 50.0545 63C50.1909 63 50.3121 63.0485 50.4182 63.1455C50.5242 63.2424 50.5788 63.4061 50.5818 63.6364C50.5818 63.8727 50.5167 64.1 50.3864 64.3182C50.2561 64.5364 50.0773 64.7136 49.85 64.85C49.6227 64.9864 49.3833 65.0545 49.1318 65.0545C49.053 65.0545 49.0136 65.0576 49.0136 65.0636L48.9818 65.2273C48.9636 65.3333 48.9424 65.45 48.9182 65.5773C48.8939 65.7045 48.8773 65.7864 48.8682 65.8227C48.853 65.8955 48.8136 65.9455 48.75 65.9727C48.7167 65.9909 48.6788 66 48.6364 66C48.5424 65.9909 48.4955 65.9409 48.4955 65.85C48.4955 65.8197 48.5788 65.5424 48.7455 65.0182L48.7227 65.0091C48.7076 65.003 48.6864 64.9955 48.6591 64.9864C48.6318 64.9773 48.5985 64.9636 48.5591 64.9455C48.5197 64.9273 48.4803 64.9061 48.4409 64.8818C48.4015 64.8576 48.3606 64.8303 48.3182 64.8C48.2758 64.7697 48.2364 64.7318 48.2 64.6864C48.1636 64.6409 48.1288 64.5924 48.0955 64.5409C48.0621 64.4894 48.0394 64.4303 48.0273 64.3636C48.0152 64.297 48.0061 64.2242 48 64.1455C48 64 48.0394 63.8167 48.1182 63.5955C48.197 63.3742 48.3076 63.1924 48.45 63.05H48.5091C48.5727 63.05 48.6045 63.0621 48.6045 63.0864C48.6045 63.1045 48.5924 63.1258 48.5682 63.15C48.4439 63.2955 48.3515 63.4606 48.2909 63.6455C48.2303 63.8303 48.197 63.9667 48.1909 64.0545ZM50.3818 63.7455C50.3818 63.6182 50.3455 63.5182 50.2727 63.4455C50.2 63.3727 50.103 63.3348 49.9818 63.3318C49.8333 63.3318 49.6939 63.3924 49.5636 63.5136C49.4333 63.6348 49.3258 63.803 49.2409 64.0182C49.1985 64.1212 49.1561 64.2864 49.1136 64.5136L49.0727 64.7182C49.1273 64.7242 49.1576 64.7273 49.1636 64.7273C49.5182 64.7273 49.8091 64.6227 50.0364 64.4136C50.2636 64.2045 50.3788 63.9818 50.3818 63.7455Z" fill="black"/>
<path d="M56 21L56 17" stroke="black" stroke-width="0.5"/>
<path d="M56 19L51 19" stroke="black" stroke-width="0.5"/>
<path d="M58 23L58 15" stroke="black" stroke-width="0.5"/>
<path d="M51 19H47" stroke="black" stroke-width="0.5"/>
<path d="M18 60H51" stroke="black" stroke-width="0.5"/>
<path d="M41 13V15M40 14H42" stroke="black" stroke-width="0.5"/>
<path d="M13 52L11 52M12 51L12 53" stroke="black" stroke-width="0.5"/>
<path d="M58 52L56 52M57 51L57 53" stroke="black" stroke-width="0.5"/>
<path d="M43 26L45 26M44 27L44 25" stroke="black" stroke-width="0.5"/>
<path d="M13 35L11 35M12 34L12 36" stroke="black" stroke-width="0.5"/>
<path d="M28 14H30" stroke="black" stroke-width="0.5"/>
<path d="M12 43L12 45" stroke="black" stroke-width="0.5"/>
<path d="M57 43L57 45" stroke="black" stroke-width="0.5"/>
<path d="M44 36L44 34" stroke="black" stroke-width="0.5"/>
<path d="M12 24L12 26" stroke="black" stroke-width="0.5"/>
<path d="M47 34V27" stroke="black" stroke-width="0.5"/>
<path d="M14 27L14 34" stroke="black" stroke-width="0.5"/>
</svg>
